<?xml version="1.0" ?><svg data-name="004" id="_004" viewBox="0 0 128 128" xmlns="http://www.w3.org/2000/svg" xmlns:xlink="http://www.w3.org/1999/xlink"><defs><style>.cls-1{fill:#97c1ff;}.cls-2{fill:none;}.cls-3{opacity:0.3;}.cls-4{clip-path:url(#clip-path);}.cls-5{fill:#6d6daa;}.cls-6{clip-path:url(#clip-path-2);}.cls-7{fill:#d6b5b0;}.cls-8{fill:#cc7e54;}.cls-9{fill:#fff;}.cls-10{fill:#efdcd2;}.cls-11{fill:#ff99b1;}.cls-12{fill:#f9e2dc;}.cls-13{fill:#ff9797;}</style><clipPath id="clip-path"><circle class="cls-1" cx="64.01" cy="68" r="56"/></clipPath><clipPath id="clip-path-2"><path class="cls-2" d="M120.14,67.86a56.14,56.14,0,0,1-112.29,0C7.86,36.85,23,2,64,2,104,2,120.14,36.85,120.14,67.86Z"/></clipPath></defs><title/><g class="cls-3"><circle class="cls-1" cx="64.01" cy="68" r="56"/><g class="cls-4"><path class="cls-5" d="M3,4A2,2,0,1,1,5,2,2,2,0,0,1,3,4ZM3,2H3Z"/><path class="cls-5" d="M11,4a2,2,0,1,1,2-2A2,2,0,0,1,11,4Zm0-2h0Z"/><path class="cls-5" d="M19,4a2,2,0,1,1,2-2A2,2,0,0,1,19,4Zm0-2h0Z"/><path class="cls-5" d="M27,4a2,2,0,1,1,2-2A2,2,0,0,1,27,4Zm0-2h0Z"/><path class="cls-5" d="M35,4a2,2,0,1,1,2-2A2,2,0,0,1,35,4Zm0-2h0Z"/><path class="cls-5" d="M43,4a2,2,0,1,1,2-2A2,2,0,0,1,43,4Zm0-2h0Z"/><path class="cls-5" d="M51,4a2,2,0,1,1,2-2A2,2,0,0,1,51,4Zm0-2h0Z"/><path class="cls-5" d="M59,4a2,2,0,1,1,2-2A2,2,0,0,1,59,4Zm0-2h0Z"/><path class="cls-5" d="M67,4a2,2,0,1,1,2-2A2,2,0,0,1,67,4Zm0-2h0Z"/><path class="cls-5" d="M75,4a2,2,0,1,1,2-2A2,2,0,0,1,75,4Zm0-2h0Z"/><path class="cls-5" d="M83,4a2,2,0,1,1,2-2A2,2,0,0,1,83,4Zm0-2h0Z"/><path class="cls-5" d="M91,4a2,2,0,1,1,2-2A2,2,0,0,1,91,4Zm0-2h0Z"/><path class="cls-5" d="M99,4a2,2,0,1,1,2-2A2,2,0,0,1,99,4Zm0-2h0Z"/><path class="cls-5" d="M107,4a2,2,0,1,1,2-2A2,2,0,0,1,107,4Zm0-2h0Z"/><path class="cls-5" d="M115,4a2,2,0,1,1,2-2A2,2,0,0,1,115,4Zm0-2h0Z"/><path class="cls-5" d="M123,4a2,2,0,1,1,2-2A2,2,0,0,1,123,4Zm0-2h0Z"/><path class="cls-5" d="M7,10A2,2,0,1,1,9,8,2,2,0,0,1,7,10ZM7,8H7Z"/><path class="cls-5" d="M15,10a2,2,0,1,1,2-2A2,2,0,0,1,15,10Zm0-2h0Z"/><path class="cls-5" d="M23,10a2,2,0,1,1,2-2A2,2,0,0,1,23,10Zm0-2h0Z"/><path class="cls-5" d="M31,10a2,2,0,1,1,2-2A2,2,0,0,1,31,10Zm0-2h0Z"/><path class="cls-5" d="M39,10a2,2,0,1,1,2-2A2,2,0,0,1,39,10Zm0-2h0Z"/><path class="cls-5" d="M47,10a2,2,0,1,1,2-2A2,2,0,0,1,47,10Zm0-2h0Z"/><path class="cls-5" d="M55,10a2,2,0,1,1,2-2A2,2,0,0,1,55,10Zm0-2h0Z"/><path class="cls-5" d="M63,10a2,2,0,1,1,2-2A2,2,0,0,1,63,10Zm0-2h0Z"/><path class="cls-5" d="M71,10a2,2,0,1,1,2-2A2,2,0,0,1,71,10Zm0-2h0Z"/><path class="cls-5" d="M79,10a2,2,0,1,1,2-2A2,2,0,0,1,79,10Zm0-2h0Z"/><path class="cls-5" d="M87,10a2,2,0,1,1,2-2A2,2,0,0,1,87,10Zm0-2h0Z"/><path class="cls-5" d="M95,10a2,2,0,1,1,2-2A2,2,0,0,1,95,10Zm0-2h0Z"/><path class="cls-5" d="M103,10a2,2,0,1,1,2-2A2,2,0,0,1,103,10Zm0-2h0Z"/><path class="cls-5" d="M111,10a2,2,0,1,1,2-2A2,2,0,0,1,111,10Zm0-2h0Z"/><path class="cls-5" d="M119,10a2,2,0,1,1,2-2A2,2,0,0,1,119,10Zm0-2h0Z"/><path class="cls-5" d="M127,10a2,2,0,1,1,2-2A2,2,0,0,1,127,10Zm0-2h0Z"/><path class="cls-5" d="M3,16a2,2,0,1,1,2-2A2,2,0,0,1,3,16Zm0-2H3Z"/><path class="cls-5" d="M11,16a2,2,0,1,1,2-2A2,2,0,0,1,11,16Zm0-2h0Z"/><path class="cls-5" d="M19,16a2,2,0,1,1,2-2A2,2,0,0,1,19,16Zm0-2h0Z"/><path class="cls-5" d="M27,16a2,2,0,1,1,2-2A2,2,0,0,1,27,16Zm0-2h0Z"/><path class="cls-5" d="M35,16a2,2,0,1,1,2-2A2,2,0,0,1,35,16Zm0-2h0Z"/><path class="cls-5" d="M43,16a2,2,0,1,1,2-2A2,2,0,0,1,43,16Zm0-2h0Z"/><path class="cls-5" d="M51,16a2,2,0,1,1,2-2A2,2,0,0,1,51,16Zm0-2h0Z"/><path class="cls-5" d="M59,16a2,2,0,1,1,2-2A2,2,0,0,1,59,16Zm0-2h0Z"/><path class="cls-5" d="M67,16a2,2,0,1,1,2-2A2,2,0,0,1,67,16Zm0-2h0Z"/><path class="cls-5" d="M75,16a2,2,0,1,1,2-2A2,2,0,0,1,75,16Zm0-2h0Z"/><path class="cls-5" d="M83,16a2,2,0,1,1,2-2A2,2,0,0,1,83,16Zm0-2h0Z"/><path class="cls-5" d="M91,16a2,2,0,1,1,2-2A2,2,0,0,1,91,16Zm0-2h0Z"/><path class="cls-5" d="M99,16a2,2,0,1,1,2-2A2,2,0,0,1,99,16Zm0-2h0Z"/><path class="cls-5" d="M107,16a2,2,0,1,1,2-2A2,2,0,0,1,107,16Zm0-2h0Z"/><path class="cls-5" d="M115,16a2,2,0,1,1,2-2A2,2,0,0,1,115,16Zm0-2h0Z"/><path class="cls-5" d="M123,16a2,2,0,1,1,2-2A2,2,0,0,1,123,16Zm0-2h0Z"/><path class="cls-5" d="M7,22a2,2,0,1,1,2-2A2,2,0,0,1,7,22Zm0-2H7Z"/><path class="cls-5" d="M15,22a2,2,0,1,1,2-2A2,2,0,0,1,15,22Zm0-2h0Z"/><path class="cls-5" d="M23,22a2,2,0,1,1,2-2A2,2,0,0,1,23,22Zm0-2h0Z"/><path class="cls-5" d="M31,22a2,2,0,1,1,2-2A2,2,0,0,1,31,22Zm0-2h0Z"/><path class="cls-5" d="M39,22a2,2,0,1,1,2-2A2,2,0,0,1,39,22Zm0-2h0Z"/><path class="cls-5" d="M47,22a2,2,0,1,1,2-2A2,2,0,0,1,47,22Zm0-2h0Z"/><path class="cls-5" d="M55,22a2,2,0,1,1,2-2A2,2,0,0,1,55,22Zm0-2h0Z"/><path class="cls-5" d="M63,22a2,2,0,1,1,2-2A2,2,0,0,1,63,22Zm0-2h0Z"/><path class="cls-5" d="M71,22a2,2,0,1,1,2-2A2,2,0,0,1,71,22Zm0-2h0Z"/><path class="cls-5" d="M79,22a2,2,0,1,1,2-2A2,2,0,0,1,79,22Zm0-2h0Z"/><path class="cls-5" d="M87,22a2,2,0,1,1,2-2A2,2,0,0,1,87,22Zm0-2h0Z"/><path class="cls-5" d="M95,22a2,2,0,1,1,2-2A2,2,0,0,1,95,22Zm0-2h0Z"/><path class="cls-5" d="M103,22a2,2,0,1,1,2-2A2,2,0,0,1,103,22Zm0-2h0Z"/><path class="cls-5" d="M111,22a2,2,0,1,1,2-2A2,2,0,0,1,111,22Zm0-2h0Z"/><path class="cls-5" d="M119,22a2,2,0,1,1,2-2A2,2,0,0,1,119,22Zm0-2h0Z"/><path class="cls-5" d="M127,22a2,2,0,1,1,2-2A2,2,0,0,1,127,22Zm0-2h0Z"/><path class="cls-5" d="M3,28a2,2,0,1,1,2-2A2,2,0,0,1,3,28Zm0-2H3Z"/><path class="cls-5" d="M11,28a2,2,0,1,1,2-2A2,2,0,0,1,11,28Zm0-2h0Z"/><path class="cls-5" d="M19,28a2,2,0,1,1,2-2A2,2,0,0,1,19,28Zm0-2h0Z"/><path class="cls-5" d="M27,28a2,2,0,1,1,2-2A2,2,0,0,1,27,28Zm0-2h0Z"/><path class="cls-5" d="M35,28a2,2,0,1,1,2-2A2,2,0,0,1,35,28Zm0-2h0Z"/><path class="cls-5" d="M43,28a2,2,0,1,1,2-2A2,2,0,0,1,43,28Zm0-2h0Z"/><path class="cls-5" d="M51,28a2,2,0,1,1,2-2A2,2,0,0,1,51,28Zm0-2h0Z"/><path class="cls-5" d="M59,28a2,2,0,1,1,2-2A2,2,0,0,1,59,28Zm0-2h0Z"/><path class="cls-5" d="M67,28a2,2,0,1,1,2-2A2,2,0,0,1,67,28Zm0-2h0Z"/><path class="cls-5" d="M75,28a2,2,0,1,1,2-2A2,2,0,0,1,75,28Zm0-2h0Z"/><path class="cls-5" d="M83,28a2,2,0,1,1,2-2A2,2,0,0,1,83,28Zm0-2h0Z"/><path class="cls-5" d="M91,28a2,2,0,1,1,2-2A2,2,0,0,1,91,28Zm0-2h0Z"/><path class="cls-5" d="M99,28a2,2,0,1,1,2-2A2,2,0,0,1,99,28Zm0-2h0Z"/><path class="cls-5" d="M107,28a2,2,0,1,1,2-2A2,2,0,0,1,107,28Zm0-2h0Z"/><path class="cls-5" d="M115,28a2,2,0,1,1,2-2A2,2,0,0,1,115,28Zm0-2h0Z"/><path class="cls-5" d="M123,28a2,2,0,1,1,2-2A2,2,0,0,1,123,28Zm0-2h0Z"/><path class="cls-5" d="M7,34a2,2,0,1,1,2-2A2,2,0,0,1,7,34Zm0-2H7Z"/><path class="cls-5" d="M15,34a2,2,0,1,1,2-2A2,2,0,0,1,15,34Zm0-2h0Z"/><path class="cls-5" d="M23,34a2,2,0,1,1,2-2A2,2,0,0,1,23,34Zm0-2h0Z"/><path class="cls-5" d="M31,34a2,2,0,1,1,2-2A2,2,0,0,1,31,34Zm0-2h0Z"/><path class="cls-5" d="M39,34a2,2,0,1,1,2-2A2,2,0,0,1,39,34Zm0-2h0Z"/><path class="cls-5" d="M47,34a2,2,0,1,1,2-2A2,2,0,0,1,47,34Zm0-2h0Z"/><path class="cls-5" d="M55,34a2,2,0,1,1,2-2A2,2,0,0,1,55,34Zm0-2h0Z"/><path class="cls-5" d="M63,34a2,2,0,1,1,2-2A2,2,0,0,1,63,34Zm0-2h0Z"/><path class="cls-5" d="M71,34a2,2,0,1,1,2-2A2,2,0,0,1,71,34Zm0-2h0Z"/><path class="cls-5" d="M79,34a2,2,0,1,1,2-2A2,2,0,0,1,79,34Zm0-2h0Z"/><path class="cls-5" d="M87,34a2,2,0,1,1,2-2A2,2,0,0,1,87,34Zm0-2h0Z"/><path class="cls-5" d="M95,34a2,2,0,1,1,2-2A2,2,0,0,1,95,34Zm0-2h0Z"/><path class="cls-5" d="M103,34a2,2,0,1,1,2-2A2,2,0,0,1,103,34Zm0-2h0Z"/><path class="cls-5" d="M111,34a2,2,0,1,1,2-2A2,2,0,0,1,111,34Zm0-2h0Z"/><path class="cls-5" d="M119,34a2,2,0,1,1,2-2A2,2,0,0,1,119,34Zm0-2h0Z"/><path class="cls-5" d="M127,34a2,2,0,1,1,2-2A2,2,0,0,1,127,34Zm0-2h0Z"/><path class="cls-5" d="M3,40a2,2,0,1,1,2-2A2,2,0,0,1,3,40Zm0-2H3Z"/><path class="cls-5" d="M11,40a2,2,0,1,1,2-2A2,2,0,0,1,11,40Zm0-2h0Z"/><path class="cls-5" d="M19,40a2,2,0,1,1,2-2A2,2,0,0,1,19,40Zm0-2h0Z"/><path class="cls-5" d="M27,40a2,2,0,1,1,2-2A2,2,0,0,1,27,40Zm0-2h0Z"/><path class="cls-5" d="M35,40a2,2,0,1,1,2-2A2,2,0,0,1,35,40Zm0-2h0Z"/><path class="cls-5" d="M43,40a2,2,0,1,1,2-2A2,2,0,0,1,43,40Zm0-2h0Z"/><path class="cls-5" d="M51,40a2,2,0,1,1,2-2A2,2,0,0,1,51,40Zm0-2h0Z"/><path class="cls-5" d="M59,40a2,2,0,1,1,2-2A2,2,0,0,1,59,40Zm0-2h0Z"/><path class="cls-5" d="M67,40a2,2,0,1,1,2-2A2,2,0,0,1,67,40Zm0-2h0Z"/><path class="cls-5" d="M75,40a2,2,0,1,1,2-2A2,2,0,0,1,75,40Zm0-2h0Z"/><path class="cls-5" d="M83,40a2,2,0,1,1,2-2A2,2,0,0,1,83,40Zm0-2h0Z"/><path class="cls-5" d="M91,40a2,2,0,1,1,2-2A2,2,0,0,1,91,40Zm0-2h0Z"/><path class="cls-5" d="M99,40a2,2,0,1,1,2-2A2,2,0,0,1,99,40Zm0-2h0Z"/><path class="cls-5" d="M107,40a2,2,0,1,1,2-2A2,2,0,0,1,107,40Zm0-2h0Z"/><path class="cls-5" d="M115,40a2,2,0,1,1,2-2A2,2,0,0,1,115,40Zm0-2h0Z"/><path class="cls-5" d="M123,40a2,2,0,1,1,2-2A2,2,0,0,1,123,40Zm0-2h0Z"/><path class="cls-5" d="M7,46a2,2,0,1,1,2-2A2,2,0,0,1,7,46Zm0-2H7Z"/><path class="cls-5" d="M15,46a2,2,0,1,1,2-2A2,2,0,0,1,15,46Zm0-2h0Z"/><path class="cls-5" d="M23,46a2,2,0,1,1,2-2A2,2,0,0,1,23,46Zm0-2h0Z"/><path class="cls-5" d="M31,46a2,2,0,1,1,2-2A2,2,0,0,1,31,46Zm0-2h0Z"/><path class="cls-5" d="M39,46a2,2,0,1,1,2-2A2,2,0,0,1,39,46Zm0-2h0Z"/><path class="cls-5" d="M47,46a2,2,0,1,1,2-2A2,2,0,0,1,47,46Zm0-2h0Z"/><path class="cls-5" d="M55,46a2,2,0,1,1,2-2A2,2,0,0,1,55,46Zm0-2h0Z"/><path class="cls-5" d="M63,46a2,2,0,1,1,2-2A2,2,0,0,1,63,46Zm0-2h0Z"/><path class="cls-5" d="M71,46a2,2,0,1,1,2-2A2,2,0,0,1,71,46Zm0-2h0Z"/><path class="cls-5" d="M79,46a2,2,0,1,1,2-2A2,2,0,0,1,79,46Zm0-2h0Z"/><path class="cls-5" d="M87,46a2,2,0,1,1,2-2A2,2,0,0,1,87,46Zm0-2h0Z"/><path class="cls-5" d="M95,46a2,2,0,1,1,2-2A2,2,0,0,1,95,46Zm0-2h0Z"/><path class="cls-5" d="M103,46a2,2,0,1,1,2-2A2,2,0,0,1,103,46Zm0-2h0Z"/><path class="cls-5" d="M111,46a2,2,0,1,1,2-2A2,2,0,0,1,111,46Zm0-2h0Z"/><path class="cls-5" d="M119,46a2,2,0,1,1,2-2A2,2,0,0,1,119,46Zm0-2h0Z"/><path class="cls-5" d="M127,46a2,2,0,1,1,2-2A2,2,0,0,1,127,46Zm0-2h0Z"/><path class="cls-5" d="M3,52a2,2,0,1,1,2-2A2,2,0,0,1,3,52Zm0-2H3Z"/><path class="cls-5" d="M11,52a2,2,0,1,1,2-2A2,2,0,0,1,11,52Zm0-2h0Z"/><path class="cls-5" d="M19,52a2,2,0,1,1,2-2A2,2,0,0,1,19,52Zm0-2h0Z"/><path class="cls-5" d="M27,52a2,2,0,1,1,2-2A2,2,0,0,1,27,52Zm0-2h0Z"/><path class="cls-5" d="M35,52a2,2,0,1,1,2-2A2,2,0,0,1,35,52Zm0-2h0Z"/><path class="cls-5" d="M43,52a2,2,0,1,1,2-2A2,2,0,0,1,43,52Zm0-2h0Z"/><path class="cls-5" d="M51,52a2,2,0,1,1,2-2A2,2,0,0,1,51,52Zm0-2h0Z"/><path class="cls-5" d="M59,52a2,2,0,1,1,2-2A2,2,0,0,1,59,52Zm0-2h0Z"/><path class="cls-5" d="M67,52a2,2,0,1,1,2-2A2,2,0,0,1,67,52Zm0-2h0Z"/><path class="cls-5" d="M75,52a2,2,0,1,1,2-2A2,2,0,0,1,75,52Zm0-2h0Z"/><path class="cls-5" d="M83,52a2,2,0,1,1,2-2A2,2,0,0,1,83,52Zm0-2h0Z"/><path class="cls-5" d="M91,52a2,2,0,1,1,2-2A2,2,0,0,1,91,52Zm0-2h0Z"/><path class="cls-5" d="M99,52a2,2,0,1,1,2-2A2,2,0,0,1,99,52Zm0-2h0Z"/><path class="cls-5" d="M107,52a2,2,0,1,1,2-2A2,2,0,0,1,107,52Zm0-2h0Z"/><path class="cls-5" d="M115,52a2,2,0,1,1,2-2A2,2,0,0,1,115,52Zm0-2h0Z"/><path class="cls-5" d="M123,52a2,2,0,1,1,2-2A2,2,0,0,1,123,52Zm0-2h0Z"/><path class="cls-5" d="M7,58a2,2,0,1,1,2-2A2,2,0,0,1,7,58Zm0-2H7Z"/><path class="cls-5" d="M15,58a2,2,0,1,1,2-2A2,2,0,0,1,15,58Zm0-2h0Z"/><path class="cls-5" d="M23,58a2,2,0,1,1,2-2A2,2,0,0,1,23,58Zm0-2h0Z"/><path class="cls-5" d="M31,58a2,2,0,1,1,2-2A2,2,0,0,1,31,58Zm0-2h0Z"/><path class="cls-5" d="M39,58a2,2,0,1,1,2-2A2,2,0,0,1,39,58Zm0-2h0Z"/><path class="cls-5" d="M47,58a2,2,0,1,1,2-2A2,2,0,0,1,47,58Zm0-2h0Z"/><path class="cls-5" d="M55,58a2,2,0,1,1,2-2A2,2,0,0,1,55,58Zm0-2h0Z"/><path class="cls-5" d="M63,58a2,2,0,1,1,2-2A2,2,0,0,1,63,58Zm0-2h0Z"/><path class="cls-5" d="M71,58a2,2,0,1,1,2-2A2,2,0,0,1,71,58Zm0-2h0Z"/><path class="cls-5" d="M79,58a2,2,0,1,1,2-2A2,2,0,0,1,79,58Zm0-2h0Z"/><path class="cls-5" d="M87,58a2,2,0,1,1,2-2A2,2,0,0,1,87,58Zm0-2h0Z"/><path class="cls-5" d="M95,58a2,2,0,1,1,2-2A2,2,0,0,1,95,58Zm0-2h0Z"/><path class="cls-5" d="M103,58a2,2,0,1,1,2-2A2,2,0,0,1,103,58Zm0-2h0Z"/><path class="cls-5" d="M111,58a2,2,0,1,1,2-2A2,2,0,0,1,111,58Zm0-2h0Z"/><path class="cls-5" d="M119,58a2,2,0,1,1,2-2A2,2,0,0,1,119,58Zm0-2h0Z"/><path class="cls-5" d="M127,58a2,2,0,1,1,2-2A2,2,0,0,1,127,58Zm0-2h0Z"/><path class="cls-5" d="M3,64a2,2,0,1,1,2-2A2,2,0,0,1,3,64Zm0-2H3Z"/><path class="cls-5" d="M11,64a2,2,0,1,1,2-2A2,2,0,0,1,11,64Zm0-2h0Z"/><path class="cls-5" d="M19,64a2,2,0,1,1,2-2A2,2,0,0,1,19,64Zm0-2h0Z"/><path class="cls-5" d="M27,64a2,2,0,1,1,2-2A2,2,0,0,1,27,64Zm0-2h0Z"/><path class="cls-5" d="M35,64a2,2,0,1,1,2-2A2,2,0,0,1,35,64Zm0-2h0Z"/><path class="cls-5" d="M43,64a2,2,0,1,1,2-2A2,2,0,0,1,43,64Zm0-2h0Z"/><path class="cls-5" d="M51,64a2,2,0,1,1,2-2A2,2,0,0,1,51,64Zm0-2h0Z"/><path class="cls-5" d="M59,64a2,2,0,1,1,2-2A2,2,0,0,1,59,64Zm0-2h0Z"/><path class="cls-5" d="M67,64a2,2,0,1,1,2-2A2,2,0,0,1,67,64Zm0-2h0Z"/><path class="cls-5" d="M75,64a2,2,0,1,1,2-2A2,2,0,0,1,75,64Zm0-2h0Z"/><path class="cls-5" d="M83,64a2,2,0,1,1,2-2A2,2,0,0,1,83,64Zm0-2h0Z"/><path class="cls-5" d="M91,64a2,2,0,1,1,2-2A2,2,0,0,1,91,64Zm0-2h0Z"/><path class="cls-5" d="M99,64a2,2,0,1,1,2-2A2,2,0,0,1,99,64Zm0-2h0Z"/><path class="cls-5" d="M107,64a2,2,0,1,1,2-2A2,2,0,0,1,107,64Zm0-2h0Z"/><path class="cls-5" d="M115,64a2,2,0,1,1,2-2A2,2,0,0,1,115,64Zm0-2h0Z"/><path class="cls-5" d="M123,64a2,2,0,1,1,2-2A2,2,0,0,1,123,64Zm0-2h0Z"/><path class="cls-5" d="M7,70a2,2,0,1,1,2-2A2,2,0,0,1,7,70Zm0-2H7Z"/><path class="cls-5" d="M15,70a2,2,0,1,1,2-2A2,2,0,0,1,15,70Zm0-2h0Z"/><path class="cls-5" d="M23,70a2,2,0,1,1,2-2A2,2,0,0,1,23,70Zm0-2h0Z"/><path class="cls-5" d="M31,70a2,2,0,1,1,2-2A2,2,0,0,1,31,70Zm0-2h0Z"/><path class="cls-5" d="M39,70a2,2,0,1,1,2-2A2,2,0,0,1,39,70Zm0-2h0Z"/><path class="cls-5" d="M47,70a2,2,0,1,1,2-2A2,2,0,0,1,47,70Zm0-2h0Z"/><path class="cls-5" d="M55,70a2,2,0,1,1,2-2A2,2,0,0,1,55,70Zm0-2h0Z"/><path class="cls-5" d="M63,70a2,2,0,1,1,2-2A2,2,0,0,1,63,70Zm0-2h0Z"/><path class="cls-5" d="M71,70a2,2,0,1,1,2-2A2,2,0,0,1,71,70Zm0-2h0Z"/><path class="cls-5" d="M79,70a2,2,0,1,1,2-2A2,2,0,0,1,79,70Zm0-2h0Z"/><path class="cls-5" d="M87,70a2,2,0,1,1,2-2A2,2,0,0,1,87,70Zm0-2h0Z"/><path class="cls-5" d="M95,70a2,2,0,1,1,2-2A2,2,0,0,1,95,70Zm0-2h0Z"/><path class="cls-5" d="M103,70a2,2,0,1,1,2-2A2,2,0,0,1,103,70Zm0-2h0Z"/><path class="cls-5" d="M111,70a2,2,0,1,1,2-2A2,2,0,0,1,111,70Zm0-2h0Z"/><path class="cls-5" d="M119,70a2,2,0,1,1,2-2A2,2,0,0,1,119,70Zm0-2h0Z"/><path class="cls-5" d="M127,70a2,2,0,1,1,2-2A2,2,0,0,1,127,70Zm0-2h0Z"/><path class="cls-5" d="M3,76a2,2,0,1,1,2-2A2,2,0,0,1,3,76Zm0-2H3Z"/><path class="cls-5" d="M11,76a2,2,0,1,1,2-2A2,2,0,0,1,11,76Zm0-2h0Z"/><path class="cls-5" d="M19,76a2,2,0,1,1,2-2A2,2,0,0,1,19,76Zm0-2h0Z"/><path class="cls-5" d="M27,76a2,2,0,1,1,2-2A2,2,0,0,1,27,76Zm0-2h0Z"/><path class="cls-5" d="M35,76a2,2,0,1,1,2-2A2,2,0,0,1,35,76Zm0-2h0Z"/><path class="cls-5" d="M43,76a2,2,0,1,1,2-2A2,2,0,0,1,43,76Zm0-2h0Z"/><path class="cls-5" d="M51,76a2,2,0,1,1,2-2A2,2,0,0,1,51,76Zm0-2h0Z"/><path class="cls-5" d="M59,76a2,2,0,1,1,2-2A2,2,0,0,1,59,76Zm0-2h0Z"/><path class="cls-5" d="M67,76a2,2,0,1,1,2-2A2,2,0,0,1,67,76Zm0-2h0Z"/><path class="cls-5" d="M75,76a2,2,0,1,1,2-2A2,2,0,0,1,75,76Zm0-2h0Z"/><path class="cls-5" d="M83,76a2,2,0,1,1,2-2A2,2,0,0,1,83,76Zm0-2h0Z"/><path class="cls-5" d="M91,76a2,2,0,1,1,2-2A2,2,0,0,1,91,76Zm0-2h0Z"/><path class="cls-5" d="M99,76a2,2,0,1,1,2-2A2,2,0,0,1,99,76Zm0-2h0Z"/><path class="cls-5" d="M107,76a2,2,0,1,1,2-2A2,2,0,0,1,107,76Zm0-2h0Z"/><path class="cls-5" d="M115,76a2,2,0,1,1,2-2A2,2,0,0,1,115,76Zm0-2h0Z"/><path class="cls-5" d="M123,76a2,2,0,1,1,2-2A2,2,0,0,1,123,76Zm0-2h0Z"/><path class="cls-5" d="M7,82a2,2,0,1,1,2-2A2,2,0,0,1,7,82Zm0-2H7Z"/><path class="cls-5" d="M15,82a2,2,0,1,1,2-2A2,2,0,0,1,15,82Zm0-2h0Z"/><path class="cls-5" d="M23,82a2,2,0,1,1,2-2A2,2,0,0,1,23,82Zm0-2h0Z"/><path class="cls-5" d="M31,82a2,2,0,1,1,2-2A2,2,0,0,1,31,82Zm0-2h0Z"/><path class="cls-5" d="M39,82a2,2,0,1,1,2-2A2,2,0,0,1,39,82Zm0-2h0Z"/><path class="cls-5" d="M47,82a2,2,0,1,1,2-2A2,2,0,0,1,47,82Zm0-2h0Z"/><path class="cls-5" d="M55,82a2,2,0,1,1,2-2A2,2,0,0,1,55,82Zm0-2h0Z"/><path class="cls-5" d="M63,82a2,2,0,1,1,2-2A2,2,0,0,1,63,82Zm0-2h0Z"/><path class="cls-5" d="M71,82a2,2,0,1,1,2-2A2,2,0,0,1,71,82Zm0-2h0Z"/><path class="cls-5" d="M79,82a2,2,0,1,1,2-2A2,2,0,0,1,79,82Zm0-2h0Z"/><path class="cls-5" d="M87,82a2,2,0,1,1,2-2A2,2,0,0,1,87,82Zm0-2h0Z"/><path class="cls-5" d="M95,82a2,2,0,1,1,2-2A2,2,0,0,1,95,82Zm0-2h0Z"/><path class="cls-5" d="M103,82a2,2,0,1,1,2-2A2,2,0,0,1,103,82Zm0-2h0Z"/><path class="cls-5" d="M111,82a2,2,0,1,1,2-2A2,2,0,0,1,111,82Zm0-2h0Z"/><path class="cls-5" d="M119,82a2,2,0,1,1,2-2A2,2,0,0,1,119,82Zm0-2h0Z"/><path class="cls-5" d="M127,82a2,2,0,1,1,2-2A2,2,0,0,1,127,82Zm0-2h0Z"/><path class="cls-5" d="M3,88a2,2,0,1,1,2-2A2,2,0,0,1,3,88Zm0-2H3Z"/><path class="cls-5" d="M11,88a2,2,0,1,1,2-2A2,2,0,0,1,11,88Zm0-2h0Z"/><path class="cls-5" d="M19,88a2,2,0,1,1,2-2A2,2,0,0,1,19,88Zm0-2h0Z"/><path class="cls-5" d="M27,88a2,2,0,1,1,2-2A2,2,0,0,1,27,88Zm0-2h0Z"/><path class="cls-5" d="M35,88a2,2,0,1,1,2-2A2,2,0,0,1,35,88Zm0-2h0Z"/><path class="cls-5" d="M43,88a2,2,0,1,1,2-2A2,2,0,0,1,43,88Zm0-2h0Z"/><path class="cls-5" d="M51,88a2,2,0,1,1,2-2A2,2,0,0,1,51,88Zm0-2h0Z"/><path class="cls-5" d="M59,88a2,2,0,1,1,2-2A2,2,0,0,1,59,88Zm0-2h0Z"/><path class="cls-5" d="M67,88a2,2,0,1,1,2-2A2,2,0,0,1,67,88Zm0-2h0Z"/><path class="cls-5" d="M75,88a2,2,0,1,1,2-2A2,2,0,0,1,75,88Zm0-2h0Z"/><path class="cls-5" d="M83,88a2,2,0,1,1,2-2A2,2,0,0,1,83,88Zm0-2h0Z"/><path class="cls-5" d="M91,88a2,2,0,1,1,2-2A2,2,0,0,1,91,88Zm0-2h0Z"/><path class="cls-5" d="M99,88a2,2,0,1,1,2-2A2,2,0,0,1,99,88Zm0-2h0Z"/><path class="cls-5" d="M107,88a2,2,0,1,1,2-2A2,2,0,0,1,107,88Zm0-2h0Z"/><path class="cls-5" d="M115,88a2,2,0,1,1,2-2A2,2,0,0,1,115,88Zm0-2h0Z"/><path class="cls-5" d="M123,88a2,2,0,1,1,2-2A2,2,0,0,1,123,88Zm0-2h0Z"/><path class="cls-5" d="M7,94a2,2,0,1,1,2-2A2,2,0,0,1,7,94Zm0-2H7Z"/><path class="cls-5" d="M15,94a2,2,0,1,1,2-2A2,2,0,0,1,15,94Zm0-2h0Z"/><path class="cls-5" d="M23,94a2,2,0,1,1,2-2A2,2,0,0,1,23,94Zm0-2h0Z"/><path class="cls-5" d="M31,94a2,2,0,1,1,2-2A2,2,0,0,1,31,94Zm0-2h0Z"/><path class="cls-5" d="M39,94a2,2,0,1,1,2-2A2,2,0,0,1,39,94Zm0-2h0Z"/><path class="cls-5" d="M47,94a2,2,0,1,1,2-2A2,2,0,0,1,47,94Zm0-2h0Z"/><path class="cls-5" d="M55,94a2,2,0,1,1,2-2A2,2,0,0,1,55,94Zm0-2h0Z"/><path class="cls-5" d="M63,94a2,2,0,1,1,2-2A2,2,0,0,1,63,94Zm0-2h0Z"/><path class="cls-5" d="M71,94a2,2,0,1,1,2-2A2,2,0,0,1,71,94Zm0-2h0Z"/><path class="cls-5" d="M79,94a2,2,0,1,1,2-2A2,2,0,0,1,79,94Zm0-2h0Z"/><path class="cls-5" d="M87,94a2,2,0,1,1,2-2A2,2,0,0,1,87,94Zm0-2h0Z"/><path class="cls-5" d="M95,94a2,2,0,1,1,2-2A2,2,0,0,1,95,94Zm0-2h0Z"/><path class="cls-5" d="M103,94a2,2,0,1,1,2-2A2,2,0,0,1,103,94Zm0-2h0Z"/><path class="cls-5" d="M111,94a2,2,0,1,1,2-2A2,2,0,0,1,111,94Zm0-2h0Z"/><path class="cls-5" d="M119,94a2,2,0,1,1,2-2A2,2,0,0,1,119,94Zm0-2h0Z"/><path class="cls-5" d="M127,94a2,2,0,1,1,2-2A2,2,0,0,1,127,94Zm0-2h0Z"/><path class="cls-5" d="M3,100a2,2,0,1,1,2-2A2,2,0,0,1,3,100Zm0-2H3Z"/><path class="cls-5" d="M11,100a2,2,0,1,1,2-2A2,2,0,0,1,11,100Zm0-2h0Z"/><path class="cls-5" d="M19,100a2,2,0,1,1,2-2A2,2,0,0,1,19,100Zm0-2h0Z"/><path class="cls-5" d="M27,100a2,2,0,1,1,2-2A2,2,0,0,1,27,100Zm0-2h0Z"/><path class="cls-5" d="M35,100a2,2,0,1,1,2-2A2,2,0,0,1,35,100Zm0-2h0Z"/><path class="cls-5" d="M43,100a2,2,0,1,1,2-2A2,2,0,0,1,43,100Zm0-2h0Z"/><path class="cls-5" d="M51,100a2,2,0,1,1,2-2A2,2,0,0,1,51,100Zm0-2h0Z"/><path class="cls-5" d="M59,100a2,2,0,1,1,2-2A2,2,0,0,1,59,100Zm0-2h0Z"/><path class="cls-5" d="M67,100a2,2,0,1,1,2-2A2,2,0,0,1,67,100Zm0-2h0Z"/><path class="cls-5" d="M75,100a2,2,0,1,1,2-2A2,2,0,0,1,75,100Zm0-2h0Z"/><path class="cls-5" d="M83,100a2,2,0,1,1,2-2A2,2,0,0,1,83,100Zm0-2h0Z"/><path class="cls-5" d="M91,100a2,2,0,1,1,2-2A2,2,0,0,1,91,100Zm0-2h0Z"/><path class="cls-5" d="M99,100a2,2,0,1,1,2-2A2,2,0,0,1,99,100Zm0-2h0Z"/><path class="cls-5" d="M107,100a2,2,0,1,1,2-2A2,2,0,0,1,107,100Zm0-2h0Z"/><path class="cls-5" d="M115,100a2,2,0,1,1,2-2A2,2,0,0,1,115,100Zm0-2h0Z"/><path class="cls-5" d="M123,100a2,2,0,1,1,2-2A2,2,0,0,1,123,100Zm0-2h0Z"/><path class="cls-5" d="M7,106a2,2,0,1,1,2-2A2,2,0,0,1,7,106Zm0-2H7Z"/><path class="cls-5" d="M15,106a2,2,0,1,1,2-2A2,2,0,0,1,15,106Zm0-2h0Z"/><path class="cls-5" d="M23,106a2,2,0,1,1,2-2A2,2,0,0,1,23,106Zm0-2h0Z"/><path class="cls-5" d="M31,106a2,2,0,1,1,2-2A2,2,0,0,1,31,106Zm0-2h0Z"/><path class="cls-5" d="M39,106a2,2,0,1,1,2-2A2,2,0,0,1,39,106Zm0-2h0Z"/><path class="cls-5" d="M47,106a2,2,0,1,1,2-2A2,2,0,0,1,47,106Zm0-2h0Z"/><path class="cls-5" d="M55,106a2,2,0,1,1,2-2A2,2,0,0,1,55,106Zm0-2h0Z"/><path class="cls-5" d="M63,106a2,2,0,1,1,2-2A2,2,0,0,1,63,106Zm0-2h0Z"/><path class="cls-5" d="M71,106a2,2,0,1,1,2-2A2,2,0,0,1,71,106Zm0-2h0Z"/><path class="cls-5" d="M79,106a2,2,0,1,1,2-2A2,2,0,0,1,79,106Zm0-2h0Z"/><path class="cls-5" d="M87,106a2,2,0,1,1,2-2A2,2,0,0,1,87,106Zm0-2h0Z"/><path class="cls-5" d="M95,106a2,2,0,1,1,2-2A2,2,0,0,1,95,106Zm0-2h0Z"/><path class="cls-5" d="M103,106a2,2,0,1,1,2-2A2,2,0,0,1,103,106Zm0-2h0Z"/><path class="cls-5" d="M111,106a2,2,0,1,1,2-2A2,2,0,0,1,111,106Zm0-2h0Z"/><path class="cls-5" d="M119,106a2,2,0,1,1,2-2A2,2,0,0,1,119,106Zm0-2h0Z"/><path class="cls-5" d="M127,106a2,2,0,1,1,2-2A2,2,0,0,1,127,106Zm0-2h0Z"/><path class="cls-5" d="M3,112a2,2,0,1,1,2-2A2,2,0,0,1,3,112Zm0-2H3Z"/><path class="cls-5" d="M11,112a2,2,0,1,1,2-2A2,2,0,0,1,11,112Zm0-2h0Z"/><path class="cls-5" d="M19,112a2,2,0,1,1,2-2A2,2,0,0,1,19,112Zm0-2h0Z"/><path class="cls-5" d="M27,112a2,2,0,1,1,2-2A2,2,0,0,1,27,112Zm0-2h0Z"/><path class="cls-5" d="M35,112a2,2,0,1,1,2-2A2,2,0,0,1,35,112Zm0-2h0Z"/><path class="cls-5" d="M43,112a2,2,0,1,1,2-2A2,2,0,0,1,43,112Zm0-2h0Z"/><path class="cls-5" d="M51,112a2,2,0,1,1,2-2A2,2,0,0,1,51,112Zm0-2h0Z"/><path class="cls-5" d="M59,112a2,2,0,1,1,2-2A2,2,0,0,1,59,112Zm0-2h0Z"/><path class="cls-5" d="M67,112a2,2,0,1,1,2-2A2,2,0,0,1,67,112Zm0-2h0Z"/><path class="cls-5" d="M75,112a2,2,0,1,1,2-2A2,2,0,0,1,75,112Zm0-2h0Z"/><path class="cls-5" d="M83,112a2,2,0,1,1,2-2A2,2,0,0,1,83,112Zm0-2h0Z"/><path class="cls-5" d="M91,112a2,2,0,1,1,2-2A2,2,0,0,1,91,112Zm0-2h0Z"/><path class="cls-5" d="M99,112a2,2,0,1,1,2-2A2,2,0,0,1,99,112Zm0-2h0Z"/><path class="cls-5" d="M107,112a2,2,0,1,1,2-2A2,2,0,0,1,107,112Zm0-2h0Z"/><path class="cls-5" d="M115,112a2,2,0,1,1,2-2A2,2,0,0,1,115,112Zm0-2h0Z"/><path class="cls-5" d="M123,112a2,2,0,1,1,2-2A2,2,0,0,1,123,112Zm0-2h0Z"/><path class="cls-5" d="M7,118a2,2,0,1,1,2-2A2,2,0,0,1,7,118Zm0-2H7Z"/><path class="cls-5" d="M15,118a2,2,0,1,1,2-2A2,2,0,0,1,15,118Zm0-2h0Z"/><path class="cls-5" d="M23,118a2,2,0,1,1,2-2A2,2,0,0,1,23,118Zm0-2h0Z"/><path class="cls-5" d="M31,118a2,2,0,1,1,2-2A2,2,0,0,1,31,118Zm0-2h0Z"/><path class="cls-5" d="M39,118a2,2,0,1,1,2-2A2,2,0,0,1,39,118Zm0-2h0Z"/><path class="cls-5" d="M47,118a2,2,0,1,1,2-2A2,2,0,0,1,47,118Zm0-2h0Z"/><path class="cls-5" d="M55,118a2,2,0,1,1,2-2A2,2,0,0,1,55,118Zm0-2h0Z"/><path class="cls-5" d="M63,118a2,2,0,1,1,2-2A2,2,0,0,1,63,118Zm0-2h0Z"/><path class="cls-5" d="M71,118a2,2,0,1,1,2-2A2,2,0,0,1,71,118Zm0-2h0Z"/><path class="cls-5" d="M79,118a2,2,0,1,1,2-2A2,2,0,0,1,79,118Zm0-2h0Z"/><path class="cls-5" d="M87,118a2,2,0,1,1,2-2A2,2,0,0,1,87,118Zm0-2h0Z"/><path class="cls-5" d="M95,118a2,2,0,1,1,2-2A2,2,0,0,1,95,118Zm0-2h0Z"/><path class="cls-5" d="M103,118a2,2,0,1,1,2-2A2,2,0,0,1,103,118Zm0-2h0Z"/><path class="cls-5" d="M111,118a2,2,0,1,1,2-2A2,2,0,0,1,111,118Zm0-2h0Z"/><path class="cls-5" d="M119,118a2,2,0,1,1,2-2A2,2,0,0,1,119,118Zm0-2h0Z"/><path class="cls-5" d="M127,118a2,2,0,1,1,2-2A2,2,0,0,1,127,118Zm0-2h0Z"/><path class="cls-5" d="M3,124a2,2,0,1,1,2-2A2,2,0,0,1,3,124Zm0-2H3Z"/><path class="cls-5" d="M11,124a2,2,0,1,1,2-2A2,2,0,0,1,11,124Zm0-2h0Z"/><path class="cls-5" d="M19,124a2,2,0,1,1,2-2A2,2,0,0,1,19,124Zm0-2h0Z"/><path class="cls-5" d="M27,124a2,2,0,1,1,2-2A2,2,0,0,1,27,124Zm0-2h0Z"/><path class="cls-5" d="M35,124a2,2,0,1,1,2-2A2,2,0,0,1,35,124Zm0-2h0Z"/><path class="cls-5" d="M43,124a2,2,0,1,1,2-2A2,2,0,0,1,43,124Zm0-2h0Z"/><path class="cls-5" d="M51,124a2,2,0,1,1,2-2A2,2,0,0,1,51,124Zm0-2h0Z"/><path class="cls-5" d="M59,124a2,2,0,1,1,2-2A2,2,0,0,1,59,124Zm0-2h0Z"/><path class="cls-5" d="M67,124a2,2,0,1,1,2-2A2,2,0,0,1,67,124Zm0-2h0Z"/><path class="cls-5" d="M75,124a2,2,0,1,1,2-2A2,2,0,0,1,75,124Zm0-2h0Z"/><path class="cls-5" d="M83,124a2,2,0,1,1,2-2A2,2,0,0,1,83,124Zm0-2h0Z"/><path class="cls-5" d="M91,124a2,2,0,1,1,2-2A2,2,0,0,1,91,124Zm0-2h0Z"/><path class="cls-5" d="M99,124a2,2,0,1,1,2-2A2,2,0,0,1,99,124Zm0-2h0Z"/><path class="cls-5" d="M107,124a2,2,0,1,1,2-2A2,2,0,0,1,107,124Zm0-2h0Z"/><path class="cls-5" d="M115,124a2,2,0,1,1,2-2A2,2,0,0,1,115,124Zm0-2h0Z"/><path class="cls-5" d="M123,124a2,2,0,1,1,2-2A2,2,0,0,1,123,124Zm0-2h0Z"/><path class="cls-5" d="M7,130a2,2,0,1,1,2-2A2,2,0,0,1,7,130Zm0-2H7Z"/><path class="cls-5" d="M15,130a2,2,0,1,1,2-2A2,2,0,0,1,15,130Zm0-2h0Z"/><path class="cls-5" d="M23,130a2,2,0,1,1,2-2A2,2,0,0,1,23,130Zm0-2h0Z"/><path class="cls-5" d="M31,130a2,2,0,1,1,2-2A2,2,0,0,1,31,130Zm0-2h0Z"/><path class="cls-5" d="M39,130a2,2,0,1,1,2-2A2,2,0,0,1,39,130Zm0-2h0Z"/><path class="cls-5" d="M47,130a2,2,0,1,1,2-2A2,2,0,0,1,47,130Zm0-2h0Z"/><path class="cls-5" d="M55,130a2,2,0,1,1,2-2A2,2,0,0,1,55,130Zm0-2h0Z"/><path class="cls-5" d="M63,130a2,2,0,1,1,2-2A2,2,0,0,1,63,130Zm0-2h0Z"/><path class="cls-5" d="M71,130a2,2,0,1,1,2-2A2,2,0,0,1,71,130Zm0-2h0Z"/><path class="cls-5" d="M79,130a2,2,0,1,1,2-2A2,2,0,0,1,79,130Zm0-2h0Z"/><path class="cls-5" d="M87,130a2,2,0,1,1,2-2A2,2,0,0,1,87,130Zm0-2h0Z"/><path class="cls-5" d="M95,130a2,2,0,1,1,2-2A2,2,0,0,1,95,130Zm0-2h0Z"/><path class="cls-5" d="M103,130a2,2,0,1,1,2-2A2,2,0,0,1,103,130Zm0-2h0Z"/><path class="cls-5" d="M111,130a2,2,0,1,1,2-2A2,2,0,0,1,111,130Zm0-2h0Z"/><path class="cls-5" d="M119,130a2,2,0,1,1,2-2A2,2,0,0,1,119,130Zm0-2h0Z"/><path class="cls-5" d="M127,130a2,2,0,1,1,2-2A2,2,0,0,1,127,130Zm0-2h0Z"/></g></g><g class="cls-6"><path class="cls-7" d="M78.27,79a46.8,46.8,0,0,0,13-1.9,13.15,13.15,0,0,0,8.9-16.77c-3.54-10.87-.7-19.65-3.17-30.33C93.68,15.73,81,5,63.94,5s-30.6,10.26-33.4,24.95c-2,10.62.7,19.27-2.65,29.93a13.24,13.24,0,0,0,8.69,16.75A45.15,45.15,0,0,0,48.82,79Z"/><g class="cls-3"><path class="cls-8" d="M91.25,72.08a46.8,46.8,0,0,1-13,1.9L48.82,74a45.15,45.15,0,0,1-12.26-2.34,13.07,13.07,0,0,1-9.08-10.15,13.19,13.19,0,0,0,9.08,15.12A45.15,45.15,0,0,0,48.82,79l29.44,0a46.8,46.8,0,0,0,13-1.9,13.12,13.12,0,0,0,9.31-15.12A13,13,0,0,1,91.25,72.08Z"/></g><g class="cls-3"><path class="cls-9" d="M98.1,44.8h.06c0-4.81,0-9.6-1.19-14.85C93.68,15.73,81,5,63.94,5s-30.6,10.26-33.4,24.95a71,71,0,0,0-.83,14.21,52.41,52.41,0,0,1,.83-9.23C33.33,20.24,46.88,10,63.94,10S93.68,20.7,97,34.92A48.61,48.61,0,0,1,98.1,44.8Z"/></g><path class="cls-5" d="M50.67,80h0a59.42,59.42,0,0,1-14.36-2.38,13.88,13.88,0,0,1-8.35-6.86,14.38,14.38,0,0,1-1-11.15c1.84-5.83,1.81-11,1.77-16.45a66.82,66.82,0,0,1,.85-13.37C32.44,14.59,46.58,4,63.94,4c16.78,0,30.45,10.34,34,25.72a61.38,61.38,0,0,1,1.2,14c0,5.39.06,10.49,1.95,16.27a14.35,14.35,0,0,1-1,11.21A13.78,13.78,0,0,1,91.51,78,60.7,60.7,0,0,1,76.41,80a1,1,0,0,1,0-2h0A59.88,59.88,0,0,0,91,76.09a11.8,11.8,0,0,0,7.33-5.85,12.34,12.34,0,0,0,.88-9.64c-2-6.08-2-11.57-2-16.88A59.71,59.71,0,0,0,96,30.17C92.65,15.71,79.77,6,63.94,6,47.56,6,34.22,15.92,31.52,30.14a65.18,65.18,0,0,0-.82,13c0,5.37.07,10.93-1.86,17.06a12.4,12.4,0,0,0,.86,9.61,11.9,11.9,0,0,0,7.16,5.88A58.17,58.17,0,0,0,50.69,78a1,1,0,0,1,0,2Z"/><path class="cls-10" d="M84.32,83.7l0,0C82.9,87.5,74.89,93,64.07,93s-18.34-5-20.21-9.25l0-.07a33.58,33.58,0,0,1,4.53-2.25,5.7,5.7,0,0,0,3.28-5.09,6.42,6.42,0,0,0-.5-2.44A25.69,25.69,0,0,0,77,73.9a5.71,5.71,0,0,0,2.78,7.53A34.33,34.33,0,0,1,84.32,83.7Z"/><g class="cls-3"><path class="cls-8" d="M64,83.51c4.79,0,9.21-3.29,12.82-5.81a4.8,4.8,0,0,1,0-4.12H51.17a4.84,4.84,0,0,1,.06,4.13C54.85,80.23,59.26,83.51,64,83.51Z"/></g><path class="cls-11" d="M87.34,126H27.44V112.64a33.71,33.71,0,0,1,16.6-29C46.57,88.56,54.37,93,64.26,93c8.36,0,16.78-3.75,19.84-9.3a34,34,0,0,1,10.8,10.19,33.38,33.38,0,0,1,5.76,18.75V126Z"/><g class="cls-3"><path class="cls-9" d="M94.89,93.89A34,34,0,0,0,84.09,83.7C81,89.25,72.61,93,64.26,93,54.37,93,46.57,88.56,44,83.67a33.71,33.71,0,0,0-16.6,29v4a33.71,33.71,0,0,1,16.6-29C46.57,92.56,54.37,97,64.26,97c8.36,0,16.78-3.75,19.84-9.3a34,34,0,0,1,10.8,10.19,33.38,33.38,0,0,1,5.76,18.75v-4A33.38,33.38,0,0,0,94.89,93.89Z"/></g><path class="cls-5" d="M27,127a1,1,0,0,1-1-1V112.64A35,35,0,0,1,42.87,82.82a33.65,33.65,0,0,1,4.55-2.31,5.68,5.68,0,0,0,2.16-6.77A1,1,0,0,1,51.44,73a7.68,7.68,0,0,1-3.21,9.3,32.1,32.1,0,0,0-4.34,2.2A33,33,0,0,0,28,112.64V126A1,1,0,0,1,27,127Z"/><path class="cls-5" d="M101,127a1,1,0,0,1-1-1V112.64a32.32,32.32,0,0,0-5.6-18.19,33.3,33.3,0,0,0-14.88-12.1,7.33,7.33,0,0,1-3.3-9.29,1,1,0,1,1,1.86.73,5.3,5.3,0,0,0,2.25,6.73A34.42,34.42,0,0,1,85,82.84,35.21,35.21,0,0,1,96.06,93.33a34.32,34.32,0,0,1,5.94,19.3V126A1,1,0,0,1,101,127Z"/><path class="cls-5" d="M41,127a1,1,0,0,1-1-1V113c0-4.72.76-8,2.38-10.29A1,1,0,1,1,44,103.82c-1.37,2-2,4.86-2,9.14v13A1,1,0,0,1,41,127Z"/><path class="cls-5" d="M87,127a1,1,0,0,1-1-1V113c0-4.28-.64-7.19-2-9.14a1,1,0,1,1,1.63-1.15C87.24,105,88,108.24,88,113v13A1,1,0,0,1,87,127Z"/><path class="cls-5" d="M64,94c-9,0-17.12-3.69-21.28-9.64a1,1,0,1,1,1.64-1.15C48.1,88.63,55.63,92,64,92s15.91-3.39,19.69-8.85a1,1,0,0,1,1.64,1.14C81.15,90.28,73,94,64,94Z"/><path class="cls-12" d="M39,35C39,7,88.91,7,88.91,35V52A25.14,25.14,0,0,1,76.42,73.67l-5.83,3.44a13.14,13.14,0,0,1-13.32,0l-5.81-3.43A25.13,25.13,0,0,1,39,52.06Z"/><g class="cls-3"><path class="cls-8" d="M89,47.14A25.16,25.16,0,0,1,76.5,68.79l-5.84,3.44a13.15,13.15,0,0,1-13.33,0l-5.82-3.43A25.16,25.16,0,0,1,39,47.15v4.91A25.16,25.16,0,0,0,51.52,73.7l5.82,3.43a13.15,13.15,0,0,0,13.33,0l5.84-3.44A25.16,25.16,0,0,0,89,52Z"/></g><path class="cls-5" d="M63.93,79.92a14.1,14.1,0,0,1-7.17-2L51,74.54A26.26,26.26,0,0,1,38,52.06V35h0a19.93,19.93,0,0,1,8.2-16.55A29.72,29.72,0,0,1,64,13a29.72,29.72,0,0,1,17.75,5.45A19.93,19.93,0,0,1,89.91,35V52a26.27,26.27,0,0,1-13,22.49L71.1,78A14.11,14.11,0,0,1,63.93,79.92ZM40,35V52.06A24.25,24.25,0,0,0,52,72.81l5.81,3.43a12.12,12.12,0,0,0,12.3,0l5.83-3.44A24.26,24.26,0,0,0,87.91,52V35a18,18,0,0,0-7.4-14.95A27.72,27.72,0,0,0,64,15c-11.54,0-24,6.26-24,20Z"/><path class="cls-12" d="M39,52.9v-9c0-3-2.23-4-3.6-3-2.19,1.53.6,8,.6,8C34.38,49.95,36.21,53.64,39,52.9Z"/><path class="cls-5" d="M38.26,54a4,4,0,0,1-3.55-2.45,2.94,2.94,0,0,1,.12-2.88c-.78-2-2.39-6.92,0-8.59A3,3,0,0,1,38,39.9a4.27,4.27,0,0,1,2,4v9a1,1,0,0,1-.75,1A3.9,3.9,0,0,1,38.26,54ZM39,52.9h0ZM36.53,41.55a1,1,0,0,0-.56.18c-.89.62-.22,4.08.95,6.78a1,1,0,0,1-.38,1.24c-.22.14-.17.62,0,1A2.12,2.12,0,0,0,38,52V43.9a2.41,2.41,0,0,0-1-2.23A1.06,1.06,0,0,0,36.53,41.55Z"/><path class="cls-5" d="M36,49.9a1,1,0,0,1-.54-1.84l.38-.24a1,1,0,1,1,1.08,1.68l-.37.24A1,1,0,0,1,36,49.9Z"/><path class="cls-12" d="M89,52.9v-9c0-3,2.22-4,3.6-3,2.19,1.53-.6,8-.6,8C93.63,49.95,91.79,53.64,89,52.9Z"/><path class="cls-5" d="M89.74,54a3.9,3.9,0,0,1-1-.13,1,1,0,0,1-.75-1v-9a4.27,4.27,0,0,1,2-4,3,3,0,0,1,3.13.18c2.4,1.67.78,6.61,0,8.59a2.94,2.94,0,0,1,.12,2.88A4,4,0,0,1,89.74,54Zm1.72-12.46a1.06,1.06,0,0,0-.5.13,2.41,2.41,0,0,0-1,2.23V52a2.12,2.12,0,0,0,1.46-1.23c.17-.38.22-.86,0-1a1,1,0,0,1-.38-1.24c1.17-2.71,1.84-6.16.95-6.78A1,1,0,0,0,91.47,41.55Z"/><path class="cls-5" d="M92,49.9a1,1,0,0,1-.54-.16l-.37-.24a1,1,0,1,1,1.08-1.68l.38.24A1,1,0,0,1,92,49.9Z"/><g class="cls-3"><circle class="cls-13" cx="49.5" cy="59.5" r="4.5"/></g><g class="cls-3"><circle class="cls-13" cx="78.5" cy="59.5" r="4.5"/></g><path class="cls-5" d="M64,56.52a5.31,5.31,0,0,1-2.54-.91,1,1,0,0,1,1.11-1.67h0a3.56,3.56,0,0,0,1.43.58,3.61,3.61,0,0,0,1.43-.58,1,1,0,1,1,1.11,1.67A5.31,5.31,0,0,1,64,56.52Z"/><path class="cls-5" d="M46.29,43a1,1,0,0,1-.7-1.71c1.79-1.77,5.81-1.12,9.05-.59A20.21,20.21,0,0,0,57,41a1,1,0,0,1,0,2,19.8,19.8,0,0,1-2.68-.33c-2.19-.35-6.26-1-7.33,0A1,1,0,0,1,46.29,43Z"/><path class="cls-5" d="M81.64,43a1,1,0,0,1-.7-.29c-1.55-1.54-7.68-1.54-9.23,0a1,1,0,1,1-1.41-1.42c2.36-2.34,9.68-2.34,12,0a1,1,0,0,1-.7,1.71Z"/><path class="cls-5" d="M81,47H72a1,1,0,0,1,0-2h9a1,1,0,0,1,0,2Z"/><path class="cls-5" d="M56,47H47a1,1,0,0,1,0-2h9a1,1,0,0,1,0,2Z"/><circle class="cls-5" cx="52.5" cy="48" r="1.5"/><path class="cls-5" d="M52.5,50.5A2.5,2.5,0,1,1,55,48,2.5,2.5,0,0,1,52.5,50.5Zm0-3a.5.5,0,1,0,.5.5A.5.5,0,0,0,52.5,47.5Z"/><circle class="cls-5" cx="75.5" cy="48" r="1.5"/><path class="cls-5" d="M75.5,50.5A2.5,2.5,0,1,1,78,48,2.5,2.5,0,0,1,75.5,50.5Zm0-3a.5.5,0,1,0,.5.5A.5.5,0,0,0,75.5,47.5Z"/><path class="cls-5" d="M64,65.77c-3.18,0-6.06-1.27-7.34-3.23a1,1,0,0,1,1.68-1.09c.91,1.39,3.18,2.32,5.66,2.32s4.76-.93,5.66-2.32a1,1,0,0,1,1.68,1.09C70.06,64.51,67.18,65.77,64,65.77Z"/><g class="cls-3"><path class="cls-8" d="M39,35s21.88,9,41-8c2.88,10.42,9,8.52,9,8.5V31.82S82.69,34.45,79.8,24C61,40,39,31,39,31Z"/></g><path class="cls-7" d="M39,30.9s21.63,9.56,40.73-7.48C79.77,33.23,89,32,89,32l2.28-.16C89,6.65,41.92,6,37,30Z"/><path class="cls-5" d="M53.61,34.53a41.11,41.11,0,0,1-15-2.71l-2-.89a1,1,0,0,1,.81-1.83l2,.89c.21.09,21.28,9.08,39.66-7.31a1,1,0,0,1,1.67.75c0,2.69.74,4.69,2.2,6A8.24,8.24,0,0,0,88.83,31l1.32-.11a1,1,0,0,1,.17,2L89,33c-.13,0-4.37.55-7.4-2.1a8.56,8.56,0,0,1-2.74-5.43A39.31,39.31,0,0,1,53.61,34.53Z"/><path class="cls-5" d="M88.91,36a1,1,0,0,1-1-1,21,21,0,0,0-.19-2.83,1,1,0,0,1,2-.27,23.08,23.08,0,0,1,.2,3.1A1,1,0,0,1,88.91,36Z"/><path class="cls-5" d="M39,36a1,1,0,0,1-1-1,22.77,22.77,0,0,1,.35-4,1,1,0,0,1,2,.36A20.69,20.69,0,0,0,40,35,1,1,0,0,1,39,36Z"/></g></svg>