<?xml version="1.0" ?><svg data-name="004" id="_004" viewBox="0 0 128 128" xmlns="http://www.w3.org/2000/svg" xmlns:xlink="http://www.w3.org/1999/xlink"><defs><style>.cls-1{fill:#97c1ff;}.cls-2{fill:none;}.cls-3{opacity:0.3;}.cls-4{clip-path:url(#clip-path);}.cls-5{fill:#6d6daa;}.cls-6{clip-path:url(#clip-path-2);}.cls-7{fill:#ced8ee;}.cls-8{fill:#ff9797;}.cls-9{fill:#efdcd2;}.cls-10{fill:#fff;}.cls-11{fill:#4e4e96;}.cls-12{fill:#cc7e54;}.cls-13{fill:#eff7ff;}.cls-14{fill:#ffd599;}.cls-15{fill:#f9e2dc;}.cls-16{fill:#d6b5b0;}.cls-17{opacity:0.5;}</style><clipPath id="clip-path"><circle class="cls-1" cx="64.01" cy="68" r="56"/></clipPath><clipPath id="clip-path-2"><path class="cls-2" d="M120.14,67.86a56.14,56.14,0,0,1-112.29,0C7.86,36.85,33,3,64,3c8.2,0,21-4.05,28,0,6.69,3.86,7.68,15.67,12.67,22C114.26,37.18,120.14,52.85,120.14,67.86Z"/></clipPath></defs><title/><g class="cls-3"><circle class="cls-1" cx="64.01" cy="68" r="56"/><g class="cls-4"><path class="cls-5" d="M3,4A2,2,0,1,1,5,2,2,2,0,0,1,3,4ZM3,2H3Z"/><path class="cls-5" d="M11,4a2,2,0,1,1,2-2A2,2,0,0,1,11,4Zm0-2h0Z"/><path class="cls-5" d="M19,4a2,2,0,1,1,2-2A2,2,0,0,1,19,4Zm0-2h0Z"/><path class="cls-5" d="M27,4a2,2,0,1,1,2-2A2,2,0,0,1,27,4Zm0-2h0Z"/><path class="cls-5" d="M35,4a2,2,0,1,1,2-2A2,2,0,0,1,35,4Zm0-2h0Z"/><path class="cls-5" d="M43,4a2,2,0,1,1,2-2A2,2,0,0,1,43,4Zm0-2h0Z"/><path class="cls-5" d="M51,4a2,2,0,1,1,2-2A2,2,0,0,1,51,4Zm0-2h0Z"/><path class="cls-5" d="M59,4a2,2,0,1,1,2-2A2,2,0,0,1,59,4Zm0-2h0Z"/><path class="cls-5" d="M67,4a2,2,0,1,1,2-2A2,2,0,0,1,67,4Zm0-2h0Z"/><path class="cls-5" d="M75,4a2,2,0,1,1,2-2A2,2,0,0,1,75,4Zm0-2h0Z"/><path class="cls-5" d="M83,4a2,2,0,1,1,2-2A2,2,0,0,1,83,4Zm0-2h0Z"/><path class="cls-5" d="M91,4a2,2,0,1,1,2-2A2,2,0,0,1,91,4Zm0-2h0Z"/><path class="cls-5" d="M99,4a2,2,0,1,1,2-2A2,2,0,0,1,99,4Zm0-2h0Z"/><path class="cls-5" d="M107,4a2,2,0,1,1,2-2A2,2,0,0,1,107,4Zm0-2h0Z"/><path class="cls-5" d="M115,4a2,2,0,1,1,2-2A2,2,0,0,1,115,4Zm0-2h0Z"/><path class="cls-5" d="M123,4a2,2,0,1,1,2-2A2,2,0,0,1,123,4Zm0-2h0Z"/><path class="cls-5" d="M7,10A2,2,0,1,1,9,8,2,2,0,0,1,7,10ZM7,8H7Z"/><path class="cls-5" d="M15,10a2,2,0,1,1,2-2A2,2,0,0,1,15,10Zm0-2h0Z"/><path class="cls-5" d="M23,10a2,2,0,1,1,2-2A2,2,0,0,1,23,10Zm0-2h0Z"/><path class="cls-5" d="M31,10a2,2,0,1,1,2-2A2,2,0,0,1,31,10Zm0-2h0Z"/><path class="cls-5" d="M39,10a2,2,0,1,1,2-2A2,2,0,0,1,39,10Zm0-2h0Z"/><path class="cls-5" d="M47,10a2,2,0,1,1,2-2A2,2,0,0,1,47,10Zm0-2h0Z"/><path class="cls-5" d="M55,10a2,2,0,1,1,2-2A2,2,0,0,1,55,10Zm0-2h0Z"/><path class="cls-5" d="M63,10a2,2,0,1,1,2-2A2,2,0,0,1,63,10Zm0-2h0Z"/><path class="cls-5" d="M71,10a2,2,0,1,1,2-2A2,2,0,0,1,71,10Zm0-2h0Z"/><path class="cls-5" d="M79,10a2,2,0,1,1,2-2A2,2,0,0,1,79,10Zm0-2h0Z"/><path class="cls-5" d="M87,10a2,2,0,1,1,2-2A2,2,0,0,1,87,10Zm0-2h0Z"/><path class="cls-5" d="M95,10a2,2,0,1,1,2-2A2,2,0,0,1,95,10Zm0-2h0Z"/><path class="cls-5" d="M103,10a2,2,0,1,1,2-2A2,2,0,0,1,103,10Zm0-2h0Z"/><path class="cls-5" d="M111,10a2,2,0,1,1,2-2A2,2,0,0,1,111,10Zm0-2h0Z"/><path class="cls-5" d="M119,10a2,2,0,1,1,2-2A2,2,0,0,1,119,10Zm0-2h0Z"/><path class="cls-5" d="M127,10a2,2,0,1,1,2-2A2,2,0,0,1,127,10Zm0-2h0Z"/><path class="cls-5" d="M3,16a2,2,0,1,1,2-2A2,2,0,0,1,3,16Zm0-2H3Z"/><path class="cls-5" d="M11,16a2,2,0,1,1,2-2A2,2,0,0,1,11,16Zm0-2h0Z"/><path class="cls-5" d="M19,16a2,2,0,1,1,2-2A2,2,0,0,1,19,16Zm0-2h0Z"/><path class="cls-5" d="M27,16a2,2,0,1,1,2-2A2,2,0,0,1,27,16Zm0-2h0Z"/><path class="cls-5" d="M35,16a2,2,0,1,1,2-2A2,2,0,0,1,35,16Zm0-2h0Z"/><path class="cls-5" d="M43,16a2,2,0,1,1,2-2A2,2,0,0,1,43,16Zm0-2h0Z"/><path class="cls-5" d="M51,16a2,2,0,1,1,2-2A2,2,0,0,1,51,16Zm0-2h0Z"/><path class="cls-5" d="M59,16a2,2,0,1,1,2-2A2,2,0,0,1,59,16Zm0-2h0Z"/><path class="cls-5" d="M67,16a2,2,0,1,1,2-2A2,2,0,0,1,67,16Zm0-2h0Z"/><path class="cls-5" d="M75,16a2,2,0,1,1,2-2A2,2,0,0,1,75,16Zm0-2h0Z"/><path class="cls-5" d="M83,16a2,2,0,1,1,2-2A2,2,0,0,1,83,16Zm0-2h0Z"/><path class="cls-5" d="M91,16a2,2,0,1,1,2-2A2,2,0,0,1,91,16Zm0-2h0Z"/><path class="cls-5" d="M99,16a2,2,0,1,1,2-2A2,2,0,0,1,99,16Zm0-2h0Z"/><path class="cls-5" d="M107,16a2,2,0,1,1,2-2A2,2,0,0,1,107,16Zm0-2h0Z"/><path class="cls-5" d="M115,16a2,2,0,1,1,2-2A2,2,0,0,1,115,16Zm0-2h0Z"/><path class="cls-5" d="M123,16a2,2,0,1,1,2-2A2,2,0,0,1,123,16Zm0-2h0Z"/><path class="cls-5" d="M7,22a2,2,0,1,1,2-2A2,2,0,0,1,7,22Zm0-2H7Z"/><path class="cls-5" d="M15,22a2,2,0,1,1,2-2A2,2,0,0,1,15,22Zm0-2h0Z"/><path class="cls-5" d="M23,22a2,2,0,1,1,2-2A2,2,0,0,1,23,22Zm0-2h0Z"/><path class="cls-5" d="M31,22a2,2,0,1,1,2-2A2,2,0,0,1,31,22Zm0-2h0Z"/><path class="cls-5" d="M39,22a2,2,0,1,1,2-2A2,2,0,0,1,39,22Zm0-2h0Z"/><path class="cls-5" d="M47,22a2,2,0,1,1,2-2A2,2,0,0,1,47,22Zm0-2h0Z"/><path class="cls-5" d="M55,22a2,2,0,1,1,2-2A2,2,0,0,1,55,22Zm0-2h0Z"/><path class="cls-5" d="M63,22a2,2,0,1,1,2-2A2,2,0,0,1,63,22Zm0-2h0Z"/><path class="cls-5" d="M71,22a2,2,0,1,1,2-2A2,2,0,0,1,71,22Zm0-2h0Z"/><path class="cls-5" d="M79,22a2,2,0,1,1,2-2A2,2,0,0,1,79,22Zm0-2h0Z"/><path class="cls-5" d="M87,22a2,2,0,1,1,2-2A2,2,0,0,1,87,22Zm0-2h0Z"/><path class="cls-5" d="M95,22a2,2,0,1,1,2-2A2,2,0,0,1,95,22Zm0-2h0Z"/><path class="cls-5" d="M103,22a2,2,0,1,1,2-2A2,2,0,0,1,103,22Zm0-2h0Z"/><path class="cls-5" d="M111,22a2,2,0,1,1,2-2A2,2,0,0,1,111,22Zm0-2h0Z"/><path class="cls-5" d="M119,22a2,2,0,1,1,2-2A2,2,0,0,1,119,22Zm0-2h0Z"/><path class="cls-5" d="M127,22a2,2,0,1,1,2-2A2,2,0,0,1,127,22Zm0-2h0Z"/><path class="cls-5" d="M3,28a2,2,0,1,1,2-2A2,2,0,0,1,3,28Zm0-2H3Z"/><path class="cls-5" d="M11,28a2,2,0,1,1,2-2A2,2,0,0,1,11,28Zm0-2h0Z"/><path class="cls-5" d="M19,28a2,2,0,1,1,2-2A2,2,0,0,1,19,28Zm0-2h0Z"/><path class="cls-5" d="M27,28a2,2,0,1,1,2-2A2,2,0,0,1,27,28Zm0-2h0Z"/><path class="cls-5" d="M35,28a2,2,0,1,1,2-2A2,2,0,0,1,35,28Zm0-2h0Z"/><path class="cls-5" d="M43,28a2,2,0,1,1,2-2A2,2,0,0,1,43,28Zm0-2h0Z"/><path class="cls-5" d="M51,28a2,2,0,1,1,2-2A2,2,0,0,1,51,28Zm0-2h0Z"/><path class="cls-5" d="M59,28a2,2,0,1,1,2-2A2,2,0,0,1,59,28Zm0-2h0Z"/><path class="cls-5" d="M67,28a2,2,0,1,1,2-2A2,2,0,0,1,67,28Zm0-2h0Z"/><path class="cls-5" d="M75,28a2,2,0,1,1,2-2A2,2,0,0,1,75,28Zm0-2h0Z"/><path class="cls-5" d="M83,28a2,2,0,1,1,2-2A2,2,0,0,1,83,28Zm0-2h0Z"/><path class="cls-5" d="M91,28a2,2,0,1,1,2-2A2,2,0,0,1,91,28Zm0-2h0Z"/><path class="cls-5" d="M99,28a2,2,0,1,1,2-2A2,2,0,0,1,99,28Zm0-2h0Z"/><path class="cls-5" d="M107,28a2,2,0,1,1,2-2A2,2,0,0,1,107,28Zm0-2h0Z"/><path class="cls-5" d="M115,28a2,2,0,1,1,2-2A2,2,0,0,1,115,28Zm0-2h0Z"/><path class="cls-5" d="M123,28a2,2,0,1,1,2-2A2,2,0,0,1,123,28Zm0-2h0Z"/><path class="cls-5" d="M7,34a2,2,0,1,1,2-2A2,2,0,0,1,7,34Zm0-2H7Z"/><path class="cls-5" d="M15,34a2,2,0,1,1,2-2A2,2,0,0,1,15,34Zm0-2h0Z"/><path class="cls-5" d="M23,34a2,2,0,1,1,2-2A2,2,0,0,1,23,34Zm0-2h0Z"/><path class="cls-5" d="M31,34a2,2,0,1,1,2-2A2,2,0,0,1,31,34Zm0-2h0Z"/><path class="cls-5" d="M39,34a2,2,0,1,1,2-2A2,2,0,0,1,39,34Zm0-2h0Z"/><path class="cls-5" d="M47,34a2,2,0,1,1,2-2A2,2,0,0,1,47,34Zm0-2h0Z"/><path class="cls-5" d="M55,34a2,2,0,1,1,2-2A2,2,0,0,1,55,34Zm0-2h0Z"/><path class="cls-5" d="M63,34a2,2,0,1,1,2-2A2,2,0,0,1,63,34Zm0-2h0Z"/><path class="cls-5" d="M71,34a2,2,0,1,1,2-2A2,2,0,0,1,71,34Zm0-2h0Z"/><path class="cls-5" d="M79,34a2,2,0,1,1,2-2A2,2,0,0,1,79,34Zm0-2h0Z"/><path class="cls-5" d="M87,34a2,2,0,1,1,2-2A2,2,0,0,1,87,34Zm0-2h0Z"/><path class="cls-5" d="M95,34a2,2,0,1,1,2-2A2,2,0,0,1,95,34Zm0-2h0Z"/><path class="cls-5" d="M103,34a2,2,0,1,1,2-2A2,2,0,0,1,103,34Zm0-2h0Z"/><path class="cls-5" d="M111,34a2,2,0,1,1,2-2A2,2,0,0,1,111,34Zm0-2h0Z"/><path class="cls-5" d="M119,34a2,2,0,1,1,2-2A2,2,0,0,1,119,34Zm0-2h0Z"/><path class="cls-5" d="M127,34a2,2,0,1,1,2-2A2,2,0,0,1,127,34Zm0-2h0Z"/><path class="cls-5" d="M3,40a2,2,0,1,1,2-2A2,2,0,0,1,3,40Zm0-2H3Z"/><path class="cls-5" d="M11,40a2,2,0,1,1,2-2A2,2,0,0,1,11,40Zm0-2h0Z"/><path class="cls-5" d="M19,40a2,2,0,1,1,2-2A2,2,0,0,1,19,40Zm0-2h0Z"/><path class="cls-5" d="M27,40a2,2,0,1,1,2-2A2,2,0,0,1,27,40Zm0-2h0Z"/><path class="cls-5" d="M35,40a2,2,0,1,1,2-2A2,2,0,0,1,35,40Zm0-2h0Z"/><path class="cls-5" d="M43,40a2,2,0,1,1,2-2A2,2,0,0,1,43,40Zm0-2h0Z"/><path class="cls-5" d="M51,40a2,2,0,1,1,2-2A2,2,0,0,1,51,40Zm0-2h0Z"/><path class="cls-5" d="M59,40a2,2,0,1,1,2-2A2,2,0,0,1,59,40Zm0-2h0Z"/><path class="cls-5" d="M67,40a2,2,0,1,1,2-2A2,2,0,0,1,67,40Zm0-2h0Z"/><path class="cls-5" d="M75,40a2,2,0,1,1,2-2A2,2,0,0,1,75,40Zm0-2h0Z"/><path class="cls-5" d="M83,40a2,2,0,1,1,2-2A2,2,0,0,1,83,40Zm0-2h0Z"/><path class="cls-5" d="M91,40a2,2,0,1,1,2-2A2,2,0,0,1,91,40Zm0-2h0Z"/><path class="cls-5" d="M99,40a2,2,0,1,1,2-2A2,2,0,0,1,99,40Zm0-2h0Z"/><path class="cls-5" d="M107,40a2,2,0,1,1,2-2A2,2,0,0,1,107,40Zm0-2h0Z"/><path class="cls-5" d="M115,40a2,2,0,1,1,2-2A2,2,0,0,1,115,40Zm0-2h0Z"/><path class="cls-5" d="M123,40a2,2,0,1,1,2-2A2,2,0,0,1,123,40Zm0-2h0Z"/><path class="cls-5" d="M7,46a2,2,0,1,1,2-2A2,2,0,0,1,7,46Zm0-2H7Z"/><path class="cls-5" d="M15,46a2,2,0,1,1,2-2A2,2,0,0,1,15,46Zm0-2h0Z"/><path class="cls-5" d="M23,46a2,2,0,1,1,2-2A2,2,0,0,1,23,46Zm0-2h0Z"/><path class="cls-5" d="M31,46a2,2,0,1,1,2-2A2,2,0,0,1,31,46Zm0-2h0Z"/><path class="cls-5" d="M39,46a2,2,0,1,1,2-2A2,2,0,0,1,39,46Zm0-2h0Z"/><path class="cls-5" d="M47,46a2,2,0,1,1,2-2A2,2,0,0,1,47,46Zm0-2h0Z"/><path class="cls-5" d="M55,46a2,2,0,1,1,2-2A2,2,0,0,1,55,46Zm0-2h0Z"/><path class="cls-5" d="M63,46a2,2,0,1,1,2-2A2,2,0,0,1,63,46Zm0-2h0Z"/><path class="cls-5" d="M71,46a2,2,0,1,1,2-2A2,2,0,0,1,71,46Zm0-2h0Z"/><path class="cls-5" d="M79,46a2,2,0,1,1,2-2A2,2,0,0,1,79,46Zm0-2h0Z"/><path class="cls-5" d="M87,46a2,2,0,1,1,2-2A2,2,0,0,1,87,46Zm0-2h0Z"/><path class="cls-5" d="M95,46a2,2,0,1,1,2-2A2,2,0,0,1,95,46Zm0-2h0Z"/><path class="cls-5" d="M103,46a2,2,0,1,1,2-2A2,2,0,0,1,103,46Zm0-2h0Z"/><path class="cls-5" d="M111,46a2,2,0,1,1,2-2A2,2,0,0,1,111,46Zm0-2h0Z"/><path class="cls-5" d="M119,46a2,2,0,1,1,2-2A2,2,0,0,1,119,46Zm0-2h0Z"/><path class="cls-5" d="M127,46a2,2,0,1,1,2-2A2,2,0,0,1,127,46Zm0-2h0Z"/><path class="cls-5" d="M3,52a2,2,0,1,1,2-2A2,2,0,0,1,3,52Zm0-2H3Z"/><path class="cls-5" d="M11,52a2,2,0,1,1,2-2A2,2,0,0,1,11,52Zm0-2h0Z"/><path class="cls-5" d="M19,52a2,2,0,1,1,2-2A2,2,0,0,1,19,52Zm0-2h0Z"/><path class="cls-5" d="M27,52a2,2,0,1,1,2-2A2,2,0,0,1,27,52Zm0-2h0Z"/><path class="cls-5" d="M35,52a2,2,0,1,1,2-2A2,2,0,0,1,35,52Zm0-2h0Z"/><path class="cls-5" d="M43,52a2,2,0,1,1,2-2A2,2,0,0,1,43,52Zm0-2h0Z"/><path class="cls-5" d="M51,52a2,2,0,1,1,2-2A2,2,0,0,1,51,52Zm0-2h0Z"/><path class="cls-5" d="M59,52a2,2,0,1,1,2-2A2,2,0,0,1,59,52Zm0-2h0Z"/><path class="cls-5" d="M67,52a2,2,0,1,1,2-2A2,2,0,0,1,67,52Zm0-2h0Z"/><path class="cls-5" d="M75,52a2,2,0,1,1,2-2A2,2,0,0,1,75,52Zm0-2h0Z"/><path class="cls-5" d="M83,52a2,2,0,1,1,2-2A2,2,0,0,1,83,52Zm0-2h0Z"/><path class="cls-5" d="M91,52a2,2,0,1,1,2-2A2,2,0,0,1,91,52Zm0-2h0Z"/><path class="cls-5" d="M99,52a2,2,0,1,1,2-2A2,2,0,0,1,99,52Zm0-2h0Z"/><path class="cls-5" d="M107,52a2,2,0,1,1,2-2A2,2,0,0,1,107,52Zm0-2h0Z"/><path class="cls-5" d="M115,52a2,2,0,1,1,2-2A2,2,0,0,1,115,52Zm0-2h0Z"/><path class="cls-5" d="M123,52a2,2,0,1,1,2-2A2,2,0,0,1,123,52Zm0-2h0Z"/><path class="cls-5" d="M7,58a2,2,0,1,1,2-2A2,2,0,0,1,7,58Zm0-2H7Z"/><path class="cls-5" d="M15,58a2,2,0,1,1,2-2A2,2,0,0,1,15,58Zm0-2h0Z"/><path class="cls-5" d="M23,58a2,2,0,1,1,2-2A2,2,0,0,1,23,58Zm0-2h0Z"/><path class="cls-5" d="M31,58a2,2,0,1,1,2-2A2,2,0,0,1,31,58Zm0-2h0Z"/><path class="cls-5" d="M39,58a2,2,0,1,1,2-2A2,2,0,0,1,39,58Zm0-2h0Z"/><path class="cls-5" d="M47,58a2,2,0,1,1,2-2A2,2,0,0,1,47,58Zm0-2h0Z"/><path class="cls-5" d="M55,58a2,2,0,1,1,2-2A2,2,0,0,1,55,58Zm0-2h0Z"/><path class="cls-5" d="M63,58a2,2,0,1,1,2-2A2,2,0,0,1,63,58Zm0-2h0Z"/><path class="cls-5" d="M71,58a2,2,0,1,1,2-2A2,2,0,0,1,71,58Zm0-2h0Z"/><path class="cls-5" d="M79,58a2,2,0,1,1,2-2A2,2,0,0,1,79,58Zm0-2h0Z"/><path class="cls-5" d="M87,58a2,2,0,1,1,2-2A2,2,0,0,1,87,58Zm0-2h0Z"/><path class="cls-5" d="M95,58a2,2,0,1,1,2-2A2,2,0,0,1,95,58Zm0-2h0Z"/><path class="cls-5" d="M103,58a2,2,0,1,1,2-2A2,2,0,0,1,103,58Zm0-2h0Z"/><path class="cls-5" d="M111,58a2,2,0,1,1,2-2A2,2,0,0,1,111,58Zm0-2h0Z"/><path class="cls-5" d="M119,58a2,2,0,1,1,2-2A2,2,0,0,1,119,58Zm0-2h0Z"/><path class="cls-5" d="M127,58a2,2,0,1,1,2-2A2,2,0,0,1,127,58Zm0-2h0Z"/><path class="cls-5" d="M3,64a2,2,0,1,1,2-2A2,2,0,0,1,3,64Zm0-2H3Z"/><path class="cls-5" d="M11,64a2,2,0,1,1,2-2A2,2,0,0,1,11,64Zm0-2h0Z"/><path class="cls-5" d="M19,64a2,2,0,1,1,2-2A2,2,0,0,1,19,64Zm0-2h0Z"/><path class="cls-5" d="M27,64a2,2,0,1,1,2-2A2,2,0,0,1,27,64Zm0-2h0Z"/><path class="cls-5" d="M35,64a2,2,0,1,1,2-2A2,2,0,0,1,35,64Zm0-2h0Z"/><path class="cls-5" d="M43,64a2,2,0,1,1,2-2A2,2,0,0,1,43,64Zm0-2h0Z"/><path class="cls-5" d="M51,64a2,2,0,1,1,2-2A2,2,0,0,1,51,64Zm0-2h0Z"/><path class="cls-5" d="M59,64a2,2,0,1,1,2-2A2,2,0,0,1,59,64Zm0-2h0Z"/><path class="cls-5" d="M67,64a2,2,0,1,1,2-2A2,2,0,0,1,67,64Zm0-2h0Z"/><path class="cls-5" d="M75,64a2,2,0,1,1,2-2A2,2,0,0,1,75,64Zm0-2h0Z"/><path class="cls-5" d="M83,64a2,2,0,1,1,2-2A2,2,0,0,1,83,64Zm0-2h0Z"/><path class="cls-5" d="M91,64a2,2,0,1,1,2-2A2,2,0,0,1,91,64Zm0-2h0Z"/><path class="cls-5" d="M99,64a2,2,0,1,1,2-2A2,2,0,0,1,99,64Zm0-2h0Z"/><path class="cls-5" d="M107,64a2,2,0,1,1,2-2A2,2,0,0,1,107,64Zm0-2h0Z"/><path class="cls-5" d="M115,64a2,2,0,1,1,2-2A2,2,0,0,1,115,64Zm0-2h0Z"/><path class="cls-5" d="M123,64a2,2,0,1,1,2-2A2,2,0,0,1,123,64Zm0-2h0Z"/><path class="cls-5" d="M7,70a2,2,0,1,1,2-2A2,2,0,0,1,7,70Zm0-2H7Z"/><path class="cls-5" d="M15,70a2,2,0,1,1,2-2A2,2,0,0,1,15,70Zm0-2h0Z"/><path class="cls-5" d="M23,70a2,2,0,1,1,2-2A2,2,0,0,1,23,70Zm0-2h0Z"/><path class="cls-5" d="M31,70a2,2,0,1,1,2-2A2,2,0,0,1,31,70Zm0-2h0Z"/><path class="cls-5" d="M39,70a2,2,0,1,1,2-2A2,2,0,0,1,39,70Zm0-2h0Z"/><path class="cls-5" d="M47,70a2,2,0,1,1,2-2A2,2,0,0,1,47,70Zm0-2h0Z"/><path class="cls-5" d="M55,70a2,2,0,1,1,2-2A2,2,0,0,1,55,70Zm0-2h0Z"/><path class="cls-5" d="M63,70a2,2,0,1,1,2-2A2,2,0,0,1,63,70Zm0-2h0Z"/><path class="cls-5" d="M71,70a2,2,0,1,1,2-2A2,2,0,0,1,71,70Zm0-2h0Z"/><path class="cls-5" d="M79,70a2,2,0,1,1,2-2A2,2,0,0,1,79,70Zm0-2h0Z"/><path class="cls-5" d="M87,70a2,2,0,1,1,2-2A2,2,0,0,1,87,70Zm0-2h0Z"/><path class="cls-5" d="M95,70a2,2,0,1,1,2-2A2,2,0,0,1,95,70Zm0-2h0Z"/><path class="cls-5" d="M103,70a2,2,0,1,1,2-2A2,2,0,0,1,103,70Zm0-2h0Z"/><path class="cls-5" d="M111,70a2,2,0,1,1,2-2A2,2,0,0,1,111,70Zm0-2h0Z"/><path class="cls-5" d="M119,70a2,2,0,1,1,2-2A2,2,0,0,1,119,70Zm0-2h0Z"/><path class="cls-5" d="M127,70a2,2,0,1,1,2-2A2,2,0,0,1,127,70Zm0-2h0Z"/><path class="cls-5" d="M3,76a2,2,0,1,1,2-2A2,2,0,0,1,3,76Zm0-2H3Z"/><path class="cls-5" d="M11,76a2,2,0,1,1,2-2A2,2,0,0,1,11,76Zm0-2h0Z"/><path class="cls-5" d="M19,76a2,2,0,1,1,2-2A2,2,0,0,1,19,76Zm0-2h0Z"/><path class="cls-5" d="M27,76a2,2,0,1,1,2-2A2,2,0,0,1,27,76Zm0-2h0Z"/><path class="cls-5" d="M35,76a2,2,0,1,1,2-2A2,2,0,0,1,35,76Zm0-2h0Z"/><path class="cls-5" d="M43,76a2,2,0,1,1,2-2A2,2,0,0,1,43,76Zm0-2h0Z"/><path class="cls-5" d="M51,76a2,2,0,1,1,2-2A2,2,0,0,1,51,76Zm0-2h0Z"/><path class="cls-5" d="M59,76a2,2,0,1,1,2-2A2,2,0,0,1,59,76Zm0-2h0Z"/><path class="cls-5" d="M67,76a2,2,0,1,1,2-2A2,2,0,0,1,67,76Zm0-2h0Z"/><path class="cls-5" d="M75,76a2,2,0,1,1,2-2A2,2,0,0,1,75,76Zm0-2h0Z"/><path class="cls-5" d="M83,76a2,2,0,1,1,2-2A2,2,0,0,1,83,76Zm0-2h0Z"/><path class="cls-5" d="M91,76a2,2,0,1,1,2-2A2,2,0,0,1,91,76Zm0-2h0Z"/><path class="cls-5" d="M99,76a2,2,0,1,1,2-2A2,2,0,0,1,99,76Zm0-2h0Z"/><path class="cls-5" d="M107,76a2,2,0,1,1,2-2A2,2,0,0,1,107,76Zm0-2h0Z"/><path class="cls-5" d="M115,76a2,2,0,1,1,2-2A2,2,0,0,1,115,76Zm0-2h0Z"/><path class="cls-5" d="M123,76a2,2,0,1,1,2-2A2,2,0,0,1,123,76Zm0-2h0Z"/><path class="cls-5" d="M7,82a2,2,0,1,1,2-2A2,2,0,0,1,7,82Zm0-2H7Z"/><path class="cls-5" d="M15,82a2,2,0,1,1,2-2A2,2,0,0,1,15,82Zm0-2h0Z"/><path class="cls-5" d="M23,82a2,2,0,1,1,2-2A2,2,0,0,1,23,82Zm0-2h0Z"/><path class="cls-5" d="M31,82a2,2,0,1,1,2-2A2,2,0,0,1,31,82Zm0-2h0Z"/><path class="cls-5" d="M39,82a2,2,0,1,1,2-2A2,2,0,0,1,39,82Zm0-2h0Z"/><path class="cls-5" d="M47,82a2,2,0,1,1,2-2A2,2,0,0,1,47,82Zm0-2h0Z"/><path class="cls-5" d="M55,82a2,2,0,1,1,2-2A2,2,0,0,1,55,82Zm0-2h0Z"/><path class="cls-5" d="M63,82a2,2,0,1,1,2-2A2,2,0,0,1,63,82Zm0-2h0Z"/><path class="cls-5" d="M71,82a2,2,0,1,1,2-2A2,2,0,0,1,71,82Zm0-2h0Z"/><path class="cls-5" d="M79,82a2,2,0,1,1,2-2A2,2,0,0,1,79,82Zm0-2h0Z"/><path class="cls-5" d="M87,82a2,2,0,1,1,2-2A2,2,0,0,1,87,82Zm0-2h0Z"/><path class="cls-5" d="M95,82a2,2,0,1,1,2-2A2,2,0,0,1,95,82Zm0-2h0Z"/><path class="cls-5" d="M103,82a2,2,0,1,1,2-2A2,2,0,0,1,103,82Zm0-2h0Z"/><path class="cls-5" d="M111,82a2,2,0,1,1,2-2A2,2,0,0,1,111,82Zm0-2h0Z"/><path class="cls-5" d="M119,82a2,2,0,1,1,2-2A2,2,0,0,1,119,82Zm0-2h0Z"/><path class="cls-5" d="M127,82a2,2,0,1,1,2-2A2,2,0,0,1,127,82Zm0-2h0Z"/><path class="cls-5" d="M3,88a2,2,0,1,1,2-2A2,2,0,0,1,3,88Zm0-2H3Z"/><path class="cls-5" d="M11,88a2,2,0,1,1,2-2A2,2,0,0,1,11,88Zm0-2h0Z"/><path class="cls-5" d="M19,88a2,2,0,1,1,2-2A2,2,0,0,1,19,88Zm0-2h0Z"/><path class="cls-5" d="M27,88a2,2,0,1,1,2-2A2,2,0,0,1,27,88Zm0-2h0Z"/><path class="cls-5" d="M35,88a2,2,0,1,1,2-2A2,2,0,0,1,35,88Zm0-2h0Z"/><path class="cls-5" d="M43,88a2,2,0,1,1,2-2A2,2,0,0,1,43,88Zm0-2h0Z"/><path class="cls-5" d="M51,88a2,2,0,1,1,2-2A2,2,0,0,1,51,88Zm0-2h0Z"/><path class="cls-5" d="M59,88a2,2,0,1,1,2-2A2,2,0,0,1,59,88Zm0-2h0Z"/><path class="cls-5" d="M67,88a2,2,0,1,1,2-2A2,2,0,0,1,67,88Zm0-2h0Z"/><path class="cls-5" d="M75,88a2,2,0,1,1,2-2A2,2,0,0,1,75,88Zm0-2h0Z"/><path class="cls-5" d="M83,88a2,2,0,1,1,2-2A2,2,0,0,1,83,88Zm0-2h0Z"/><path class="cls-5" d="M91,88a2,2,0,1,1,2-2A2,2,0,0,1,91,88Zm0-2h0Z"/><path class="cls-5" d="M99,88a2,2,0,1,1,2-2A2,2,0,0,1,99,88Zm0-2h0Z"/><path class="cls-5" d="M107,88a2,2,0,1,1,2-2A2,2,0,0,1,107,88Zm0-2h0Z"/><path class="cls-5" d="M115,88a2,2,0,1,1,2-2A2,2,0,0,1,115,88Zm0-2h0Z"/><path class="cls-5" d="M123,88a2,2,0,1,1,2-2A2,2,0,0,1,123,88Zm0-2h0Z"/><path class="cls-5" d="M7,94a2,2,0,1,1,2-2A2,2,0,0,1,7,94Zm0-2H7Z"/><path class="cls-5" d="M15,94a2,2,0,1,1,2-2A2,2,0,0,1,15,94Zm0-2h0Z"/><path class="cls-5" d="M23,94a2,2,0,1,1,2-2A2,2,0,0,1,23,94Zm0-2h0Z"/><path class="cls-5" d="M31,94a2,2,0,1,1,2-2A2,2,0,0,1,31,94Zm0-2h0Z"/><path class="cls-5" d="M39,94a2,2,0,1,1,2-2A2,2,0,0,1,39,94Zm0-2h0Z"/><path class="cls-5" d="M47,94a2,2,0,1,1,2-2A2,2,0,0,1,47,94Zm0-2h0Z"/><path class="cls-5" d="M55,94a2,2,0,1,1,2-2A2,2,0,0,1,55,94Zm0-2h0Z"/><path class="cls-5" d="M63,94a2,2,0,1,1,2-2A2,2,0,0,1,63,94Zm0-2h0Z"/><path class="cls-5" d="M71,94a2,2,0,1,1,2-2A2,2,0,0,1,71,94Zm0-2h0Z"/><path class="cls-5" d="M79,94a2,2,0,1,1,2-2A2,2,0,0,1,79,94Zm0-2h0Z"/><path class="cls-5" d="M87,94a2,2,0,1,1,2-2A2,2,0,0,1,87,94Zm0-2h0Z"/><path class="cls-5" d="M95,94a2,2,0,1,1,2-2A2,2,0,0,1,95,94Zm0-2h0Z"/><path class="cls-5" d="M103,94a2,2,0,1,1,2-2A2,2,0,0,1,103,94Zm0-2h0Z"/><path class="cls-5" d="M111,94a2,2,0,1,1,2-2A2,2,0,0,1,111,94Zm0-2h0Z"/><path class="cls-5" d="M119,94a2,2,0,1,1,2-2A2,2,0,0,1,119,94Zm0-2h0Z"/><path class="cls-5" d="M127,94a2,2,0,1,1,2-2A2,2,0,0,1,127,94Zm0-2h0Z"/><path class="cls-5" d="M3,100a2,2,0,1,1,2-2A2,2,0,0,1,3,100Zm0-2H3Z"/><path class="cls-5" d="M11,100a2,2,0,1,1,2-2A2,2,0,0,1,11,100Zm0-2h0Z"/><path class="cls-5" d="M19,100a2,2,0,1,1,2-2A2,2,0,0,1,19,100Zm0-2h0Z"/><path class="cls-5" d="M27,100a2,2,0,1,1,2-2A2,2,0,0,1,27,100Zm0-2h0Z"/><path class="cls-5" d="M35,100a2,2,0,1,1,2-2A2,2,0,0,1,35,100Zm0-2h0Z"/><path class="cls-5" d="M43,100a2,2,0,1,1,2-2A2,2,0,0,1,43,100Zm0-2h0Z"/><path class="cls-5" d="M51,100a2,2,0,1,1,2-2A2,2,0,0,1,51,100Zm0-2h0Z"/><path class="cls-5" d="M59,100a2,2,0,1,1,2-2A2,2,0,0,1,59,100Zm0-2h0Z"/><path class="cls-5" d="M67,100a2,2,0,1,1,2-2A2,2,0,0,1,67,100Zm0-2h0Z"/><path class="cls-5" d="M75,100a2,2,0,1,1,2-2A2,2,0,0,1,75,100Zm0-2h0Z"/><path class="cls-5" d="M83,100a2,2,0,1,1,2-2A2,2,0,0,1,83,100Zm0-2h0Z"/><path class="cls-5" d="M91,100a2,2,0,1,1,2-2A2,2,0,0,1,91,100Zm0-2h0Z"/><path class="cls-5" d="M99,100a2,2,0,1,1,2-2A2,2,0,0,1,99,100Zm0-2h0Z"/><path class="cls-5" d="M107,100a2,2,0,1,1,2-2A2,2,0,0,1,107,100Zm0-2h0Z"/><path class="cls-5" d="M115,100a2,2,0,1,1,2-2A2,2,0,0,1,115,100Zm0-2h0Z"/><path class="cls-5" d="M123,100a2,2,0,1,1,2-2A2,2,0,0,1,123,100Zm0-2h0Z"/><path class="cls-5" d="M7,106a2,2,0,1,1,2-2A2,2,0,0,1,7,106Zm0-2H7Z"/><path class="cls-5" d="M15,106a2,2,0,1,1,2-2A2,2,0,0,1,15,106Zm0-2h0Z"/><path class="cls-5" d="M23,106a2,2,0,1,1,2-2A2,2,0,0,1,23,106Zm0-2h0Z"/><path class="cls-5" d="M31,106a2,2,0,1,1,2-2A2,2,0,0,1,31,106Zm0-2h0Z"/><path class="cls-5" d="M39,106a2,2,0,1,1,2-2A2,2,0,0,1,39,106Zm0-2h0Z"/><path class="cls-5" d="M47,106a2,2,0,1,1,2-2A2,2,0,0,1,47,106Zm0-2h0Z"/><path class="cls-5" d="M55,106a2,2,0,1,1,2-2A2,2,0,0,1,55,106Zm0-2h0Z"/><path class="cls-5" d="M63,106a2,2,0,1,1,2-2A2,2,0,0,1,63,106Zm0-2h0Z"/><path class="cls-5" d="M71,106a2,2,0,1,1,2-2A2,2,0,0,1,71,106Zm0-2h0Z"/><path class="cls-5" d="M79,106a2,2,0,1,1,2-2A2,2,0,0,1,79,106Zm0-2h0Z"/><path class="cls-5" d="M87,106a2,2,0,1,1,2-2A2,2,0,0,1,87,106Zm0-2h0Z"/><path class="cls-5" d="M95,106a2,2,0,1,1,2-2A2,2,0,0,1,95,106Zm0-2h0Z"/><path class="cls-5" d="M103,106a2,2,0,1,1,2-2A2,2,0,0,1,103,106Zm0-2h0Z"/><path class="cls-5" d="M111,106a2,2,0,1,1,2-2A2,2,0,0,1,111,106Zm0-2h0Z"/><path class="cls-5" d="M119,106a2,2,0,1,1,2-2A2,2,0,0,1,119,106Zm0-2h0Z"/><path class="cls-5" d="M127,106a2,2,0,1,1,2-2A2,2,0,0,1,127,106Zm0-2h0Z"/><path class="cls-5" d="M3,112a2,2,0,1,1,2-2A2,2,0,0,1,3,112Zm0-2H3Z"/><path class="cls-5" d="M11,112a2,2,0,1,1,2-2A2,2,0,0,1,11,112Zm0-2h0Z"/><path class="cls-5" d="M19,112a2,2,0,1,1,2-2A2,2,0,0,1,19,112Zm0-2h0Z"/><path class="cls-5" d="M27,112a2,2,0,1,1,2-2A2,2,0,0,1,27,112Zm0-2h0Z"/><path class="cls-5" d="M35,112a2,2,0,1,1,2-2A2,2,0,0,1,35,112Zm0-2h0Z"/><path class="cls-5" d="M43,112a2,2,0,1,1,2-2A2,2,0,0,1,43,112Zm0-2h0Z"/><path class="cls-5" d="M51,112a2,2,0,1,1,2-2A2,2,0,0,1,51,112Zm0-2h0Z"/><path class="cls-5" d="M59,112a2,2,0,1,1,2-2A2,2,0,0,1,59,112Zm0-2h0Z"/><path class="cls-5" d="M67,112a2,2,0,1,1,2-2A2,2,0,0,1,67,112Zm0-2h0Z"/><path class="cls-5" d="M75,112a2,2,0,1,1,2-2A2,2,0,0,1,75,112Zm0-2h0Z"/><path class="cls-5" d="M83,112a2,2,0,1,1,2-2A2,2,0,0,1,83,112Zm0-2h0Z"/><path class="cls-5" d="M91,112a2,2,0,1,1,2-2A2,2,0,0,1,91,112Zm0-2h0Z"/><path class="cls-5" d="M99,112a2,2,0,1,1,2-2A2,2,0,0,1,99,112Zm0-2h0Z"/><path class="cls-5" d="M107,112a2,2,0,1,1,2-2A2,2,0,0,1,107,112Zm0-2h0Z"/><path class="cls-5" d="M115,112a2,2,0,1,1,2-2A2,2,0,0,1,115,112Zm0-2h0Z"/><path class="cls-5" d="M123,112a2,2,0,1,1,2-2A2,2,0,0,1,123,112Zm0-2h0Z"/><path class="cls-5" d="M7,118a2,2,0,1,1,2-2A2,2,0,0,1,7,118Zm0-2H7Z"/><path class="cls-5" d="M15,118a2,2,0,1,1,2-2A2,2,0,0,1,15,118Zm0-2h0Z"/><path class="cls-5" d="M23,118a2,2,0,1,1,2-2A2,2,0,0,1,23,118Zm0-2h0Z"/><path class="cls-5" d="M31,118a2,2,0,1,1,2-2A2,2,0,0,1,31,118Zm0-2h0Z"/><path class="cls-5" d="M39,118a2,2,0,1,1,2-2A2,2,0,0,1,39,118Zm0-2h0Z"/><path class="cls-5" d="M47,118a2,2,0,1,1,2-2A2,2,0,0,1,47,118Zm0-2h0Z"/><path class="cls-5" d="M55,118a2,2,0,1,1,2-2A2,2,0,0,1,55,118Zm0-2h0Z"/><path class="cls-5" d="M63,118a2,2,0,1,1,2-2A2,2,0,0,1,63,118Zm0-2h0Z"/><path class="cls-5" d="M71,118a2,2,0,1,1,2-2A2,2,0,0,1,71,118Zm0-2h0Z"/><path class="cls-5" d="M79,118a2,2,0,1,1,2-2A2,2,0,0,1,79,118Zm0-2h0Z"/><path class="cls-5" d="M87,118a2,2,0,1,1,2-2A2,2,0,0,1,87,118Zm0-2h0Z"/><path class="cls-5" d="M95,118a2,2,0,1,1,2-2A2,2,0,0,1,95,118Zm0-2h0Z"/><path class="cls-5" d="M103,118a2,2,0,1,1,2-2A2,2,0,0,1,103,118Zm0-2h0Z"/><path class="cls-5" d="M111,118a2,2,0,1,1,2-2A2,2,0,0,1,111,118Zm0-2h0Z"/><path class="cls-5" d="M119,118a2,2,0,1,1,2-2A2,2,0,0,1,119,118Zm0-2h0Z"/><path class="cls-5" d="M127,118a2,2,0,1,1,2-2A2,2,0,0,1,127,118Zm0-2h0Z"/><path class="cls-5" d="M3,124a2,2,0,1,1,2-2A2,2,0,0,1,3,124Zm0-2H3Z"/><path class="cls-5" d="M11,124a2,2,0,1,1,2-2A2,2,0,0,1,11,124Zm0-2h0Z"/><path class="cls-5" d="M19,124a2,2,0,1,1,2-2A2,2,0,0,1,19,124Zm0-2h0Z"/><path class="cls-5" d="M27,124a2,2,0,1,1,2-2A2,2,0,0,1,27,124Zm0-2h0Z"/><path class="cls-5" d="M35,124a2,2,0,1,1,2-2A2,2,0,0,1,35,124Zm0-2h0Z"/><path class="cls-5" d="M43,124a2,2,0,1,1,2-2A2,2,0,0,1,43,124Zm0-2h0Z"/><path class="cls-5" d="M51,124a2,2,0,1,1,2-2A2,2,0,0,1,51,124Zm0-2h0Z"/><path class="cls-5" d="M59,124a2,2,0,1,1,2-2A2,2,0,0,1,59,124Zm0-2h0Z"/><path class="cls-5" d="M67,124a2,2,0,1,1,2-2A2,2,0,0,1,67,124Zm0-2h0Z"/><path class="cls-5" d="M75,124a2,2,0,1,1,2-2A2,2,0,0,1,75,124Zm0-2h0Z"/><path class="cls-5" d="M83,124a2,2,0,1,1,2-2A2,2,0,0,1,83,124Zm0-2h0Z"/><path class="cls-5" d="M91,124a2,2,0,1,1,2-2A2,2,0,0,1,91,124Zm0-2h0Z"/><path class="cls-5" d="M99,124a2,2,0,1,1,2-2A2,2,0,0,1,99,124Zm0-2h0Z"/><path class="cls-5" d="M107,124a2,2,0,1,1,2-2A2,2,0,0,1,107,124Zm0-2h0Z"/><path class="cls-5" d="M115,124a2,2,0,1,1,2-2A2,2,0,0,1,115,124Zm0-2h0Z"/><path class="cls-5" d="M123,124a2,2,0,1,1,2-2A2,2,0,0,1,123,124Zm0-2h0Z"/><path class="cls-5" d="M7,130a2,2,0,1,1,2-2A2,2,0,0,1,7,130Zm0-2H7Z"/><path class="cls-5" d="M15,130a2,2,0,1,1,2-2A2,2,0,0,1,15,130Zm0-2h0Z"/><path class="cls-5" d="M23,130a2,2,0,1,1,2-2A2,2,0,0,1,23,130Zm0-2h0Z"/><path class="cls-5" d="M31,130a2,2,0,1,1,2-2A2,2,0,0,1,31,130Zm0-2h0Z"/><path class="cls-5" d="M39,130a2,2,0,1,1,2-2A2,2,0,0,1,39,130Zm0-2h0Z"/><path class="cls-5" d="M47,130a2,2,0,1,1,2-2A2,2,0,0,1,47,130Zm0-2h0Z"/><path class="cls-5" d="M55,130a2,2,0,1,1,2-2A2,2,0,0,1,55,130Zm0-2h0Z"/><path class="cls-5" d="M63,130a2,2,0,1,1,2-2A2,2,0,0,1,63,130Zm0-2h0Z"/><path class="cls-5" d="M71,130a2,2,0,1,1,2-2A2,2,0,0,1,71,130Zm0-2h0Z"/><path class="cls-5" d="M79,130a2,2,0,1,1,2-2A2,2,0,0,1,79,130Zm0-2h0Z"/><path class="cls-5" d="M87,130a2,2,0,1,1,2-2A2,2,0,0,1,87,130Zm0-2h0Z"/><path class="cls-5" d="M95,130a2,2,0,1,1,2-2A2,2,0,0,1,95,130Zm0-2h0Z"/><path class="cls-5" d="M103,130a2,2,0,1,1,2-2A2,2,0,0,1,103,130Zm0-2h0Z"/><path class="cls-5" d="M111,130a2,2,0,1,1,2-2A2,2,0,0,1,111,130Zm0-2h0Z"/><path class="cls-5" d="M119,130a2,2,0,1,1,2-2A2,2,0,0,1,119,130Zm0-2h0Z"/><path class="cls-5" d="M127,130a2,2,0,1,1,2-2A2,2,0,0,1,127,130Zm0-2h0Z"/></g></g><g class="cls-6"><polygon class="cls-7" points="84.05 89.85 44.05 89.85 44.25 76.1 83.8 76.1 84.05 89.85"/><path class="cls-5" d="M84,90.85H44a1,1,0,0,1-1-1l.2-13.75a1,1,0,0,1,1-1H83.8a1,1,0,0,1,1,1L85,89.83a1,1,0,0,1-1,1Zm-39-2H83L82.82,77.1H45.24Z"/><path class="cls-8" d="M88,85.3s-7.29-3-7-2.8c-2.31,5-10.71,7.5-17,9.28C57.83,90,48.44,87.48,46.78,82.56L40,85.4a27.65,27.65,0,0,0-17,25.52V126h81.76V110.7A27.65,27.65,0,0,0,88,85.3Z"/><path class="cls-9" d="M78.57,74.31c-1.62,3.71.78,6.72,3,8.19-2.31,5-11.25,7.5-17.5,9.28C57.8,90,48.15,87.46,46.55,82.5c2.15-1.29,4.64-4.41,2.94-8.19Z"/><g class="cls-3"><path class="cls-10" d="M82.45,87.5C96.2,91.25,105,104.65,105,115.7v-5A27.65,27.65,0,0,0,88.24,85.3s-7.29-3-7-2.8Z"/></g><g class="cls-3"><polygon class="cls-11" points="75.3 90 67 90 64.05 91.77 61 90 52.8 90 52.8 97.5 75.3 97.5 75.3 90"/></g><g class="cls-3"><path class="cls-10" d="M46.58,82.56,39.79,85.4A27.47,27.47,0,0,0,23,110.91v5C23,105,31.55,90,45.3,87.5Z"/></g><path class="cls-5" d="M89,127a1,1,0,0,1-1-1V107.5a1,1,0,0,1,2,0V126A1,1,0,0,1,89,127Z"/><path class="cls-5" d="M39,127a1,1,0,0,1-1-1V107.5a1,1,0,0,1,2,0V126A1,1,0,0,1,39,127Z"/><path class="cls-5" d="M105,127a1,1,0,0,1-1-1v-15.3A26.63,26.63,0,0,0,87.89,86.22l-7-3a1,1,0,0,1,.79-1.84l7,3A28.63,28.63,0,0,1,106,110.69V126A1,1,0,0,1,105,127Z"/><path class="cls-5" d="M23,127a1,1,0,0,1-1-1V110.92A28.58,28.58,0,0,1,39.61,84.48l6.76-2.82a1,1,0,0,1,.77,1.85l-6.76,2.82A26.59,26.59,0,0,0,24,110.92V126A1,1,0,0,1,23,127Z"/><g class="cls-3"><path class="cls-12" d="M78.57,74.31H49.49a5.75,5.75,0,0,1,0,4.9L51.32,81a13.58,13.58,0,0,0,9.61,4h6.25a13.58,13.58,0,0,0,9.61-4L78.6,79.2A5.71,5.71,0,0,1,78.57,74.31Z"/></g><path class="cls-5" d="M64,92.77a1,1,0,0,1-.47-.12l-17.5-9.27a1,1,0,0,1,0-1.74c1.66-1,4.05-3.57,2.54-6.92a1,1,0,0,1,1.82-.82,7.15,7.15,0,0,1-2,8.45L64,90.64l15.68-8.31c-2.09-1.94-3.58-5-2.07-8.42a1,1,0,1,1,1.83.8c-1.68,3.85,1.88,6.47,2.62,7A1,1,0,0,1,82,83.38l-17.5,9.27A1,1,0,0,1,64,92.77Z"/><path class="cls-13" d="M49.13,95.69,37.8,86.25l6.25-10,15,12.5L55.33,94.7A4.17,4.17,0,0,1,49.13,95.69Z"/><path class="cls-13" d="M79,95.69,90.3,86.25l-6.25-10-15,12.5,3.72,5.95A4.17,4.17,0,0,0,79,95.69Z"/><g class="cls-3"><polygon class="cls-10" points="44.05 81.25 56.99 92.04 59.05 88.75 44.05 76.25 37.8 86.25 39.85 87.96 44.05 81.25"/></g><g class="cls-3"><polygon class="cls-10" points="84 81.25 88.19 87.96 90.25 86.25 84 76.25 69 88.75 71.06 92.04 84 81.25"/></g><path class="cls-5" d="M51.8,97.66a5.17,5.17,0,0,1-3.31-1.2h0L37.16,87a1,1,0,0,1-.21-1.3l6.25-10a1,1,0,0,1,1.49-.24l15,12.5a1,1,0,0,1,.21,1.3l-3.72,5.95a5.17,5.17,0,0,1-4.38,2.43Zm-2-2.73a3.17,3.17,0,0,0,4.72-.75L57.74,89,44.29,77.75,39.11,86l10.66,8.88Z"/><path class="cls-5" d="M76.25,97.66a5.17,5.17,0,0,1-4.38-2.43l-3.72-5.95a1,1,0,0,1,.21-1.3l15-12.5a1,1,0,0,1,1.49.24l6.25,10a1,1,0,0,1-.21,1.3L79.56,96.46h0A5.17,5.17,0,0,1,76.25,97.66Zm2.67-2h0ZM70.31,89l3.25,5.21a3.17,3.17,0,0,0,4.72.75L88.94,86l-5.18-8.29Z"/><polygon class="cls-14" points="56 94.87 61.45 103 66.64 103 72 94.79 69.24 90 58.86 90 56 94.87"/><polygon class="cls-14" points="61.45 103 57.56 126 70.54 126 66.64 103 61.45 103"/><path class="cls-5" d="M70.54,127a1,1,0,0,1-1-.83L65.8,104H62.3l-3.75,22.17a1,1,0,0,1-2-.33l3.89-23a1,1,0,0,1,1-.83h5.19a1,1,0,0,1,1,.83l3.89,23a1,1,0,0,1-.82,1.15Z"/><path class="cls-5" d="M66.65,104H61.45a1,1,0,0,1-.83-.44l-5.45-8.13a1,1,0,0,1,0-1.06L58,89.49a1,1,0,0,1,.86-.49H69.24a1,1,0,0,1,.87.5l2.76,4.79a1,1,0,0,1,0,1l-5.35,8.21A1,1,0,0,1,66.65,104ZM62,102H66.1l4.72-7.25L68.66,91H59.43l-2.25,3.83Z"/><path class="cls-15" d="M39,54V45c0-3-2.23-4-3.6-3-2.19,1.53.6,8,.6,8C34.38,51,36.21,54.74,39,54Z"/><path class="cls-5" d="M38.26,55.1a4,4,0,0,1-3.55-2.45,2.94,2.94,0,0,1,.12-2.88c-.78-2-2.39-6.92,0-8.59A3,3,0,0,1,38,41a4.27,4.27,0,0,1,2,4v9a1,1,0,0,1-.75,1A3.9,3.9,0,0,1,38.26,55.1ZM39,54h0ZM36.53,42.64a1,1,0,0,0-.56.18c-.89.62-.22,4.08.95,6.78a1,1,0,0,1-.38,1.24c-.22.14-.17.62,0,1A2.12,2.12,0,0,0,38,53.07V45a2.41,2.41,0,0,0-1-2.23A1.06,1.06,0,0,0,36.53,42.64Z"/><path class="cls-5" d="M36,51a1,1,0,0,1-.54-1.84l.38-.24a1,1,0,1,1,1.08,1.68l-.37.24A1,1,0,0,1,36,51Z"/><path class="cls-15" d="M89,54V45c0-3,2.22-4,3.6-3,2.19,1.53-.6,8-.6,8C93.63,51,91.79,54.74,89,54Z"/><path class="cls-15" d="M67.12,80H60.88a13.58,13.58,0,0,1-9.61-4L43,67.73a13.58,13.58,0,0,1-4-9.61V33.59c0-24.79,50-24.79,50,0V58.12a13.58,13.58,0,0,1-4,9.61L76.73,76A13.58,13.58,0,0,1,67.12,80Z"/><g class="cls-3"><path class="cls-12" d="M76.73,71a13.58,13.58,0,0,1-9.61,4H60.88a13.58,13.58,0,0,1-9.61-4L43,62.73a13.58,13.58,0,0,1-4-9.61v5a13.58,13.58,0,0,0,4,9.61L51.27,76a13.58,13.58,0,0,0,9.61,4h6.25a13.58,13.58,0,0,0,9.61-4L85,67.73a13.58,13.58,0,0,0,4-9.61v-5a13.58,13.58,0,0,1-4,9.61Z"/></g><path class="cls-5" d="M89.74,55.1a3.9,3.9,0,0,1-1-.13A1,1,0,0,1,88,54V45a4.27,4.27,0,0,1,2-4,3,3,0,0,1,3.13.18c2.4,1.67.78,6.61,0,8.59a2.94,2.94,0,0,1,.12,2.88A4,4,0,0,1,89.74,55.1Zm1.72-12.46a1.06,1.06,0,0,0-.5.13A2.41,2.41,0,0,0,90,45v8.07a2.12,2.12,0,0,0,1.46-1.23c.17-.38.22-.86,0-1a1,1,0,0,1-.38-1.24c1.17-2.71,1.84-6.16.95-6.78A1,1,0,0,0,91.47,42.64Z"/><path class="cls-5" d="M92,51a1,1,0,0,1-.54-.16l-.37-.24a1,1,0,1,1,1.08-1.68l.38.24A1,1,0,0,1,92,51Z"/><path class="cls-5" d="M67.12,81H60.88a14.49,14.49,0,0,1-10.31-4.27l-8.29-8.29A14.49,14.49,0,0,1,38,58.12V33.59c0-6.1,2.86-11.21,8.26-14.78C51,15.71,57.26,14,64,14s13,1.71,17.74,4.81C87.14,22.39,90,27.5,90,33.59V58.12a14.49,14.49,0,0,1-4.27,10.31l-8.29,8.29A14.49,14.49,0,0,1,67.12,81ZM64,16c-11.56,0-24,5.51-24,17.59V58.12A12.5,12.5,0,0,0,43.69,67L52,75.31A12.5,12.5,0,0,0,60.88,79h6.25A12.5,12.5,0,0,0,76,75.31L84.31,67A12.5,12.5,0,0,0,88,58.12V33.59a15.35,15.35,0,0,0-7.36-13.11C76.26,17.59,70.36,16,64,16Z"/><path class="cls-5" d="M81.33,43.49a11,11,0,0,1-3.24-.69c-2.12-.68-4.31-1.38-6.85.07a1,1,0,0,1-1-1.74c3.3-1.89,6.16-1,8.45-.24,1.74.56,2.86.87,3.74.28a1,1,0,1,1,1.11,1.66A3.89,3.89,0,0,1,81.33,43.49Z"/><path class="cls-5" d="M58,44a1,1,0,0,1-.32-.05,15.67,15.67,0,0,1-2.62-1.3c-2.8-1.6-6-3.42-9.44-.62a1,1,0,1,1-1.26-1.55c4.53-3.66,8.84-1.2,11.69.44a14.54,14.54,0,0,0,2.26,1.14A1,1,0,0,1,58,44Z"/><circle class="cls-5" cx="51.5" cy="48" r="1.5"/><path class="cls-5" d="M51.5,50.5A2.5,2.5,0,1,1,54,48,2.5,2.5,0,0,1,51.5,50.5Zm0-3a.5.5,0,1,0,.5.5A.5.5,0,0,0,51.5,47.5Z"/><path class="cls-5" d="M56,47H47a1,1,0,0,1,0-2h9a1,1,0,0,1,0,2Z"/><path class="cls-5" d="M64,57.76a5.37,5.37,0,0,1-2.57-.93,1,1,0,0,1,1.11-1.66,3.61,3.61,0,0,0,1.46.59,3.61,3.61,0,0,0,1.46-.59,1,1,0,0,1,1.11,1.66A5.37,5.37,0,0,1,64,57.76Z"/><path class="cls-5" d="M63.86,66c-2.67,0-5.28-.42-6.45-1.26a1,1,0,1,1,1.17-1.62c1.57,1.13,8.58,1.29,10.92-.06a1,1,0,0,1,1,1.73C69.1,65.59,66.46,66,63.86,66Z"/><path class="cls-5" d="M67,75a1,1,0,0,1-.69-.28c-.82-.78-3.8-.78-4.62,0a1,1,0,1,1-1.38-1.45c1.59-1.52,5.79-1.52,7.38,0A1,1,0,0,1,67,75Z"/><circle class="cls-5" cx="76.64" cy="48" r="1.5"/><path class="cls-5" d="M76.64,50.5a2.5,2.5,0,1,1,2.5-2.5A2.5,2.5,0,0,1,76.64,50.5Zm0-3a.5.5,0,1,0,.5.5A.5.5,0,0,0,76.64,47.5Z"/><path class="cls-5" d="M81,47H72a1,1,0,0,1,0-2h9a1,1,0,0,1,0,2Z"/><g class="cls-3"><path class="cls-12" d="M39,37.21l.09-3.6A14.84,14.84,0,0,1,53.94,18.77H74.25A14.84,14.84,0,0,1,89.09,33.61v2c-3.27,1.09-5.67-1.26-6.8-3.52-15,8.75-30.82,0-39.14.94C40.75,33.33,39.53,35.33,39,37.21Z"/></g><path class="cls-16" d="M87.77,4s.86,5.63-8.59,5.63c-19-1.33-31.33.47-39.3,7.5-3.8,3.35-6.11,9.3-4.18,18.75.46,2.27,3.3,1.25,3.3,1.25s-.52-7.07,4.16-7.58c8.32-.9,24.14,7.81,39.14-.94,1.25,2.5,4.06,5.13,7.89,3C96.2,28.38,96.75,10.56,87.77,4Z"/><g class="cls-3"><path class="cls-10" d="M87.77,8.38S88.63,14,79.17,14c-19-1.33-31.33.47-39.3,7.5A15,15,0,0,0,35.1,31.74c-.58-7.09,1.56-11.78,4.77-14.61,8-7,20.31-8.83,39.3-7.5C88.63,9.63,87.77,4,87.77,4c5.36,3.92,7.33,11.84,6.76,18.29C94.07,17,92,11.44,87.77,8.38Z"/></g><path class="cls-5" d="M37.65,38.36A3.29,3.29,0,0,1,36,38a2.69,2.69,0,0,1-1.32-1.9c-2.25-11,1.2-16.79,4.5-19.7,7.76-6.85,19.73-9.17,40-7.75,3.18,0,5.51-.71,6.69-2a3.3,3.3,0,0,0,.85-2.44,1,1,0,0,1,1.58-.95C94.3,7.53,96,16,95.57,21.84,95.23,27,93.39,31,90.67,32.53a6.07,6.07,0,0,1-4.86.62A7.43,7.43,0,0,1,81.92,30c-10.26,5.54-20.62,3.44-29,1.75-3.84-.78-7.17-1.45-9.66-1.18C39.61,30.94,40,37,40,37.05a1,1,0,0,1-.66,1A5.36,5.36,0,0,1,37.65,38.36ZM68.73,10.23c-13.58,0-22.26,2.42-28.19,7.65-2.9,2.56-5.92,7.72-3.86,17.8a.71.71,0,0,0,.33.55,1.71,1.71,0,0,0,1,.11c0-2.9,1-7.35,5.08-7.78,2.81-.3,6.27.4,10.27,1.21,8.28,1.67,18.58,3.76,28.47-2a1,1,0,0,1,1.4.42,6,6,0,0,0,3.22,3.09,4.16,4.16,0,0,0,3.3-.47c2.09-1.14,3.57-4.61,3.86-9.07.32-4.89-.86-11.66-5-15.75a5.39,5.39,0,0,1-1.06,1.9c-1.58,1.84-4.37,2.77-8.3,2.77C75.4,10.36,71.93,10.23,68.73,10.23Z"/><g class="cls-17"><path class="cls-5" d="M40.08,32a1,1,0,0,1-1-.84,12.44,12.44,0,0,1,4.3-11.88c8.63-6.93,23-6.34,31.53-6,1.65.07,3.08.13,4.25.13,9.3,0,11.48-4.94,11.5-5a1,1,0,1,1,1.85.77c-.11.25-2.72,6.22-13.34,6.22-1.21,0-2.66-.06-4.33-.13-8.29-.34-22.16-.91-30.2,5.55a10.47,10.47,0,0,0-3.58,10A1,1,0,0,1,40.24,32Z"/><path class="cls-5" d="M44.89,30.47h0a1,1,0,0,1-1-1A8.79,8.79,0,0,1,46.74,23C53,17.05,68,17.72,77,18.12c1.61.07,3,.13,4,.13,9.3,0,11.48-4.94,11.5-5a1,1,0,1,1,1.85.77c-.11.25-2.72,6.22-13.34,6.22-1,0-2.43-.06-4.06-.13-8.08-.36-23.12-1-28.8,4.32a6.77,6.77,0,0,0-2.21,5.05A1,1,0,0,1,44.89,30.47Z"/><path class="cls-5" d="M49.75,30.81h-.06a1,1,0,0,1-.94-1.06c.5-8,18.76-7.29,29.68-6.85,1.66.07,3.09.12,4,.12,7.25,0,10.18-3,11.11-4.35a1,1,0,1,1,1.63,1.16C94.11,21.38,90.65,25,82.47,25c-1,0-2.44-.06-4.12-.13-8.15-.33-27.22-1.1-27.6,5A1,1,0,0,1,49.75,30.81Z"/><path class="cls-5" d="M54.8,32A1,1,0,0,1,54,30.43c2.47-3.46,13-3.36,24.56-2.94,1.76.06,3.27.12,4.3.12,5.63,0,9.35-1.19,10.47-3.36a1,1,0,0,1,1.77.92c-1.05,2-4,4.43-12.25,4.43-1.07,0-2.6-.06-4.38-.12-6.75-.25-20.81-.76-22.86,2.11A1,1,0,0,1,54.8,32Z"/></g><path class="cls-5" d="M89,38a1,1,0,0,1-1-1V33a1,1,0,0,1,2,0v4A1,1,0,0,1,89,38Z"/></g></svg>