<?xml version="1.0" ?><svg data-name="004" id="_004" viewBox="0 0 128 128" xmlns="http://www.w3.org/2000/svg" xmlns:xlink="http://www.w3.org/1999/xlink"><defs><style>.cls-1{fill:#97c1ff;}.cls-2{fill:none;}.cls-3{opacity:0.3;}.cls-4{clip-path:url(#clip-path);}.cls-5{fill:#6d6daa;}.cls-6{clip-path:url(#clip-path-2);}.cls-7{fill:#89dbba;}.cls-8{fill:#efdcd2;}.cls-9{fill:#cc7e54;}.cls-10{fill:#fff;}.cls-11{fill:#f9e2dc;}.cls-12{fill:#ffd599;}.cls-13{opacity:0.5;}.cls-14{fill:#ff9797;}</style><clipPath id="clip-path"><circle class="cls-1" cx="64.15" cy="68" r="56"/></clipPath><clipPath id="clip-path-2"><path class="cls-2" d="M120.28,67.86A56.14,56.14,0,1,1,8,67.86C8,36.85,18.14,0,64.14,0c8.2,0,21-1.05,28,3,6.69,3.86,15,11.66,20,18C121.73,33.18,120.28,52.85,120.28,67.86Z"/></clipPath></defs><title/><g class="cls-3"><circle class="cls-1" cx="64.15" cy="68" r="56"/><g class="cls-4"><path class="cls-5" d="M3.15,4a2,2,0,1,1,2-2A2,2,0,0,1,3.15,4Zm0-2h0Z"/><path class="cls-5" d="M11.15,4a2,2,0,1,1,2-2A2,2,0,0,1,11.15,4Zm0-2h0Z"/><path class="cls-5" d="M19.15,4a2,2,0,1,1,2-2A2,2,0,0,1,19.15,4Zm0-2h0Z"/><path class="cls-5" d="M27.15,4a2,2,0,1,1,2-2A2,2,0,0,1,27.15,4Zm0-2h0Z"/><path class="cls-5" d="M35.15,4a2,2,0,1,1,2-2A2,2,0,0,1,35.15,4Zm0-2h0Z"/><path class="cls-5" d="M43.15,4a2,2,0,1,1,2-2A2,2,0,0,1,43.15,4Zm0-2h0Z"/><path class="cls-5" d="M51.15,4a2,2,0,1,1,2-2A2,2,0,0,1,51.15,4Zm0-2h0Z"/><path class="cls-5" d="M59.15,4a2,2,0,1,1,2-2A2,2,0,0,1,59.15,4Zm0-2h0Z"/><path class="cls-5" d="M67.15,4a2,2,0,1,1,2-2A2,2,0,0,1,67.15,4Zm0-2h0Z"/><path class="cls-5" d="M75.15,4a2,2,0,1,1,2-2A2,2,0,0,1,75.15,4Zm0-2h0Z"/><path class="cls-5" d="M83.15,4a2,2,0,1,1,2-2A2,2,0,0,1,83.15,4Zm0-2h0Z"/><path class="cls-5" d="M91.15,4a2,2,0,1,1,2-2A2,2,0,0,1,91.15,4Zm0-2h0Z"/><path class="cls-5" d="M99.15,4a2,2,0,1,1,2-2A2,2,0,0,1,99.15,4Zm0-2h0Z"/><path class="cls-5" d="M107.15,4a2,2,0,1,1,2-2A2,2,0,0,1,107.15,4Zm0-2h0Z"/><path class="cls-5" d="M115.15,4a2,2,0,1,1,2-2A2,2,0,0,1,115.15,4Zm0-2h0Z"/><path class="cls-5" d="M123.15,4a2,2,0,1,1,2-2A2,2,0,0,1,123.15,4Zm0-2h0Z"/><path class="cls-5" d="M7.15,10a2,2,0,1,1,2-2A2,2,0,0,1,7.15,10Zm0-2h0Z"/><path class="cls-5" d="M15.15,10a2,2,0,1,1,2-2A2,2,0,0,1,15.15,10Zm0-2h0Z"/><path class="cls-5" d="M23.15,10a2,2,0,1,1,2-2A2,2,0,0,1,23.15,10Zm0-2h0Z"/><path class="cls-5" d="M31.15,10a2,2,0,1,1,2-2A2,2,0,0,1,31.15,10Zm0-2h0Z"/><path class="cls-5" d="M39.15,10a2,2,0,1,1,2-2A2,2,0,0,1,39.15,10Zm0-2h0Z"/><path class="cls-5" d="M47.15,10a2,2,0,1,1,2-2A2,2,0,0,1,47.15,10Zm0-2h0Z"/><path class="cls-5" d="M55.15,10a2,2,0,1,1,2-2A2,2,0,0,1,55.15,10Zm0-2h0Z"/><path class="cls-5" d="M63.15,10a2,2,0,1,1,2-2A2,2,0,0,1,63.15,10Zm0-2h0Z"/><path class="cls-5" d="M71.15,10a2,2,0,1,1,2-2A2,2,0,0,1,71.15,10Zm0-2h0Z"/><path class="cls-5" d="M79.15,10a2,2,0,1,1,2-2A2,2,0,0,1,79.15,10Zm0-2h0Z"/><path class="cls-5" d="M87.15,10a2,2,0,1,1,2-2A2,2,0,0,1,87.15,10Zm0-2h0Z"/><path class="cls-5" d="M95.15,10a2,2,0,1,1,2-2A2,2,0,0,1,95.15,10Zm0-2h0Z"/><path class="cls-5" d="M103.15,10a2,2,0,1,1,2-2A2,2,0,0,1,103.15,10Zm0-2h0Z"/><path class="cls-5" d="M111.15,10a2,2,0,1,1,2-2A2,2,0,0,1,111.15,10Zm0-2h0Z"/><path class="cls-5" d="M119.15,10a2,2,0,1,1,2-2A2,2,0,0,1,119.15,10Zm0-2h0Z"/><path class="cls-5" d="M127.15,10a2,2,0,1,1,2-2A2,2,0,0,1,127.15,10Zm0-2h0Z"/><path class="cls-5" d="M3.15,16a2,2,0,1,1,2-2A2,2,0,0,1,3.15,16Zm0-2h0Z"/><path class="cls-5" d="M11.15,16a2,2,0,1,1,2-2A2,2,0,0,1,11.15,16Zm0-2h0Z"/><path class="cls-5" d="M19.15,16a2,2,0,1,1,2-2A2,2,0,0,1,19.15,16Zm0-2h0Z"/><path class="cls-5" d="M27.15,16a2,2,0,1,1,2-2A2,2,0,0,1,27.15,16Zm0-2h0Z"/><path class="cls-5" d="M35.15,16a2,2,0,1,1,2-2A2,2,0,0,1,35.15,16Zm0-2h0Z"/><path class="cls-5" d="M43.15,16a2,2,0,1,1,2-2A2,2,0,0,1,43.15,16Zm0-2h0Z"/><path class="cls-5" d="M51.15,16a2,2,0,1,1,2-2A2,2,0,0,1,51.15,16Zm0-2h0Z"/><path class="cls-5" d="M59.15,16a2,2,0,1,1,2-2A2,2,0,0,1,59.15,16Zm0-2h0Z"/><path class="cls-5" d="M67.15,16a2,2,0,1,1,2-2A2,2,0,0,1,67.15,16Zm0-2h0Z"/><path class="cls-5" d="M75.15,16a2,2,0,1,1,2-2A2,2,0,0,1,75.15,16Zm0-2h0Z"/><path class="cls-5" d="M83.15,16a2,2,0,1,1,2-2A2,2,0,0,1,83.15,16Zm0-2h0Z"/><path class="cls-5" d="M91.15,16a2,2,0,1,1,2-2A2,2,0,0,1,91.15,16Zm0-2h0Z"/><path class="cls-5" d="M99.15,16a2,2,0,1,1,2-2A2,2,0,0,1,99.15,16Zm0-2h0Z"/><path class="cls-5" d="M107.15,16a2,2,0,1,1,2-2A2,2,0,0,1,107.15,16Zm0-2h0Z"/><path class="cls-5" d="M115.15,16a2,2,0,1,1,2-2A2,2,0,0,1,115.15,16Zm0-2h0Z"/><path class="cls-5" d="M123.15,16a2,2,0,1,1,2-2A2,2,0,0,1,123.15,16Zm0-2h0Z"/><path class="cls-5" d="M7.15,22a2,2,0,1,1,2-2A2,2,0,0,1,7.15,22Zm0-2h0Z"/><path class="cls-5" d="M15.15,22a2,2,0,1,1,2-2A2,2,0,0,1,15.15,22Zm0-2h0Z"/><path class="cls-5" d="M23.15,22a2,2,0,1,1,2-2A2,2,0,0,1,23.15,22Zm0-2h0Z"/><path class="cls-5" d="M31.15,22a2,2,0,1,1,2-2A2,2,0,0,1,31.15,22Zm0-2h0Z"/><path class="cls-5" d="M39.15,22a2,2,0,1,1,2-2A2,2,0,0,1,39.15,22Zm0-2h0Z"/><path class="cls-5" d="M47.15,22a2,2,0,1,1,2-2A2,2,0,0,1,47.15,22Zm0-2h0Z"/><path class="cls-5" d="M55.15,22a2,2,0,1,1,2-2A2,2,0,0,1,55.15,22Zm0-2h0Z"/><path class="cls-5" d="M63.15,22a2,2,0,1,1,2-2A2,2,0,0,1,63.15,22Zm0-2h0Z"/><path class="cls-5" d="M71.15,22a2,2,0,1,1,2-2A2,2,0,0,1,71.15,22Zm0-2h0Z"/><path class="cls-5" d="M79.15,22a2,2,0,1,1,2-2A2,2,0,0,1,79.15,22Zm0-2h0Z"/><path class="cls-5" d="M87.15,22a2,2,0,1,1,2-2A2,2,0,0,1,87.15,22Zm0-2h0Z"/><path class="cls-5" d="M95.15,22a2,2,0,1,1,2-2A2,2,0,0,1,95.15,22Zm0-2h0Z"/><path class="cls-5" d="M103.15,22a2,2,0,1,1,2-2A2,2,0,0,1,103.15,22Zm0-2h0Z"/><path class="cls-5" d="M111.15,22a2,2,0,1,1,2-2A2,2,0,0,1,111.15,22Zm0-2h0Z"/><path class="cls-5" d="M119.15,22a2,2,0,1,1,2-2A2,2,0,0,1,119.15,22Zm0-2h0Z"/><path class="cls-5" d="M127.15,22a2,2,0,1,1,2-2A2,2,0,0,1,127.15,22Zm0-2h0Z"/><path class="cls-5" d="M3.15,28a2,2,0,1,1,2-2A2,2,0,0,1,3.15,28Zm0-2h0Z"/><path class="cls-5" d="M11.15,28a2,2,0,1,1,2-2A2,2,0,0,1,11.15,28Zm0-2h0Z"/><path class="cls-5" d="M19.15,28a2,2,0,1,1,2-2A2,2,0,0,1,19.15,28Zm0-2h0Z"/><path class="cls-5" d="M27.15,28a2,2,0,1,1,2-2A2,2,0,0,1,27.15,28Zm0-2h0Z"/><path class="cls-5" d="M35.15,28a2,2,0,1,1,2-2A2,2,0,0,1,35.15,28Zm0-2h0Z"/><path class="cls-5" d="M43.15,28a2,2,0,1,1,2-2A2,2,0,0,1,43.15,28Zm0-2h0Z"/><path class="cls-5" d="M51.15,28a2,2,0,1,1,2-2A2,2,0,0,1,51.15,28Zm0-2h0Z"/><path class="cls-5" d="M59.15,28a2,2,0,1,1,2-2A2,2,0,0,1,59.15,28Zm0-2h0Z"/><path class="cls-5" d="M67.15,28a2,2,0,1,1,2-2A2,2,0,0,1,67.15,28Zm0-2h0Z"/><path class="cls-5" d="M75.15,28a2,2,0,1,1,2-2A2,2,0,0,1,75.15,28Zm0-2h0Z"/><path class="cls-5" d="M83.15,28a2,2,0,1,1,2-2A2,2,0,0,1,83.15,28Zm0-2h0Z"/><path class="cls-5" d="M91.15,28a2,2,0,1,1,2-2A2,2,0,0,1,91.15,28Zm0-2h0Z"/><path class="cls-5" d="M99.15,28a2,2,0,1,1,2-2A2,2,0,0,1,99.15,28Zm0-2h0Z"/><path class="cls-5" d="M107.15,28a2,2,0,1,1,2-2A2,2,0,0,1,107.15,28Zm0-2h0Z"/><path class="cls-5" d="M115.15,28a2,2,0,1,1,2-2A2,2,0,0,1,115.15,28Zm0-2h0Z"/><path class="cls-5" d="M123.15,28a2,2,0,1,1,2-2A2,2,0,0,1,123.15,28Zm0-2h0Z"/><path class="cls-5" d="M7.15,34a2,2,0,1,1,2-2A2,2,0,0,1,7.15,34Zm0-2h0Z"/><path class="cls-5" d="M15.15,34a2,2,0,1,1,2-2A2,2,0,0,1,15.15,34Zm0-2h0Z"/><path class="cls-5" d="M23.15,34a2,2,0,1,1,2-2A2,2,0,0,1,23.15,34Zm0-2h0Z"/><path class="cls-5" d="M31.15,34a2,2,0,1,1,2-2A2,2,0,0,1,31.15,34Zm0-2h0Z"/><path class="cls-5" d="M39.15,34a2,2,0,1,1,2-2A2,2,0,0,1,39.15,34Zm0-2h0Z"/><path class="cls-5" d="M47.15,34a2,2,0,1,1,2-2A2,2,0,0,1,47.15,34Zm0-2h0Z"/><path class="cls-5" d="M55.15,34a2,2,0,1,1,2-2A2,2,0,0,1,55.15,34Zm0-2h0Z"/><path class="cls-5" d="M63.15,34a2,2,0,1,1,2-2A2,2,0,0,1,63.15,34Zm0-2h0Z"/><path class="cls-5" d="M71.15,34a2,2,0,1,1,2-2A2,2,0,0,1,71.15,34Zm0-2h0Z"/><path class="cls-5" d="M79.15,34a2,2,0,1,1,2-2A2,2,0,0,1,79.15,34Zm0-2h0Z"/><path class="cls-5" d="M87.15,34a2,2,0,1,1,2-2A2,2,0,0,1,87.15,34Zm0-2h0Z"/><path class="cls-5" d="M95.15,34a2,2,0,1,1,2-2A2,2,0,0,1,95.15,34Zm0-2h0Z"/><path class="cls-5" d="M103.15,34a2,2,0,1,1,2-2A2,2,0,0,1,103.15,34Zm0-2h0Z"/><path class="cls-5" d="M111.15,34a2,2,0,1,1,2-2A2,2,0,0,1,111.15,34Zm0-2h0Z"/><path class="cls-5" d="M119.15,34a2,2,0,1,1,2-2A2,2,0,0,1,119.15,34Zm0-2h0Z"/><path class="cls-5" d="M127.15,34a2,2,0,1,1,2-2A2,2,0,0,1,127.15,34Zm0-2h0Z"/><path class="cls-5" d="M3.15,40a2,2,0,1,1,2-2A2,2,0,0,1,3.15,40Zm0-2h0Z"/><path class="cls-5" d="M11.15,40a2,2,0,1,1,2-2A2,2,0,0,1,11.15,40Zm0-2h0Z"/><path class="cls-5" d="M19.15,40a2,2,0,1,1,2-2A2,2,0,0,1,19.15,40Zm0-2h0Z"/><path class="cls-5" d="M27.15,40a2,2,0,1,1,2-2A2,2,0,0,1,27.15,40Zm0-2h0Z"/><path class="cls-5" d="M35.15,40a2,2,0,1,1,2-2A2,2,0,0,1,35.15,40Zm0-2h0Z"/><path class="cls-5" d="M43.15,40a2,2,0,1,1,2-2A2,2,0,0,1,43.15,40Zm0-2h0Z"/><path class="cls-5" d="M51.15,40a2,2,0,1,1,2-2A2,2,0,0,1,51.15,40Zm0-2h0Z"/><path class="cls-5" d="M59.15,40a2,2,0,1,1,2-2A2,2,0,0,1,59.15,40Zm0-2h0Z"/><path class="cls-5" d="M67.15,40a2,2,0,1,1,2-2A2,2,0,0,1,67.15,40Zm0-2h0Z"/><path class="cls-5" d="M75.15,40a2,2,0,1,1,2-2A2,2,0,0,1,75.15,40Zm0-2h0Z"/><path class="cls-5" d="M83.15,40a2,2,0,1,1,2-2A2,2,0,0,1,83.15,40Zm0-2h0Z"/><path class="cls-5" d="M91.15,40a2,2,0,1,1,2-2A2,2,0,0,1,91.15,40Zm0-2h0Z"/><path class="cls-5" d="M99.15,40a2,2,0,1,1,2-2A2,2,0,0,1,99.15,40Zm0-2h0Z"/><path class="cls-5" d="M107.15,40a2,2,0,1,1,2-2A2,2,0,0,1,107.15,40Zm0-2h0Z"/><path class="cls-5" d="M115.15,40a2,2,0,1,1,2-2A2,2,0,0,1,115.15,40Zm0-2h0Z"/><path class="cls-5" d="M123.15,40a2,2,0,1,1,2-2A2,2,0,0,1,123.15,40Zm0-2h0Z"/><path class="cls-5" d="M7.15,46a2,2,0,1,1,2-2A2,2,0,0,1,7.15,46Zm0-2h0Z"/><path class="cls-5" d="M15.15,46a2,2,0,1,1,2-2A2,2,0,0,1,15.15,46Zm0-2h0Z"/><path class="cls-5" d="M23.15,46a2,2,0,1,1,2-2A2,2,0,0,1,23.15,46Zm0-2h0Z"/><path class="cls-5" d="M31.15,46a2,2,0,1,1,2-2A2,2,0,0,1,31.15,46Zm0-2h0Z"/><path class="cls-5" d="M39.15,46a2,2,0,1,1,2-2A2,2,0,0,1,39.15,46Zm0-2h0Z"/><path class="cls-5" d="M47.15,46a2,2,0,1,1,2-2A2,2,0,0,1,47.15,46Zm0-2h0Z"/><path class="cls-5" d="M55.15,46a2,2,0,1,1,2-2A2,2,0,0,1,55.15,46Zm0-2h0Z"/><path class="cls-5" d="M63.15,46a2,2,0,1,1,2-2A2,2,0,0,1,63.15,46Zm0-2h0Z"/><path class="cls-5" d="M71.15,46a2,2,0,1,1,2-2A2,2,0,0,1,71.15,46Zm0-2h0Z"/><path class="cls-5" d="M79.15,46a2,2,0,1,1,2-2A2,2,0,0,1,79.15,46Zm0-2h0Z"/><path class="cls-5" d="M87.15,46a2,2,0,1,1,2-2A2,2,0,0,1,87.15,46Zm0-2h0Z"/><path class="cls-5" d="M95.15,46a2,2,0,1,1,2-2A2,2,0,0,1,95.15,46Zm0-2h0Z"/><path class="cls-5" d="M103.15,46a2,2,0,1,1,2-2A2,2,0,0,1,103.15,46Zm0-2h0Z"/><path class="cls-5" d="M111.15,46a2,2,0,1,1,2-2A2,2,0,0,1,111.15,46Zm0-2h0Z"/><path class="cls-5" d="M119.15,46a2,2,0,1,1,2-2A2,2,0,0,1,119.15,46Zm0-2h0Z"/><path class="cls-5" d="M127.15,46a2,2,0,1,1,2-2A2,2,0,0,1,127.15,46Zm0-2h0Z"/><path class="cls-5" d="M3.15,52a2,2,0,1,1,2-2A2,2,0,0,1,3.15,52Zm0-2h0Z"/><path class="cls-5" d="M11.15,52a2,2,0,1,1,2-2A2,2,0,0,1,11.15,52Zm0-2h0Z"/><path class="cls-5" d="M19.15,52a2,2,0,1,1,2-2A2,2,0,0,1,19.15,52Zm0-2h0Z"/><path class="cls-5" d="M27.15,52a2,2,0,1,1,2-2A2,2,0,0,1,27.15,52Zm0-2h0Z"/><path class="cls-5" d="M35.15,52a2,2,0,1,1,2-2A2,2,0,0,1,35.15,52Zm0-2h0Z"/><path class="cls-5" d="M43.15,52a2,2,0,1,1,2-2A2,2,0,0,1,43.15,52Zm0-2h0Z"/><path class="cls-5" d="M51.15,52a2,2,0,1,1,2-2A2,2,0,0,1,51.15,52Zm0-2h0Z"/><path class="cls-5" d="M59.15,52a2,2,0,1,1,2-2A2,2,0,0,1,59.15,52Zm0-2h0Z"/><path class="cls-5" d="M67.15,52a2,2,0,1,1,2-2A2,2,0,0,1,67.15,52Zm0-2h0Z"/><path class="cls-5" d="M75.15,52a2,2,0,1,1,2-2A2,2,0,0,1,75.15,52Zm0-2h0Z"/><path class="cls-5" d="M83.15,52a2,2,0,1,1,2-2A2,2,0,0,1,83.15,52Zm0-2h0Z"/><path class="cls-5" d="M91.15,52a2,2,0,1,1,2-2A2,2,0,0,1,91.15,52Zm0-2h0Z"/><path class="cls-5" d="M99.15,52a2,2,0,1,1,2-2A2,2,0,0,1,99.15,52Zm0-2h0Z"/><path class="cls-5" d="M107.15,52a2,2,0,1,1,2-2A2,2,0,0,1,107.15,52Zm0-2h0Z"/><path class="cls-5" d="M115.15,52a2,2,0,1,1,2-2A2,2,0,0,1,115.15,52Zm0-2h0Z"/><path class="cls-5" d="M123.15,52a2,2,0,1,1,2-2A2,2,0,0,1,123.15,52Zm0-2h0Z"/><path class="cls-5" d="M7.15,58a2,2,0,1,1,2-2A2,2,0,0,1,7.15,58Zm0-2h0Z"/><path class="cls-5" d="M15.15,58a2,2,0,1,1,2-2A2,2,0,0,1,15.15,58Zm0-2h0Z"/><path class="cls-5" d="M23.15,58a2,2,0,1,1,2-2A2,2,0,0,1,23.15,58Zm0-2h0Z"/><path class="cls-5" d="M31.15,58a2,2,0,1,1,2-2A2,2,0,0,1,31.15,58Zm0-2h0Z"/><path class="cls-5" d="M39.15,58a2,2,0,1,1,2-2A2,2,0,0,1,39.15,58Zm0-2h0Z"/><path class="cls-5" d="M47.15,58a2,2,0,1,1,2-2A2,2,0,0,1,47.15,58Zm0-2h0Z"/><path class="cls-5" d="M55.15,58a2,2,0,1,1,2-2A2,2,0,0,1,55.15,58Zm0-2h0Z"/><path class="cls-5" d="M63.15,58a2,2,0,1,1,2-2A2,2,0,0,1,63.15,58Zm0-2h0Z"/><path class="cls-5" d="M71.15,58a2,2,0,1,1,2-2A2,2,0,0,1,71.15,58Zm0-2h0Z"/><path class="cls-5" d="M79.15,58a2,2,0,1,1,2-2A2,2,0,0,1,79.15,58Zm0-2h0Z"/><path class="cls-5" d="M87.15,58a2,2,0,1,1,2-2A2,2,0,0,1,87.15,58Zm0-2h0Z"/><path class="cls-5" d="M95.15,58a2,2,0,1,1,2-2A2,2,0,0,1,95.15,58Zm0-2h0Z"/><path class="cls-5" d="M103.15,58a2,2,0,1,1,2-2A2,2,0,0,1,103.15,58Zm0-2h0Z"/><path class="cls-5" d="M111.15,58a2,2,0,1,1,2-2A2,2,0,0,1,111.15,58Zm0-2h0Z"/><path class="cls-5" d="M119.15,58a2,2,0,1,1,2-2A2,2,0,0,1,119.15,58Zm0-2h0Z"/><path class="cls-5" d="M127.15,58a2,2,0,1,1,2-2A2,2,0,0,1,127.15,58Zm0-2h0Z"/><path class="cls-5" d="M3.15,64a2,2,0,1,1,2-2A2,2,0,0,1,3.15,64Zm0-2h0Z"/><path class="cls-5" d="M11.15,64a2,2,0,1,1,2-2A2,2,0,0,1,11.15,64Zm0-2h0Z"/><path class="cls-5" d="M19.15,64a2,2,0,1,1,2-2A2,2,0,0,1,19.15,64Zm0-2h0Z"/><path class="cls-5" d="M27.15,64a2,2,0,1,1,2-2A2,2,0,0,1,27.15,64Zm0-2h0Z"/><path class="cls-5" d="M35.15,64a2,2,0,1,1,2-2A2,2,0,0,1,35.15,64Zm0-2h0Z"/><path class="cls-5" d="M43.15,64a2,2,0,1,1,2-2A2,2,0,0,1,43.15,64Zm0-2h0Z"/><path class="cls-5" d="M51.15,64a2,2,0,1,1,2-2A2,2,0,0,1,51.15,64Zm0-2h0Z"/><path class="cls-5" d="M59.15,64a2,2,0,1,1,2-2A2,2,0,0,1,59.15,64Zm0-2h0Z"/><path class="cls-5" d="M67.15,64a2,2,0,1,1,2-2A2,2,0,0,1,67.15,64Zm0-2h0Z"/><path class="cls-5" d="M75.15,64a2,2,0,1,1,2-2A2,2,0,0,1,75.15,64Zm0-2h0Z"/><path class="cls-5" d="M83.15,64a2,2,0,1,1,2-2A2,2,0,0,1,83.15,64Zm0-2h0Z"/><path class="cls-5" d="M91.15,64a2,2,0,1,1,2-2A2,2,0,0,1,91.15,64Zm0-2h0Z"/><path class="cls-5" d="M99.15,64a2,2,0,1,1,2-2A2,2,0,0,1,99.15,64Zm0-2h0Z"/><path class="cls-5" d="M107.15,64a2,2,0,1,1,2-2A2,2,0,0,1,107.15,64Zm0-2h0Z"/><path class="cls-5" d="M115.15,64a2,2,0,1,1,2-2A2,2,0,0,1,115.15,64Zm0-2h0Z"/><path class="cls-5" d="M123.15,64a2,2,0,1,1,2-2A2,2,0,0,1,123.15,64Zm0-2h0Z"/><path class="cls-5" d="M7.15,70a2,2,0,1,1,2-2A2,2,0,0,1,7.15,70Zm0-2h0Z"/><path class="cls-5" d="M15.15,70a2,2,0,1,1,2-2A2,2,0,0,1,15.15,70Zm0-2h0Z"/><path class="cls-5" d="M23.15,70a2,2,0,1,1,2-2A2,2,0,0,1,23.15,70Zm0-2h0Z"/><path class="cls-5" d="M31.15,70a2,2,0,1,1,2-2A2,2,0,0,1,31.15,70Zm0-2h0Z"/><path class="cls-5" d="M39.15,70a2,2,0,1,1,2-2A2,2,0,0,1,39.15,70Zm0-2h0Z"/><path class="cls-5" d="M47.15,70a2,2,0,1,1,2-2A2,2,0,0,1,47.15,70Zm0-2h0Z"/><path class="cls-5" d="M55.15,70a2,2,0,1,1,2-2A2,2,0,0,1,55.15,70Zm0-2h0Z"/><path class="cls-5" d="M63.15,70a2,2,0,1,1,2-2A2,2,0,0,1,63.15,70Zm0-2h0Z"/><path class="cls-5" d="M71.15,70a2,2,0,1,1,2-2A2,2,0,0,1,71.15,70Zm0-2h0Z"/><path class="cls-5" d="M79.15,70a2,2,0,1,1,2-2A2,2,0,0,1,79.15,70Zm0-2h0Z"/><path class="cls-5" d="M87.15,70a2,2,0,1,1,2-2A2,2,0,0,1,87.15,70Zm0-2h0Z"/><path class="cls-5" d="M95.15,70a2,2,0,1,1,2-2A2,2,0,0,1,95.15,70Zm0-2h0Z"/><path class="cls-5" d="M103.15,70a2,2,0,1,1,2-2A2,2,0,0,1,103.15,70Zm0-2h0Z"/><path class="cls-5" d="M111.15,70a2,2,0,1,1,2-2A2,2,0,0,1,111.15,70Zm0-2h0Z"/><path class="cls-5" d="M119.15,70a2,2,0,1,1,2-2A2,2,0,0,1,119.15,70Zm0-2h0Z"/><path class="cls-5" d="M127.15,70a2,2,0,1,1,2-2A2,2,0,0,1,127.15,70Zm0-2h0Z"/><path class="cls-5" d="M3.15,76a2,2,0,1,1,2-2A2,2,0,0,1,3.15,76Zm0-2h0Z"/><path class="cls-5" d="M11.15,76a2,2,0,1,1,2-2A2,2,0,0,1,11.15,76Zm0-2h0Z"/><path class="cls-5" d="M19.15,76a2,2,0,1,1,2-2A2,2,0,0,1,19.15,76Zm0-2h0Z"/><path class="cls-5" d="M27.15,76a2,2,0,1,1,2-2A2,2,0,0,1,27.15,76Zm0-2h0Z"/><path class="cls-5" d="M35.15,76a2,2,0,1,1,2-2A2,2,0,0,1,35.15,76Zm0-2h0Z"/><path class="cls-5" d="M43.15,76a2,2,0,1,1,2-2A2,2,0,0,1,43.15,76Zm0-2h0Z"/><path class="cls-5" d="M51.15,76a2,2,0,1,1,2-2A2,2,0,0,1,51.15,76Zm0-2h0Z"/><path class="cls-5" d="M59.15,76a2,2,0,1,1,2-2A2,2,0,0,1,59.15,76Zm0-2h0Z"/><path class="cls-5" d="M67.15,76a2,2,0,1,1,2-2A2,2,0,0,1,67.15,76Zm0-2h0Z"/><path class="cls-5" d="M75.15,76a2,2,0,1,1,2-2A2,2,0,0,1,75.15,76Zm0-2h0Z"/><path class="cls-5" d="M83.15,76a2,2,0,1,1,2-2A2,2,0,0,1,83.15,76Zm0-2h0Z"/><path class="cls-5" d="M91.15,76a2,2,0,1,1,2-2A2,2,0,0,1,91.15,76Zm0-2h0Z"/><path class="cls-5" d="M99.15,76a2,2,0,1,1,2-2A2,2,0,0,1,99.15,76Zm0-2h0Z"/><path class="cls-5" d="M107.15,76a2,2,0,1,1,2-2A2,2,0,0,1,107.15,76Zm0-2h0Z"/><path class="cls-5" d="M115.15,76a2,2,0,1,1,2-2A2,2,0,0,1,115.15,76Zm0-2h0Z"/><path class="cls-5" d="M123.15,76a2,2,0,1,1,2-2A2,2,0,0,1,123.15,76Zm0-2h0Z"/><path class="cls-5" d="M7.15,82a2,2,0,1,1,2-2A2,2,0,0,1,7.15,82Zm0-2h0Z"/><path class="cls-5" d="M15.15,82a2,2,0,1,1,2-2A2,2,0,0,1,15.15,82Zm0-2h0Z"/><path class="cls-5" d="M23.15,82a2,2,0,1,1,2-2A2,2,0,0,1,23.15,82Zm0-2h0Z"/><path class="cls-5" d="M31.15,82a2,2,0,1,1,2-2A2,2,0,0,1,31.15,82Zm0-2h0Z"/><path class="cls-5" d="M39.15,82a2,2,0,1,1,2-2A2,2,0,0,1,39.15,82Zm0-2h0Z"/><path class="cls-5" d="M47.15,82a2,2,0,1,1,2-2A2,2,0,0,1,47.15,82Zm0-2h0Z"/><path class="cls-5" d="M55.15,82a2,2,0,1,1,2-2A2,2,0,0,1,55.15,82Zm0-2h0Z"/><path class="cls-5" d="M63.15,82a2,2,0,1,1,2-2A2,2,0,0,1,63.15,82Zm0-2h0Z"/><path class="cls-5" d="M71.15,82a2,2,0,1,1,2-2A2,2,0,0,1,71.15,82Zm0-2h0Z"/><path class="cls-5" d="M79.15,82a2,2,0,1,1,2-2A2,2,0,0,1,79.15,82Zm0-2h0Z"/><path class="cls-5" d="M87.15,82a2,2,0,1,1,2-2A2,2,0,0,1,87.15,82Zm0-2h0Z"/><path class="cls-5" d="M95.15,82a2,2,0,1,1,2-2A2,2,0,0,1,95.15,82Zm0-2h0Z"/><path class="cls-5" d="M103.15,82a2,2,0,1,1,2-2A2,2,0,0,1,103.15,82Zm0-2h0Z"/><path class="cls-5" d="M111.15,82a2,2,0,1,1,2-2A2,2,0,0,1,111.15,82Zm0-2h0Z"/><path class="cls-5" d="M119.15,82a2,2,0,1,1,2-2A2,2,0,0,1,119.15,82Zm0-2h0Z"/><path class="cls-5" d="M127.15,82a2,2,0,1,1,2-2A2,2,0,0,1,127.15,82Zm0-2h0Z"/><path class="cls-5" d="M3.15,88a2,2,0,1,1,2-2A2,2,0,0,1,3.15,88Zm0-2h0Z"/><path class="cls-5" d="M11.15,88a2,2,0,1,1,2-2A2,2,0,0,1,11.15,88Zm0-2h0Z"/><path class="cls-5" d="M19.15,88a2,2,0,1,1,2-2A2,2,0,0,1,19.15,88Zm0-2h0Z"/><path class="cls-5" d="M27.15,88a2,2,0,1,1,2-2A2,2,0,0,1,27.15,88Zm0-2h0Z"/><path class="cls-5" d="M35.15,88a2,2,0,1,1,2-2A2,2,0,0,1,35.15,88Zm0-2h0Z"/><path class="cls-5" d="M43.15,88a2,2,0,1,1,2-2A2,2,0,0,1,43.15,88Zm0-2h0Z"/><path class="cls-5" d="M51.15,88a2,2,0,1,1,2-2A2,2,0,0,1,51.15,88Zm0-2h0Z"/><path class="cls-5" d="M59.15,88a2,2,0,1,1,2-2A2,2,0,0,1,59.15,88Zm0-2h0Z"/><path class="cls-5" d="M67.15,88a2,2,0,1,1,2-2A2,2,0,0,1,67.15,88Zm0-2h0Z"/><path class="cls-5" d="M75.15,88a2,2,0,1,1,2-2A2,2,0,0,1,75.15,88Zm0-2h0Z"/><path class="cls-5" d="M83.15,88a2,2,0,1,1,2-2A2,2,0,0,1,83.15,88Zm0-2h0Z"/><path class="cls-5" d="M91.15,88a2,2,0,1,1,2-2A2,2,0,0,1,91.15,88Zm0-2h0Z"/><path class="cls-5" d="M99.15,88a2,2,0,1,1,2-2A2,2,0,0,1,99.15,88Zm0-2h0Z"/><path class="cls-5" d="M107.15,88a2,2,0,1,1,2-2A2,2,0,0,1,107.15,88Zm0-2h0Z"/><path class="cls-5" d="M115.15,88a2,2,0,1,1,2-2A2,2,0,0,1,115.15,88Zm0-2h0Z"/><path class="cls-5" d="M123.15,88a2,2,0,1,1,2-2A2,2,0,0,1,123.15,88Zm0-2h0Z"/><path class="cls-5" d="M7.15,94a2,2,0,1,1,2-2A2,2,0,0,1,7.15,94Zm0-2h0Z"/><path class="cls-5" d="M15.15,94a2,2,0,1,1,2-2A2,2,0,0,1,15.15,94Zm0-2h0Z"/><path class="cls-5" d="M23.15,94a2,2,0,1,1,2-2A2,2,0,0,1,23.15,94Zm0-2h0Z"/><path class="cls-5" d="M31.15,94a2,2,0,1,1,2-2A2,2,0,0,1,31.15,94Zm0-2h0Z"/><path class="cls-5" d="M39.15,94a2,2,0,1,1,2-2A2,2,0,0,1,39.15,94Zm0-2h0Z"/><path class="cls-5" d="M47.15,94a2,2,0,1,1,2-2A2,2,0,0,1,47.15,94Zm0-2h0Z"/><path class="cls-5" d="M55.15,94a2,2,0,1,1,2-2A2,2,0,0,1,55.15,94Zm0-2h0Z"/><path class="cls-5" d="M63.15,94a2,2,0,1,1,2-2A2,2,0,0,1,63.15,94Zm0-2h0Z"/><path class="cls-5" d="M71.15,94a2,2,0,1,1,2-2A2,2,0,0,1,71.15,94Zm0-2h0Z"/><path class="cls-5" d="M79.15,94a2,2,0,1,1,2-2A2,2,0,0,1,79.15,94Zm0-2h0Z"/><path class="cls-5" d="M87.15,94a2,2,0,1,1,2-2A2,2,0,0,1,87.15,94Zm0-2h0Z"/><path class="cls-5" d="M95.15,94a2,2,0,1,1,2-2A2,2,0,0,1,95.15,94Zm0-2h0Z"/><path class="cls-5" d="M103.15,94a2,2,0,1,1,2-2A2,2,0,0,1,103.15,94Zm0-2h0Z"/><path class="cls-5" d="M111.15,94a2,2,0,1,1,2-2A2,2,0,0,1,111.15,94Zm0-2h0Z"/><path class="cls-5" d="M119.15,94a2,2,0,1,1,2-2A2,2,0,0,1,119.15,94Zm0-2h0Z"/><path class="cls-5" d="M127.15,94a2,2,0,1,1,2-2A2,2,0,0,1,127.15,94Zm0-2h0Z"/><path class="cls-5" d="M3.15,100a2,2,0,1,1,2-2A2,2,0,0,1,3.15,100Zm0-2h0Z"/><path class="cls-5" d="M11.15,100a2,2,0,1,1,2-2A2,2,0,0,1,11.15,100Zm0-2h0Z"/><path class="cls-5" d="M19.15,100a2,2,0,1,1,2-2A2,2,0,0,1,19.15,100Zm0-2h0Z"/><path class="cls-5" d="M27.15,100a2,2,0,1,1,2-2A2,2,0,0,1,27.15,100Zm0-2h0Z"/><path class="cls-5" d="M35.15,100a2,2,0,1,1,2-2A2,2,0,0,1,35.15,100Zm0-2h0Z"/><path class="cls-5" d="M43.15,100a2,2,0,1,1,2-2A2,2,0,0,1,43.15,100Zm0-2h0Z"/><path class="cls-5" d="M51.15,100a2,2,0,1,1,2-2A2,2,0,0,1,51.15,100Zm0-2h0Z"/><path class="cls-5" d="M59.15,100a2,2,0,1,1,2-2A2,2,0,0,1,59.15,100Zm0-2h0Z"/><path class="cls-5" d="M67.15,100a2,2,0,1,1,2-2A2,2,0,0,1,67.15,100Zm0-2h0Z"/><path class="cls-5" d="M75.15,100a2,2,0,1,1,2-2A2,2,0,0,1,75.15,100Zm0-2h0Z"/><path class="cls-5" d="M83.15,100a2,2,0,1,1,2-2A2,2,0,0,1,83.15,100Zm0-2h0Z"/><path class="cls-5" d="M91.15,100a2,2,0,1,1,2-2A2,2,0,0,1,91.15,100Zm0-2h0Z"/><path class="cls-5" d="M99.15,100a2,2,0,1,1,2-2A2,2,0,0,1,99.15,100Zm0-2h0Z"/><path class="cls-5" d="M107.15,100a2,2,0,1,1,2-2A2,2,0,0,1,107.15,100Zm0-2h0Z"/><path class="cls-5" d="M115.15,100a2,2,0,1,1,2-2A2,2,0,0,1,115.15,100Zm0-2h0Z"/><path class="cls-5" d="M123.15,100a2,2,0,1,1,2-2A2,2,0,0,1,123.15,100Zm0-2h0Z"/><path class="cls-5" d="M7.15,106a2,2,0,1,1,2-2A2,2,0,0,1,7.15,106Zm0-2h0Z"/><path class="cls-5" d="M15.15,106a2,2,0,1,1,2-2A2,2,0,0,1,15.15,106Zm0-2h0Z"/><path class="cls-5" d="M23.15,106a2,2,0,1,1,2-2A2,2,0,0,1,23.15,106Zm0-2h0Z"/><path class="cls-5" d="M31.15,106a2,2,0,1,1,2-2A2,2,0,0,1,31.15,106Zm0-2h0Z"/><path class="cls-5" d="M39.15,106a2,2,0,1,1,2-2A2,2,0,0,1,39.15,106Zm0-2h0Z"/><path class="cls-5" d="M47.15,106a2,2,0,1,1,2-2A2,2,0,0,1,47.15,106Zm0-2h0Z"/><path class="cls-5" d="M55.15,106a2,2,0,1,1,2-2A2,2,0,0,1,55.15,106Zm0-2h0Z"/><path class="cls-5" d="M63.15,106a2,2,0,1,1,2-2A2,2,0,0,1,63.15,106Zm0-2h0Z"/><path class="cls-5" d="M71.15,106a2,2,0,1,1,2-2A2,2,0,0,1,71.15,106Zm0-2h0Z"/><path class="cls-5" d="M79.15,106a2,2,0,1,1,2-2A2,2,0,0,1,79.15,106Zm0-2h0Z"/><path class="cls-5" d="M87.15,106a2,2,0,1,1,2-2A2,2,0,0,1,87.15,106Zm0-2h0Z"/><path class="cls-5" d="M95.15,106a2,2,0,1,1,2-2A2,2,0,0,1,95.15,106Zm0-2h0Z"/><path class="cls-5" d="M103.15,106a2,2,0,1,1,2-2A2,2,0,0,1,103.15,106Zm0-2h0Z"/><path class="cls-5" d="M111.15,106a2,2,0,1,1,2-2A2,2,0,0,1,111.15,106Zm0-2h0Z"/><path class="cls-5" d="M119.15,106a2,2,0,1,1,2-2A2,2,0,0,1,119.15,106Zm0-2h0Z"/><path class="cls-5" d="M127.15,106a2,2,0,1,1,2-2A2,2,0,0,1,127.15,106Zm0-2h0Z"/><path class="cls-5" d="M3.15,112a2,2,0,1,1,2-2A2,2,0,0,1,3.15,112Zm0-2h0Z"/><path class="cls-5" d="M11.15,112a2,2,0,1,1,2-2A2,2,0,0,1,11.15,112Zm0-2h0Z"/><path class="cls-5" d="M19.15,112a2,2,0,1,1,2-2A2,2,0,0,1,19.15,112Zm0-2h0Z"/><path class="cls-5" d="M27.15,112a2,2,0,1,1,2-2A2,2,0,0,1,27.15,112Zm0-2h0Z"/><path class="cls-5" d="M35.15,112a2,2,0,1,1,2-2A2,2,0,0,1,35.15,112Zm0-2h0Z"/><path class="cls-5" d="M43.15,112a2,2,0,1,1,2-2A2,2,0,0,1,43.15,112Zm0-2h0Z"/><path class="cls-5" d="M51.15,112a2,2,0,1,1,2-2A2,2,0,0,1,51.15,112Zm0-2h0Z"/><path class="cls-5" d="M59.15,112a2,2,0,1,1,2-2A2,2,0,0,1,59.15,112Zm0-2h0Z"/><path class="cls-5" d="M67.15,112a2,2,0,1,1,2-2A2,2,0,0,1,67.15,112Zm0-2h0Z"/><path class="cls-5" d="M75.15,112a2,2,0,1,1,2-2A2,2,0,0,1,75.15,112Zm0-2h0Z"/><path class="cls-5" d="M83.15,112a2,2,0,1,1,2-2A2,2,0,0,1,83.15,112Zm0-2h0Z"/><path class="cls-5" d="M91.15,112a2,2,0,1,1,2-2A2,2,0,0,1,91.15,112Zm0-2h0Z"/><path class="cls-5" d="M99.15,112a2,2,0,1,1,2-2A2,2,0,0,1,99.15,112Zm0-2h0Z"/><path class="cls-5" d="M107.15,112a2,2,0,1,1,2-2A2,2,0,0,1,107.15,112Zm0-2h0Z"/><path class="cls-5" d="M115.15,112a2,2,0,1,1,2-2A2,2,0,0,1,115.15,112Zm0-2h0Z"/><path class="cls-5" d="M123.15,112a2,2,0,1,1,2-2A2,2,0,0,1,123.15,112Zm0-2h0Z"/><path class="cls-5" d="M7.15,118a2,2,0,1,1,2-2A2,2,0,0,1,7.15,118Zm0-2h0Z"/><path class="cls-5" d="M15.15,118a2,2,0,1,1,2-2A2,2,0,0,1,15.15,118Zm0-2h0Z"/><path class="cls-5" d="M23.15,118a2,2,0,1,1,2-2A2,2,0,0,1,23.15,118Zm0-2h0Z"/><path class="cls-5" d="M31.15,118a2,2,0,1,1,2-2A2,2,0,0,1,31.15,118Zm0-2h0Z"/><path class="cls-5" d="M39.15,118a2,2,0,1,1,2-2A2,2,0,0,1,39.15,118Zm0-2h0Z"/><path class="cls-5" d="M47.15,118a2,2,0,1,1,2-2A2,2,0,0,1,47.15,118Zm0-2h0Z"/><path class="cls-5" d="M55.15,118a2,2,0,1,1,2-2A2,2,0,0,1,55.15,118Zm0-2h0Z"/><path class="cls-5" d="M63.15,118a2,2,0,1,1,2-2A2,2,0,0,1,63.15,118Zm0-2h0Z"/><path class="cls-5" d="M71.15,118a2,2,0,1,1,2-2A2,2,0,0,1,71.15,118Zm0-2h0Z"/><path class="cls-5" d="M79.15,118a2,2,0,1,1,2-2A2,2,0,0,1,79.15,118Zm0-2h0Z"/><path class="cls-5" d="M87.15,118a2,2,0,1,1,2-2A2,2,0,0,1,87.15,118Zm0-2h0Z"/><path class="cls-5" d="M95.15,118a2,2,0,1,1,2-2A2,2,0,0,1,95.15,118Zm0-2h0Z"/><path class="cls-5" d="M103.15,118a2,2,0,1,1,2-2A2,2,0,0,1,103.15,118Zm0-2h0Z"/><path class="cls-5" d="M111.15,118a2,2,0,1,1,2-2A2,2,0,0,1,111.15,118Zm0-2h0Z"/><path class="cls-5" d="M119.15,118a2,2,0,1,1,2-2A2,2,0,0,1,119.15,118Zm0-2h0Z"/><path class="cls-5" d="M127.15,118a2,2,0,1,1,2-2A2,2,0,0,1,127.15,118Zm0-2h0Z"/><path class="cls-5" d="M3.15,124a2,2,0,1,1,2-2A2,2,0,0,1,3.15,124Zm0-2h0Z"/><path class="cls-5" d="M11.15,124a2,2,0,1,1,2-2A2,2,0,0,1,11.15,124Zm0-2h0Z"/><path class="cls-5" d="M19.15,124a2,2,0,1,1,2-2A2,2,0,0,1,19.15,124Zm0-2h0Z"/><path class="cls-5" d="M27.15,124a2,2,0,1,1,2-2A2,2,0,0,1,27.15,124Zm0-2h0Z"/><path class="cls-5" d="M35.15,124a2,2,0,1,1,2-2A2,2,0,0,1,35.15,124Zm0-2h0Z"/><path class="cls-5" d="M43.15,124a2,2,0,1,1,2-2A2,2,0,0,1,43.15,124Zm0-2h0Z"/><path class="cls-5" d="M51.15,124a2,2,0,1,1,2-2A2,2,0,0,1,51.15,124Zm0-2h0Z"/><path class="cls-5" d="M59.15,124a2,2,0,1,1,2-2A2,2,0,0,1,59.15,124Zm0-2h0Z"/><path class="cls-5" d="M67.15,124a2,2,0,1,1,2-2A2,2,0,0,1,67.15,124Zm0-2h0Z"/><path class="cls-5" d="M75.15,124a2,2,0,1,1,2-2A2,2,0,0,1,75.15,124Zm0-2h0Z"/><path class="cls-5" d="M83.15,124a2,2,0,1,1,2-2A2,2,0,0,1,83.15,124Zm0-2h0Z"/><path class="cls-5" d="M91.15,124a2,2,0,1,1,2-2A2,2,0,0,1,91.15,124Zm0-2h0Z"/><path class="cls-5" d="M99.15,124a2,2,0,1,1,2-2A2,2,0,0,1,99.15,124Zm0-2h0Z"/><path class="cls-5" d="M107.15,124a2,2,0,1,1,2-2A2,2,0,0,1,107.15,124Zm0-2h0Z"/><path class="cls-5" d="M115.15,124a2,2,0,1,1,2-2A2,2,0,0,1,115.15,124Zm0-2h0Z"/><path class="cls-5" d="M123.15,124a2,2,0,1,1,2-2A2,2,0,0,1,123.15,124Zm0-2h0Z"/><path class="cls-5" d="M7.15,130a2,2,0,1,1,2-2A2,2,0,0,1,7.15,130Zm0-2h0Z"/><path class="cls-5" d="M15.15,130a2,2,0,1,1,2-2A2,2,0,0,1,15.15,130Zm0-2h0Z"/><path class="cls-5" d="M23.15,130a2,2,0,1,1,2-2A2,2,0,0,1,23.15,130Zm0-2h0Z"/><path class="cls-5" d="M31.15,130a2,2,0,1,1,2-2A2,2,0,0,1,31.15,130Zm0-2h0Z"/><path class="cls-5" d="M39.15,130a2,2,0,1,1,2-2A2,2,0,0,1,39.15,130Zm0-2h0Z"/><path class="cls-5" d="M47.15,130a2,2,0,1,1,2-2A2,2,0,0,1,47.15,130Zm0-2h0Z"/><path class="cls-5" d="M55.15,130a2,2,0,1,1,2-2A2,2,0,0,1,55.15,130Zm0-2h0Z"/><path class="cls-5" d="M63.15,130a2,2,0,1,1,2-2A2,2,0,0,1,63.15,130Zm0-2h0Z"/><path class="cls-5" d="M71.15,130a2,2,0,1,1,2-2A2,2,0,0,1,71.15,130Zm0-2h0Z"/><path class="cls-5" d="M79.15,130a2,2,0,1,1,2-2A2,2,0,0,1,79.15,130Zm0-2h0Z"/><path class="cls-5" d="M87.15,130a2,2,0,1,1,2-2A2,2,0,0,1,87.15,130Zm0-2h0Z"/><path class="cls-5" d="M95.15,130a2,2,0,1,1,2-2A2,2,0,0,1,95.15,130Zm0-2h0Z"/><path class="cls-5" d="M103.15,130a2,2,0,1,1,2-2A2,2,0,0,1,103.15,130Zm0-2h0Z"/><path class="cls-5" d="M111.15,130a2,2,0,1,1,2-2A2,2,0,0,1,111.15,130Zm0-2h0Z"/><path class="cls-5" d="M119.15,130a2,2,0,1,1,2-2A2,2,0,0,1,119.15,130Zm0-2h0Z"/><path class="cls-5" d="M127.15,130a2,2,0,1,1,2-2A2,2,0,0,1,127.15,130Zm0-2h0Z"/></g></g><g class="cls-6"><path class="cls-7" d="M86.75,84S80,81.32,80.26,81.47C78.14,86,71,89.9,64.14,89.9S49.58,86,48,81.52L41.79,84.1a25.14,25.14,0,0,0-15.65,23.2v17.8h76v-18A25.13,25.13,0,0,0,86.75,84Z"/><path class="cls-8" d="M77.35,74c-1.48,3.33.71,6,2.71,7.35-2.1,4.49-8.92,8.33-15.92,8.33s-14.47-3.87-15.92-8.33c2-1.16,4.22-4,2.68-7.35Z"/><g class="cls-3"><path class="cls-9" d="M77.35,74H50.89a5.1,5.1,0,0,1,0,4.4L52.56,80a12.44,12.44,0,0,0,8.74,3.57H67A12.44,12.44,0,0,0,75.72,80l1.66-1.64A5.06,5.06,0,0,1,77.35,74Z"/></g><g class="cls-3"><path class="cls-10" d="M86.75,84S80,81.32,80.26,81.47C78.14,86,69.9,88.28,64.14,89.9,58.41,88.29,49.58,86,48,81.52L41.79,84.1a25.14,25.14,0,0,0-15.65,23.2v4.55c0-9.92,8.06-23.56,20.73-25.83,2.07,4,9.67,8.43,17.27,8.43S79.34,90,81.41,86c12.67,3.41,20.73,15.59,20.73,25.63V107.1A25.13,25.13,0,0,0,86.75,84Z"/></g><path class="cls-5" d="M64.14,90.66c-7.55,0-15.28-4.13-16.87-9a1,1,0,0,1,.44-1.17c1.48-.87,3.62-3.14,2.28-6.08a1,1,0,0,1,1.82-.83,6.58,6.58,0,0,1-2.35,8.14c1.84,3.72,8.54,7,14.69,7,5.93,0,12.26-3.09,14.63-7-2.14-1.73-3.83-4.67-2.34-8.05a1,1,0,0,1,1.83.81c-1.5,3.38,1.69,5.68,2.35,6.11A1,1,0,0,1,81,81.75C78.64,86.74,71.24,90.66,64.14,90.66Z"/><path class="cls-5" d="M87.14,126.09a1,1,0,0,1-1-1V103.78a1,1,0,0,1,2,0v21.32A1,1,0,0,1,87.14,126.09Z"/><path class="cls-5" d="M41.14,126.09a1,1,0,0,1-1-1V103.78a1,1,0,0,1,2,0v21.32A1,1,0,0,1,41.14,126.09Z"/><path class="cls-5" d="M102.14,126.09a1,1,0,0,1-1-1v-18A24.11,24.11,0,0,0,86.35,84.93l-6.49-2.76a1,1,0,1,1,.78-1.84l6.49,2.76a26.11,26.11,0,0,1,16,24v18A1,1,0,0,1,102.14,126.09Z"/><path class="cls-5" d="M26.14,126.09a1,1,0,0,1-1-1V107.3A26.07,26.07,0,0,1,41.2,83.18l6.14-2.57a1,1,0,1,1,.77,1.85L42,85A24.08,24.08,0,0,0,27.14,107.3v17.8A1,1,0,0,1,26.14,126.09Z"/><path class="cls-11" d="M66.32,80.09H62a14.16,14.16,0,0,1-10-4.15L48.7,72.71a25.82,25.82,0,0,1-7.56-18.26v-17c0-22.81,46-22.81,46,0v17a25.82,25.82,0,0,1-7.56,18.26l-3.24,3.24A14.16,14.16,0,0,1,66.32,80.09Z"/><g class="cls-3"><path class="cls-9" d="M76.34,71.95a14.16,14.16,0,0,1-10,4.15H62a14.16,14.16,0,0,1-10-4.15L48.7,68.71a25.82,25.82,0,0,1-7.56-18.26v4A25.82,25.82,0,0,0,48.7,72.71l3.24,3.24a14.16,14.16,0,0,0,10,4.15h4.37a14.16,14.16,0,0,0,10-4.15l3.24-3.24a25.82,25.82,0,0,0,7.56-18.26v-4a25.82,25.82,0,0,1-7.56,18.26Z"/></g><path class="cls-5" d="M66.32,81.09H62a15.06,15.06,0,0,1-10.72-4.44L48,73.41a26.65,26.65,0,0,1-7.86-19v-17c0-8.72,7.51-18.11,24-18.11s24,9.39,24,18.11v17a26.65,26.65,0,0,1-7.86,19L77,76.65A15.06,15.06,0,0,1,66.32,81.09Zm-2.18-59.8c-10.6,0-22,5-22,16.11v17A24.66,24.66,0,0,0,49.41,72l3.24,3.24A13.07,13.07,0,0,0,62,79.09h4.37a13.07,13.07,0,0,0,9.31-3.85L78.87,72a24.66,24.66,0,0,0,7.27-17.55v-17a14,14,0,0,0-6.74-12A28,28,0,0,0,64.14,21.29Z"/><path class="cls-11" d="M41.14,56.81v-9c0-3-2.23-4-3.6-3-2.19,1.53.6,8,.6,8C36.52,53.85,38.35,57.54,41.14,56.81Z"/><path class="cls-5" d="M40.4,57.91a4,4,0,0,1-3.55-2.45A2.94,2.94,0,0,1,37,52.58c-.78-2-2.39-6.92,0-8.59a3,3,0,0,1,3.13-.18,4.27,4.27,0,0,1,2,4v9a1,1,0,0,1-.75,1A3.9,3.9,0,0,1,40.4,57.91Zm.74-1.1h0ZM38.67,45.45a1,1,0,0,0-.56.18c-.9.62-.22,4.08.95,6.78a1,1,0,0,1-.38,1.24c-.22.14-.17.62,0,1a2.12,2.12,0,0,0,1.46,1.23V47.81a2.41,2.41,0,0,0-1-2.23A1.07,1.07,0,0,0,38.67,45.45Z"/><path class="cls-5" d="M38.14,53.81A1,1,0,0,1,37.6,52l.38-.24a1,1,0,1,1,1.08,1.68l-.37.24A1,1,0,0,1,38.14,53.81Z"/><path class="cls-11" d="M87.14,56.45v-9c0-3,2.22-4,3.6-3,2.19,1.53-.6,8-.6,8C91.77,53.49,89.93,57.19,87.14,56.45Z"/><path class="cls-5" d="M87.88,57.55a3.9,3.9,0,0,1-1-.13,1,1,0,0,1-.75-1v-9a4.27,4.27,0,0,1,2-4,3,3,0,0,1,3.13.18c2.4,1.67.78,6.61,0,8.59a2.94,2.94,0,0,1,.12,2.88A4,4,0,0,1,87.88,57.55Zm1.72-12.46a1.07,1.07,0,0,0-.5.13,2.41,2.41,0,0,0-1,2.23v8.07A2.12,2.12,0,0,0,89.6,54.3c.17-.38.22-.86,0-1a1,1,0,0,1-.38-1.24c1.17-2.71,1.84-6.16.95-6.78A1,1,0,0,0,89.61,45.09Z"/><path class="cls-5" d="M90.14,53.45a1,1,0,0,1-.54-.16l-.37-.24a1,1,0,1,1,1.08-1.68l.38.24a1,1,0,0,1-.54,1.84Z"/><g class="cls-3"><path class="cls-9" d="M73.41,24.08H54.83A13.45,13.45,0,0,0,41.26,37.41v1.68c0-4,11.43-10.52,20.58-10.52-3.91,3-5,8.77-3.43,11.3,11.1-8.06,15.41-2.18,24.75-2.64C86,37.09,87,40.09,87,40.09V37.41A13.45,13.45,0,0,0,73.41,24.08Z"/></g><path class="cls-12" d="M75.88,13.93c7.71,3.27,18,12.4,13.78,25.87-.62,2-1.52,1.3-2.52,1.12,0,0-.16-7.86-4-7.05C74,35.79,69.5,28.44,58.4,36.5c-1.54-2.53-.48-8.28,3.43-11.3-9.15,0-20.69,5.61-20.69,12.35,0,0-3.06-2.26-3.31-4.49C36.68,23,42.18,18,51.18,14.12c1.72-.74.42-10.67,2.31-8.91C58.73,10.09,71.77,12.19,75.88,13.93Z"/><g class="cls-13"><path class="cls-10" d="M51.18,18.61c1.72-.74.42-10.67,2.31-8.91,5.24,4.88,16.74,5.48,22.9,8.71s13.1,8.51,14.15,17.25c1.28-11.19-7.42-18.72-14.66-21.73-5.61-2.33-17.14-3.84-22.39-8.72-1.89-1.77-.6,8.17-2.31,8.91C42.24,18,36.76,22.91,37.81,32.89,38.65,25.83,43.69,21.84,51.18,18.61Z"/></g><path class="cls-5" d="M88.06,42.11a3.44,3.44,0,0,1-1.34-.28,1,1,0,0,1-.58-.89c0-1.77-.54-4.93-1.73-5.87a1.17,1.17,0,0,0-1-.22c-3.68.77-6.6.14-9.43-.47-4.51-1-8.41-1.81-14.94,2.93A1,1,0,0,1,57.55,37c-1.52-2.49-.94-7.24,1.73-10.68-8.14.89-17.14,5.77-17.14,11.2a1,1,0,0,1-1.37.93,6.63,6.63,0,0,1-3.94-5.32c-1.12-11.71,6-16.5,13.86-19.92.36-.55.49-3,.56-4.27.15-2.76.24-4.43,1.35-4.88a1.42,1.42,0,0,1,1.57.39c3.12,2.9,7.9,4.25,13,5.66a70.28,70.28,0,0,1,9.08,3h0a28.32,28.32,0,0,1,12.17,9.6c3.46,5.11,4.2,10.95,2.21,17.36a2.73,2.73,0,0,1-1.47,1.79A2.63,2.63,0,0,1,88.06,42.11Zm-4.37-9.3a3.11,3.11,0,0,1,2,.69c1.85,1.47,2.33,5,2.45,6.6a.61.61,0,0,0,.23,0,.85.85,0,0,0,.38-.56c4.75-15.32-9-22.65-13.28-24.53a68.62,68.62,0,0,0-8.82-2.9c-5-1.4-9.72-2.72-13.16-5.57-.1.73-.15,1.79-.2,2.57-.18,3.32-.35,5.39-1.68,6-8.34,3.6-13.7,8-12.75,17.93a4.32,4.32,0,0,0,1.52,2.9C42,29.27,52.76,24.2,61.83,24.2A1,1,0,0,1,62.44,26a9.7,9.7,0,0,0-3.58,9c6.67-4.44,11.15-3.48,15.49-2.54,2.74.59,5.34,1.15,8.6.46A3.56,3.56,0,0,1,83.69,32.81Z"/><path class="cls-10" d="M51.74,13.39A22.26,22.26,0,0,1,49,20.71"/><path class="cls-5" d="M49,21.71a1,1,0,0,1-.89-1.45l.42-.82a19.38,19.38,0,0,0,2.19-6.24,1,1,0,1,1,2,.37,21.28,21.28,0,0,1-2.37,6.78l-.41.81A1,1,0,0,1,49,21.71Z"/><circle class="cls-5" cx="76.64" cy="50.59" r="1.5"/><path class="cls-5" d="M76.64,53.09a2.5,2.5,0,1,1,2.5-2.5A2.5,2.5,0,0,1,76.64,53.09Zm0-3a.5.5,0,1,0,.5.5A.5.5,0,0,0,76.64,50.09Z"/><path class="cls-5" d="M64.14,58.77A5.75,5.75,0,0,1,61.62,58a1,1,0,0,1,1-1.71,3.8,3.8,0,0,0,1.48.54,3.8,3.8,0,0,0,1.48-.54,1,1,0,0,1,1,1.71A5.75,5.75,0,0,1,64.14,58.77Z"/><path class="cls-5" d="M54.79,46.3a11.56,11.56,0,0,1-2.9-.49c-1.55-.4-2.89-.75-4.17.11a1,1,0,0,1-1.11-1.66c2-1.36,4-.84,5.79-.39a6.14,6.14,0,0,0,3.43.27,1,1,0,1,1,.63,1.9A5.22,5.22,0,0,1,54.79,46.3Z"/><path class="cls-5" d="M64.14,68.59c-3,0-5.63-1.15-6.83-2.94A1,1,0,1,1,59,64.54c.82,1.23,2.9,2,5.17,2s4.35-.82,5.17-2.05A1,1,0,0,1,71,65.65C69.77,67.43,67.09,68.59,64.14,68.59Z"/><path class="cls-5" d="M81.14,46.09a1,1,0,0,1-.71-.29c-1.57-1.57-3.39-1.11-5.79-.3a8.25,8.25,0,0,1-2.48.59,1,1,0,0,1,0-2A7.48,7.48,0,0,0,74,43.61c2.1-.71,5.28-1.79,7.85.78a1,1,0,0,1-.71,1.71Z"/><g class="cls-3"><circle class="cls-14" cx="50.64" cy="60.59" r="3.5"/></g><g class="cls-3"><circle class="cls-14" cx="77.64" cy="60.59" r="3.5"/></g><circle class="cls-5" cx="51.66" cy="50.59" r="1.5"/><path class="cls-5" d="M51.66,53.09a2.5,2.5,0,1,1,2.5-2.5A2.5,2.5,0,0,1,51.66,53.09Zm0-3a.5.5,0,1,0,.5.5A.5.5,0,0,0,51.66,50.09Z"/><path class="cls-5" d="M55.16,50.09h-8a1,1,0,0,1,0-2h8a1,1,0,0,1,0,2Z"/><path class="cls-5" d="M81.14,50.09h-8a1,1,0,0,1,0-2h8a1,1,0,0,1,0,2Z"/></g></svg>