<?xml version="1.0" ?><svg data-name="004" id="_004" viewBox="0 0 128 128" xmlns="http://www.w3.org/2000/svg" xmlns:xlink="http://www.w3.org/1999/xlink"><defs><style>.cls-1{fill:#97c1ff;}.cls-2{fill:none;}.cls-3{opacity:0.3;}.cls-4{clip-path:url(#clip-path);}.cls-5{fill:#6d6daa;}.cls-6{clip-path:url(#clip-path-2);}.cls-7{fill:#ffd599;}.cls-8{fill:#534d94;}.cls-9{fill:#fff;}.cls-10{fill:#f9e2dc;}.cls-11{fill:#cc7e54;}.cls-12{fill:#d6b5b0;}.cls-13{fill:#6c86a6;}</style><clipPath id="clip-path"><circle class="cls-1" cx="64.01" cy="68" r="56"/></clipPath><clipPath id="clip-path-2"><path class="cls-2" d="M120.14,67.86a56.14,56.14,0,0,1-112.29,0C7.86,36.85,17,0,64,0,117,0,120.14,36.85,120.14,67.86Z"/></clipPath></defs><title/><g class="cls-3"><circle class="cls-1" cx="64.01" cy="68" r="56"/><g class="cls-4"><path class="cls-5" d="M3,4A2,2,0,1,1,5,2,2,2,0,0,1,3,4ZM3,2H3Z"/><path class="cls-5" d="M11,4a2,2,0,1,1,2-2A2,2,0,0,1,11,4Zm0-2h0Z"/><path class="cls-5" d="M19,4a2,2,0,1,1,2-2A2,2,0,0,1,19,4Zm0-2h0Z"/><path class="cls-5" d="M27,4a2,2,0,1,1,2-2A2,2,0,0,1,27,4Zm0-2h0Z"/><path class="cls-5" d="M35,4a2,2,0,1,1,2-2A2,2,0,0,1,35,4Zm0-2h0Z"/><path class="cls-5" d="M43,4a2,2,0,1,1,2-2A2,2,0,0,1,43,4Zm0-2h0Z"/><path class="cls-5" d="M51,4a2,2,0,1,1,2-2A2,2,0,0,1,51,4Zm0-2h0Z"/><path class="cls-5" d="M59,4a2,2,0,1,1,2-2A2,2,0,0,1,59,4Zm0-2h0Z"/><path class="cls-5" d="M67,4a2,2,0,1,1,2-2A2,2,0,0,1,67,4Zm0-2h0Z"/><path class="cls-5" d="M75,4a2,2,0,1,1,2-2A2,2,0,0,1,75,4Zm0-2h0Z"/><path class="cls-5" d="M83,4a2,2,0,1,1,2-2A2,2,0,0,1,83,4Zm0-2h0Z"/><path class="cls-5" d="M91,4a2,2,0,1,1,2-2A2,2,0,0,1,91,4Zm0-2h0Z"/><path class="cls-5" d="M99,4a2,2,0,1,1,2-2A2,2,0,0,1,99,4Zm0-2h0Z"/><path class="cls-5" d="M107,4a2,2,0,1,1,2-2A2,2,0,0,1,107,4Zm0-2h0Z"/><path class="cls-5" d="M115,4a2,2,0,1,1,2-2A2,2,0,0,1,115,4Zm0-2h0Z"/><path class="cls-5" d="M123,4a2,2,0,1,1,2-2A2,2,0,0,1,123,4Zm0-2h0Z"/><path class="cls-5" d="M7,10A2,2,0,1,1,9,8,2,2,0,0,1,7,10ZM7,8H7Z"/><path class="cls-5" d="M15,10a2,2,0,1,1,2-2A2,2,0,0,1,15,10Zm0-2h0Z"/><path class="cls-5" d="M23,10a2,2,0,1,1,2-2A2,2,0,0,1,23,10Zm0-2h0Z"/><path class="cls-5" d="M31,10a2,2,0,1,1,2-2A2,2,0,0,1,31,10Zm0-2h0Z"/><path class="cls-5" d="M39,10a2,2,0,1,1,2-2A2,2,0,0,1,39,10Zm0-2h0Z"/><path class="cls-5" d="M47,10a2,2,0,1,1,2-2A2,2,0,0,1,47,10Zm0-2h0Z"/><path class="cls-5" d="M55,10a2,2,0,1,1,2-2A2,2,0,0,1,55,10Zm0-2h0Z"/><path class="cls-5" d="M63,10a2,2,0,1,1,2-2A2,2,0,0,1,63,10Zm0-2h0Z"/><path class="cls-5" d="M71,10a2,2,0,1,1,2-2A2,2,0,0,1,71,10Zm0-2h0Z"/><path class="cls-5" d="M79,10a2,2,0,1,1,2-2A2,2,0,0,1,79,10Zm0-2h0Z"/><path class="cls-5" d="M87,10a2,2,0,1,1,2-2A2,2,0,0,1,87,10Zm0-2h0Z"/><path class="cls-5" d="M95,10a2,2,0,1,1,2-2A2,2,0,0,1,95,10Zm0-2h0Z"/><path class="cls-5" d="M103,10a2,2,0,1,1,2-2A2,2,0,0,1,103,10Zm0-2h0Z"/><path class="cls-5" d="M111,10a2,2,0,1,1,2-2A2,2,0,0,1,111,10Zm0-2h0Z"/><path class="cls-5" d="M119,10a2,2,0,1,1,2-2A2,2,0,0,1,119,10Zm0-2h0Z"/><path class="cls-5" d="M127,10a2,2,0,1,1,2-2A2,2,0,0,1,127,10Zm0-2h0Z"/><path class="cls-5" d="M3,16a2,2,0,1,1,2-2A2,2,0,0,1,3,16Zm0-2H3Z"/><path class="cls-5" d="M11,16a2,2,0,1,1,2-2A2,2,0,0,1,11,16Zm0-2h0Z"/><path class="cls-5" d="M19,16a2,2,0,1,1,2-2A2,2,0,0,1,19,16Zm0-2h0Z"/><path class="cls-5" d="M27,16a2,2,0,1,1,2-2A2,2,0,0,1,27,16Zm0-2h0Z"/><path class="cls-5" d="M35,16a2,2,0,1,1,2-2A2,2,0,0,1,35,16Zm0-2h0Z"/><path class="cls-5" d="M43,16a2,2,0,1,1,2-2A2,2,0,0,1,43,16Zm0-2h0Z"/><path class="cls-5" d="M51,16a2,2,0,1,1,2-2A2,2,0,0,1,51,16Zm0-2h0Z"/><path class="cls-5" d="M59,16a2,2,0,1,1,2-2A2,2,0,0,1,59,16Zm0-2h0Z"/><path class="cls-5" d="M67,16a2,2,0,1,1,2-2A2,2,0,0,1,67,16Zm0-2h0Z"/><path class="cls-5" d="M75,16a2,2,0,1,1,2-2A2,2,0,0,1,75,16Zm0-2h0Z"/><path class="cls-5" d="M83,16a2,2,0,1,1,2-2A2,2,0,0,1,83,16Zm0-2h0Z"/><path class="cls-5" d="M91,16a2,2,0,1,1,2-2A2,2,0,0,1,91,16Zm0-2h0Z"/><path class="cls-5" d="M99,16a2,2,0,1,1,2-2A2,2,0,0,1,99,16Zm0-2h0Z"/><path class="cls-5" d="M107,16a2,2,0,1,1,2-2A2,2,0,0,1,107,16Zm0-2h0Z"/><path class="cls-5" d="M115,16a2,2,0,1,1,2-2A2,2,0,0,1,115,16Zm0-2h0Z"/><path class="cls-5" d="M123,16a2,2,0,1,1,2-2A2,2,0,0,1,123,16Zm0-2h0Z"/><path class="cls-5" d="M7,22a2,2,0,1,1,2-2A2,2,0,0,1,7,22Zm0-2H7Z"/><path class="cls-5" d="M15,22a2,2,0,1,1,2-2A2,2,0,0,1,15,22Zm0-2h0Z"/><path class="cls-5" d="M23,22a2,2,0,1,1,2-2A2,2,0,0,1,23,22Zm0-2h0Z"/><path class="cls-5" d="M31,22a2,2,0,1,1,2-2A2,2,0,0,1,31,22Zm0-2h0Z"/><path class="cls-5" d="M39,22a2,2,0,1,1,2-2A2,2,0,0,1,39,22Zm0-2h0Z"/><path class="cls-5" d="M47,22a2,2,0,1,1,2-2A2,2,0,0,1,47,22Zm0-2h0Z"/><path class="cls-5" d="M55,22a2,2,0,1,1,2-2A2,2,0,0,1,55,22Zm0-2h0Z"/><path class="cls-5" d="M63,22a2,2,0,1,1,2-2A2,2,0,0,1,63,22Zm0-2h0Z"/><path class="cls-5" d="M71,22a2,2,0,1,1,2-2A2,2,0,0,1,71,22Zm0-2h0Z"/><path class="cls-5" d="M79,22a2,2,0,1,1,2-2A2,2,0,0,1,79,22Zm0-2h0Z"/><path class="cls-5" d="M87,22a2,2,0,1,1,2-2A2,2,0,0,1,87,22Zm0-2h0Z"/><path class="cls-5" d="M95,22a2,2,0,1,1,2-2A2,2,0,0,1,95,22Zm0-2h0Z"/><path class="cls-5" d="M103,22a2,2,0,1,1,2-2A2,2,0,0,1,103,22Zm0-2h0Z"/><path class="cls-5" d="M111,22a2,2,0,1,1,2-2A2,2,0,0,1,111,22Zm0-2h0Z"/><path class="cls-5" d="M119,22a2,2,0,1,1,2-2A2,2,0,0,1,119,22Zm0-2h0Z"/><path class="cls-5" d="M127,22a2,2,0,1,1,2-2A2,2,0,0,1,127,22Zm0-2h0Z"/><path class="cls-5" d="M3,28a2,2,0,1,1,2-2A2,2,0,0,1,3,28Zm0-2H3Z"/><path class="cls-5" d="M11,28a2,2,0,1,1,2-2A2,2,0,0,1,11,28Zm0-2h0Z"/><path class="cls-5" d="M19,28a2,2,0,1,1,2-2A2,2,0,0,1,19,28Zm0-2h0Z"/><path class="cls-5" d="M27,28a2,2,0,1,1,2-2A2,2,0,0,1,27,28Zm0-2h0Z"/><path class="cls-5" d="M35,28a2,2,0,1,1,2-2A2,2,0,0,1,35,28Zm0-2h0Z"/><path class="cls-5" d="M43,28a2,2,0,1,1,2-2A2,2,0,0,1,43,28Zm0-2h0Z"/><path class="cls-5" d="M51,28a2,2,0,1,1,2-2A2,2,0,0,1,51,28Zm0-2h0Z"/><path class="cls-5" d="M59,28a2,2,0,1,1,2-2A2,2,0,0,1,59,28Zm0-2h0Z"/><path class="cls-5" d="M67,28a2,2,0,1,1,2-2A2,2,0,0,1,67,28Zm0-2h0Z"/><path class="cls-5" d="M75,28a2,2,0,1,1,2-2A2,2,0,0,1,75,28Zm0-2h0Z"/><path class="cls-5" d="M83,28a2,2,0,1,1,2-2A2,2,0,0,1,83,28Zm0-2h0Z"/><path class="cls-5" d="M91,28a2,2,0,1,1,2-2A2,2,0,0,1,91,28Zm0-2h0Z"/><path class="cls-5" d="M99,28a2,2,0,1,1,2-2A2,2,0,0,1,99,28Zm0-2h0Z"/><path class="cls-5" d="M107,28a2,2,0,1,1,2-2A2,2,0,0,1,107,28Zm0-2h0Z"/><path class="cls-5" d="M115,28a2,2,0,1,1,2-2A2,2,0,0,1,115,28Zm0-2h0Z"/><path class="cls-5" d="M123,28a2,2,0,1,1,2-2A2,2,0,0,1,123,28Zm0-2h0Z"/><path class="cls-5" d="M7,34a2,2,0,1,1,2-2A2,2,0,0,1,7,34Zm0-2H7Z"/><path class="cls-5" d="M15,34a2,2,0,1,1,2-2A2,2,0,0,1,15,34Zm0-2h0Z"/><path class="cls-5" d="M23,34a2,2,0,1,1,2-2A2,2,0,0,1,23,34Zm0-2h0Z"/><path class="cls-5" d="M31,34a2,2,0,1,1,2-2A2,2,0,0,1,31,34Zm0-2h0Z"/><path class="cls-5" d="M39,34a2,2,0,1,1,2-2A2,2,0,0,1,39,34Zm0-2h0Z"/><path class="cls-5" d="M47,34a2,2,0,1,1,2-2A2,2,0,0,1,47,34Zm0-2h0Z"/><path class="cls-5" d="M55,34a2,2,0,1,1,2-2A2,2,0,0,1,55,34Zm0-2h0Z"/><path class="cls-5" d="M63,34a2,2,0,1,1,2-2A2,2,0,0,1,63,34Zm0-2h0Z"/><path class="cls-5" d="M71,34a2,2,0,1,1,2-2A2,2,0,0,1,71,34Zm0-2h0Z"/><path class="cls-5" d="M79,34a2,2,0,1,1,2-2A2,2,0,0,1,79,34Zm0-2h0Z"/><path class="cls-5" d="M87,34a2,2,0,1,1,2-2A2,2,0,0,1,87,34Zm0-2h0Z"/><path class="cls-5" d="M95,34a2,2,0,1,1,2-2A2,2,0,0,1,95,34Zm0-2h0Z"/><path class="cls-5" d="M103,34a2,2,0,1,1,2-2A2,2,0,0,1,103,34Zm0-2h0Z"/><path class="cls-5" d="M111,34a2,2,0,1,1,2-2A2,2,0,0,1,111,34Zm0-2h0Z"/><path class="cls-5" d="M119,34a2,2,0,1,1,2-2A2,2,0,0,1,119,34Zm0-2h0Z"/><path class="cls-5" d="M127,34a2,2,0,1,1,2-2A2,2,0,0,1,127,34Zm0-2h0Z"/><path class="cls-5" d="M3,40a2,2,0,1,1,2-2A2,2,0,0,1,3,40Zm0-2H3Z"/><path class="cls-5" d="M11,40a2,2,0,1,1,2-2A2,2,0,0,1,11,40Zm0-2h0Z"/><path class="cls-5" d="M19,40a2,2,0,1,1,2-2A2,2,0,0,1,19,40Zm0-2h0Z"/><path class="cls-5" d="M27,40a2,2,0,1,1,2-2A2,2,0,0,1,27,40Zm0-2h0Z"/><path class="cls-5" d="M35,40a2,2,0,1,1,2-2A2,2,0,0,1,35,40Zm0-2h0Z"/><path class="cls-5" d="M43,40a2,2,0,1,1,2-2A2,2,0,0,1,43,40Zm0-2h0Z"/><path class="cls-5" d="M51,40a2,2,0,1,1,2-2A2,2,0,0,1,51,40Zm0-2h0Z"/><path class="cls-5" d="M59,40a2,2,0,1,1,2-2A2,2,0,0,1,59,40Zm0-2h0Z"/><path class="cls-5" d="M67,40a2,2,0,1,1,2-2A2,2,0,0,1,67,40Zm0-2h0Z"/><path class="cls-5" d="M75,40a2,2,0,1,1,2-2A2,2,0,0,1,75,40Zm0-2h0Z"/><path class="cls-5" d="M83,40a2,2,0,1,1,2-2A2,2,0,0,1,83,40Zm0-2h0Z"/><path class="cls-5" d="M91,40a2,2,0,1,1,2-2A2,2,0,0,1,91,40Zm0-2h0Z"/><path class="cls-5" d="M99,40a2,2,0,1,1,2-2A2,2,0,0,1,99,40Zm0-2h0Z"/><path class="cls-5" d="M107,40a2,2,0,1,1,2-2A2,2,0,0,1,107,40Zm0-2h0Z"/><path class="cls-5" d="M115,40a2,2,0,1,1,2-2A2,2,0,0,1,115,40Zm0-2h0Z"/><path class="cls-5" d="M123,40a2,2,0,1,1,2-2A2,2,0,0,1,123,40Zm0-2h0Z"/><path class="cls-5" d="M7,46a2,2,0,1,1,2-2A2,2,0,0,1,7,46Zm0-2H7Z"/><path class="cls-5" d="M15,46a2,2,0,1,1,2-2A2,2,0,0,1,15,46Zm0-2h0Z"/><path class="cls-5" d="M23,46a2,2,0,1,1,2-2A2,2,0,0,1,23,46Zm0-2h0Z"/><path class="cls-5" d="M31,46a2,2,0,1,1,2-2A2,2,0,0,1,31,46Zm0-2h0Z"/><path class="cls-5" d="M39,46a2,2,0,1,1,2-2A2,2,0,0,1,39,46Zm0-2h0Z"/><path class="cls-5" d="M47,46a2,2,0,1,1,2-2A2,2,0,0,1,47,46Zm0-2h0Z"/><path class="cls-5" d="M55,46a2,2,0,1,1,2-2A2,2,0,0,1,55,46Zm0-2h0Z"/><path class="cls-5" d="M63,46a2,2,0,1,1,2-2A2,2,0,0,1,63,46Zm0-2h0Z"/><path class="cls-5" d="M71,46a2,2,0,1,1,2-2A2,2,0,0,1,71,46Zm0-2h0Z"/><path class="cls-5" d="M79,46a2,2,0,1,1,2-2A2,2,0,0,1,79,46Zm0-2h0Z"/><path class="cls-5" d="M87,46a2,2,0,1,1,2-2A2,2,0,0,1,87,46Zm0-2h0Z"/><path class="cls-5" d="M95,46a2,2,0,1,1,2-2A2,2,0,0,1,95,46Zm0-2h0Z"/><path class="cls-5" d="M103,46a2,2,0,1,1,2-2A2,2,0,0,1,103,46Zm0-2h0Z"/><path class="cls-5" d="M111,46a2,2,0,1,1,2-2A2,2,0,0,1,111,46Zm0-2h0Z"/><path class="cls-5" d="M119,46a2,2,0,1,1,2-2A2,2,0,0,1,119,46Zm0-2h0Z"/><path class="cls-5" d="M127,46a2,2,0,1,1,2-2A2,2,0,0,1,127,46Zm0-2h0Z"/><path class="cls-5" d="M3,52a2,2,0,1,1,2-2A2,2,0,0,1,3,52Zm0-2H3Z"/><path class="cls-5" d="M11,52a2,2,0,1,1,2-2A2,2,0,0,1,11,52Zm0-2h0Z"/><path class="cls-5" d="M19,52a2,2,0,1,1,2-2A2,2,0,0,1,19,52Zm0-2h0Z"/><path class="cls-5" d="M27,52a2,2,0,1,1,2-2A2,2,0,0,1,27,52Zm0-2h0Z"/><path class="cls-5" d="M35,52a2,2,0,1,1,2-2A2,2,0,0,1,35,52Zm0-2h0Z"/><path class="cls-5" d="M43,52a2,2,0,1,1,2-2A2,2,0,0,1,43,52Zm0-2h0Z"/><path class="cls-5" d="M51,52a2,2,0,1,1,2-2A2,2,0,0,1,51,52Zm0-2h0Z"/><path class="cls-5" d="M59,52a2,2,0,1,1,2-2A2,2,0,0,1,59,52Zm0-2h0Z"/><path class="cls-5" d="M67,52a2,2,0,1,1,2-2A2,2,0,0,1,67,52Zm0-2h0Z"/><path class="cls-5" d="M75,52a2,2,0,1,1,2-2A2,2,0,0,1,75,52Zm0-2h0Z"/><path class="cls-5" d="M83,52a2,2,0,1,1,2-2A2,2,0,0,1,83,52Zm0-2h0Z"/><path class="cls-5" d="M91,52a2,2,0,1,1,2-2A2,2,0,0,1,91,52Zm0-2h0Z"/><path class="cls-5" d="M99,52a2,2,0,1,1,2-2A2,2,0,0,1,99,52Zm0-2h0Z"/><path class="cls-5" d="M107,52a2,2,0,1,1,2-2A2,2,0,0,1,107,52Zm0-2h0Z"/><path class="cls-5" d="M115,52a2,2,0,1,1,2-2A2,2,0,0,1,115,52Zm0-2h0Z"/><path class="cls-5" d="M123,52a2,2,0,1,1,2-2A2,2,0,0,1,123,52Zm0-2h0Z"/><path class="cls-5" d="M7,58a2,2,0,1,1,2-2A2,2,0,0,1,7,58Zm0-2H7Z"/><path class="cls-5" d="M15,58a2,2,0,1,1,2-2A2,2,0,0,1,15,58Zm0-2h0Z"/><path class="cls-5" d="M23,58a2,2,0,1,1,2-2A2,2,0,0,1,23,58Zm0-2h0Z"/><path class="cls-5" d="M31,58a2,2,0,1,1,2-2A2,2,0,0,1,31,58Zm0-2h0Z"/><path class="cls-5" d="M39,58a2,2,0,1,1,2-2A2,2,0,0,1,39,58Zm0-2h0Z"/><path class="cls-5" d="M47,58a2,2,0,1,1,2-2A2,2,0,0,1,47,58Zm0-2h0Z"/><path class="cls-5" d="M55,58a2,2,0,1,1,2-2A2,2,0,0,1,55,58Zm0-2h0Z"/><path class="cls-5" d="M63,58a2,2,0,1,1,2-2A2,2,0,0,1,63,58Zm0-2h0Z"/><path class="cls-5" d="M71,58a2,2,0,1,1,2-2A2,2,0,0,1,71,58Zm0-2h0Z"/><path class="cls-5" d="M79,58a2,2,0,1,1,2-2A2,2,0,0,1,79,58Zm0-2h0Z"/><path class="cls-5" d="M87,58a2,2,0,1,1,2-2A2,2,0,0,1,87,58Zm0-2h0Z"/><path class="cls-5" d="M95,58a2,2,0,1,1,2-2A2,2,0,0,1,95,58Zm0-2h0Z"/><path class="cls-5" d="M103,58a2,2,0,1,1,2-2A2,2,0,0,1,103,58Zm0-2h0Z"/><path class="cls-5" d="M111,58a2,2,0,1,1,2-2A2,2,0,0,1,111,58Zm0-2h0Z"/><path class="cls-5" d="M119,58a2,2,0,1,1,2-2A2,2,0,0,1,119,58Zm0-2h0Z"/><path class="cls-5" d="M127,58a2,2,0,1,1,2-2A2,2,0,0,1,127,58Zm0-2h0Z"/><path class="cls-5" d="M3,64a2,2,0,1,1,2-2A2,2,0,0,1,3,64Zm0-2H3Z"/><path class="cls-5" d="M11,64a2,2,0,1,1,2-2A2,2,0,0,1,11,64Zm0-2h0Z"/><path class="cls-5" d="M19,64a2,2,0,1,1,2-2A2,2,0,0,1,19,64Zm0-2h0Z"/><path class="cls-5" d="M27,64a2,2,0,1,1,2-2A2,2,0,0,1,27,64Zm0-2h0Z"/><path class="cls-5" d="M35,64a2,2,0,1,1,2-2A2,2,0,0,1,35,64Zm0-2h0Z"/><path class="cls-5" d="M43,64a2,2,0,1,1,2-2A2,2,0,0,1,43,64Zm0-2h0Z"/><path class="cls-5" d="M51,64a2,2,0,1,1,2-2A2,2,0,0,1,51,64Zm0-2h0Z"/><path class="cls-5" d="M59,64a2,2,0,1,1,2-2A2,2,0,0,1,59,64Zm0-2h0Z"/><path class="cls-5" d="M67,64a2,2,0,1,1,2-2A2,2,0,0,1,67,64Zm0-2h0Z"/><path class="cls-5" d="M75,64a2,2,0,1,1,2-2A2,2,0,0,1,75,64Zm0-2h0Z"/><path class="cls-5" d="M83,64a2,2,0,1,1,2-2A2,2,0,0,1,83,64Zm0-2h0Z"/><path class="cls-5" d="M91,64a2,2,0,1,1,2-2A2,2,0,0,1,91,64Zm0-2h0Z"/><path class="cls-5" d="M99,64a2,2,0,1,1,2-2A2,2,0,0,1,99,64Zm0-2h0Z"/><path class="cls-5" d="M107,64a2,2,0,1,1,2-2A2,2,0,0,1,107,64Zm0-2h0Z"/><path class="cls-5" d="M115,64a2,2,0,1,1,2-2A2,2,0,0,1,115,64Zm0-2h0Z"/><path class="cls-5" d="M123,64a2,2,0,1,1,2-2A2,2,0,0,1,123,64Zm0-2h0Z"/><path class="cls-5" d="M7,70a2,2,0,1,1,2-2A2,2,0,0,1,7,70Zm0-2H7Z"/><path class="cls-5" d="M15,70a2,2,0,1,1,2-2A2,2,0,0,1,15,70Zm0-2h0Z"/><path class="cls-5" d="M23,70a2,2,0,1,1,2-2A2,2,0,0,1,23,70Zm0-2h0Z"/><path class="cls-5" d="M31,70a2,2,0,1,1,2-2A2,2,0,0,1,31,70Zm0-2h0Z"/><path class="cls-5" d="M39,70a2,2,0,1,1,2-2A2,2,0,0,1,39,70Zm0-2h0Z"/><path class="cls-5" d="M47,70a2,2,0,1,1,2-2A2,2,0,0,1,47,70Zm0-2h0Z"/><path class="cls-5" d="M55,70a2,2,0,1,1,2-2A2,2,0,0,1,55,70Zm0-2h0Z"/><path class="cls-5" d="M63,70a2,2,0,1,1,2-2A2,2,0,0,1,63,70Zm0-2h0Z"/><path class="cls-5" d="M71,70a2,2,0,1,1,2-2A2,2,0,0,1,71,70Zm0-2h0Z"/><path class="cls-5" d="M79,70a2,2,0,1,1,2-2A2,2,0,0,1,79,70Zm0-2h0Z"/><path class="cls-5" d="M87,70a2,2,0,1,1,2-2A2,2,0,0,1,87,70Zm0-2h0Z"/><path class="cls-5" d="M95,70a2,2,0,1,1,2-2A2,2,0,0,1,95,70Zm0-2h0Z"/><path class="cls-5" d="M103,70a2,2,0,1,1,2-2A2,2,0,0,1,103,70Zm0-2h0Z"/><path class="cls-5" d="M111,70a2,2,0,1,1,2-2A2,2,0,0,1,111,70Zm0-2h0Z"/><path class="cls-5" d="M119,70a2,2,0,1,1,2-2A2,2,0,0,1,119,70Zm0-2h0Z"/><path class="cls-5" d="M127,70a2,2,0,1,1,2-2A2,2,0,0,1,127,70Zm0-2h0Z"/><path class="cls-5" d="M3,76a2,2,0,1,1,2-2A2,2,0,0,1,3,76Zm0-2H3Z"/><path class="cls-5" d="M11,76a2,2,0,1,1,2-2A2,2,0,0,1,11,76Zm0-2h0Z"/><path class="cls-5" d="M19,76a2,2,0,1,1,2-2A2,2,0,0,1,19,76Zm0-2h0Z"/><path class="cls-5" d="M27,76a2,2,0,1,1,2-2A2,2,0,0,1,27,76Zm0-2h0Z"/><path class="cls-5" d="M35,76a2,2,0,1,1,2-2A2,2,0,0,1,35,76Zm0-2h0Z"/><path class="cls-5" d="M43,76a2,2,0,1,1,2-2A2,2,0,0,1,43,76Zm0-2h0Z"/><path class="cls-5" d="M51,76a2,2,0,1,1,2-2A2,2,0,0,1,51,76Zm0-2h0Z"/><path class="cls-5" d="M59,76a2,2,0,1,1,2-2A2,2,0,0,1,59,76Zm0-2h0Z"/><path class="cls-5" d="M67,76a2,2,0,1,1,2-2A2,2,0,0,1,67,76Zm0-2h0Z"/><path class="cls-5" d="M75,76a2,2,0,1,1,2-2A2,2,0,0,1,75,76Zm0-2h0Z"/><path class="cls-5" d="M83,76a2,2,0,1,1,2-2A2,2,0,0,1,83,76Zm0-2h0Z"/><path class="cls-5" d="M91,76a2,2,0,1,1,2-2A2,2,0,0,1,91,76Zm0-2h0Z"/><path class="cls-5" d="M99,76a2,2,0,1,1,2-2A2,2,0,0,1,99,76Zm0-2h0Z"/><path class="cls-5" d="M107,76a2,2,0,1,1,2-2A2,2,0,0,1,107,76Zm0-2h0Z"/><path class="cls-5" d="M115,76a2,2,0,1,1,2-2A2,2,0,0,1,115,76Zm0-2h0Z"/><path class="cls-5" d="M123,76a2,2,0,1,1,2-2A2,2,0,0,1,123,76Zm0-2h0Z"/><path class="cls-5" d="M7,82a2,2,0,1,1,2-2A2,2,0,0,1,7,82Zm0-2H7Z"/><path class="cls-5" d="M15,82a2,2,0,1,1,2-2A2,2,0,0,1,15,82Zm0-2h0Z"/><path class="cls-5" d="M23,82a2,2,0,1,1,2-2A2,2,0,0,1,23,82Zm0-2h0Z"/><path class="cls-5" d="M31,82a2,2,0,1,1,2-2A2,2,0,0,1,31,82Zm0-2h0Z"/><path class="cls-5" d="M39,82a2,2,0,1,1,2-2A2,2,0,0,1,39,82Zm0-2h0Z"/><path class="cls-5" d="M47,82a2,2,0,1,1,2-2A2,2,0,0,1,47,82Zm0-2h0Z"/><path class="cls-5" d="M55,82a2,2,0,1,1,2-2A2,2,0,0,1,55,82Zm0-2h0Z"/><path class="cls-5" d="M63,82a2,2,0,1,1,2-2A2,2,0,0,1,63,82Zm0-2h0Z"/><path class="cls-5" d="M71,82a2,2,0,1,1,2-2A2,2,0,0,1,71,82Zm0-2h0Z"/><path class="cls-5" d="M79,82a2,2,0,1,1,2-2A2,2,0,0,1,79,82Zm0-2h0Z"/><path class="cls-5" d="M87,82a2,2,0,1,1,2-2A2,2,0,0,1,87,82Zm0-2h0Z"/><path class="cls-5" d="M95,82a2,2,0,1,1,2-2A2,2,0,0,1,95,82Zm0-2h0Z"/><path class="cls-5" d="M103,82a2,2,0,1,1,2-2A2,2,0,0,1,103,82Zm0-2h0Z"/><path class="cls-5" d="M111,82a2,2,0,1,1,2-2A2,2,0,0,1,111,82Zm0-2h0Z"/><path class="cls-5" d="M119,82a2,2,0,1,1,2-2A2,2,0,0,1,119,82Zm0-2h0Z"/><path class="cls-5" d="M127,82a2,2,0,1,1,2-2A2,2,0,0,1,127,82Zm0-2h0Z"/><path class="cls-5" d="M3,88a2,2,0,1,1,2-2A2,2,0,0,1,3,88Zm0-2H3Z"/><path class="cls-5" d="M11,88a2,2,0,1,1,2-2A2,2,0,0,1,11,88Zm0-2h0Z"/><path class="cls-5" d="M19,88a2,2,0,1,1,2-2A2,2,0,0,1,19,88Zm0-2h0Z"/><path class="cls-5" d="M27,88a2,2,0,1,1,2-2A2,2,0,0,1,27,88Zm0-2h0Z"/><path class="cls-5" d="M35,88a2,2,0,1,1,2-2A2,2,0,0,1,35,88Zm0-2h0Z"/><path class="cls-5" d="M43,88a2,2,0,1,1,2-2A2,2,0,0,1,43,88Zm0-2h0Z"/><path class="cls-5" d="M51,88a2,2,0,1,1,2-2A2,2,0,0,1,51,88Zm0-2h0Z"/><path class="cls-5" d="M59,88a2,2,0,1,1,2-2A2,2,0,0,1,59,88Zm0-2h0Z"/><path class="cls-5" d="M67,88a2,2,0,1,1,2-2A2,2,0,0,1,67,88Zm0-2h0Z"/><path class="cls-5" d="M75,88a2,2,0,1,1,2-2A2,2,0,0,1,75,88Zm0-2h0Z"/><path class="cls-5" d="M83,88a2,2,0,1,1,2-2A2,2,0,0,1,83,88Zm0-2h0Z"/><path class="cls-5" d="M91,88a2,2,0,1,1,2-2A2,2,0,0,1,91,88Zm0-2h0Z"/><path class="cls-5" d="M99,88a2,2,0,1,1,2-2A2,2,0,0,1,99,88Zm0-2h0Z"/><path class="cls-5" d="M107,88a2,2,0,1,1,2-2A2,2,0,0,1,107,88Zm0-2h0Z"/><path class="cls-5" d="M115,88a2,2,0,1,1,2-2A2,2,0,0,1,115,88Zm0-2h0Z"/><path class="cls-5" d="M123,88a2,2,0,1,1,2-2A2,2,0,0,1,123,88Zm0-2h0Z"/><path class="cls-5" d="M7,94a2,2,0,1,1,2-2A2,2,0,0,1,7,94Zm0-2H7Z"/><path class="cls-5" d="M15,94a2,2,0,1,1,2-2A2,2,0,0,1,15,94Zm0-2h0Z"/><path class="cls-5" d="M23,94a2,2,0,1,1,2-2A2,2,0,0,1,23,94Zm0-2h0Z"/><path class="cls-5" d="M31,94a2,2,0,1,1,2-2A2,2,0,0,1,31,94Zm0-2h0Z"/><path class="cls-5" d="M39,94a2,2,0,1,1,2-2A2,2,0,0,1,39,94Zm0-2h0Z"/><path class="cls-5" d="M47,94a2,2,0,1,1,2-2A2,2,0,0,1,47,94Zm0-2h0Z"/><path class="cls-5" d="M55,94a2,2,0,1,1,2-2A2,2,0,0,1,55,94Zm0-2h0Z"/><path class="cls-5" d="M63,94a2,2,0,1,1,2-2A2,2,0,0,1,63,94Zm0-2h0Z"/><path class="cls-5" d="M71,94a2,2,0,1,1,2-2A2,2,0,0,1,71,94Zm0-2h0Z"/><path class="cls-5" d="M79,94a2,2,0,1,1,2-2A2,2,0,0,1,79,94Zm0-2h0Z"/><path class="cls-5" d="M87,94a2,2,0,1,1,2-2A2,2,0,0,1,87,94Zm0-2h0Z"/><path class="cls-5" d="M95,94a2,2,0,1,1,2-2A2,2,0,0,1,95,94Zm0-2h0Z"/><path class="cls-5" d="M103,94a2,2,0,1,1,2-2A2,2,0,0,1,103,94Zm0-2h0Z"/><path class="cls-5" d="M111,94a2,2,0,1,1,2-2A2,2,0,0,1,111,94Zm0-2h0Z"/><path class="cls-5" d="M119,94a2,2,0,1,1,2-2A2,2,0,0,1,119,94Zm0-2h0Z"/><path class="cls-5" d="M127,94a2,2,0,1,1,2-2A2,2,0,0,1,127,94Zm0-2h0Z"/><path class="cls-5" d="M3,100a2,2,0,1,1,2-2A2,2,0,0,1,3,100Zm0-2H3Z"/><path class="cls-5" d="M11,100a2,2,0,1,1,2-2A2,2,0,0,1,11,100Zm0-2h0Z"/><path class="cls-5" d="M19,100a2,2,0,1,1,2-2A2,2,0,0,1,19,100Zm0-2h0Z"/><path class="cls-5" d="M27,100a2,2,0,1,1,2-2A2,2,0,0,1,27,100Zm0-2h0Z"/><path class="cls-5" d="M35,100a2,2,0,1,1,2-2A2,2,0,0,1,35,100Zm0-2h0Z"/><path class="cls-5" d="M43,100a2,2,0,1,1,2-2A2,2,0,0,1,43,100Zm0-2h0Z"/><path class="cls-5" d="M51,100a2,2,0,1,1,2-2A2,2,0,0,1,51,100Zm0-2h0Z"/><path class="cls-5" d="M59,100a2,2,0,1,1,2-2A2,2,0,0,1,59,100Zm0-2h0Z"/><path class="cls-5" d="M67,100a2,2,0,1,1,2-2A2,2,0,0,1,67,100Zm0-2h0Z"/><path class="cls-5" d="M75,100a2,2,0,1,1,2-2A2,2,0,0,1,75,100Zm0-2h0Z"/><path class="cls-5" d="M83,100a2,2,0,1,1,2-2A2,2,0,0,1,83,100Zm0-2h0Z"/><path class="cls-5" d="M91,100a2,2,0,1,1,2-2A2,2,0,0,1,91,100Zm0-2h0Z"/><path class="cls-5" d="M99,100a2,2,0,1,1,2-2A2,2,0,0,1,99,100Zm0-2h0Z"/><path class="cls-5" d="M107,100a2,2,0,1,1,2-2A2,2,0,0,1,107,100Zm0-2h0Z"/><path class="cls-5" d="M115,100a2,2,0,1,1,2-2A2,2,0,0,1,115,100Zm0-2h0Z"/><path class="cls-5" d="M123,100a2,2,0,1,1,2-2A2,2,0,0,1,123,100Zm0-2h0Z"/><path class="cls-5" d="M7,106a2,2,0,1,1,2-2A2,2,0,0,1,7,106Zm0-2H7Z"/><path class="cls-5" d="M15,106a2,2,0,1,1,2-2A2,2,0,0,1,15,106Zm0-2h0Z"/><path class="cls-5" d="M23,106a2,2,0,1,1,2-2A2,2,0,0,1,23,106Zm0-2h0Z"/><path class="cls-5" d="M31,106a2,2,0,1,1,2-2A2,2,0,0,1,31,106Zm0-2h0Z"/><path class="cls-5" d="M39,106a2,2,0,1,1,2-2A2,2,0,0,1,39,106Zm0-2h0Z"/><path class="cls-5" d="M47,106a2,2,0,1,1,2-2A2,2,0,0,1,47,106Zm0-2h0Z"/><path class="cls-5" d="M55,106a2,2,0,1,1,2-2A2,2,0,0,1,55,106Zm0-2h0Z"/><path class="cls-5" d="M63,106a2,2,0,1,1,2-2A2,2,0,0,1,63,106Zm0-2h0Z"/><path class="cls-5" d="M71,106a2,2,0,1,1,2-2A2,2,0,0,1,71,106Zm0-2h0Z"/><path class="cls-5" d="M79,106a2,2,0,1,1,2-2A2,2,0,0,1,79,106Zm0-2h0Z"/><path class="cls-5" d="M87,106a2,2,0,1,1,2-2A2,2,0,0,1,87,106Zm0-2h0Z"/><path class="cls-5" d="M95,106a2,2,0,1,1,2-2A2,2,0,0,1,95,106Zm0-2h0Z"/><path class="cls-5" d="M103,106a2,2,0,1,1,2-2A2,2,0,0,1,103,106Zm0-2h0Z"/><path class="cls-5" d="M111,106a2,2,0,1,1,2-2A2,2,0,0,1,111,106Zm0-2h0Z"/><path class="cls-5" d="M119,106a2,2,0,1,1,2-2A2,2,0,0,1,119,106Zm0-2h0Z"/><path class="cls-5" d="M127,106a2,2,0,1,1,2-2A2,2,0,0,1,127,106Zm0-2h0Z"/><path class="cls-5" d="M3,112a2,2,0,1,1,2-2A2,2,0,0,1,3,112Zm0-2H3Z"/><path class="cls-5" d="M11,112a2,2,0,1,1,2-2A2,2,0,0,1,11,112Zm0-2h0Z"/><path class="cls-5" d="M19,112a2,2,0,1,1,2-2A2,2,0,0,1,19,112Zm0-2h0Z"/><path class="cls-5" d="M27,112a2,2,0,1,1,2-2A2,2,0,0,1,27,112Zm0-2h0Z"/><path class="cls-5" d="M35,112a2,2,0,1,1,2-2A2,2,0,0,1,35,112Zm0-2h0Z"/><path class="cls-5" d="M43,112a2,2,0,1,1,2-2A2,2,0,0,1,43,112Zm0-2h0Z"/><path class="cls-5" d="M51,112a2,2,0,1,1,2-2A2,2,0,0,1,51,112Zm0-2h0Z"/><path class="cls-5" d="M59,112a2,2,0,1,1,2-2A2,2,0,0,1,59,112Zm0-2h0Z"/><path class="cls-5" d="M67,112a2,2,0,1,1,2-2A2,2,0,0,1,67,112Zm0-2h0Z"/><path class="cls-5" d="M75,112a2,2,0,1,1,2-2A2,2,0,0,1,75,112Zm0-2h0Z"/><path class="cls-5" d="M83,112a2,2,0,1,1,2-2A2,2,0,0,1,83,112Zm0-2h0Z"/><path class="cls-5" d="M91,112a2,2,0,1,1,2-2A2,2,0,0,1,91,112Zm0-2h0Z"/><path class="cls-5" d="M99,112a2,2,0,1,1,2-2A2,2,0,0,1,99,112Zm0-2h0Z"/><path class="cls-5" d="M107,112a2,2,0,1,1,2-2A2,2,0,0,1,107,112Zm0-2h0Z"/><path class="cls-5" d="M115,112a2,2,0,1,1,2-2A2,2,0,0,1,115,112Zm0-2h0Z"/><path class="cls-5" d="M123,112a2,2,0,1,1,2-2A2,2,0,0,1,123,112Zm0-2h0Z"/><path class="cls-5" d="M7,118a2,2,0,1,1,2-2A2,2,0,0,1,7,118Zm0-2H7Z"/><path class="cls-5" d="M15,118a2,2,0,1,1,2-2A2,2,0,0,1,15,118Zm0-2h0Z"/><path class="cls-5" d="M23,118a2,2,0,1,1,2-2A2,2,0,0,1,23,118Zm0-2h0Z"/><path class="cls-5" d="M31,118a2,2,0,1,1,2-2A2,2,0,0,1,31,118Zm0-2h0Z"/><path class="cls-5" d="M39,118a2,2,0,1,1,2-2A2,2,0,0,1,39,118Zm0-2h0Z"/><path class="cls-5" d="M47,118a2,2,0,1,1,2-2A2,2,0,0,1,47,118Zm0-2h0Z"/><path class="cls-5" d="M55,118a2,2,0,1,1,2-2A2,2,0,0,1,55,118Zm0-2h0Z"/><path class="cls-5" d="M63,118a2,2,0,1,1,2-2A2,2,0,0,1,63,118Zm0-2h0Z"/><path class="cls-5" d="M71,118a2,2,0,1,1,2-2A2,2,0,0,1,71,118Zm0-2h0Z"/><path class="cls-5" d="M79,118a2,2,0,1,1,2-2A2,2,0,0,1,79,118Zm0-2h0Z"/><path class="cls-5" d="M87,118a2,2,0,1,1,2-2A2,2,0,0,1,87,118Zm0-2h0Z"/><path class="cls-5" d="M95,118a2,2,0,1,1,2-2A2,2,0,0,1,95,118Zm0-2h0Z"/><path class="cls-5" d="M103,118a2,2,0,1,1,2-2A2,2,0,0,1,103,118Zm0-2h0Z"/><path class="cls-5" d="M111,118a2,2,0,1,1,2-2A2,2,0,0,1,111,118Zm0-2h0Z"/><path class="cls-5" d="M119,118a2,2,0,1,1,2-2A2,2,0,0,1,119,118Zm0-2h0Z"/><path class="cls-5" d="M127,118a2,2,0,1,1,2-2A2,2,0,0,1,127,118Zm0-2h0Z"/><path class="cls-5" d="M3,124a2,2,0,1,1,2-2A2,2,0,0,1,3,124Zm0-2H3Z"/><path class="cls-5" d="M11,124a2,2,0,1,1,2-2A2,2,0,0,1,11,124Zm0-2h0Z"/><path class="cls-5" d="M19,124a2,2,0,1,1,2-2A2,2,0,0,1,19,124Zm0-2h0Z"/><path class="cls-5" d="M27,124a2,2,0,1,1,2-2A2,2,0,0,1,27,124Zm0-2h0Z"/><path class="cls-5" d="M35,124a2,2,0,1,1,2-2A2,2,0,0,1,35,124Zm0-2h0Z"/><path class="cls-5" d="M43,124a2,2,0,1,1,2-2A2,2,0,0,1,43,124Zm0-2h0Z"/><path class="cls-5" d="M51,124a2,2,0,1,1,2-2A2,2,0,0,1,51,124Zm0-2h0Z"/><path class="cls-5" d="M59,124a2,2,0,1,1,2-2A2,2,0,0,1,59,124Zm0-2h0Z"/><path class="cls-5" d="M67,124a2,2,0,1,1,2-2A2,2,0,0,1,67,124Zm0-2h0Z"/><path class="cls-5" d="M75,124a2,2,0,1,1,2-2A2,2,0,0,1,75,124Zm0-2h0Z"/><path class="cls-5" d="M83,124a2,2,0,1,1,2-2A2,2,0,0,1,83,124Zm0-2h0Z"/><path class="cls-5" d="M91,124a2,2,0,1,1,2-2A2,2,0,0,1,91,124Zm0-2h0Z"/><path class="cls-5" d="M99,124a2,2,0,1,1,2-2A2,2,0,0,1,99,124Zm0-2h0Z"/><path class="cls-5" d="M107,124a2,2,0,1,1,2-2A2,2,0,0,1,107,124Zm0-2h0Z"/><path class="cls-5" d="M115,124a2,2,0,1,1,2-2A2,2,0,0,1,115,124Zm0-2h0Z"/><path class="cls-5" d="M123,124a2,2,0,1,1,2-2A2,2,0,0,1,123,124Zm0-2h0Z"/><path class="cls-5" d="M7,130a2,2,0,1,1,2-2A2,2,0,0,1,7,130Zm0-2H7Z"/><path class="cls-5" d="M15,130a2,2,0,1,1,2-2A2,2,0,0,1,15,130Zm0-2h0Z"/><path class="cls-5" d="M23,130a2,2,0,1,1,2-2A2,2,0,0,1,23,130Zm0-2h0Z"/><path class="cls-5" d="M31,130a2,2,0,1,1,2-2A2,2,0,0,1,31,130Zm0-2h0Z"/><path class="cls-5" d="M39,130a2,2,0,1,1,2-2A2,2,0,0,1,39,130Zm0-2h0Z"/><path class="cls-5" d="M47,130a2,2,0,1,1,2-2A2,2,0,0,1,47,130Zm0-2h0Z"/><path class="cls-5" d="M55,130a2,2,0,1,1,2-2A2,2,0,0,1,55,130Zm0-2h0Z"/><path class="cls-5" d="M63,130a2,2,0,1,1,2-2A2,2,0,0,1,63,130Zm0-2h0Z"/><path class="cls-5" d="M71,130a2,2,0,1,1,2-2A2,2,0,0,1,71,130Zm0-2h0Z"/><path class="cls-5" d="M79,130a2,2,0,1,1,2-2A2,2,0,0,1,79,130Zm0-2h0Z"/><path class="cls-5" d="M87,130a2,2,0,1,1,2-2A2,2,0,0,1,87,130Zm0-2h0Z"/><path class="cls-5" d="M95,130a2,2,0,1,1,2-2A2,2,0,0,1,95,130Zm0-2h0Z"/><path class="cls-5" d="M103,130a2,2,0,1,1,2-2A2,2,0,0,1,103,130Zm0-2h0Z"/><path class="cls-5" d="M111,130a2,2,0,1,1,2-2A2,2,0,0,1,111,130Zm0-2h0Z"/><path class="cls-5" d="M119,130a2,2,0,1,1,2-2A2,2,0,0,1,119,130Zm0-2h0Z"/><path class="cls-5" d="M127,130a2,2,0,1,1,2-2A2,2,0,0,1,127,130Zm0-2h0Z"/></g></g><g class="cls-6"><path class="cls-7" d="M88.29,91.3s-7-3-6.79-2.8c-2.31,5-11.25,7.5-17.5,9.28C57.78,96,48.19,93.48,46.53,88.57L40,91.4a27.65,27.65,0,0,0-17,25.52V132h82V116.7A27.65,27.65,0,0,0,88.29,91.3Z"/><path class="cls-7" d="M78.52,80.31C76.9,84,79.3,87,81.5,88.5c-2.31,5-10,9.28-17.5,9.28S48.1,93.46,46.5,88.5c2.15-1.29,4.64-4.41,2.94-8.19Z"/><g class="cls-3"><path class="cls-8" d="M78.52,80.31H49.44a6.11,6.11,0,0,1-1.61,7.16l3.92,3.32a12.5,12.5,0,0,0,8.07,3h8.34a12.5,12.5,0,0,0,8.07-3l4-3.34A6.14,6.14,0,0,1,78.52,80.31Z"/></g><g class="cls-3"><path class="cls-9" d="M88.29,91.3s-7-3-6.79-2.8c-2.31,5-10,9.28-17.5,9.28s-15.81-4.29-17.47-9.21L40,91.4a27.65,27.65,0,0,0-17,25.52v5C23,111,31.5,96,45.25,93.5c1.67,4.92,11.25,9.28,18.75,9.28S80.44,98.5,82.75,93.5C96.5,97.25,105,110.65,105,121.7v-5A27.65,27.65,0,0,0,88.29,91.3Z"/></g><path class="cls-5" d="M64,98.77c-8.12,0-16.74-4.66-18.45-10A1,1,0,0,1,46,87.64c1.66-1,4.05-3.57,2.54-6.92a1,1,0,1,1,1.82-.82c1.66,3.69-.11,7.1-2.63,9,2,4.21,9.43,7.89,16.27,7.89,6.59,0,13.63-3.52,16.22-8-2.36-1.89-4.25-5.15-2.61-8.89a1,1,0,1,1,1.83.8c-1.68,3.85,1.88,6.47,2.62,7a1,1,0,0,1,.36,1.25C79.86,94.45,71.77,98.77,64,98.77Z"/><path class="cls-5" d="M89,133a1,1,0,0,1-1-1V113.5a1,1,0,0,1,2,0V132A1,1,0,0,1,89,133Z"/><path class="cls-5" d="M39,133a1,1,0,0,1-1-1V113.5a1,1,0,0,1,2,0V132A1,1,0,0,1,39,133Z"/><path class="cls-5" d="M105,133a1,1,0,0,1-1-1V116.7A26.63,26.63,0,0,0,87.89,92.22l-6.81-3a1,1,0,1,1,.82-1.83l6.8,3A28.63,28.63,0,0,1,106,116.7V132A1,1,0,0,1,105,133Z"/><path class="cls-5" d="M23,133a1,1,0,0,1-1-1V116.92A28.58,28.58,0,0,1,39.61,90.48l6.5-2.82a1,1,0,1,1,.8,1.83l-6.51,2.82A26.59,26.59,0,0,0,24,116.92V132A1,1,0,0,1,23,133Z"/><path class="cls-5" d="M64.5,115a2,2,0,1,1,2-2A2,2,0,0,1,64.5,115Zm0-2h0Zm0,0h0Zm0,0h0Zm0,0h0Zm0,0h0Zm0,0h0Zm0,0h0Zm0,0h0Z"/><path class="cls-5" d="M64.5,122a2,2,0,1,1,2-2A2,2,0,0,1,64.5,122Zm0-2h0Zm0,0h0Zm0,0h0Zm0,0h0Zm0,0h0Zm0,0h0Zm0,0h0Zm0,0h0Z"/><path class="cls-5" d="M64,98.77a1,1,0,0,1-1-1V88a1,1,0,0,1,2,0v9.77A1,1,0,0,1,64,98.77Z"/><path class="cls-10" d="M39,60V51c0-3-2.23-4-3.6-3-2.19,1.53.6,8,.6,8C34.38,57,36.21,60.74,39,60Z"/><path class="cls-5" d="M38.26,61.1a4,4,0,0,1-3.55-2.45,2.94,2.94,0,0,1,.12-2.88c-.78-2-2.39-6.92,0-8.59A3,3,0,0,1,38,47a4.27,4.27,0,0,1,2,4v9a1,1,0,0,1-.75,1A3.9,3.9,0,0,1,38.26,61.1ZM39,60h0ZM36.53,48.64a1,1,0,0,0-.56.18c-.9.62-.22,4.08.95,6.78a1,1,0,0,1-.38,1.24c-.22.14-.17.62,0,1A2.12,2.12,0,0,0,38,59.07V51a2.41,2.41,0,0,0-1-2.23A1.07,1.07,0,0,0,36.53,48.64Z"/><path class="cls-5" d="M36,57a1,1,0,0,1-.54-1.84l.38-.24a1,1,0,0,1,1.08,1.68l-.37.24A1,1,0,0,1,36,57Z"/><path class="cls-10" d="M89,60V51c0-3,2.22-4,3.6-3,2.19,1.53-.6,8-.6,8C93.63,57,91.79,60.74,89,60Z"/><path class="cls-10" d="M67.12,86H60.88a13.58,13.58,0,0,1-9.61-4L43,73.73a13.58,13.58,0,0,1-4-9.61V39.59c0-24.79,50-24.79,50,0V64.12a13.58,13.58,0,0,1-4,9.61L76.73,82A13.58,13.58,0,0,1,67.12,86Z"/><g class="cls-3"><path class="cls-11" d="M76.73,77a13.58,13.58,0,0,1-9.61,4H60.88a13.58,13.58,0,0,1-9.61-4L43,68.73a13.58,13.58,0,0,1-4-9.61v5a13.58,13.58,0,0,0,4,9.61L51.27,82a13.58,13.58,0,0,0,9.61,4h6.25a13.58,13.58,0,0,0,9.61-4L85,73.73a13.58,13.58,0,0,0,4-9.61v-5a13.58,13.58,0,0,1-4,9.61Z"/></g><path class="cls-5" d="M89.74,61.1a3.9,3.9,0,0,1-1-.13A1,1,0,0,1,88,60V51a4.27,4.27,0,0,1,2-4,3,3,0,0,1,3.13.18c2.4,1.67.78,6.61,0,8.59a2.94,2.94,0,0,1,.12,2.88A4,4,0,0,1,89.74,61.1Zm1.72-12.46a1.07,1.07,0,0,0-.5.13A2.41,2.41,0,0,0,90,51v8.07a2.12,2.12,0,0,0,1.46-1.23c.17-.38.22-.86,0-1a1,1,0,0,1-.38-1.24c1.17-2.71,1.84-6.16.95-6.78A1,1,0,0,0,91.47,48.64Z"/><path class="cls-5" d="M92,57a1,1,0,0,1-.54-.16l-.37-.24a1,1,0,1,1,1.08-1.68l.38.24A1,1,0,0,1,92,57Z"/><path class="cls-5" d="M67.12,87H60.88a14.49,14.49,0,0,1-10.31-4.27l-8.29-8.29A14.49,14.49,0,0,1,38,64.12V39.59c0-6.1,2.86-11.21,8.26-14.78C51,21.71,57.26,20,64,20s13,1.71,17.74,4.81C87.14,28.39,90,33.5,90,39.59V64.12a14.49,14.49,0,0,1-4.27,10.31l-8.29,8.29A14.49,14.49,0,0,1,67.12,87ZM64,22c-11.56,0-24,5.51-24,17.59V64.12A12.5,12.5,0,0,0,43.69,73L52,81.31A12.5,12.5,0,0,0,60.88,85h6.25A12.5,12.5,0,0,0,76,81.31L84.31,73A12.5,12.5,0,0,0,88,64.12V39.59a15.35,15.35,0,0,0-7.36-13.11C76.26,23.59,70.36,22,64,22Z"/><g class="cls-3"><path class="cls-11" d="M89,46V41.11A14.71,14.71,0,0,0,74.31,26.26H54A14.84,14.84,0,0,0,39.15,41.11v4.37c2.5-3,5-5.46,6.25-9.21C59.15,45,76.65,40.47,85,41.37,88.44,41.74,88.91,43.89,89,46Z"/></g><path class="cls-12" d="M80.4,18.76c8.88,4.11,14.85,8.75,11.53,25C91.47,46,89,45,89,45s.65-7.35-4-7.85c-8.32-.9-28.32,4.1-42.07-7.15,0,5-1.25,7.5-3.75,11.25,0,0-3.47,0-3.75-2.5-1.25-11.25,2.5-16.25,7.5-15C55.4,11.26,76,16.71,80.4,18.76Z"/><g class="cls-3"><path class="cls-9" d="M42.9,28.53C55.4,16,76,21.48,80.4,23.53,87,26.6,92,30,92.74,38.24c1-11.87-4.56-15.88-12.34-19.48-4.44-2.05-25-7.5-37.5,5-4.75-1.19-8.37,3.29-7.64,13.4C35.83,30.44,39,27.55,42.9,28.53Z"/></g><path class="cls-5" d="M90.18,46.24a4.4,4.4,0,0,1-1.57-.31,1,1,0,0,1-.61-1c0-.06.5-6.38-3.14-6.77a57.22,57.22,0,0,0-8,.09c-9.64.49-22.67,1.16-33.06-6.26-.29,3.86-1.51,6.33-3.85,9.83a1,1,0,0,1-.83.45h0c-1.51,0-4.44-.72-4.74-3.39-.79-7.1.33-12.37,3.16-14.83a5.85,5.85,0,0,1,5-1.36c13-12.47,33.75-6.9,38.24-4.82h0c8.71,4,15.63,8.77,12.09,26.11a2.71,2.71,0,0,1-1.36,2A2.89,2.89,0,0,1,90.18,46.24Zm-.15-2a1.09,1.09,0,0,0,.58-.08c.06,0,.24-.13.34-.59,3.25-15.93-2.76-20.1-11-23.89h0a42,42,0,0,0-15.31-2.87c-6.05,0-14.64,1.25-21.06,7.66a1,1,0,0,1-.95.26,4,4,0,0,0-3.78.81c-2.28,2-3.19,6.77-2.48,13.11.12,1.12,1.48,1.46,2.25,1.57C40.94,36.71,41.9,34.4,41.9,30a1,1,0,0,1,1.63-.77c10,8.2,23.44,7.51,33.25,7a58.32,58.32,0,0,1,8.29-.08C89.64,36.66,90.05,42.08,90,44.24Z"/><path class="cls-5" d="M46.65,26a1,1,0,0,1-.42-.09,12,12,0,0,0-3.43-1.16,1,1,0,0,1,.2-2,13.51,13.51,0,0,1,4.07,1.34A1,1,0,0,1,46.65,26Z"/><path class="cls-5" d="M39,48a1,1,0,0,1-1-1V41.11a1,1,0,0,1,2,0V47A1,1,0,0,1,39,48Z"/><path class="cls-12" d="M89,61V72.21a8.17,8.17,0,0,1-2.89,6.24l-9.86,8.35a12.5,12.5,0,0,1-8.07,3H59.83a12.5,12.5,0,0,1-8.07-3l-9.86-8.35A8.17,8.17,0,0,1,39,72.21V61l7.67,8.63a3.61,3.61,0,0,0,5,.38L53.5,68.5A10.77,10.77,0,0,1,60.4,66h7.2a10.77,10.77,0,0,1,6.89,2.5L76.31,70a3.61,3.61,0,0,0,5-.38Z"/><g class="cls-3"><path class="cls-11" d="M86.11,73.45l-9.86,8.35a12.5,12.5,0,0,1-8.07,3H59.83a12.5,12.5,0,0,1-8.07-3l-9.86-8.35A8.17,8.17,0,0,1,39,67.21v5a8.17,8.17,0,0,0,2.89,6.24l9.86,8.35a12.5,12.5,0,0,0,8.07,3h8.34a12.5,12.5,0,0,0,8.07-3l9.86-8.35A8.17,8.17,0,0,0,89,72.21v-5A8.17,8.17,0,0,1,86.11,73.45Z"/></g><g class="cls-3"><path class="cls-9" d="M81.33,69.63a3.61,3.61,0,0,1-5,.38L74.5,68.5A10.77,10.77,0,0,0,67.6,66H60.4a10.77,10.77,0,0,0-6.89,2.5L51.69,70a3.61,3.61,0,0,1-5-.38L39,61v3.75l7.67,8.63a3.61,3.61,0,0,0,5,.38l1.81-1.51a10.77,10.77,0,0,1,6.89-2.5h7.2a10.77,10.77,0,0,1,6.89,2.5l1.81,1.51a3.61,3.61,0,0,0,5-.38L89,64.75V61Z"/></g><path class="cls-5" d="M68.17,90.75H59.83a13.51,13.51,0,0,1-8.72-3.19l-9.86-8.35a9.15,9.15,0,0,1-3.25-7V61a1,1,0,0,1,1.75-.66L47.42,69a2.6,2.6,0,0,0,3.63.27l1.81-1.51A11.79,11.79,0,0,1,60.4,65h7.2a11.79,11.79,0,0,1,7.54,2.73L77,69.24A2.6,2.6,0,0,0,80.58,69l7.67-8.63A1,1,0,0,1,90,61V72.21a9.15,9.15,0,0,1-3.25,7l-9.86,8.35A13.51,13.51,0,0,1,68.17,90.75ZM40,63.63v8.58a7.16,7.16,0,0,0,2.54,5.47L52.4,86a11.51,11.51,0,0,0,7.43,2.72h8.34A11.51,11.51,0,0,0,75.6,86l9.86-8.35A7.16,7.16,0,0,0,88,72.21V63.63L82.07,70.3a4.6,4.6,0,0,1-6.4.48l-1.81-1.51A9.79,9.79,0,0,0,67.6,67H60.4a9.79,9.79,0,0,0-6.25,2.26l-1.81,1.51a4.6,4.6,0,0,1-6.4-.48Z"/><path class="cls-5" d="M64,73.94a8.61,8.61,0,0,1-4.3-.86,1,1,0,1,1,1.11-1.67,7.3,7.3,0,0,0,3.2.53,7.3,7.3,0,0,0,3.2-.53,1,1,0,0,1,1.11,1.67A8.61,8.61,0,0,1,64,73.94Z"/><circle class="cls-5" cx="52.5" cy="54" r="1.5"/><path class="cls-5" d="M52.5,56.5A2.5,2.5,0,1,1,55,54,2.5,2.5,0,0,1,52.5,56.5Zm0-3a.5.5,0,1,0,.5.5A.5.5,0,0,0,52.5,53.5Z"/><path class="cls-5" d="M56,53H47a1,1,0,0,1,0-2h9a1,1,0,0,1,0,2Z"/><path class="cls-5" d="M64,63a5.37,5.37,0,0,1-2.57-.93,1,1,0,0,1,1.11-1.66A3.61,3.61,0,0,0,64,61a3.61,3.61,0,0,0,1.46-.59,1,1,0,0,1,1.11,1.66A5.37,5.37,0,0,1,64,63Z"/><circle class="cls-5" cx="75.5" cy="54" r="1.5"/><path class="cls-5" d="M75.5,56.5A2.5,2.5,0,1,1,78,54,2.5,2.5,0,0,1,75.5,56.5Zm0-3a.5.5,0,1,0,.5.5A.5.5,0,0,0,75.5,53.5Z"/><path class="cls-5" d="M81,53H72a1,1,0,0,1,0-2h9a1,1,0,0,1,0,2Z"/><path class="cls-5" d="M59.75,50a1,1,0,0,1-.45-.11l-7.5-3.75a11.27,11.27,0,0,0-5.36,1.25,1,1,0,0,1-.89-1.79c2.43-1.22,6-1.84,7.14-1.25l7.5,3.75A1,1,0,0,1,59.75,50Z"/><path class="cls-5" d="M67.25,50a1,1,0,0,1-.45-1.89l7.5-3.75c1.17-.58,4.71,0,7.14,1.25a1,1,0,0,1-.89,1.79,11.06,11.06,0,0,0-5.4-1.23L67.7,49.89A1,1,0,0,1,67.25,50Z"/><g class="cls-3"><path class="cls-11" d="M83,25.19c-4,3.75-31,3.75-35,0V11.44l9.42,8.75,8.08-8.75,8.08,9.06L83,11.44Z"/></g><path class="cls-7" d="M82,21.75c-3.81,3.75-29.19,3.75-33,0V8l8.88,9.06L65.5,8l7.62,9.06L82,8Z"/><g class="cls-3"><path class="cls-9" d="M56.62,15.46v8.6c1.58.2,3.3.34,5.08.42V12.06l-3.81,5Z"/></g><path class="cls-5" d="M65.5,25.55c-7.56,0-15.11-1-17.2-3.09a1,1,0,0,1-.3-.71V8a1,1,0,0,1,1.71-.7l8.11,8.28,6.91-8.22a1,1,0,0,1,1.53,0l6.91,8.22L81.29,7.3A1,1,0,0,1,83,8V21.75a1,1,0,0,1-.3.71C80.61,24.52,73.06,25.55,65.5,25.55ZM50,21.29c4.23,3,26.77,3,31,0V10.45l-7.17,7.31a1,1,0,0,1-.75.3,1,1,0,0,1-.73-.36L65.5,9.55l-6.85,8.15a1,1,0,0,1-.73.36,1,1,0,0,1-.75-.3L50,10.45Zm32,.46h0Z"/><circle class="cls-7" cx="50.5" cy="5.5" r="2.5"/><path class="cls-5" d="M50.5,9A3.5,3.5,0,1,1,54,5.5,3.5,3.5,0,0,1,50.5,9Zm0-5A1.5,1.5,0,1,0,52,5.5,1.5,1.5,0,0,0,50.5,4Z"/><circle class="cls-7" cx="65.5" cy="5.5" r="2.5"/><path class="cls-5" d="M65.5,9A3.5,3.5,0,1,1,69,5.5,3.5,3.5,0,0,1,65.5,9Zm0-5A1.5,1.5,0,1,0,67,5.5,1.5,1.5,0,0,0,65.5,4Z"/><circle class="cls-7" cx="80.5" cy="5.5" r="2.5"/><path class="cls-5" d="M80.5,9A3.5,3.5,0,1,1,84,5.5,3.5,3.5,0,0,1,80.5,9Zm0-5A1.5,1.5,0,1,0,82,5.5,1.5,1.5,0,0,0,80.5,4Z"/><path class="cls-9" d="M36.15,89.05l-1.22.85a6.51,6.51,0,0,0-.77,10,42.91,42.91,0,0,0,19,10.66,6.5,6.5,0,0,0,8-5L62.88,97c-4.69,0-10.1-1.91-16.17-7.27A8.57,8.57,0,0,0,36.15,89.05Z"/><g class="cls-3"><path class="cls-13" d="M55.32,106.67A42.91,42.91,0,0,1,36.35,96a6.54,6.54,0,0,1-1.94-5.71,6.51,6.51,0,0,0-.25,9.65,42.91,42.91,0,0,0,19,10.66,6.5,6.5,0,0,0,8-5l.06-.3A6.51,6.51,0,0,1,55.32,106.67Z"/></g><g class="cls-3"><path class="cls-5" d="M40.11,95.15a1,1,0,0,1-.75-1.66l1.48-1.67a1,1,0,1,1,1.5,1.33l-1.48,1.67A1,1,0,0,1,40.11,95.15Z"/><path class="cls-5" d="M44.84,98.79A1,1,0,0,1,44,97.23l1.2-1.8a1,1,0,1,1,1.67,1.11l-1.2,1.8A1,1,0,0,1,44.84,98.79Z"/><path class="cls-5" d="M49.91,101.84a1,1,0,0,1-.89-1.46l1-1.87a1,1,0,1,1,1.78.91l-1,1.87A1,1,0,0,1,49.91,101.84Z"/><path class="cls-5" d="M55.49,104a1,1,0,0,1-.92-1.38l.78-1.9a1,1,0,0,1,1.85.76l-.78,1.9A1,1,0,0,1,55.49,104Z"/></g><path class="cls-5" d="M54.8,111.82a7.62,7.62,0,0,1-1.92-.25,44,44,0,0,1-19.42-10.91,7.55,7.55,0,0,1-2.3-6.06,7.44,7.44,0,0,1,3.19-5.53l1.22-.85A9.56,9.56,0,0,1,47.37,89c5.27,4.66,10.49,7,15.51,7a1,1,0,0,1,1,1.2l-1.71,8.6a7.51,7.51,0,0,1-7.34,6ZM41,88.54a7.46,7.46,0,0,0-4.26,1.33h0l-1.22.85a5.44,5.44,0,0,0-2.33,4,5.55,5.55,0,0,0,1.69,4.46,42,42,0,0,0,18.53,10.41,5.5,5.5,0,0,0,6.79-4.24L61.66,98C56.53,97.62,51.28,95.1,46,90.48A7.65,7.65,0,0,0,41,88.54Zm-4.82.51h0Z"/><path class="cls-9" d="M92,89.05l1.22.85a6.51,6.51,0,0,1,.77,10,42.91,42.91,0,0,1-19,10.66,6.5,6.5,0,0,1-8-5L65.27,97c4.69,0,10.1-1.91,16.17-7.27A8.57,8.57,0,0,1,92,89.05Z"/><g class="cls-3"><path class="cls-13" d="M72.82,106.67A42.91,42.91,0,0,0,91.8,96a6.54,6.54,0,0,0,1.94-5.71A6.51,6.51,0,0,1,94,99.95a42.91,42.91,0,0,1-19,10.66,6.5,6.5,0,0,1-8-5l-.06-.3A6.51,6.51,0,0,0,72.82,106.67Z"/></g><g class="cls-3"><path class="cls-5" d="M88,95.15a1,1,0,0,1-.75-.34l-1.48-1.67a1,1,0,0,1,1.5-1.33l1.48,1.67A1,1,0,0,1,88,95.15Z"/><path class="cls-5" d="M83.3,98.79a1,1,0,0,1-.83-.45l-1.2-1.8a1,1,0,1,1,1.67-1.11l1.2,1.8a1,1,0,0,1-.83,1.55Z"/><path class="cls-5" d="M78.24,101.84a1,1,0,0,1-.89-.54l-1-1.87a1,1,0,1,1,1.78-.91l1,1.87a1,1,0,0,1-.89,1.46Z"/><path class="cls-5" d="M72.66,104a1,1,0,0,1-.93-.62l-.78-1.9a1,1,0,1,1,1.85-.76l.78,1.9a1,1,0,0,1-.92,1.38Z"/></g><path class="cls-5" d="M73.34,111.82a7.51,7.51,0,0,1-7.34-6l-1.71-8.6a1,1,0,0,1,1-1.2c5,0,10.23-2.36,15.51-7a9.56,9.56,0,0,1,11.79-.75l1.22.85A7.44,7.44,0,0,1,97,94.6a7.55,7.55,0,0,1-2.3,6.06,44,44,0,0,1-19.42,10.91A7.62,7.62,0,0,1,73.34,111.82ZM66.48,98,68,105.4a5.5,5.5,0,0,0,6.79,4.24A42,42,0,0,0,93.29,99.23,5.55,5.55,0,0,0,95,94.77a5.44,5.44,0,0,0-2.34-4l-1.22-.85h0a7.56,7.56,0,0,0-9.32.6C76.86,95.1,71.61,97.62,66.48,98Z"/></g></svg>