<?xml version="1.0" ?><svg data-name="004" id="_004" viewBox="0 0 128 128" xmlns="http://www.w3.org/2000/svg" xmlns:xlink="http://www.w3.org/1999/xlink"><defs><style>.cls-1{fill:#97c1ff;}.cls-2{fill:none;}.cls-3{opacity:0.3;}.cls-4{clip-path:url(#clip-path);}.cls-5{fill:#6d6daa;}.cls-6{clip-path:url(#clip-path-2);}.cls-7{fill:#939fc6;}.cls-8{fill:#cc7e54;}.cls-9{fill:#fff;}.cls-10{fill:#1c418a;}.cls-11{fill:#eff7ff;}.cls-12{fill:#ff9797;}</style><clipPath id="clip-path"><circle class="cls-1" cx="64.01" cy="68" r="56"/></clipPath><clipPath id="clip-path-2"><path class="cls-2" d="M120.14,67.86a56.14,56.14,0,0,1-112.29,0C7.86,36.85,33,3,64,3S120.14,36.85,120.14,67.86Z"/></clipPath></defs><title/><g class="cls-3"><circle class="cls-1" cx="64.01" cy="68" r="56"/><g class="cls-4"><path class="cls-5" d="M3,4A2,2,0,1,1,5,2,2,2,0,0,1,3,4ZM3,2H3Z"/><path class="cls-5" d="M11,4a2,2,0,1,1,2-2A2,2,0,0,1,11,4Zm0-2h0Z"/><path class="cls-5" d="M19,4a2,2,0,1,1,2-2A2,2,0,0,1,19,4Zm0-2h0Z"/><path class="cls-5" d="M27,4a2,2,0,1,1,2-2A2,2,0,0,1,27,4Zm0-2h0Z"/><path class="cls-5" d="M35,4a2,2,0,1,1,2-2A2,2,0,0,1,35,4Zm0-2h0Z"/><path class="cls-5" d="M43,4a2,2,0,1,1,2-2A2,2,0,0,1,43,4Zm0-2h0Z"/><path class="cls-5" d="M51,4a2,2,0,1,1,2-2A2,2,0,0,1,51,4Zm0-2h0Z"/><path class="cls-5" d="M59,4a2,2,0,1,1,2-2A2,2,0,0,1,59,4Zm0-2h0Z"/><path class="cls-5" d="M67,4a2,2,0,1,1,2-2A2,2,0,0,1,67,4Zm0-2h0Z"/><path class="cls-5" d="M75,4a2,2,0,1,1,2-2A2,2,0,0,1,75,4Zm0-2h0Z"/><path class="cls-5" d="M83,4a2,2,0,1,1,2-2A2,2,0,0,1,83,4Zm0-2h0Z"/><path class="cls-5" d="M91,4a2,2,0,1,1,2-2A2,2,0,0,1,91,4Zm0-2h0Z"/><path class="cls-5" d="M99,4a2,2,0,1,1,2-2A2,2,0,0,1,99,4Zm0-2h0Z"/><path class="cls-5" d="M107,4a2,2,0,1,1,2-2A2,2,0,0,1,107,4Zm0-2h0Z"/><path class="cls-5" d="M115,4a2,2,0,1,1,2-2A2,2,0,0,1,115,4Zm0-2h0Z"/><path class="cls-5" d="M123,4a2,2,0,1,1,2-2A2,2,0,0,1,123,4Zm0-2h0Z"/><path class="cls-5" d="M7,10A2,2,0,1,1,9,8,2,2,0,0,1,7,10ZM7,8H7Z"/><path class="cls-5" d="M15,10a2,2,0,1,1,2-2A2,2,0,0,1,15,10Zm0-2h0Z"/><path class="cls-5" d="M23,10a2,2,0,1,1,2-2A2,2,0,0,1,23,10Zm0-2h0Z"/><path class="cls-5" d="M31,10a2,2,0,1,1,2-2A2,2,0,0,1,31,10Zm0-2h0Z"/><path class="cls-5" d="M39,10a2,2,0,1,1,2-2A2,2,0,0,1,39,10Zm0-2h0Z"/><path class="cls-5" d="M47,10a2,2,0,1,1,2-2A2,2,0,0,1,47,10Zm0-2h0Z"/><path class="cls-5" d="M55,10a2,2,0,1,1,2-2A2,2,0,0,1,55,10Zm0-2h0Z"/><path class="cls-5" d="M63,10a2,2,0,1,1,2-2A2,2,0,0,1,63,10Zm0-2h0Z"/><path class="cls-5" d="M71,10a2,2,0,1,1,2-2A2,2,0,0,1,71,10Zm0-2h0Z"/><path class="cls-5" d="M79,10a2,2,0,1,1,2-2A2,2,0,0,1,79,10Zm0-2h0Z"/><path class="cls-5" d="M87,10a2,2,0,1,1,2-2A2,2,0,0,1,87,10Zm0-2h0Z"/><path class="cls-5" d="M95,10a2,2,0,1,1,2-2A2,2,0,0,1,95,10Zm0-2h0Z"/><path class="cls-5" d="M103,10a2,2,0,1,1,2-2A2,2,0,0,1,103,10Zm0-2h0Z"/><path class="cls-5" d="M111,10a2,2,0,1,1,2-2A2,2,0,0,1,111,10Zm0-2h0Z"/><path class="cls-5" d="M119,10a2,2,0,1,1,2-2A2,2,0,0,1,119,10Zm0-2h0Z"/><path class="cls-5" d="M127,10a2,2,0,1,1,2-2A2,2,0,0,1,127,10Zm0-2h0Z"/><path class="cls-5" d="M3,16a2,2,0,1,1,2-2A2,2,0,0,1,3,16Zm0-2H3Z"/><path class="cls-5" d="M11,16a2,2,0,1,1,2-2A2,2,0,0,1,11,16Zm0-2h0Z"/><path class="cls-5" d="M19,16a2,2,0,1,1,2-2A2,2,0,0,1,19,16Zm0-2h0Z"/><path class="cls-5" d="M27,16a2,2,0,1,1,2-2A2,2,0,0,1,27,16Zm0-2h0Z"/><path class="cls-5" d="M35,16a2,2,0,1,1,2-2A2,2,0,0,1,35,16Zm0-2h0Z"/><path class="cls-5" d="M43,16a2,2,0,1,1,2-2A2,2,0,0,1,43,16Zm0-2h0Z"/><path class="cls-5" d="M51,16a2,2,0,1,1,2-2A2,2,0,0,1,51,16Zm0-2h0Z"/><path class="cls-5" d="M59,16a2,2,0,1,1,2-2A2,2,0,0,1,59,16Zm0-2h0Z"/><path class="cls-5" d="M67,16a2,2,0,1,1,2-2A2,2,0,0,1,67,16Zm0-2h0Z"/><path class="cls-5" d="M75,16a2,2,0,1,1,2-2A2,2,0,0,1,75,16Zm0-2h0Z"/><path class="cls-5" d="M83,16a2,2,0,1,1,2-2A2,2,0,0,1,83,16Zm0-2h0Z"/><path class="cls-5" d="M91,16a2,2,0,1,1,2-2A2,2,0,0,1,91,16Zm0-2h0Z"/><path class="cls-5" d="M99,16a2,2,0,1,1,2-2A2,2,0,0,1,99,16Zm0-2h0Z"/><path class="cls-5" d="M107,16a2,2,0,1,1,2-2A2,2,0,0,1,107,16Zm0-2h0Z"/><path class="cls-5" d="M115,16a2,2,0,1,1,2-2A2,2,0,0,1,115,16Zm0-2h0Z"/><path class="cls-5" d="M123,16a2,2,0,1,1,2-2A2,2,0,0,1,123,16Zm0-2h0Z"/><path class="cls-5" d="M7,22a2,2,0,1,1,2-2A2,2,0,0,1,7,22Zm0-2H7Z"/><path class="cls-5" d="M15,22a2,2,0,1,1,2-2A2,2,0,0,1,15,22Zm0-2h0Z"/><path class="cls-5" d="M23,22a2,2,0,1,1,2-2A2,2,0,0,1,23,22Zm0-2h0Z"/><path class="cls-5" d="M31,22a2,2,0,1,1,2-2A2,2,0,0,1,31,22Zm0-2h0Z"/><path class="cls-5" d="M39,22a2,2,0,1,1,2-2A2,2,0,0,1,39,22Zm0-2h0Z"/><path class="cls-5" d="M47,22a2,2,0,1,1,2-2A2,2,0,0,1,47,22Zm0-2h0Z"/><path class="cls-5" d="M55,22a2,2,0,1,1,2-2A2,2,0,0,1,55,22Zm0-2h0Z"/><path class="cls-5" d="M63,22a2,2,0,1,1,2-2A2,2,0,0,1,63,22Zm0-2h0Z"/><path class="cls-5" d="M71,22a2,2,0,1,1,2-2A2,2,0,0,1,71,22Zm0-2h0Z"/><path class="cls-5" d="M79,22a2,2,0,1,1,2-2A2,2,0,0,1,79,22Zm0-2h0Z"/><path class="cls-5" d="M87,22a2,2,0,1,1,2-2A2,2,0,0,1,87,22Zm0-2h0Z"/><path class="cls-5" d="M95,22a2,2,0,1,1,2-2A2,2,0,0,1,95,22Zm0-2h0Z"/><path class="cls-5" d="M103,22a2,2,0,1,1,2-2A2,2,0,0,1,103,22Zm0-2h0Z"/><path class="cls-5" d="M111,22a2,2,0,1,1,2-2A2,2,0,0,1,111,22Zm0-2h0Z"/><path class="cls-5" d="M119,22a2,2,0,1,1,2-2A2,2,0,0,1,119,22Zm0-2h0Z"/><path class="cls-5" d="M127,22a2,2,0,1,1,2-2A2,2,0,0,1,127,22Zm0-2h0Z"/><path class="cls-5" d="M3,28a2,2,0,1,1,2-2A2,2,0,0,1,3,28Zm0-2H3Z"/><path class="cls-5" d="M11,28a2,2,0,1,1,2-2A2,2,0,0,1,11,28Zm0-2h0Z"/><path class="cls-5" d="M19,28a2,2,0,1,1,2-2A2,2,0,0,1,19,28Zm0-2h0Z"/><path class="cls-5" d="M27,28a2,2,0,1,1,2-2A2,2,0,0,1,27,28Zm0-2h0Z"/><path class="cls-5" d="M35,28a2,2,0,1,1,2-2A2,2,0,0,1,35,28Zm0-2h0Z"/><path class="cls-5" d="M43,28a2,2,0,1,1,2-2A2,2,0,0,1,43,28Zm0-2h0Z"/><path class="cls-5" d="M51,28a2,2,0,1,1,2-2A2,2,0,0,1,51,28Zm0-2h0Z"/><path class="cls-5" d="M59,28a2,2,0,1,1,2-2A2,2,0,0,1,59,28Zm0-2h0Z"/><path class="cls-5" d="M67,28a2,2,0,1,1,2-2A2,2,0,0,1,67,28Zm0-2h0Z"/><path class="cls-5" d="M75,28a2,2,0,1,1,2-2A2,2,0,0,1,75,28Zm0-2h0Z"/><path class="cls-5" d="M83,28a2,2,0,1,1,2-2A2,2,0,0,1,83,28Zm0-2h0Z"/><path class="cls-5" d="M91,28a2,2,0,1,1,2-2A2,2,0,0,1,91,28Zm0-2h0Z"/><path class="cls-5" d="M99,28a2,2,0,1,1,2-2A2,2,0,0,1,99,28Zm0-2h0Z"/><path class="cls-5" d="M107,28a2,2,0,1,1,2-2A2,2,0,0,1,107,28Zm0-2h0Z"/><path class="cls-5" d="M115,28a2,2,0,1,1,2-2A2,2,0,0,1,115,28Zm0-2h0Z"/><path class="cls-5" d="M123,28a2,2,0,1,1,2-2A2,2,0,0,1,123,28Zm0-2h0Z"/><path class="cls-5" d="M7,34a2,2,0,1,1,2-2A2,2,0,0,1,7,34Zm0-2H7Z"/><path class="cls-5" d="M15,34a2,2,0,1,1,2-2A2,2,0,0,1,15,34Zm0-2h0Z"/><path class="cls-5" d="M23,34a2,2,0,1,1,2-2A2,2,0,0,1,23,34Zm0-2h0Z"/><path class="cls-5" d="M31,34a2,2,0,1,1,2-2A2,2,0,0,1,31,34Zm0-2h0Z"/><path class="cls-5" d="M39,34a2,2,0,1,1,2-2A2,2,0,0,1,39,34Zm0-2h0Z"/><path class="cls-5" d="M47,34a2,2,0,1,1,2-2A2,2,0,0,1,47,34Zm0-2h0Z"/><path class="cls-5" d="M55,34a2,2,0,1,1,2-2A2,2,0,0,1,55,34Zm0-2h0Z"/><path class="cls-5" d="M63,34a2,2,0,1,1,2-2A2,2,0,0,1,63,34Zm0-2h0Z"/><path class="cls-5" d="M71,34a2,2,0,1,1,2-2A2,2,0,0,1,71,34Zm0-2h0Z"/><path class="cls-5" d="M79,34a2,2,0,1,1,2-2A2,2,0,0,1,79,34Zm0-2h0Z"/><path class="cls-5" d="M87,34a2,2,0,1,1,2-2A2,2,0,0,1,87,34Zm0-2h0Z"/><path class="cls-5" d="M95,34a2,2,0,1,1,2-2A2,2,0,0,1,95,34Zm0-2h0Z"/><path class="cls-5" d="M103,34a2,2,0,1,1,2-2A2,2,0,0,1,103,34Zm0-2h0Z"/><path class="cls-5" d="M111,34a2,2,0,1,1,2-2A2,2,0,0,1,111,34Zm0-2h0Z"/><path class="cls-5" d="M119,34a2,2,0,1,1,2-2A2,2,0,0,1,119,34Zm0-2h0Z"/><path class="cls-5" d="M127,34a2,2,0,1,1,2-2A2,2,0,0,1,127,34Zm0-2h0Z"/><path class="cls-5" d="M3,40a2,2,0,1,1,2-2A2,2,0,0,1,3,40Zm0-2H3Z"/><path class="cls-5" d="M11,40a2,2,0,1,1,2-2A2,2,0,0,1,11,40Zm0-2h0Z"/><path class="cls-5" d="M19,40a2,2,0,1,1,2-2A2,2,0,0,1,19,40Zm0-2h0Z"/><path class="cls-5" d="M27,40a2,2,0,1,1,2-2A2,2,0,0,1,27,40Zm0-2h0Z"/><path class="cls-5" d="M35,40a2,2,0,1,1,2-2A2,2,0,0,1,35,40Zm0-2h0Z"/><path class="cls-5" d="M43,40a2,2,0,1,1,2-2A2,2,0,0,1,43,40Zm0-2h0Z"/><path class="cls-5" d="M51,40a2,2,0,1,1,2-2A2,2,0,0,1,51,40Zm0-2h0Z"/><path class="cls-5" d="M59,40a2,2,0,1,1,2-2A2,2,0,0,1,59,40Zm0-2h0Z"/><path class="cls-5" d="M67,40a2,2,0,1,1,2-2A2,2,0,0,1,67,40Zm0-2h0Z"/><path class="cls-5" d="M75,40a2,2,0,1,1,2-2A2,2,0,0,1,75,40Zm0-2h0Z"/><path class="cls-5" d="M83,40a2,2,0,1,1,2-2A2,2,0,0,1,83,40Zm0-2h0Z"/><path class="cls-5" d="M91,40a2,2,0,1,1,2-2A2,2,0,0,1,91,40Zm0-2h0Z"/><path class="cls-5" d="M99,40a2,2,0,1,1,2-2A2,2,0,0,1,99,40Zm0-2h0Z"/><path class="cls-5" d="M107,40a2,2,0,1,1,2-2A2,2,0,0,1,107,40Zm0-2h0Z"/><path class="cls-5" d="M115,40a2,2,0,1,1,2-2A2,2,0,0,1,115,40Zm0-2h0Z"/><path class="cls-5" d="M123,40a2,2,0,1,1,2-2A2,2,0,0,1,123,40Zm0-2h0Z"/><path class="cls-5" d="M7,46a2,2,0,1,1,2-2A2,2,0,0,1,7,46Zm0-2H7Z"/><path class="cls-5" d="M15,46a2,2,0,1,1,2-2A2,2,0,0,1,15,46Zm0-2h0Z"/><path class="cls-5" d="M23,46a2,2,0,1,1,2-2A2,2,0,0,1,23,46Zm0-2h0Z"/><path class="cls-5" d="M31,46a2,2,0,1,1,2-2A2,2,0,0,1,31,46Zm0-2h0Z"/><path class="cls-5" d="M39,46a2,2,0,1,1,2-2A2,2,0,0,1,39,46Zm0-2h0Z"/><path class="cls-5" d="M47,46a2,2,0,1,1,2-2A2,2,0,0,1,47,46Zm0-2h0Z"/><path class="cls-5" d="M55,46a2,2,0,1,1,2-2A2,2,0,0,1,55,46Zm0-2h0Z"/><path class="cls-5" d="M63,46a2,2,0,1,1,2-2A2,2,0,0,1,63,46Zm0-2h0Z"/><path class="cls-5" d="M71,46a2,2,0,1,1,2-2A2,2,0,0,1,71,46Zm0-2h0Z"/><path class="cls-5" d="M79,46a2,2,0,1,1,2-2A2,2,0,0,1,79,46Zm0-2h0Z"/><path class="cls-5" d="M87,46a2,2,0,1,1,2-2A2,2,0,0,1,87,46Zm0-2h0Z"/><path class="cls-5" d="M95,46a2,2,0,1,1,2-2A2,2,0,0,1,95,46Zm0-2h0Z"/><path class="cls-5" d="M103,46a2,2,0,1,1,2-2A2,2,0,0,1,103,46Zm0-2h0Z"/><path class="cls-5" d="M111,46a2,2,0,1,1,2-2A2,2,0,0,1,111,46Zm0-2h0Z"/><path class="cls-5" d="M119,46a2,2,0,1,1,2-2A2,2,0,0,1,119,46Zm0-2h0Z"/><path class="cls-5" d="M127,46a2,2,0,1,1,2-2A2,2,0,0,1,127,46Zm0-2h0Z"/><path class="cls-5" d="M3,52a2,2,0,1,1,2-2A2,2,0,0,1,3,52Zm0-2H3Z"/><path class="cls-5" d="M11,52a2,2,0,1,1,2-2A2,2,0,0,1,11,52Zm0-2h0Z"/><path class="cls-5" d="M19,52a2,2,0,1,1,2-2A2,2,0,0,1,19,52Zm0-2h0Z"/><path class="cls-5" d="M27,52a2,2,0,1,1,2-2A2,2,0,0,1,27,52Zm0-2h0Z"/><path class="cls-5" d="M35,52a2,2,0,1,1,2-2A2,2,0,0,1,35,52Zm0-2h0Z"/><path class="cls-5" d="M43,52a2,2,0,1,1,2-2A2,2,0,0,1,43,52Zm0-2h0Z"/><path class="cls-5" d="M51,52a2,2,0,1,1,2-2A2,2,0,0,1,51,52Zm0-2h0Z"/><path class="cls-5" d="M59,52a2,2,0,1,1,2-2A2,2,0,0,1,59,52Zm0-2h0Z"/><path class="cls-5" d="M67,52a2,2,0,1,1,2-2A2,2,0,0,1,67,52Zm0-2h0Z"/><path class="cls-5" d="M75,52a2,2,0,1,1,2-2A2,2,0,0,1,75,52Zm0-2h0Z"/><path class="cls-5" d="M83,52a2,2,0,1,1,2-2A2,2,0,0,1,83,52Zm0-2h0Z"/><path class="cls-5" d="M91,52a2,2,0,1,1,2-2A2,2,0,0,1,91,52Zm0-2h0Z"/><path class="cls-5" d="M99,52a2,2,0,1,1,2-2A2,2,0,0,1,99,52Zm0-2h0Z"/><path class="cls-5" d="M107,52a2,2,0,1,1,2-2A2,2,0,0,1,107,52Zm0-2h0Z"/><path class="cls-5" d="M115,52a2,2,0,1,1,2-2A2,2,0,0,1,115,52Zm0-2h0Z"/><path class="cls-5" d="M123,52a2,2,0,1,1,2-2A2,2,0,0,1,123,52Zm0-2h0Z"/><path class="cls-5" d="M7,58a2,2,0,1,1,2-2A2,2,0,0,1,7,58Zm0-2H7Z"/><path class="cls-5" d="M15,58a2,2,0,1,1,2-2A2,2,0,0,1,15,58Zm0-2h0Z"/><path class="cls-5" d="M23,58a2,2,0,1,1,2-2A2,2,0,0,1,23,58Zm0-2h0Z"/><path class="cls-5" d="M31,58a2,2,0,1,1,2-2A2,2,0,0,1,31,58Zm0-2h0Z"/><path class="cls-5" d="M39,58a2,2,0,1,1,2-2A2,2,0,0,1,39,58Zm0-2h0Z"/><path class="cls-5" d="M47,58a2,2,0,1,1,2-2A2,2,0,0,1,47,58Zm0-2h0Z"/><path class="cls-5" d="M55,58a2,2,0,1,1,2-2A2,2,0,0,1,55,58Zm0-2h0Z"/><path class="cls-5" d="M63,58a2,2,0,1,1,2-2A2,2,0,0,1,63,58Zm0-2h0Z"/><path class="cls-5" d="M71,58a2,2,0,1,1,2-2A2,2,0,0,1,71,58Zm0-2h0Z"/><path class="cls-5" d="M79,58a2,2,0,1,1,2-2A2,2,0,0,1,79,58Zm0-2h0Z"/><path class="cls-5" d="M87,58a2,2,0,1,1,2-2A2,2,0,0,1,87,58Zm0-2h0Z"/><path class="cls-5" d="M95,58a2,2,0,1,1,2-2A2,2,0,0,1,95,58Zm0-2h0Z"/><path class="cls-5" d="M103,58a2,2,0,1,1,2-2A2,2,0,0,1,103,58Zm0-2h0Z"/><path class="cls-5" d="M111,58a2,2,0,1,1,2-2A2,2,0,0,1,111,58Zm0-2h0Z"/><path class="cls-5" d="M119,58a2,2,0,1,1,2-2A2,2,0,0,1,119,58Zm0-2h0Z"/><path class="cls-5" d="M127,58a2,2,0,1,1,2-2A2,2,0,0,1,127,58Zm0-2h0Z"/><path class="cls-5" d="M3,64a2,2,0,1,1,2-2A2,2,0,0,1,3,64Zm0-2H3Z"/><path class="cls-5" d="M11,64a2,2,0,1,1,2-2A2,2,0,0,1,11,64Zm0-2h0Z"/><path class="cls-5" d="M19,64a2,2,0,1,1,2-2A2,2,0,0,1,19,64Zm0-2h0Z"/><path class="cls-5" d="M27,64a2,2,0,1,1,2-2A2,2,0,0,1,27,64Zm0-2h0Z"/><path class="cls-5" d="M35,64a2,2,0,1,1,2-2A2,2,0,0,1,35,64Zm0-2h0Z"/><path class="cls-5" d="M43,64a2,2,0,1,1,2-2A2,2,0,0,1,43,64Zm0-2h0Z"/><path class="cls-5" d="M51,64a2,2,0,1,1,2-2A2,2,0,0,1,51,64Zm0-2h0Z"/><path class="cls-5" d="M59,64a2,2,0,1,1,2-2A2,2,0,0,1,59,64Zm0-2h0Z"/><path class="cls-5" d="M67,64a2,2,0,1,1,2-2A2,2,0,0,1,67,64Zm0-2h0Z"/><path class="cls-5" d="M75,64a2,2,0,1,1,2-2A2,2,0,0,1,75,64Zm0-2h0Z"/><path class="cls-5" d="M83,64a2,2,0,1,1,2-2A2,2,0,0,1,83,64Zm0-2h0Z"/><path class="cls-5" d="M91,64a2,2,0,1,1,2-2A2,2,0,0,1,91,64Zm0-2h0Z"/><path class="cls-5" d="M99,64a2,2,0,1,1,2-2A2,2,0,0,1,99,64Zm0-2h0Z"/><path class="cls-5" d="M107,64a2,2,0,1,1,2-2A2,2,0,0,1,107,64Zm0-2h0Z"/><path class="cls-5" d="M115,64a2,2,0,1,1,2-2A2,2,0,0,1,115,64Zm0-2h0Z"/><path class="cls-5" d="M123,64a2,2,0,1,1,2-2A2,2,0,0,1,123,64Zm0-2h0Z"/><path class="cls-5" d="M7,70a2,2,0,1,1,2-2A2,2,0,0,1,7,70Zm0-2H7Z"/><path class="cls-5" d="M15,70a2,2,0,1,1,2-2A2,2,0,0,1,15,70Zm0-2h0Z"/><path class="cls-5" d="M23,70a2,2,0,1,1,2-2A2,2,0,0,1,23,70Zm0-2h0Z"/><path class="cls-5" d="M31,70a2,2,0,1,1,2-2A2,2,0,0,1,31,70Zm0-2h0Z"/><path class="cls-5" d="M39,70a2,2,0,1,1,2-2A2,2,0,0,1,39,70Zm0-2h0Z"/><path class="cls-5" d="M47,70a2,2,0,1,1,2-2A2,2,0,0,1,47,70Zm0-2h0Z"/><path class="cls-5" d="M55,70a2,2,0,1,1,2-2A2,2,0,0,1,55,70Zm0-2h0Z"/><path class="cls-5" d="M63,70a2,2,0,1,1,2-2A2,2,0,0,1,63,70Zm0-2h0Z"/><path class="cls-5" d="M71,70a2,2,0,1,1,2-2A2,2,0,0,1,71,70Zm0-2h0Z"/><path class="cls-5" d="M79,70a2,2,0,1,1,2-2A2,2,0,0,1,79,70Zm0-2h0Z"/><path class="cls-5" d="M87,70a2,2,0,1,1,2-2A2,2,0,0,1,87,70Zm0-2h0Z"/><path class="cls-5" d="M95,70a2,2,0,1,1,2-2A2,2,0,0,1,95,70Zm0-2h0Z"/><path class="cls-5" d="M103,70a2,2,0,1,1,2-2A2,2,0,0,1,103,70Zm0-2h0Z"/><path class="cls-5" d="M111,70a2,2,0,1,1,2-2A2,2,0,0,1,111,70Zm0-2h0Z"/><path class="cls-5" d="M119,70a2,2,0,1,1,2-2A2,2,0,0,1,119,70Zm0-2h0Z"/><path class="cls-5" d="M127,70a2,2,0,1,1,2-2A2,2,0,0,1,127,70Zm0-2h0Z"/><path class="cls-5" d="M3,76a2,2,0,1,1,2-2A2,2,0,0,1,3,76Zm0-2H3Z"/><path class="cls-5" d="M11,76a2,2,0,1,1,2-2A2,2,0,0,1,11,76Zm0-2h0Z"/><path class="cls-5" d="M19,76a2,2,0,1,1,2-2A2,2,0,0,1,19,76Zm0-2h0Z"/><path class="cls-5" d="M27,76a2,2,0,1,1,2-2A2,2,0,0,1,27,76Zm0-2h0Z"/><path class="cls-5" d="M35,76a2,2,0,1,1,2-2A2,2,0,0,1,35,76Zm0-2h0Z"/><path class="cls-5" d="M43,76a2,2,0,1,1,2-2A2,2,0,0,1,43,76Zm0-2h0Z"/><path class="cls-5" d="M51,76a2,2,0,1,1,2-2A2,2,0,0,1,51,76Zm0-2h0Z"/><path class="cls-5" d="M59,76a2,2,0,1,1,2-2A2,2,0,0,1,59,76Zm0-2h0Z"/><path class="cls-5" d="M67,76a2,2,0,1,1,2-2A2,2,0,0,1,67,76Zm0-2h0Z"/><path class="cls-5" d="M75,76a2,2,0,1,1,2-2A2,2,0,0,1,75,76Zm0-2h0Z"/><path class="cls-5" d="M83,76a2,2,0,1,1,2-2A2,2,0,0,1,83,76Zm0-2h0Z"/><path class="cls-5" d="M91,76a2,2,0,1,1,2-2A2,2,0,0,1,91,76Zm0-2h0Z"/><path class="cls-5" d="M99,76a2,2,0,1,1,2-2A2,2,0,0,1,99,76Zm0-2h0Z"/><path class="cls-5" d="M107,76a2,2,0,1,1,2-2A2,2,0,0,1,107,76Zm0-2h0Z"/><path class="cls-5" d="M115,76a2,2,0,1,1,2-2A2,2,0,0,1,115,76Zm0-2h0Z"/><path class="cls-5" d="M123,76a2,2,0,1,1,2-2A2,2,0,0,1,123,76Zm0-2h0Z"/><path class="cls-5" d="M7,82a2,2,0,1,1,2-2A2,2,0,0,1,7,82Zm0-2H7Z"/><path class="cls-5" d="M15,82a2,2,0,1,1,2-2A2,2,0,0,1,15,82Zm0-2h0Z"/><path class="cls-5" d="M23,82a2,2,0,1,1,2-2A2,2,0,0,1,23,82Zm0-2h0Z"/><path class="cls-5" d="M31,82a2,2,0,1,1,2-2A2,2,0,0,1,31,82Zm0-2h0Z"/><path class="cls-5" d="M39,82a2,2,0,1,1,2-2A2,2,0,0,1,39,82Zm0-2h0Z"/><path class="cls-5" d="M47,82a2,2,0,1,1,2-2A2,2,0,0,1,47,82Zm0-2h0Z"/><path class="cls-5" d="M55,82a2,2,0,1,1,2-2A2,2,0,0,1,55,82Zm0-2h0Z"/><path class="cls-5" d="M63,82a2,2,0,1,1,2-2A2,2,0,0,1,63,82Zm0-2h0Z"/><path class="cls-5" d="M71,82a2,2,0,1,1,2-2A2,2,0,0,1,71,82Zm0-2h0Z"/><path class="cls-5" d="M79,82a2,2,0,1,1,2-2A2,2,0,0,1,79,82Zm0-2h0Z"/><path class="cls-5" d="M87,82a2,2,0,1,1,2-2A2,2,0,0,1,87,82Zm0-2h0Z"/><path class="cls-5" d="M95,82a2,2,0,1,1,2-2A2,2,0,0,1,95,82Zm0-2h0Z"/><path class="cls-5" d="M103,82a2,2,0,1,1,2-2A2,2,0,0,1,103,82Zm0-2h0Z"/><path class="cls-5" d="M111,82a2,2,0,1,1,2-2A2,2,0,0,1,111,82Zm0-2h0Z"/><path class="cls-5" d="M119,82a2,2,0,1,1,2-2A2,2,0,0,1,119,82Zm0-2h0Z"/><path class="cls-5" d="M127,82a2,2,0,1,1,2-2A2,2,0,0,1,127,82Zm0-2h0Z"/><path class="cls-5" d="M3,88a2,2,0,1,1,2-2A2,2,0,0,1,3,88Zm0-2H3Z"/><path class="cls-5" d="M11,88a2,2,0,1,1,2-2A2,2,0,0,1,11,88Zm0-2h0Z"/><path class="cls-5" d="M19,88a2,2,0,1,1,2-2A2,2,0,0,1,19,88Zm0-2h0Z"/><path class="cls-5" d="M27,88a2,2,0,1,1,2-2A2,2,0,0,1,27,88Zm0-2h0Z"/><path class="cls-5" d="M35,88a2,2,0,1,1,2-2A2,2,0,0,1,35,88Zm0-2h0Z"/><path class="cls-5" d="M43,88a2,2,0,1,1,2-2A2,2,0,0,1,43,88Zm0-2h0Z"/><path class="cls-5" d="M51,88a2,2,0,1,1,2-2A2,2,0,0,1,51,88Zm0-2h0Z"/><path class="cls-5" d="M59,88a2,2,0,1,1,2-2A2,2,0,0,1,59,88Zm0-2h0Z"/><path class="cls-5" d="M67,88a2,2,0,1,1,2-2A2,2,0,0,1,67,88Zm0-2h0Z"/><path class="cls-5" d="M75,88a2,2,0,1,1,2-2A2,2,0,0,1,75,88Zm0-2h0Z"/><path class="cls-5" d="M83,88a2,2,0,1,1,2-2A2,2,0,0,1,83,88Zm0-2h0Z"/><path class="cls-5" d="M91,88a2,2,0,1,1,2-2A2,2,0,0,1,91,88Zm0-2h0Z"/><path class="cls-5" d="M99,88a2,2,0,1,1,2-2A2,2,0,0,1,99,88Zm0-2h0Z"/><path class="cls-5" d="M107,88a2,2,0,1,1,2-2A2,2,0,0,1,107,88Zm0-2h0Z"/><path class="cls-5" d="M115,88a2,2,0,1,1,2-2A2,2,0,0,1,115,88Zm0-2h0Z"/><path class="cls-5" d="M123,88a2,2,0,1,1,2-2A2,2,0,0,1,123,88Zm0-2h0Z"/><path class="cls-5" d="M7,94a2,2,0,1,1,2-2A2,2,0,0,1,7,94Zm0-2H7Z"/><path class="cls-5" d="M15,94a2,2,0,1,1,2-2A2,2,0,0,1,15,94Zm0-2h0Z"/><path class="cls-5" d="M23,94a2,2,0,1,1,2-2A2,2,0,0,1,23,94Zm0-2h0Z"/><path class="cls-5" d="M31,94a2,2,0,1,1,2-2A2,2,0,0,1,31,94Zm0-2h0Z"/><path class="cls-5" d="M39,94a2,2,0,1,1,2-2A2,2,0,0,1,39,94Zm0-2h0Z"/><path class="cls-5" d="M47,94a2,2,0,1,1,2-2A2,2,0,0,1,47,94Zm0-2h0Z"/><path class="cls-5" d="M55,94a2,2,0,1,1,2-2A2,2,0,0,1,55,94Zm0-2h0Z"/><path class="cls-5" d="M63,94a2,2,0,1,1,2-2A2,2,0,0,1,63,94Zm0-2h0Z"/><path class="cls-5" d="M71,94a2,2,0,1,1,2-2A2,2,0,0,1,71,94Zm0-2h0Z"/><path class="cls-5" d="M79,94a2,2,0,1,1,2-2A2,2,0,0,1,79,94Zm0-2h0Z"/><path class="cls-5" d="M87,94a2,2,0,1,1,2-2A2,2,0,0,1,87,94Zm0-2h0Z"/><path class="cls-5" d="M95,94a2,2,0,1,1,2-2A2,2,0,0,1,95,94Zm0-2h0Z"/><path class="cls-5" d="M103,94a2,2,0,1,1,2-2A2,2,0,0,1,103,94Zm0-2h0Z"/><path class="cls-5" d="M111,94a2,2,0,1,1,2-2A2,2,0,0,1,111,94Zm0-2h0Z"/><path class="cls-5" d="M119,94a2,2,0,1,1,2-2A2,2,0,0,1,119,94Zm0-2h0Z"/><path class="cls-5" d="M127,94a2,2,0,1,1,2-2A2,2,0,0,1,127,94Zm0-2h0Z"/><path class="cls-5" d="M3,100a2,2,0,1,1,2-2A2,2,0,0,1,3,100Zm0-2H3Z"/><path class="cls-5" d="M11,100a2,2,0,1,1,2-2A2,2,0,0,1,11,100Zm0-2h0Z"/><path class="cls-5" d="M19,100a2,2,0,1,1,2-2A2,2,0,0,1,19,100Zm0-2h0Z"/><path class="cls-5" d="M27,100a2,2,0,1,1,2-2A2,2,0,0,1,27,100Zm0-2h0Z"/><path class="cls-5" d="M35,100a2,2,0,1,1,2-2A2,2,0,0,1,35,100Zm0-2h0Z"/><path class="cls-5" d="M43,100a2,2,0,1,1,2-2A2,2,0,0,1,43,100Zm0-2h0Z"/><path class="cls-5" d="M51,100a2,2,0,1,1,2-2A2,2,0,0,1,51,100Zm0-2h0Z"/><path class="cls-5" d="M59,100a2,2,0,1,1,2-2A2,2,0,0,1,59,100Zm0-2h0Z"/><path class="cls-5" d="M67,100a2,2,0,1,1,2-2A2,2,0,0,1,67,100Zm0-2h0Z"/><path class="cls-5" d="M75,100a2,2,0,1,1,2-2A2,2,0,0,1,75,100Zm0-2h0Z"/><path class="cls-5" d="M83,100a2,2,0,1,1,2-2A2,2,0,0,1,83,100Zm0-2h0Z"/><path class="cls-5" d="M91,100a2,2,0,1,1,2-2A2,2,0,0,1,91,100Zm0-2h0Z"/><path class="cls-5" d="M99,100a2,2,0,1,1,2-2A2,2,0,0,1,99,100Zm0-2h0Z"/><path class="cls-5" d="M107,100a2,2,0,1,1,2-2A2,2,0,0,1,107,100Zm0-2h0Z"/><path class="cls-5" d="M115,100a2,2,0,1,1,2-2A2,2,0,0,1,115,100Zm0-2h0Z"/><path class="cls-5" d="M123,100a2,2,0,1,1,2-2A2,2,0,0,1,123,100Zm0-2h0Z"/><path class="cls-5" d="M7,106a2,2,0,1,1,2-2A2,2,0,0,1,7,106Zm0-2H7Z"/><path class="cls-5" d="M15,106a2,2,0,1,1,2-2A2,2,0,0,1,15,106Zm0-2h0Z"/><path class="cls-5" d="M23,106a2,2,0,1,1,2-2A2,2,0,0,1,23,106Zm0-2h0Z"/><path class="cls-5" d="M31,106a2,2,0,1,1,2-2A2,2,0,0,1,31,106Zm0-2h0Z"/><path class="cls-5" d="M39,106a2,2,0,1,1,2-2A2,2,0,0,1,39,106Zm0-2h0Z"/><path class="cls-5" d="M47,106a2,2,0,1,1,2-2A2,2,0,0,1,47,106Zm0-2h0Z"/><path class="cls-5" d="M55,106a2,2,0,1,1,2-2A2,2,0,0,1,55,106Zm0-2h0Z"/><path class="cls-5" d="M63,106a2,2,0,1,1,2-2A2,2,0,0,1,63,106Zm0-2h0Z"/><path class="cls-5" d="M71,106a2,2,0,1,1,2-2A2,2,0,0,1,71,106Zm0-2h0Z"/><path class="cls-5" d="M79,106a2,2,0,1,1,2-2A2,2,0,0,1,79,106Zm0-2h0Z"/><path class="cls-5" d="M87,106a2,2,0,1,1,2-2A2,2,0,0,1,87,106Zm0-2h0Z"/><path class="cls-5" d="M95,106a2,2,0,1,1,2-2A2,2,0,0,1,95,106Zm0-2h0Z"/><path class="cls-5" d="M103,106a2,2,0,1,1,2-2A2,2,0,0,1,103,106Zm0-2h0Z"/><path class="cls-5" d="M111,106a2,2,0,1,1,2-2A2,2,0,0,1,111,106Zm0-2h0Z"/><path class="cls-5" d="M119,106a2,2,0,1,1,2-2A2,2,0,0,1,119,106Zm0-2h0Z"/><path class="cls-5" d="M127,106a2,2,0,1,1,2-2A2,2,0,0,1,127,106Zm0-2h0Z"/><path class="cls-5" d="M3,112a2,2,0,1,1,2-2A2,2,0,0,1,3,112Zm0-2H3Z"/><path class="cls-5" d="M11,112a2,2,0,1,1,2-2A2,2,0,0,1,11,112Zm0-2h0Z"/><path class="cls-5" d="M19,112a2,2,0,1,1,2-2A2,2,0,0,1,19,112Zm0-2h0Z"/><path class="cls-5" d="M27,112a2,2,0,1,1,2-2A2,2,0,0,1,27,112Zm0-2h0Z"/><path class="cls-5" d="M35,112a2,2,0,1,1,2-2A2,2,0,0,1,35,112Zm0-2h0Z"/><path class="cls-5" d="M43,112a2,2,0,1,1,2-2A2,2,0,0,1,43,112Zm0-2h0Z"/><path class="cls-5" d="M51,112a2,2,0,1,1,2-2A2,2,0,0,1,51,112Zm0-2h0Z"/><path class="cls-5" d="M59,112a2,2,0,1,1,2-2A2,2,0,0,1,59,112Zm0-2h0Z"/><path class="cls-5" d="M67,112a2,2,0,1,1,2-2A2,2,0,0,1,67,112Zm0-2h0Z"/><path class="cls-5" d="M75,112a2,2,0,1,1,2-2A2,2,0,0,1,75,112Zm0-2h0Z"/><path class="cls-5" d="M83,112a2,2,0,1,1,2-2A2,2,0,0,1,83,112Zm0-2h0Z"/><path class="cls-5" d="M91,112a2,2,0,1,1,2-2A2,2,0,0,1,91,112Zm0-2h0Z"/><path class="cls-5" d="M99,112a2,2,0,1,1,2-2A2,2,0,0,1,99,112Zm0-2h0Z"/><path class="cls-5" d="M107,112a2,2,0,1,1,2-2A2,2,0,0,1,107,112Zm0-2h0Z"/><path class="cls-5" d="M115,112a2,2,0,1,1,2-2A2,2,0,0,1,115,112Zm0-2h0Z"/><path class="cls-5" d="M123,112a2,2,0,1,1,2-2A2,2,0,0,1,123,112Zm0-2h0Z"/><path class="cls-5" d="M7,118a2,2,0,1,1,2-2A2,2,0,0,1,7,118Zm0-2H7Z"/><path class="cls-5" d="M15,118a2,2,0,1,1,2-2A2,2,0,0,1,15,118Zm0-2h0Z"/><path class="cls-5" d="M23,118a2,2,0,1,1,2-2A2,2,0,0,1,23,118Zm0-2h0Z"/><path class="cls-5" d="M31,118a2,2,0,1,1,2-2A2,2,0,0,1,31,118Zm0-2h0Z"/><path class="cls-5" d="M39,118a2,2,0,1,1,2-2A2,2,0,0,1,39,118Zm0-2h0Z"/><path class="cls-5" d="M47,118a2,2,0,1,1,2-2A2,2,0,0,1,47,118Zm0-2h0Z"/><path class="cls-5" d="M55,118a2,2,0,1,1,2-2A2,2,0,0,1,55,118Zm0-2h0Z"/><path class="cls-5" d="M63,118a2,2,0,1,1,2-2A2,2,0,0,1,63,118Zm0-2h0Z"/><path class="cls-5" d="M71,118a2,2,0,1,1,2-2A2,2,0,0,1,71,118Zm0-2h0Z"/><path class="cls-5" d="M79,118a2,2,0,1,1,2-2A2,2,0,0,1,79,118Zm0-2h0Z"/><path class="cls-5" d="M87,118a2,2,0,1,1,2-2A2,2,0,0,1,87,118Zm0-2h0Z"/><path class="cls-5" d="M95,118a2,2,0,1,1,2-2A2,2,0,0,1,95,118Zm0-2h0Z"/><path class="cls-5" d="M103,118a2,2,0,1,1,2-2A2,2,0,0,1,103,118Zm0-2h0Z"/><path class="cls-5" d="M111,118a2,2,0,1,1,2-2A2,2,0,0,1,111,118Zm0-2h0Z"/><path class="cls-5" d="M119,118a2,2,0,1,1,2-2A2,2,0,0,1,119,118Zm0-2h0Z"/><path class="cls-5" d="M127,118a2,2,0,1,1,2-2A2,2,0,0,1,127,118Zm0-2h0Z"/><path class="cls-5" d="M3,124a2,2,0,1,1,2-2A2,2,0,0,1,3,124Zm0-2H3Z"/><path class="cls-5" d="M11,124a2,2,0,1,1,2-2A2,2,0,0,1,11,124Zm0-2h0Z"/><path class="cls-5" d="M19,124a2,2,0,1,1,2-2A2,2,0,0,1,19,124Zm0-2h0Z"/><path class="cls-5" d="M27,124a2,2,0,1,1,2-2A2,2,0,0,1,27,124Zm0-2h0Z"/><path class="cls-5" d="M35,124a2,2,0,1,1,2-2A2,2,0,0,1,35,124Zm0-2h0Z"/><path class="cls-5" d="M43,124a2,2,0,1,1,2-2A2,2,0,0,1,43,124Zm0-2h0Z"/><path class="cls-5" d="M51,124a2,2,0,1,1,2-2A2,2,0,0,1,51,124Zm0-2h0Z"/><path class="cls-5" d="M59,124a2,2,0,1,1,2-2A2,2,0,0,1,59,124Zm0-2h0Z"/><path class="cls-5" d="M67,124a2,2,0,1,1,2-2A2,2,0,0,1,67,124Zm0-2h0Z"/><path class="cls-5" d="M75,124a2,2,0,1,1,2-2A2,2,0,0,1,75,124Zm0-2h0Z"/><path class="cls-5" d="M83,124a2,2,0,1,1,2-2A2,2,0,0,1,83,124Zm0-2h0Z"/><path class="cls-5" d="M91,124a2,2,0,1,1,2-2A2,2,0,0,1,91,124Zm0-2h0Z"/><path class="cls-5" d="M99,124a2,2,0,1,1,2-2A2,2,0,0,1,99,124Zm0-2h0Z"/><path class="cls-5" d="M107,124a2,2,0,1,1,2-2A2,2,0,0,1,107,124Zm0-2h0Z"/><path class="cls-5" d="M115,124a2,2,0,1,1,2-2A2,2,0,0,1,115,124Zm0-2h0Z"/><path class="cls-5" d="M123,124a2,2,0,1,1,2-2A2,2,0,0,1,123,124Zm0-2h0Z"/><path class="cls-5" d="M7,130a2,2,0,1,1,2-2A2,2,0,0,1,7,130Zm0-2H7Z"/><path class="cls-5" d="M15,130a2,2,0,1,1,2-2A2,2,0,0,1,15,130Zm0-2h0Z"/><path class="cls-5" d="M23,130a2,2,0,1,1,2-2A2,2,0,0,1,23,130Zm0-2h0Z"/><path class="cls-5" d="M31,130a2,2,0,1,1,2-2A2,2,0,0,1,31,130Zm0-2h0Z"/><path class="cls-5" d="M39,130a2,2,0,1,1,2-2A2,2,0,0,1,39,130Zm0-2h0Z"/><path class="cls-5" d="M47,130a2,2,0,1,1,2-2A2,2,0,0,1,47,130Zm0-2h0Z"/><path class="cls-5" d="M55,130a2,2,0,1,1,2-2A2,2,0,0,1,55,130Zm0-2h0Z"/><path class="cls-5" d="M63,130a2,2,0,1,1,2-2A2,2,0,0,1,63,130Zm0-2h0Z"/><path class="cls-5" d="M71,130a2,2,0,1,1,2-2A2,2,0,0,1,71,130Zm0-2h0Z"/><path class="cls-5" d="M79,130a2,2,0,1,1,2-2A2,2,0,0,1,79,130Zm0-2h0Z"/><path class="cls-5" d="M87,130a2,2,0,1,1,2-2A2,2,0,0,1,87,130Zm0-2h0Z"/><path class="cls-5" d="M95,130a2,2,0,1,1,2-2A2,2,0,0,1,95,130Zm0-2h0Z"/><path class="cls-5" d="M103,130a2,2,0,1,1,2-2A2,2,0,0,1,103,130Zm0-2h0Z"/><path class="cls-5" d="M111,130a2,2,0,1,1,2-2A2,2,0,0,1,111,130Zm0-2h0Z"/><path class="cls-5" d="M119,130a2,2,0,1,1,2-2A2,2,0,0,1,119,130Zm0-2h0Z"/><path class="cls-5" d="M127,130a2,2,0,1,1,2-2A2,2,0,0,1,127,130Zm0-2h0Z"/></g></g><g class="cls-6"><path class="cls-7" d="M88.29,85.3s-7-3-6.79-2.8c-5.5,0-29.5.07-35,.07L40,85.4a27.65,27.65,0,0,0-17,25.52V126h82V110.7A27.65,27.65,0,0,0,88.29,85.3Z"/><g class="cls-3"><path class="cls-8" d="M78.52,74.31H49.44a5.75,5.75,0,0,1,0,4.9L51.27,81a13.58,13.58,0,0,0,9.61,4h6.25a13.58,13.58,0,0,0,9.61-4l1.82-1.82A5.71,5.71,0,0,1,78.52,74.31Z"/></g><g class="cls-3"><path class="cls-9" d="M88.29,85.3s-7-3-6.79-2.8l-35,.07L40,85.4a27.65,27.65,0,0,0-17,25.52v5C23,105,31.5,90,45.25,87.5h37.5C96.5,91.25,105,104.65,105,115.7v-5A27.65,27.65,0,0,0,88.29,85.3Z"/></g><path class="cls-5" d="M89,127a1,1,0,0,1-1-1V107.5a1,1,0,0,1,2,0V126A1,1,0,0,1,89,127Z"/><path class="cls-5" d="M39,127a1,1,0,0,1-1-1V107.5a1,1,0,0,1,2,0V126A1,1,0,0,1,39,127Z"/><path class="cls-5" d="M64,123a1,1,0,0,1-1-1v-1a1,1,0,0,1,2,0v1A1,1,0,0,1,64,123Zm0-5a1,1,0,0,1-1-1v-1a1,1,0,0,1,2,0v1A1,1,0,0,1,64,118Zm0-5a1,1,0,0,1-1-1v-1a1,1,0,0,1,2,0v1A1,1,0,0,1,64,113Zm0-5a1,1,0,0,1-1-1v-1a1,1,0,0,1,2,0v1A1,1,0,0,1,64,108Zm0-5a1,1,0,0,1-1-1v-1a1,1,0,0,1,2,0v1A1,1,0,0,1,64,103Zm0-5a1,1,0,0,1-1-1V96a1,1,0,0,1,2,0v1A1,1,0,0,1,64,98Z"/><g class="cls-3"><path class="cls-10" d="M46.53,82.57,40,85.4A27.65,27.65,0,0,0,36.87,87c5.2,4.12,13.63,6,27.13,6,14,0,22.5-1.91,27.59-6a27.66,27.66,0,0,0-3.3-1.71s-7-3-6.79-2.8C76,82.5,52,82.57,46.53,82.57Z"/></g><path class="cls-5" d="M105,127a1,1,0,0,1-1-1V110.7A26.63,26.63,0,0,0,87.89,86.22l-6.81-3a1,1,0,1,1,.82-1.83l6.8,3A28.63,28.63,0,0,1,106,110.7V126A1,1,0,0,1,105,127Z"/><path class="cls-5" d="M23,127a1,1,0,0,1-1-1V110.92A28.58,28.58,0,0,1,39.61,84.48l6.5-2.82a1,1,0,1,1,.8,1.83l-6.51,2.82A26.59,26.59,0,0,0,24,110.92V126A1,1,0,0,1,23,127Z"/><path class="cls-7" d="M99,57.48C99,79.58,95.25,89,64,89c-30,0-35-9.42-35-31.52S40.25,9,64,9C86.5,9,99,35.39,99,57.48Z"/><g class="cls-3"><path class="cls-9" d="M64,14c21.87,0,34.29,24.93,35,46.61,0-1,0-2.05,0-3.13C99,35.39,86.5,9,64,9,40.25,9,29,35.39,29,57.48c0,1,0,1.93,0,2.86C29.74,38.73,41,14,64,14Z"/></g><g class="cls-3"><path class="cls-10" d="M94,56c0,17.26-3.21,29.23-30,29.23-25.71,0-30-12-30-29.23s9.64-33.27,30-33.27C83.29,22.75,94,38.76,94,56Z"/></g><path class="cls-5" d="M64,90C33.2,90,28,80,28,57.48,28,33.5,40.62,8,64,8c22.24,0,36,25.69,36,49.48C100,79.59,96.45,90,64,90Zm0-80C41.92,10,30,34.47,30,57.48,30,79,34.72,88,64,88c30.78,0,34-9.3,34-30.52C98,34.65,85,10,64,10Z"/><path class="cls-11" d="M64,89h0a10,10,0,0,1-6.8-2.67A48.17,48.17,0,0,1,49,80.25c-8-8-11.81-17.25-12.41-26.44a14.51,14.51,0,0,1,.48-4.72l1.5-5.56c.33-3.24-2.13-9.42.5-15.91,6.56-6.5,43.31-6.5,49.88,0,2.63,6.5.17,12.67.5,15.91l1.51,5.6a14.6,14.6,0,0,1,.49,4.59c-.5,9.12-3.85,17.93-12.43,26.52a48.17,48.17,0,0,1-8.2,6.08A10,10,0,0,1,64,89Z"/><g class="cls-3"><path class="cls-10" d="M39.06,32.62c6.56-6.5,43.31-6.5,49.88,0A16.62,16.62,0,0,1,90,37a19.52,19.52,0,0,0-1.09-9.37c-6.56-6.5-43.31-6.5-49.88,0A19.53,19.53,0,0,0,38,37,16.61,16.61,0,0,1,39.06,32.62Z"/></g><path class="cls-5" d="M64,90a10.94,10.94,0,0,1-7.4-2.86A48.07,48.07,0,0,1,48.29,81c-7.65-7.65-12-17-12.71-27.08a15.48,15.48,0,0,1,.51-5l1.48-5.48a18.9,18.9,0,0,0-.28-3.6c-.44-3.31-1-7.84.84-12.51a1,1,0,0,1,.22-.34c7-6.88,44.33-6.88,51.28,0a1,1,0,0,1,.22.34c1.89,4.67,1.28,9.2.84,12.51a18.89,18.89,0,0,0-.28,3.6l1.49,5.52a15.57,15.57,0,0,1,.52,4.91C91.86,64.07,87.7,73,79.71,81a48.07,48.07,0,0,1-8.3,6.18A10.94,10.94,0,0,1,64,90ZM39.91,28.19c-1.59,4.11-1.06,8.09-.63,11.3a19,19,0,0,1,.28,4.14,1,1,0,0,1,0,.16L38,49.36a13.48,13.48,0,0,0-.45,4.39c.63,9.57,4.82,18.49,12.12,25.79a47.5,47.5,0,0,0,8,5.92,1,1,0,0,1,.18.13,9,9,0,0,0,12.25,0,1,1,0,0,1,.18-.13,47.5,47.5,0,0,0,8-5.92c7.74-7.74,11.59-16,12.14-25.87A13.54,13.54,0,0,0,90,49.4l-1.51-5.6a1,1,0,0,1,0-.16,19,19,0,0,1,.28-4.14c.43-3.21,1-7.19-.63-11.3C81.62,22.33,46.38,22.33,39.91,28.19Z"/><path class="cls-5" d="M64,62.76a5.37,5.37,0,0,1-2.57-.93,1,1,0,0,1,1.11-1.66,3.61,3.61,0,0,0,1.46.59,3.48,3.48,0,0,0,1.42-.58,1,1,0,0,1,1.13,1.65A5.21,5.21,0,0,1,64,62.76Z"/><path class="cls-5" d="M64,72.5a21.63,21.63,0,0,1-6.62-.76,1,1,0,1,1,.74-1.86A20.39,20.39,0,0,0,64,70.5a20.39,20.39,0,0,0,5.88-.62,1,1,0,1,1,.74,1.86A21.63,21.63,0,0,1,64,72.5Z"/><path class="cls-5" d="M52.18,49c-.64,0-1.34,0-2.07-.09A30.4,30.4,0,0,1,45,48,1,1,0,0,1,45,46a17.11,17.11,0,0,1,5.4-.4,20.27,20.27,0,0,1,5.23,1.2,1,1,0,0,1-.22,1.92A22.7,22.7,0,0,1,52.18,49Z"/><path class="cls-5" d="M75.94,48.93a27.55,27.55,0,0,1-3.32-.19,1,1,0,0,1-.28-1.9,16.77,16.77,0,0,1,5.3-1.28A17.82,17.82,0,0,1,83,46a1,1,0,0,1,0,1.92,24.83,24.83,0,0,1-5.19.92C77.19,48.91,76.54,48.93,75.94,48.93Z"/><path class="cls-5" d="M69,45.65l-.19,0A1,1,0,0,1,68,44.46c.67-3.45,3.53-6.22,7.48-7.22,3.71-.94,7.26,0,9.27,2.45A1,1,0,0,1,83.23,41c-1.52-1.85-4.29-2.53-7.24-1.78-3.14.8-5.5,3-6,5.66A1,1,0,0,1,69,45.65Z"/><path class="cls-5" d="M66.5,77.5a1,1,0,0,1-.75-.34,3.21,3.21,0,0,0-3.49,0,1,1,0,0,1-1.51-1.32,5,5,0,0,1,6.51,0,1,1,0,0,1-.75,1.66Z"/><g class="cls-3"><circle class="cls-12" cx="79" cy="59" r="5"/></g><g class="cls-3"><circle class="cls-12" cx="49" cy="59" r="5"/></g><path class="cls-5" d="M58.54,67.5c-2.75,0-7.88-.54-10.37-4.28a1,1,0,0,1,1.66-1.11C52.4,66,59.09,65.52,60,65.44c.51-.2,3-1.22,3-2.77a1,1,0,0,1,2,0c0,3.18-4.25,4.64-4.43,4.7l-.2,0A17.28,17.28,0,0,1,58.54,67.5Z"/><path class="cls-5" d="M69.46,67.5a17.28,17.28,0,0,1-1.82-.09l-.2,0c-.18-.06-4.43-1.51-4.43-4.7a1,1,0,0,1,2,0c0,1.54,2.46,2.57,3,2.77.94.08,7.63.52,10.19-3.32a1,1,0,1,1,1.66,1.11C77.34,67,72.21,67.5,69.46,67.5Z"/><path class="cls-5" d="M59,45.65a1,1,0,0,1-1-.81A7.92,7.92,0,0,0,51.89,39C49,38.3,46.33,39,44.78,41a1,1,0,0,1-1.56-1.25c2-2.52,5.53-3.53,9.15-2.63A9.91,9.91,0,0,1,60,44.46a1,1,0,0,1-.79,1.17Z"/><path class="cls-5" d="M64,88.75a1,1,0,0,1-1-1V76.5a1,1,0,0,1,2,0V87.75A1,1,0,0,1,64,88.75Z"/></g></svg>