<?xml version="1.0" ?><svg data-name="004" id="_004" viewBox="0 0 128 128" xmlns="http://www.w3.org/2000/svg" xmlns:xlink="http://www.w3.org/1999/xlink"><defs><style>.cls-1{fill:#97c1ff;}.cls-2{fill:none;}.cls-3{opacity:0.3;}.cls-4{clip-path:url(#clip-path);}.cls-5{fill:#6d6daa;}.cls-6{clip-path:url(#clip-path-2);}.cls-7{fill:#d6b5b0;}.cls-8{fill:#cc7e54;}.cls-9{fill:#fff;}.cls-10{fill:#efdcd2;}.cls-11{fill:#b1f1a8;}.cls-12{fill:#f9e2dc;}.cls-13{fill:#ff9797;}</style><clipPath id="clip-path"><circle class="cls-1" cx="64.15" cy="68" r="56"/></clipPath><clipPath id="clip-path-2"><path class="cls-2" d="M120.28,67.86A56.14,56.14,0,1,1,8,67.86C8,36.85,18.14,0,64.14,0c8.2,0,21-1.05,28,3,6.69,3.86,15,11.66,20,18C121.73,33.18,120.28,52.85,120.28,67.86Z"/></clipPath></defs><title/><g class="cls-3"><circle class="cls-1" cx="64.15" cy="68" r="56"/><g class="cls-4"><path class="cls-5" d="M3.15,4a2,2,0,1,1,2-2A2,2,0,0,1,3.15,4Zm0-2h0Z"/><path class="cls-5" d="M11.15,4a2,2,0,1,1,2-2A2,2,0,0,1,11.15,4Zm0-2h0Z"/><path class="cls-5" d="M19.15,4a2,2,0,1,1,2-2A2,2,0,0,1,19.15,4Zm0-2h0Z"/><path class="cls-5" d="M27.15,4a2,2,0,1,1,2-2A2,2,0,0,1,27.15,4Zm0-2h0Z"/><path class="cls-5" d="M35.15,4a2,2,0,1,1,2-2A2,2,0,0,1,35.15,4Zm0-2h0Z"/><path class="cls-5" d="M43.15,4a2,2,0,1,1,2-2A2,2,0,0,1,43.15,4Zm0-2h0Z"/><path class="cls-5" d="M51.15,4a2,2,0,1,1,2-2A2,2,0,0,1,51.15,4Zm0-2h0Z"/><path class="cls-5" d="M59.15,4a2,2,0,1,1,2-2A2,2,0,0,1,59.15,4Zm0-2h0Z"/><path class="cls-5" d="M67.15,4a2,2,0,1,1,2-2A2,2,0,0,1,67.15,4Zm0-2h0Z"/><path class="cls-5" d="M75.15,4a2,2,0,1,1,2-2A2,2,0,0,1,75.15,4Zm0-2h0Z"/><path class="cls-5" d="M83.15,4a2,2,0,1,1,2-2A2,2,0,0,1,83.15,4Zm0-2h0Z"/><path class="cls-5" d="M91.15,4a2,2,0,1,1,2-2A2,2,0,0,1,91.15,4Zm0-2h0Z"/><path class="cls-5" d="M99.15,4a2,2,0,1,1,2-2A2,2,0,0,1,99.15,4Zm0-2h0Z"/><path class="cls-5" d="M107.15,4a2,2,0,1,1,2-2A2,2,0,0,1,107.15,4Zm0-2h0Z"/><path class="cls-5" d="M115.15,4a2,2,0,1,1,2-2A2,2,0,0,1,115.15,4Zm0-2h0Z"/><path class="cls-5" d="M123.15,4a2,2,0,1,1,2-2A2,2,0,0,1,123.15,4Zm0-2h0Z"/><path class="cls-5" d="M7.15,10a2,2,0,1,1,2-2A2,2,0,0,1,7.15,10Zm0-2h0Z"/><path class="cls-5" d="M15.15,10a2,2,0,1,1,2-2A2,2,0,0,1,15.15,10Zm0-2h0Z"/><path class="cls-5" d="M23.15,10a2,2,0,1,1,2-2A2,2,0,0,1,23.15,10Zm0-2h0Z"/><path class="cls-5" d="M31.15,10a2,2,0,1,1,2-2A2,2,0,0,1,31.15,10Zm0-2h0Z"/><path class="cls-5" d="M39.15,10a2,2,0,1,1,2-2A2,2,0,0,1,39.15,10Zm0-2h0Z"/><path class="cls-5" d="M47.15,10a2,2,0,1,1,2-2A2,2,0,0,1,47.15,10Zm0-2h0Z"/><path class="cls-5" d="M55.15,10a2,2,0,1,1,2-2A2,2,0,0,1,55.15,10Zm0-2h0Z"/><path class="cls-5" d="M63.15,10a2,2,0,1,1,2-2A2,2,0,0,1,63.15,10Zm0-2h0Z"/><path class="cls-5" d="M71.15,10a2,2,0,1,1,2-2A2,2,0,0,1,71.15,10Zm0-2h0Z"/><path class="cls-5" d="M79.15,10a2,2,0,1,1,2-2A2,2,0,0,1,79.15,10Zm0-2h0Z"/><path class="cls-5" d="M87.15,10a2,2,0,1,1,2-2A2,2,0,0,1,87.15,10Zm0-2h0Z"/><path class="cls-5" d="M95.15,10a2,2,0,1,1,2-2A2,2,0,0,1,95.15,10Zm0-2h0Z"/><path class="cls-5" d="M103.15,10a2,2,0,1,1,2-2A2,2,0,0,1,103.15,10Zm0-2h0Z"/><path class="cls-5" d="M111.15,10a2,2,0,1,1,2-2A2,2,0,0,1,111.15,10Zm0-2h0Z"/><path class="cls-5" d="M119.15,10a2,2,0,1,1,2-2A2,2,0,0,1,119.15,10Zm0-2h0Z"/><path class="cls-5" d="M127.15,10a2,2,0,1,1,2-2A2,2,0,0,1,127.15,10Zm0-2h0Z"/><path class="cls-5" d="M3.15,16a2,2,0,1,1,2-2A2,2,0,0,1,3.15,16Zm0-2h0Z"/><path class="cls-5" d="M11.15,16a2,2,0,1,1,2-2A2,2,0,0,1,11.15,16Zm0-2h0Z"/><path class="cls-5" d="M19.15,16a2,2,0,1,1,2-2A2,2,0,0,1,19.15,16Zm0-2h0Z"/><path class="cls-5" d="M27.15,16a2,2,0,1,1,2-2A2,2,0,0,1,27.15,16Zm0-2h0Z"/><path class="cls-5" d="M35.15,16a2,2,0,1,1,2-2A2,2,0,0,1,35.15,16Zm0-2h0Z"/><path class="cls-5" d="M43.15,16a2,2,0,1,1,2-2A2,2,0,0,1,43.15,16Zm0-2h0Z"/><path class="cls-5" d="M51.15,16a2,2,0,1,1,2-2A2,2,0,0,1,51.15,16Zm0-2h0Z"/><path class="cls-5" d="M59.15,16a2,2,0,1,1,2-2A2,2,0,0,1,59.15,16Zm0-2h0Z"/><path class="cls-5" d="M67.15,16a2,2,0,1,1,2-2A2,2,0,0,1,67.15,16Zm0-2h0Z"/><path class="cls-5" d="M75.15,16a2,2,0,1,1,2-2A2,2,0,0,1,75.15,16Zm0-2h0Z"/><path class="cls-5" d="M83.15,16a2,2,0,1,1,2-2A2,2,0,0,1,83.15,16Zm0-2h0Z"/><path class="cls-5" d="M91.15,16a2,2,0,1,1,2-2A2,2,0,0,1,91.15,16Zm0-2h0Z"/><path class="cls-5" d="M99.15,16a2,2,0,1,1,2-2A2,2,0,0,1,99.15,16Zm0-2h0Z"/><path class="cls-5" d="M107.15,16a2,2,0,1,1,2-2A2,2,0,0,1,107.15,16Zm0-2h0Z"/><path class="cls-5" d="M115.15,16a2,2,0,1,1,2-2A2,2,0,0,1,115.15,16Zm0-2h0Z"/><path class="cls-5" d="M123.15,16a2,2,0,1,1,2-2A2,2,0,0,1,123.15,16Zm0-2h0Z"/><path class="cls-5" d="M7.15,22a2,2,0,1,1,2-2A2,2,0,0,1,7.15,22Zm0-2h0Z"/><path class="cls-5" d="M15.15,22a2,2,0,1,1,2-2A2,2,0,0,1,15.15,22Zm0-2h0Z"/><path class="cls-5" d="M23.15,22a2,2,0,1,1,2-2A2,2,0,0,1,23.15,22Zm0-2h0Z"/><path class="cls-5" d="M31.15,22a2,2,0,1,1,2-2A2,2,0,0,1,31.15,22Zm0-2h0Z"/><path class="cls-5" d="M39.15,22a2,2,0,1,1,2-2A2,2,0,0,1,39.15,22Zm0-2h0Z"/><path class="cls-5" d="M47.15,22a2,2,0,1,1,2-2A2,2,0,0,1,47.15,22Zm0-2h0Z"/><path class="cls-5" d="M55.15,22a2,2,0,1,1,2-2A2,2,0,0,1,55.15,22Zm0-2h0Z"/><path class="cls-5" d="M63.15,22a2,2,0,1,1,2-2A2,2,0,0,1,63.15,22Zm0-2h0Z"/><path class="cls-5" d="M71.15,22a2,2,0,1,1,2-2A2,2,0,0,1,71.15,22Zm0-2h0Z"/><path class="cls-5" d="M79.15,22a2,2,0,1,1,2-2A2,2,0,0,1,79.15,22Zm0-2h0Z"/><path class="cls-5" d="M87.15,22a2,2,0,1,1,2-2A2,2,0,0,1,87.15,22Zm0-2h0Z"/><path class="cls-5" d="M95.15,22a2,2,0,1,1,2-2A2,2,0,0,1,95.15,22Zm0-2h0Z"/><path class="cls-5" d="M103.15,22a2,2,0,1,1,2-2A2,2,0,0,1,103.15,22Zm0-2h0Z"/><path class="cls-5" d="M111.15,22a2,2,0,1,1,2-2A2,2,0,0,1,111.15,22Zm0-2h0Z"/><path class="cls-5" d="M119.15,22a2,2,0,1,1,2-2A2,2,0,0,1,119.15,22Zm0-2h0Z"/><path class="cls-5" d="M127.15,22a2,2,0,1,1,2-2A2,2,0,0,1,127.15,22Zm0-2h0Z"/><path class="cls-5" d="M3.15,28a2,2,0,1,1,2-2A2,2,0,0,1,3.15,28Zm0-2h0Z"/><path class="cls-5" d="M11.15,28a2,2,0,1,1,2-2A2,2,0,0,1,11.15,28Zm0-2h0Z"/><path class="cls-5" d="M19.15,28a2,2,0,1,1,2-2A2,2,0,0,1,19.15,28Zm0-2h0Z"/><path class="cls-5" d="M27.15,28a2,2,0,1,1,2-2A2,2,0,0,1,27.15,28Zm0-2h0Z"/><path class="cls-5" d="M35.15,28a2,2,0,1,1,2-2A2,2,0,0,1,35.15,28Zm0-2h0Z"/><path class="cls-5" d="M43.15,28a2,2,0,1,1,2-2A2,2,0,0,1,43.15,28Zm0-2h0Z"/><path class="cls-5" d="M51.15,28a2,2,0,1,1,2-2A2,2,0,0,1,51.15,28Zm0-2h0Z"/><path class="cls-5" d="M59.15,28a2,2,0,1,1,2-2A2,2,0,0,1,59.15,28Zm0-2h0Z"/><path class="cls-5" d="M67.15,28a2,2,0,1,1,2-2A2,2,0,0,1,67.15,28Zm0-2h0Z"/><path class="cls-5" d="M75.15,28a2,2,0,1,1,2-2A2,2,0,0,1,75.15,28Zm0-2h0Z"/><path class="cls-5" d="M83.15,28a2,2,0,1,1,2-2A2,2,0,0,1,83.15,28Zm0-2h0Z"/><path class="cls-5" d="M91.15,28a2,2,0,1,1,2-2A2,2,0,0,1,91.15,28Zm0-2h0Z"/><path class="cls-5" d="M99.15,28a2,2,0,1,1,2-2A2,2,0,0,1,99.15,28Zm0-2h0Z"/><path class="cls-5" d="M107.15,28a2,2,0,1,1,2-2A2,2,0,0,1,107.15,28Zm0-2h0Z"/><path class="cls-5" d="M115.15,28a2,2,0,1,1,2-2A2,2,0,0,1,115.15,28Zm0-2h0Z"/><path class="cls-5" d="M123.15,28a2,2,0,1,1,2-2A2,2,0,0,1,123.15,28Zm0-2h0Z"/><path class="cls-5" d="M7.15,34a2,2,0,1,1,2-2A2,2,0,0,1,7.15,34Zm0-2h0Z"/><path class="cls-5" d="M15.15,34a2,2,0,1,1,2-2A2,2,0,0,1,15.15,34Zm0-2h0Z"/><path class="cls-5" d="M23.15,34a2,2,0,1,1,2-2A2,2,0,0,1,23.15,34Zm0-2h0Z"/><path class="cls-5" d="M31.15,34a2,2,0,1,1,2-2A2,2,0,0,1,31.15,34Zm0-2h0Z"/><path class="cls-5" d="M39.15,34a2,2,0,1,1,2-2A2,2,0,0,1,39.15,34Zm0-2h0Z"/><path class="cls-5" d="M47.15,34a2,2,0,1,1,2-2A2,2,0,0,1,47.15,34Zm0-2h0Z"/><path class="cls-5" d="M55.15,34a2,2,0,1,1,2-2A2,2,0,0,1,55.15,34Zm0-2h0Z"/><path class="cls-5" d="M63.15,34a2,2,0,1,1,2-2A2,2,0,0,1,63.15,34Zm0-2h0Z"/><path class="cls-5" d="M71.15,34a2,2,0,1,1,2-2A2,2,0,0,1,71.15,34Zm0-2h0Z"/><path class="cls-5" d="M79.15,34a2,2,0,1,1,2-2A2,2,0,0,1,79.15,34Zm0-2h0Z"/><path class="cls-5" d="M87.15,34a2,2,0,1,1,2-2A2,2,0,0,1,87.15,34Zm0-2h0Z"/><path class="cls-5" d="M95.15,34a2,2,0,1,1,2-2A2,2,0,0,1,95.15,34Zm0-2h0Z"/><path class="cls-5" d="M103.15,34a2,2,0,1,1,2-2A2,2,0,0,1,103.15,34Zm0-2h0Z"/><path class="cls-5" d="M111.15,34a2,2,0,1,1,2-2A2,2,0,0,1,111.15,34Zm0-2h0Z"/><path class="cls-5" d="M119.15,34a2,2,0,1,1,2-2A2,2,0,0,1,119.15,34Zm0-2h0Z"/><path class="cls-5" d="M127.15,34a2,2,0,1,1,2-2A2,2,0,0,1,127.15,34Zm0-2h0Z"/><path class="cls-5" d="M3.15,40a2,2,0,1,1,2-2A2,2,0,0,1,3.15,40Zm0-2h0Z"/><path class="cls-5" d="M11.15,40a2,2,0,1,1,2-2A2,2,0,0,1,11.15,40Zm0-2h0Z"/><path class="cls-5" d="M19.15,40a2,2,0,1,1,2-2A2,2,0,0,1,19.15,40Zm0-2h0Z"/><path class="cls-5" d="M27.15,40a2,2,0,1,1,2-2A2,2,0,0,1,27.15,40Zm0-2h0Z"/><path class="cls-5" d="M35.15,40a2,2,0,1,1,2-2A2,2,0,0,1,35.15,40Zm0-2h0Z"/><path class="cls-5" d="M43.15,40a2,2,0,1,1,2-2A2,2,0,0,1,43.15,40Zm0-2h0Z"/><path class="cls-5" d="M51.15,40a2,2,0,1,1,2-2A2,2,0,0,1,51.15,40Zm0-2h0Z"/><path class="cls-5" d="M59.15,40a2,2,0,1,1,2-2A2,2,0,0,1,59.15,40Zm0-2h0Z"/><path class="cls-5" d="M67.15,40a2,2,0,1,1,2-2A2,2,0,0,1,67.15,40Zm0-2h0Z"/><path class="cls-5" d="M75.15,40a2,2,0,1,1,2-2A2,2,0,0,1,75.15,40Zm0-2h0Z"/><path class="cls-5" d="M83.15,40a2,2,0,1,1,2-2A2,2,0,0,1,83.15,40Zm0-2h0Z"/><path class="cls-5" d="M91.15,40a2,2,0,1,1,2-2A2,2,0,0,1,91.15,40Zm0-2h0Z"/><path class="cls-5" d="M99.15,40a2,2,0,1,1,2-2A2,2,0,0,1,99.15,40Zm0-2h0Z"/><path class="cls-5" d="M107.15,40a2,2,0,1,1,2-2A2,2,0,0,1,107.15,40Zm0-2h0Z"/><path class="cls-5" d="M115.15,40a2,2,0,1,1,2-2A2,2,0,0,1,115.15,40Zm0-2h0Z"/><path class="cls-5" d="M123.15,40a2,2,0,1,1,2-2A2,2,0,0,1,123.15,40Zm0-2h0Z"/><path class="cls-5" d="M7.15,46a2,2,0,1,1,2-2A2,2,0,0,1,7.15,46Zm0-2h0Z"/><path class="cls-5" d="M15.15,46a2,2,0,1,1,2-2A2,2,0,0,1,15.15,46Zm0-2h0Z"/><path class="cls-5" d="M23.15,46a2,2,0,1,1,2-2A2,2,0,0,1,23.15,46Zm0-2h0Z"/><path class="cls-5" d="M31.15,46a2,2,0,1,1,2-2A2,2,0,0,1,31.15,46Zm0-2h0Z"/><path class="cls-5" d="M39.15,46a2,2,0,1,1,2-2A2,2,0,0,1,39.15,46Zm0-2h0Z"/><path class="cls-5" d="M47.15,46a2,2,0,1,1,2-2A2,2,0,0,1,47.15,46Zm0-2h0Z"/><path class="cls-5" d="M55.15,46a2,2,0,1,1,2-2A2,2,0,0,1,55.15,46Zm0-2h0Z"/><path class="cls-5" d="M63.15,46a2,2,0,1,1,2-2A2,2,0,0,1,63.15,46Zm0-2h0Z"/><path class="cls-5" d="M71.15,46a2,2,0,1,1,2-2A2,2,0,0,1,71.15,46Zm0-2h0Z"/><path class="cls-5" d="M79.15,46a2,2,0,1,1,2-2A2,2,0,0,1,79.15,46Zm0-2h0Z"/><path class="cls-5" d="M87.15,46a2,2,0,1,1,2-2A2,2,0,0,1,87.15,46Zm0-2h0Z"/><path class="cls-5" d="M95.15,46a2,2,0,1,1,2-2A2,2,0,0,1,95.15,46Zm0-2h0Z"/><path class="cls-5" d="M103.15,46a2,2,0,1,1,2-2A2,2,0,0,1,103.15,46Zm0-2h0Z"/><path class="cls-5" d="M111.15,46a2,2,0,1,1,2-2A2,2,0,0,1,111.15,46Zm0-2h0Z"/><path class="cls-5" d="M119.15,46a2,2,0,1,1,2-2A2,2,0,0,1,119.15,46Zm0-2h0Z"/><path class="cls-5" d="M127.15,46a2,2,0,1,1,2-2A2,2,0,0,1,127.15,46Zm0-2h0Z"/><path class="cls-5" d="M3.15,52a2,2,0,1,1,2-2A2,2,0,0,1,3.15,52Zm0-2h0Z"/><path class="cls-5" d="M11.15,52a2,2,0,1,1,2-2A2,2,0,0,1,11.15,52Zm0-2h0Z"/><path class="cls-5" d="M19.15,52a2,2,0,1,1,2-2A2,2,0,0,1,19.15,52Zm0-2h0Z"/><path class="cls-5" d="M27.15,52a2,2,0,1,1,2-2A2,2,0,0,1,27.15,52Zm0-2h0Z"/><path class="cls-5" d="M35.15,52a2,2,0,1,1,2-2A2,2,0,0,1,35.15,52Zm0-2h0Z"/><path class="cls-5" d="M43.15,52a2,2,0,1,1,2-2A2,2,0,0,1,43.15,52Zm0-2h0Z"/><path class="cls-5" d="M51.15,52a2,2,0,1,1,2-2A2,2,0,0,1,51.15,52Zm0-2h0Z"/><path class="cls-5" d="M59.15,52a2,2,0,1,1,2-2A2,2,0,0,1,59.15,52Zm0-2h0Z"/><path class="cls-5" d="M67.15,52a2,2,0,1,1,2-2A2,2,0,0,1,67.15,52Zm0-2h0Z"/><path class="cls-5" d="M75.15,52a2,2,0,1,1,2-2A2,2,0,0,1,75.15,52Zm0-2h0Z"/><path class="cls-5" d="M83.15,52a2,2,0,1,1,2-2A2,2,0,0,1,83.15,52Zm0-2h0Z"/><path class="cls-5" d="M91.15,52a2,2,0,1,1,2-2A2,2,0,0,1,91.15,52Zm0-2h0Z"/><path class="cls-5" d="M99.15,52a2,2,0,1,1,2-2A2,2,0,0,1,99.15,52Zm0-2h0Z"/><path class="cls-5" d="M107.15,52a2,2,0,1,1,2-2A2,2,0,0,1,107.15,52Zm0-2h0Z"/><path class="cls-5" d="M115.15,52a2,2,0,1,1,2-2A2,2,0,0,1,115.15,52Zm0-2h0Z"/><path class="cls-5" d="M123.15,52a2,2,0,1,1,2-2A2,2,0,0,1,123.15,52Zm0-2h0Z"/><path class="cls-5" d="M7.15,58a2,2,0,1,1,2-2A2,2,0,0,1,7.15,58Zm0-2h0Z"/><path class="cls-5" d="M15.15,58a2,2,0,1,1,2-2A2,2,0,0,1,15.15,58Zm0-2h0Z"/><path class="cls-5" d="M23.15,58a2,2,0,1,1,2-2A2,2,0,0,1,23.15,58Zm0-2h0Z"/><path class="cls-5" d="M31.15,58a2,2,0,1,1,2-2A2,2,0,0,1,31.15,58Zm0-2h0Z"/><path class="cls-5" d="M39.15,58a2,2,0,1,1,2-2A2,2,0,0,1,39.15,58Zm0-2h0Z"/><path class="cls-5" d="M47.15,58a2,2,0,1,1,2-2A2,2,0,0,1,47.15,58Zm0-2h0Z"/><path class="cls-5" d="M55.15,58a2,2,0,1,1,2-2A2,2,0,0,1,55.15,58Zm0-2h0Z"/><path class="cls-5" d="M63.15,58a2,2,0,1,1,2-2A2,2,0,0,1,63.15,58Zm0-2h0Z"/><path class="cls-5" d="M71.15,58a2,2,0,1,1,2-2A2,2,0,0,1,71.15,58Zm0-2h0Z"/><path class="cls-5" d="M79.15,58a2,2,0,1,1,2-2A2,2,0,0,1,79.15,58Zm0-2h0Z"/><path class="cls-5" d="M87.15,58a2,2,0,1,1,2-2A2,2,0,0,1,87.15,58Zm0-2h0Z"/><path class="cls-5" d="M95.15,58a2,2,0,1,1,2-2A2,2,0,0,1,95.15,58Zm0-2h0Z"/><path class="cls-5" d="M103.15,58a2,2,0,1,1,2-2A2,2,0,0,1,103.15,58Zm0-2h0Z"/><path class="cls-5" d="M111.15,58a2,2,0,1,1,2-2A2,2,0,0,1,111.15,58Zm0-2h0Z"/><path class="cls-5" d="M119.15,58a2,2,0,1,1,2-2A2,2,0,0,1,119.15,58Zm0-2h0Z"/><path class="cls-5" d="M127.15,58a2,2,0,1,1,2-2A2,2,0,0,1,127.15,58Zm0-2h0Z"/><path class="cls-5" d="M3.15,64a2,2,0,1,1,2-2A2,2,0,0,1,3.15,64Zm0-2h0Z"/><path class="cls-5" d="M11.15,64a2,2,0,1,1,2-2A2,2,0,0,1,11.15,64Zm0-2h0Z"/><path class="cls-5" d="M19.15,64a2,2,0,1,1,2-2A2,2,0,0,1,19.15,64Zm0-2h0Z"/><path class="cls-5" d="M27.15,64a2,2,0,1,1,2-2A2,2,0,0,1,27.15,64Zm0-2h0Z"/><path class="cls-5" d="M35.15,64a2,2,0,1,1,2-2A2,2,0,0,1,35.15,64Zm0-2h0Z"/><path class="cls-5" d="M43.15,64a2,2,0,1,1,2-2A2,2,0,0,1,43.15,64Zm0-2h0Z"/><path class="cls-5" d="M51.15,64a2,2,0,1,1,2-2A2,2,0,0,1,51.15,64Zm0-2h0Z"/><path class="cls-5" d="M59.15,64a2,2,0,1,1,2-2A2,2,0,0,1,59.15,64Zm0-2h0Z"/><path class="cls-5" d="M67.15,64a2,2,0,1,1,2-2A2,2,0,0,1,67.15,64Zm0-2h0Z"/><path class="cls-5" d="M75.15,64a2,2,0,1,1,2-2A2,2,0,0,1,75.15,64Zm0-2h0Z"/><path class="cls-5" d="M83.15,64a2,2,0,1,1,2-2A2,2,0,0,1,83.15,64Zm0-2h0Z"/><path class="cls-5" d="M91.15,64a2,2,0,1,1,2-2A2,2,0,0,1,91.15,64Zm0-2h0Z"/><path class="cls-5" d="M99.15,64a2,2,0,1,1,2-2A2,2,0,0,1,99.15,64Zm0-2h0Z"/><path class="cls-5" d="M107.15,64a2,2,0,1,1,2-2A2,2,0,0,1,107.15,64Zm0-2h0Z"/><path class="cls-5" d="M115.15,64a2,2,0,1,1,2-2A2,2,0,0,1,115.15,64Zm0-2h0Z"/><path class="cls-5" d="M123.15,64a2,2,0,1,1,2-2A2,2,0,0,1,123.15,64Zm0-2h0Z"/><path class="cls-5" d="M7.15,70a2,2,0,1,1,2-2A2,2,0,0,1,7.15,70Zm0-2h0Z"/><path class="cls-5" d="M15.15,70a2,2,0,1,1,2-2A2,2,0,0,1,15.15,70Zm0-2h0Z"/><path class="cls-5" d="M23.15,70a2,2,0,1,1,2-2A2,2,0,0,1,23.15,70Zm0-2h0Z"/><path class="cls-5" d="M31.15,70a2,2,0,1,1,2-2A2,2,0,0,1,31.15,70Zm0-2h0Z"/><path class="cls-5" d="M39.15,70a2,2,0,1,1,2-2A2,2,0,0,1,39.15,70Zm0-2h0Z"/><path class="cls-5" d="M47.15,70a2,2,0,1,1,2-2A2,2,0,0,1,47.15,70Zm0-2h0Z"/><path class="cls-5" d="M55.15,70a2,2,0,1,1,2-2A2,2,0,0,1,55.15,70Zm0-2h0Z"/><path class="cls-5" d="M63.15,70a2,2,0,1,1,2-2A2,2,0,0,1,63.15,70Zm0-2h0Z"/><path class="cls-5" d="M71.15,70a2,2,0,1,1,2-2A2,2,0,0,1,71.15,70Zm0-2h0Z"/><path class="cls-5" d="M79.15,70a2,2,0,1,1,2-2A2,2,0,0,1,79.15,70Zm0-2h0Z"/><path class="cls-5" d="M87.15,70a2,2,0,1,1,2-2A2,2,0,0,1,87.15,70Zm0-2h0Z"/><path class="cls-5" d="M95.15,70a2,2,0,1,1,2-2A2,2,0,0,1,95.15,70Zm0-2h0Z"/><path class="cls-5" d="M103.15,70a2,2,0,1,1,2-2A2,2,0,0,1,103.15,70Zm0-2h0Z"/><path class="cls-5" d="M111.15,70a2,2,0,1,1,2-2A2,2,0,0,1,111.15,70Zm0-2h0Z"/><path class="cls-5" d="M119.15,70a2,2,0,1,1,2-2A2,2,0,0,1,119.15,70Zm0-2h0Z"/><path class="cls-5" d="M127.15,70a2,2,0,1,1,2-2A2,2,0,0,1,127.15,70Zm0-2h0Z"/><path class="cls-5" d="M3.15,76a2,2,0,1,1,2-2A2,2,0,0,1,3.15,76Zm0-2h0Z"/><path class="cls-5" d="M11.15,76a2,2,0,1,1,2-2A2,2,0,0,1,11.15,76Zm0-2h0Z"/><path class="cls-5" d="M19.15,76a2,2,0,1,1,2-2A2,2,0,0,1,19.15,76Zm0-2h0Z"/><path class="cls-5" d="M27.15,76a2,2,0,1,1,2-2A2,2,0,0,1,27.15,76Zm0-2h0Z"/><path class="cls-5" d="M35.15,76a2,2,0,1,1,2-2A2,2,0,0,1,35.15,76Zm0-2h0Z"/><path class="cls-5" d="M43.15,76a2,2,0,1,1,2-2A2,2,0,0,1,43.15,76Zm0-2h0Z"/><path class="cls-5" d="M51.15,76a2,2,0,1,1,2-2A2,2,0,0,1,51.15,76Zm0-2h0Z"/><path class="cls-5" d="M59.15,76a2,2,0,1,1,2-2A2,2,0,0,1,59.15,76Zm0-2h0Z"/><path class="cls-5" d="M67.15,76a2,2,0,1,1,2-2A2,2,0,0,1,67.15,76Zm0-2h0Z"/><path class="cls-5" d="M75.15,76a2,2,0,1,1,2-2A2,2,0,0,1,75.15,76Zm0-2h0Z"/><path class="cls-5" d="M83.15,76a2,2,0,1,1,2-2A2,2,0,0,1,83.15,76Zm0-2h0Z"/><path class="cls-5" d="M91.15,76a2,2,0,1,1,2-2A2,2,0,0,1,91.15,76Zm0-2h0Z"/><path class="cls-5" d="M99.15,76a2,2,0,1,1,2-2A2,2,0,0,1,99.15,76Zm0-2h0Z"/><path class="cls-5" d="M107.15,76a2,2,0,1,1,2-2A2,2,0,0,1,107.15,76Zm0-2h0Z"/><path class="cls-5" d="M115.15,76a2,2,0,1,1,2-2A2,2,0,0,1,115.15,76Zm0-2h0Z"/><path class="cls-5" d="M123.15,76a2,2,0,1,1,2-2A2,2,0,0,1,123.15,76Zm0-2h0Z"/><path class="cls-5" d="M7.15,82a2,2,0,1,1,2-2A2,2,0,0,1,7.15,82Zm0-2h0Z"/><path class="cls-5" d="M15.15,82a2,2,0,1,1,2-2A2,2,0,0,1,15.15,82Zm0-2h0Z"/><path class="cls-5" d="M23.15,82a2,2,0,1,1,2-2A2,2,0,0,1,23.15,82Zm0-2h0Z"/><path class="cls-5" d="M31.15,82a2,2,0,1,1,2-2A2,2,0,0,1,31.15,82Zm0-2h0Z"/><path class="cls-5" d="M39.15,82a2,2,0,1,1,2-2A2,2,0,0,1,39.15,82Zm0-2h0Z"/><path class="cls-5" d="M47.15,82a2,2,0,1,1,2-2A2,2,0,0,1,47.15,82Zm0-2h0Z"/><path class="cls-5" d="M55.15,82a2,2,0,1,1,2-2A2,2,0,0,1,55.15,82Zm0-2h0Z"/><path class="cls-5" d="M63.15,82a2,2,0,1,1,2-2A2,2,0,0,1,63.15,82Zm0-2h0Z"/><path class="cls-5" d="M71.15,82a2,2,0,1,1,2-2A2,2,0,0,1,71.15,82Zm0-2h0Z"/><path class="cls-5" d="M79.15,82a2,2,0,1,1,2-2A2,2,0,0,1,79.15,82Zm0-2h0Z"/><path class="cls-5" d="M87.15,82a2,2,0,1,1,2-2A2,2,0,0,1,87.15,82Zm0-2h0Z"/><path class="cls-5" d="M95.15,82a2,2,0,1,1,2-2A2,2,0,0,1,95.15,82Zm0-2h0Z"/><path class="cls-5" d="M103.15,82a2,2,0,1,1,2-2A2,2,0,0,1,103.15,82Zm0-2h0Z"/><path class="cls-5" d="M111.15,82a2,2,0,1,1,2-2A2,2,0,0,1,111.15,82Zm0-2h0Z"/><path class="cls-5" d="M119.15,82a2,2,0,1,1,2-2A2,2,0,0,1,119.15,82Zm0-2h0Z"/><path class="cls-5" d="M127.15,82a2,2,0,1,1,2-2A2,2,0,0,1,127.15,82Zm0-2h0Z"/><path class="cls-5" d="M3.15,88a2,2,0,1,1,2-2A2,2,0,0,1,3.15,88Zm0-2h0Z"/><path class="cls-5" d="M11.15,88a2,2,0,1,1,2-2A2,2,0,0,1,11.15,88Zm0-2h0Z"/><path class="cls-5" d="M19.15,88a2,2,0,1,1,2-2A2,2,0,0,1,19.15,88Zm0-2h0Z"/><path class="cls-5" d="M27.15,88a2,2,0,1,1,2-2A2,2,0,0,1,27.15,88Zm0-2h0Z"/><path class="cls-5" d="M35.15,88a2,2,0,1,1,2-2A2,2,0,0,1,35.15,88Zm0-2h0Z"/><path class="cls-5" d="M43.15,88a2,2,0,1,1,2-2A2,2,0,0,1,43.15,88Zm0-2h0Z"/><path class="cls-5" d="M51.15,88a2,2,0,1,1,2-2A2,2,0,0,1,51.15,88Zm0-2h0Z"/><path class="cls-5" d="M59.15,88a2,2,0,1,1,2-2A2,2,0,0,1,59.15,88Zm0-2h0Z"/><path class="cls-5" d="M67.15,88a2,2,0,1,1,2-2A2,2,0,0,1,67.15,88Zm0-2h0Z"/><path class="cls-5" d="M75.15,88a2,2,0,1,1,2-2A2,2,0,0,1,75.15,88Zm0-2h0Z"/><path class="cls-5" d="M83.15,88a2,2,0,1,1,2-2A2,2,0,0,1,83.15,88Zm0-2h0Z"/><path class="cls-5" d="M91.15,88a2,2,0,1,1,2-2A2,2,0,0,1,91.15,88Zm0-2h0Z"/><path class="cls-5" d="M99.15,88a2,2,0,1,1,2-2A2,2,0,0,1,99.15,88Zm0-2h0Z"/><path class="cls-5" d="M107.15,88a2,2,0,1,1,2-2A2,2,0,0,1,107.15,88Zm0-2h0Z"/><path class="cls-5" d="M115.15,88a2,2,0,1,1,2-2A2,2,0,0,1,115.15,88Zm0-2h0Z"/><path class="cls-5" d="M123.15,88a2,2,0,1,1,2-2A2,2,0,0,1,123.15,88Zm0-2h0Z"/><path class="cls-5" d="M7.15,94a2,2,0,1,1,2-2A2,2,0,0,1,7.15,94Zm0-2h0Z"/><path class="cls-5" d="M15.15,94a2,2,0,1,1,2-2A2,2,0,0,1,15.15,94Zm0-2h0Z"/><path class="cls-5" d="M23.15,94a2,2,0,1,1,2-2A2,2,0,0,1,23.15,94Zm0-2h0Z"/><path class="cls-5" d="M31.15,94a2,2,0,1,1,2-2A2,2,0,0,1,31.15,94Zm0-2h0Z"/><path class="cls-5" d="M39.15,94a2,2,0,1,1,2-2A2,2,0,0,1,39.15,94Zm0-2h0Z"/><path class="cls-5" d="M47.15,94a2,2,0,1,1,2-2A2,2,0,0,1,47.15,94Zm0-2h0Z"/><path class="cls-5" d="M55.15,94a2,2,0,1,1,2-2A2,2,0,0,1,55.15,94Zm0-2h0Z"/><path class="cls-5" d="M63.15,94a2,2,0,1,1,2-2A2,2,0,0,1,63.15,94Zm0-2h0Z"/><path class="cls-5" d="M71.15,94a2,2,0,1,1,2-2A2,2,0,0,1,71.15,94Zm0-2h0Z"/><path class="cls-5" d="M79.15,94a2,2,0,1,1,2-2A2,2,0,0,1,79.15,94Zm0-2h0Z"/><path class="cls-5" d="M87.15,94a2,2,0,1,1,2-2A2,2,0,0,1,87.15,94Zm0-2h0Z"/><path class="cls-5" d="M95.15,94a2,2,0,1,1,2-2A2,2,0,0,1,95.15,94Zm0-2h0Z"/><path class="cls-5" d="M103.15,94a2,2,0,1,1,2-2A2,2,0,0,1,103.15,94Zm0-2h0Z"/><path class="cls-5" d="M111.15,94a2,2,0,1,1,2-2A2,2,0,0,1,111.15,94Zm0-2h0Z"/><path class="cls-5" d="M119.15,94a2,2,0,1,1,2-2A2,2,0,0,1,119.15,94Zm0-2h0Z"/><path class="cls-5" d="M127.15,94a2,2,0,1,1,2-2A2,2,0,0,1,127.15,94Zm0-2h0Z"/><path class="cls-5" d="M3.15,100a2,2,0,1,1,2-2A2,2,0,0,1,3.15,100Zm0-2h0Z"/><path class="cls-5" d="M11.15,100a2,2,0,1,1,2-2A2,2,0,0,1,11.15,100Zm0-2h0Z"/><path class="cls-5" d="M19.15,100a2,2,0,1,1,2-2A2,2,0,0,1,19.15,100Zm0-2h0Z"/><path class="cls-5" d="M27.15,100a2,2,0,1,1,2-2A2,2,0,0,1,27.15,100Zm0-2h0Z"/><path class="cls-5" d="M35.15,100a2,2,0,1,1,2-2A2,2,0,0,1,35.15,100Zm0-2h0Z"/><path class="cls-5" d="M43.15,100a2,2,0,1,1,2-2A2,2,0,0,1,43.15,100Zm0-2h0Z"/><path class="cls-5" d="M51.15,100a2,2,0,1,1,2-2A2,2,0,0,1,51.15,100Zm0-2h0Z"/><path class="cls-5" d="M59.15,100a2,2,0,1,1,2-2A2,2,0,0,1,59.15,100Zm0-2h0Z"/><path class="cls-5" d="M67.15,100a2,2,0,1,1,2-2A2,2,0,0,1,67.15,100Zm0-2h0Z"/><path class="cls-5" d="M75.15,100a2,2,0,1,1,2-2A2,2,0,0,1,75.15,100Zm0-2h0Z"/><path class="cls-5" d="M83.15,100a2,2,0,1,1,2-2A2,2,0,0,1,83.15,100Zm0-2h0Z"/><path class="cls-5" d="M91.15,100a2,2,0,1,1,2-2A2,2,0,0,1,91.15,100Zm0-2h0Z"/><path class="cls-5" d="M99.15,100a2,2,0,1,1,2-2A2,2,0,0,1,99.15,100Zm0-2h0Z"/><path class="cls-5" d="M107.15,100a2,2,0,1,1,2-2A2,2,0,0,1,107.15,100Zm0-2h0Z"/><path class="cls-5" d="M115.15,100a2,2,0,1,1,2-2A2,2,0,0,1,115.15,100Zm0-2h0Z"/><path class="cls-5" d="M123.15,100a2,2,0,1,1,2-2A2,2,0,0,1,123.15,100Zm0-2h0Z"/><path class="cls-5" d="M7.15,106a2,2,0,1,1,2-2A2,2,0,0,1,7.15,106Zm0-2h0Z"/><path class="cls-5" d="M15.15,106a2,2,0,1,1,2-2A2,2,0,0,1,15.15,106Zm0-2h0Z"/><path class="cls-5" d="M23.15,106a2,2,0,1,1,2-2A2,2,0,0,1,23.15,106Zm0-2h0Z"/><path class="cls-5" d="M31.15,106a2,2,0,1,1,2-2A2,2,0,0,1,31.15,106Zm0-2h0Z"/><path class="cls-5" d="M39.15,106a2,2,0,1,1,2-2A2,2,0,0,1,39.15,106Zm0-2h0Z"/><path class="cls-5" d="M47.15,106a2,2,0,1,1,2-2A2,2,0,0,1,47.15,106Zm0-2h0Z"/><path class="cls-5" d="M55.15,106a2,2,0,1,1,2-2A2,2,0,0,1,55.15,106Zm0-2h0Z"/><path class="cls-5" d="M63.15,106a2,2,0,1,1,2-2A2,2,0,0,1,63.15,106Zm0-2h0Z"/><path class="cls-5" d="M71.15,106a2,2,0,1,1,2-2A2,2,0,0,1,71.15,106Zm0-2h0Z"/><path class="cls-5" d="M79.15,106a2,2,0,1,1,2-2A2,2,0,0,1,79.15,106Zm0-2h0Z"/><path class="cls-5" d="M87.15,106a2,2,0,1,1,2-2A2,2,0,0,1,87.15,106Zm0-2h0Z"/><path class="cls-5" d="M95.15,106a2,2,0,1,1,2-2A2,2,0,0,1,95.15,106Zm0-2h0Z"/><path class="cls-5" d="M103.15,106a2,2,0,1,1,2-2A2,2,0,0,1,103.15,106Zm0-2h0Z"/><path class="cls-5" d="M111.15,106a2,2,0,1,1,2-2A2,2,0,0,1,111.15,106Zm0-2h0Z"/><path class="cls-5" d="M119.15,106a2,2,0,1,1,2-2A2,2,0,0,1,119.15,106Zm0-2h0Z"/><path class="cls-5" d="M127.15,106a2,2,0,1,1,2-2A2,2,0,0,1,127.15,106Zm0-2h0Z"/><path class="cls-5" d="M3.15,112a2,2,0,1,1,2-2A2,2,0,0,1,3.15,112Zm0-2h0Z"/><path class="cls-5" d="M11.15,112a2,2,0,1,1,2-2A2,2,0,0,1,11.15,112Zm0-2h0Z"/><path class="cls-5" d="M19.15,112a2,2,0,1,1,2-2A2,2,0,0,1,19.15,112Zm0-2h0Z"/><path class="cls-5" d="M27.15,112a2,2,0,1,1,2-2A2,2,0,0,1,27.15,112Zm0-2h0Z"/><path class="cls-5" d="M35.15,112a2,2,0,1,1,2-2A2,2,0,0,1,35.15,112Zm0-2h0Z"/><path class="cls-5" d="M43.15,112a2,2,0,1,1,2-2A2,2,0,0,1,43.15,112Zm0-2h0Z"/><path class="cls-5" d="M51.15,112a2,2,0,1,1,2-2A2,2,0,0,1,51.15,112Zm0-2h0Z"/><path class="cls-5" d="M59.15,112a2,2,0,1,1,2-2A2,2,0,0,1,59.15,112Zm0-2h0Z"/><path class="cls-5" d="M67.15,112a2,2,0,1,1,2-2A2,2,0,0,1,67.15,112Zm0-2h0Z"/><path class="cls-5" d="M75.15,112a2,2,0,1,1,2-2A2,2,0,0,1,75.15,112Zm0-2h0Z"/><path class="cls-5" d="M83.15,112a2,2,0,1,1,2-2A2,2,0,0,1,83.15,112Zm0-2h0Z"/><path class="cls-5" d="M91.15,112a2,2,0,1,1,2-2A2,2,0,0,1,91.15,112Zm0-2h0Z"/><path class="cls-5" d="M99.15,112a2,2,0,1,1,2-2A2,2,0,0,1,99.15,112Zm0-2h0Z"/><path class="cls-5" d="M107.15,112a2,2,0,1,1,2-2A2,2,0,0,1,107.15,112Zm0-2h0Z"/><path class="cls-5" d="M115.15,112a2,2,0,1,1,2-2A2,2,0,0,1,115.15,112Zm0-2h0Z"/><path class="cls-5" d="M123.15,112a2,2,0,1,1,2-2A2,2,0,0,1,123.15,112Zm0-2h0Z"/><path class="cls-5" d="M7.15,118a2,2,0,1,1,2-2A2,2,0,0,1,7.15,118Zm0-2h0Z"/><path class="cls-5" d="M15.15,118a2,2,0,1,1,2-2A2,2,0,0,1,15.15,118Zm0-2h0Z"/><path class="cls-5" d="M23.15,118a2,2,0,1,1,2-2A2,2,0,0,1,23.15,118Zm0-2h0Z"/><path class="cls-5" d="M31.15,118a2,2,0,1,1,2-2A2,2,0,0,1,31.15,118Zm0-2h0Z"/><path class="cls-5" d="M39.15,118a2,2,0,1,1,2-2A2,2,0,0,1,39.15,118Zm0-2h0Z"/><path class="cls-5" d="M47.15,118a2,2,0,1,1,2-2A2,2,0,0,1,47.15,118Zm0-2h0Z"/><path class="cls-5" d="M55.15,118a2,2,0,1,1,2-2A2,2,0,0,1,55.15,118Zm0-2h0Z"/><path class="cls-5" d="M63.15,118a2,2,0,1,1,2-2A2,2,0,0,1,63.15,118Zm0-2h0Z"/><path class="cls-5" d="M71.15,118a2,2,0,1,1,2-2A2,2,0,0,1,71.15,118Zm0-2h0Z"/><path class="cls-5" d="M79.15,118a2,2,0,1,1,2-2A2,2,0,0,1,79.15,118Zm0-2h0Z"/><path class="cls-5" d="M87.15,118a2,2,0,1,1,2-2A2,2,0,0,1,87.15,118Zm0-2h0Z"/><path class="cls-5" d="M95.15,118a2,2,0,1,1,2-2A2,2,0,0,1,95.15,118Zm0-2h0Z"/><path class="cls-5" d="M103.15,118a2,2,0,1,1,2-2A2,2,0,0,1,103.15,118Zm0-2h0Z"/><path class="cls-5" d="M111.15,118a2,2,0,1,1,2-2A2,2,0,0,1,111.15,118Zm0-2h0Z"/><path class="cls-5" d="M119.15,118a2,2,0,1,1,2-2A2,2,0,0,1,119.15,118Zm0-2h0Z"/><path class="cls-5" d="M127.15,118a2,2,0,1,1,2-2A2,2,0,0,1,127.15,118Zm0-2h0Z"/><path class="cls-5" d="M3.15,124a2,2,0,1,1,2-2A2,2,0,0,1,3.15,124Zm0-2h0Z"/><path class="cls-5" d="M11.15,124a2,2,0,1,1,2-2A2,2,0,0,1,11.15,124Zm0-2h0Z"/><path class="cls-5" d="M19.15,124a2,2,0,1,1,2-2A2,2,0,0,1,19.15,124Zm0-2h0Z"/><path class="cls-5" d="M27.15,124a2,2,0,1,1,2-2A2,2,0,0,1,27.15,124Zm0-2h0Z"/><path class="cls-5" d="M35.15,124a2,2,0,1,1,2-2A2,2,0,0,1,35.15,124Zm0-2h0Z"/><path class="cls-5" d="M43.15,124a2,2,0,1,1,2-2A2,2,0,0,1,43.15,124Zm0-2h0Z"/><path class="cls-5" d="M51.15,124a2,2,0,1,1,2-2A2,2,0,0,1,51.15,124Zm0-2h0Z"/><path class="cls-5" d="M59.15,124a2,2,0,1,1,2-2A2,2,0,0,1,59.15,124Zm0-2h0Z"/><path class="cls-5" d="M67.15,124a2,2,0,1,1,2-2A2,2,0,0,1,67.15,124Zm0-2h0Z"/><path class="cls-5" d="M75.15,124a2,2,0,1,1,2-2A2,2,0,0,1,75.15,124Zm0-2h0Z"/><path class="cls-5" d="M83.15,124a2,2,0,1,1,2-2A2,2,0,0,1,83.15,124Zm0-2h0Z"/><path class="cls-5" d="M91.15,124a2,2,0,1,1,2-2A2,2,0,0,1,91.15,124Zm0-2h0Z"/><path class="cls-5" d="M99.15,124a2,2,0,1,1,2-2A2,2,0,0,1,99.15,124Zm0-2h0Z"/><path class="cls-5" d="M107.15,124a2,2,0,1,1,2-2A2,2,0,0,1,107.15,124Zm0-2h0Z"/><path class="cls-5" d="M115.15,124a2,2,0,1,1,2-2A2,2,0,0,1,115.15,124Zm0-2h0Z"/><path class="cls-5" d="M123.15,124a2,2,0,1,1,2-2A2,2,0,0,1,123.15,124Zm0-2h0Z"/><path class="cls-5" d="M7.15,130a2,2,0,1,1,2-2A2,2,0,0,1,7.15,130Zm0-2h0Z"/><path class="cls-5" d="M15.15,130a2,2,0,1,1,2-2A2,2,0,0,1,15.15,130Zm0-2h0Z"/><path class="cls-5" d="M23.15,130a2,2,0,1,1,2-2A2,2,0,0,1,23.15,130Zm0-2h0Z"/><path class="cls-5" d="M31.15,130a2,2,0,1,1,2-2A2,2,0,0,1,31.15,130Zm0-2h0Z"/><path class="cls-5" d="M39.15,130a2,2,0,1,1,2-2A2,2,0,0,1,39.15,130Zm0-2h0Z"/><path class="cls-5" d="M47.15,130a2,2,0,1,1,2-2A2,2,0,0,1,47.15,130Zm0-2h0Z"/><path class="cls-5" d="M55.15,130a2,2,0,1,1,2-2A2,2,0,0,1,55.15,130Zm0-2h0Z"/><path class="cls-5" d="M63.15,130a2,2,0,1,1,2-2A2,2,0,0,1,63.15,130Zm0-2h0Z"/><path class="cls-5" d="M71.15,130a2,2,0,1,1,2-2A2,2,0,0,1,71.15,130Zm0-2h0Z"/><path class="cls-5" d="M79.15,130a2,2,0,1,1,2-2A2,2,0,0,1,79.15,130Zm0-2h0Z"/><path class="cls-5" d="M87.15,130a2,2,0,1,1,2-2A2,2,0,0,1,87.15,130Zm0-2h0Z"/><path class="cls-5" d="M95.15,130a2,2,0,1,1,2-2A2,2,0,0,1,95.15,130Zm0-2h0Z"/><path class="cls-5" d="M103.15,130a2,2,0,1,1,2-2A2,2,0,0,1,103.15,130Zm0-2h0Z"/><path class="cls-5" d="M111.15,130a2,2,0,1,1,2-2A2,2,0,0,1,111.15,130Zm0-2h0Z"/><path class="cls-5" d="M119.15,130a2,2,0,1,1,2-2A2,2,0,0,1,119.15,130Zm0-2h0Z"/><path class="cls-5" d="M127.15,130a2,2,0,1,1,2-2A2,2,0,0,1,127.15,130Zm0-2h0Z"/></g></g><g class="cls-6"><path class="cls-7" d="M77.31,82a43.82,43.82,0,0,0,12-1.73,12,12,0,0,0,8.23-15.29C94.27,55,96.89,47,94.6,37.27c-3-13-14.77-22.76-30.54-22.76s-28.3,9.36-30.88,22.76c-1.87,9.69.65,17.58-2.45,27.3a12,12,0,0,0,8,15.28A42.25,42.25,0,0,0,50.09,82Z"/><g class="cls-3"><path class="cls-8" d="M89.31,75.69a43.82,43.82,0,0,1-12,1.73l-27.22,0a42.25,42.25,0,0,1-11.33-2.14,12,12,0,0,1-8.4-9.25,12,12,0,0,0,8.4,13.79A42.25,42.25,0,0,0,50.09,82l27.22,0a43.82,43.82,0,0,0,12-1.73,12,12,0,0,0,8.61-13.79A11.93,11.93,0,0,1,89.31,75.69Z"/></g><g class="cls-3"><path class="cls-9" d="M95.64,50.81h.06c0-4.38,0-8.75-1.1-13.54-3-13-14.77-22.76-30.54-22.76s-28.3,9.36-30.88,22.76a63.86,63.86,0,0,0-.77,13,47.17,47.17,0,0,1,.77-8.42c2.59-13.39,15.11-22.76,30.88-22.76s27.5,9.79,30.54,22.76A43.76,43.76,0,0,1,95.64,50.81Z"/></g><path class="cls-5" d="M51.79,83h0A55.77,55.77,0,0,1,38.47,80.8a12.87,12.87,0,0,1-7.8-6.36,13.06,13.06,0,0,1-.9-10.18c1.69-5.3,1.66-10,1.63-15a60.18,60.18,0,0,1,.79-12.21C34.88,23.2,48,13.51,64.06,13.51,79.61,13.51,92.27,23,95.58,37a55.31,55.31,0,0,1,1.12,12.77c0,4.91.06,9.55,1.79,14.81A13,13,0,0,1,89.57,81.2a56.89,56.89,0,0,1-14,1.77,1,1,0,0,1-1-1,1,1,0,0,1,1-1A54.93,54.93,0,0,0,89,79.26a11,11,0,0,0,7.54-14c-1.83-5.56-1.86-10.57-1.89-15.42A53.73,53.73,0,0,0,93.63,37.5c-3.09-13.15-15-22-29.57-22-15.11,0-27.4,9-29.9,21.95a58.6,58.6,0,0,0-.75,11.82c0,4.91.06,10-1.73,15.59a11.08,11.08,0,0,0,.76,8.63A10.88,10.88,0,0,0,39,78.88,54.4,54.4,0,0,0,51.81,81a1,1,0,0,1,0,2Z"/><path class="cls-10" d="M82.22,87l0,0c-1.57,5-9,8.77-18,8.77S47.71,92,46.14,87l0-.07a29.61,29.61,0,0,1,4-2.06,5.23,5.23,0,0,0,2.93-4.67A6,6,0,0,0,52.62,78a22.35,22.35,0,0,0,23,0,5.29,5.29,0,0,0,2.48,6.91A30.27,30.27,0,0,1,82.22,87Z"/><g class="cls-3"><path class="cls-8" d="M64.14,86.16c4.27,0,8.68-1.25,11.43-4.7a4.52,4.52,0,0,1,0-3.77H52.66a4.55,4.55,0,0,1,.06,3.79C55.37,84.91,59.88,86.16,64.14,86.16Z"/></g><path class="cls-11" d="M85.14,124.78h-54V113.49a31,31,0,0,1,15-26.56l0,.07c1.57,5,9,8.77,18,8.77S80.62,92,82.19,87l0,0a31.06,31.06,0,0,1,14.92,26.54v11.29Z"/><g class="cls-3"><path class="cls-9" d="M91.95,96.3A30.85,30.85,0,0,0,82.22,87l0,0c-1.57,5-9,8.77-18,8.77S47.71,92,46.14,87l0-.07a31,31,0,0,0-15,26.56c.48-4.21,6.14-16.65,13.94-21.08,2.24,3.37,10.1,7.87,19.08,7.87s16.8-4.5,19-7.87c11.1,6.68,13.94,21.08,13.94,21.08A31,31,0,0,0,91.95,96.3Z"/></g><path class="cls-5" d="M31.16,125.78a1,1,0,0,1-1-1V113.49A32.17,32.17,0,0,1,45.62,86.07a30.71,30.71,0,0,1,4.17-2.13,4.14,4.14,0,0,0,1.93-5.44,1,1,0,0,1,1.86-.74,6.14,6.14,0,0,1-3,8,29.23,29.23,0,0,0-4,2,30.17,30.17,0,0,0-14.49,25.7v11.29A1,1,0,0,1,31.16,125.78Z"/><path class="cls-5" d="M97.14,125.78a1,1,0,0,1-1-1V113.49A30.06,30.06,0,0,0,81.7,87.81a29.46,29.46,0,0,0-3.95-2,6.06,6.06,0,0,1-3-8,1,1,0,1,1,1.86.72,4.09,4.09,0,0,0,2,5.48,30.94,30.94,0,0,1,4.16,2.13,32.06,32.06,0,0,1,15.4,27.39v11.29A1,1,0,0,1,97.14,125.78Z"/><path class="cls-5" d="M43.14,125.78a1,1,0,0,1-1-1v-11c0-4.34.7-7.36,2.2-9.48A1,1,0,0,1,46,105.45c-1.25,1.78-1.83,4.42-1.83,8.33v11A1,1,0,0,1,43.14,125.78Z"/><path class="cls-5" d="M85.15,125.78a1,1,0,0,1-1-1v-11c0-3.91-.58-6.56-1.83-8.33A1,1,0,0,1,84,104.3c1.5,2.13,2.2,5.14,2.2,9.48v11A1,1,0,0,1,85.15,125.78Z"/><path class="cls-5" d="M64.24,96.77c-9.3,0-17.3-4-19-9.47a1,1,0,1,1,1.91-.6c1.45,4.6,8.81,8.08,17.12,8.08S79.93,91.3,81.38,86.7a1,1,0,1,1,1.91.6C81.56,92.79,73.55,96.77,64.24,96.77Z"/><path class="cls-12" d="M42.14,44.3c0-24.69,44-24.69,44,0V58.84a22.17,22.17,0,0,1-11,19.07l-2.77,1.63a16.24,16.24,0,0,1-16.49,0l-2.75-1.62a22.16,22.16,0,0,1-11-19.06Z"/><g class="cls-3"><path class="cls-8" d="M75.13,73.91l-2.77,1.63a16.24,16.24,0,0,1-16.49,0l-2.75-1.62a22.16,22.16,0,0,1-11-19.06V44.28h0V58.85a22.16,22.16,0,0,0,11,19.06l2.75,1.62a16.24,16.24,0,0,0,16.49,0l2.77-1.63a22.17,22.17,0,0,0,11-19.07v-4A22.17,22.17,0,0,1,75.13,73.91Z"/></g><path class="cls-5" d="M64.12,82.78a17.23,17.23,0,0,1-8.76-2.39l-2.75-1.62A23.27,23.27,0,0,1,41.14,58.85V44.3h0a17.69,17.69,0,0,1,7.28-14.69,26.32,26.32,0,0,1,15.72-4.83,26.32,26.32,0,0,1,15.72,4.83A17.69,17.69,0,0,1,87.14,44.3V58.84a23.28,23.28,0,0,1-11.5,19.93L72.87,80.4A17.22,17.22,0,0,1,64.12,82.78Zm-21-38.48V58.85A21.27,21.27,0,0,0,53.63,77l2.75,1.62a15.25,15.25,0,0,0,15.48,0L74.63,77A21.28,21.28,0,0,0,85.14,58.84V44.3a15.75,15.75,0,0,0-6.47-13.09,24.32,24.32,0,0,0-14.53-4.43c-10.11,0-21,5.48-21,17.52Z"/><path class="cls-12" d="M42.14,56.77v-9c0-3-2.23-4-3.6-3-2.19,1.53.6,8,.6,8C37.52,53.81,39.35,57.5,42.14,56.77Z"/><path class="cls-5" d="M41.4,57.87a4,4,0,0,1-3.55-2.45A2.94,2.94,0,0,1,38,52.53c-.78-2-2.39-6.92,0-8.59a3,3,0,0,1,3.13-.18,4.27,4.27,0,0,1,2,4v9a1,1,0,0,1-.75,1A3.9,3.9,0,0,1,41.4,57.87Zm.74-1.1h0ZM39.67,45.41a1,1,0,0,0-.56.18c-.9.62-.22,4.08.95,6.78a1,1,0,0,1-.38,1.24c-.23.15-.17.62,0,1a2.12,2.12,0,0,0,1.46,1.23V47.77a2.41,2.41,0,0,0-1-2.23A1.08,1.08,0,0,0,39.67,45.41Z"/><path class="cls-5" d="M39.14,53.77a1,1,0,0,1-.54-1.84l.38-.24a1,1,0,0,1,1.08,1.68l-.37.24A1,1,0,0,1,39.14,53.77Z"/><path class="cls-12" d="M86.14,56.77v-9c0-3,2.22-4,3.6-3,2.19,1.53-.6,8-.6,8C90.77,53.81,88.93,57.5,86.14,56.77Z"/><path class="cls-5" d="M86.88,57.87a3.9,3.9,0,0,1-1-.13,1,1,0,0,1-.75-1v-9a4.27,4.27,0,0,1,2-4,3,3,0,0,1,3.13.18c2.4,1.67.78,6.61,0,8.59a2.94,2.94,0,0,1,.12,2.88A4,4,0,0,1,86.88,57.87Zm1.72-12.46a1.08,1.08,0,0,0-.5.13,2.41,2.41,0,0,0-1,2.23v8.07a2.12,2.12,0,0,0,1.46-1.23c.17-.39.23-.86,0-1a1,1,0,0,1-.38-1.24c1.17-2.71,1.84-6.16.95-6.78A1,1,0,0,0,88.61,45.41Z"/><path class="cls-5" d="M89.14,53.77a1,1,0,0,1-.54-.16l-.37-.24a1,1,0,0,1,1.08-1.68l.38.24a1,1,0,0,1-.54,1.84Z"/><g class="cls-3"><path class="cls-8" d="M42.26,42.94s19.24,8,36.07-7c2.52,9.16,7.87,7.5,7.9,7.49V40.2s-5.55,2.31-8.08-6.89c-16.56,14-35.85,6.1-35.85,6.1Z"/></g><path class="cls-7" d="M42.29,39.33s19,8.43,35.83-6.52c0,8.62,8.07,7.56,8.07,7.56l2-.13c-2.07-22.41-43.52-23.08-47.66-1.73Z"/><path class="cls-5" d="M55.16,42.66a36.32,36.32,0,0,1-13.27-2.41l-1.76-.78a1,1,0,1,1,.81-1.83l1.76.78c.18.08,18.64,8,34.76-6.36a1,1,0,0,1,1.66.75c0,2.33.63,4.06,1.88,5.16a7.12,7.12,0,0,0,5.06,1.4l1.17-.1a1,1,0,0,1,.17,2l-1.12.09a9.11,9.11,0,0,1-6.59-1.89,7.56,7.56,0,0,1-2.41-4.64A34.67,34.67,0,0,1,55.16,42.66Z"/><path class="cls-5" d="M42.14,45.3a1,1,0,0,1-1-1,19.53,19.53,0,0,1,.64-5.05,1,1,0,0,1,1.93.52,17.54,17.54,0,0,0-.57,4.53A1,1,0,0,1,42.14,45.3Z"/><path class="cls-5" d="M86.14,45.3a1,1,0,0,1-1-1,17.89,17.89,0,0,0-.36-3.62,1,1,0,1,1,2-.41,19.94,19.94,0,0,1,.4,4A1,1,0,0,1,86.14,45.3Z"/><g class="cls-3"><path class="cls-8" d="M78.14,9.64a6,6,0,0,0-2.74.67L64.14,16.09,52.88,10.31a6,6,0,0,0-2.74-.67,6,6,0,0,0-6,6v6.13a6,6,0,0,0,6,6,6,6,0,0,0,2.74-.67l11.26-5.78L75.4,27.11a6,6,0,0,0,2.74.67h0a6.09,6.09,0,0,0,4.18-1.69,5.93,5.93,0,0,0,1.82-4.31V15.65A6,6,0,0,0,78.14,9.64Z"/></g><path class="cls-11" d="M52.42,23.58l11.72-6v-3l-11.72-6A5,5,0,0,0,45.14,13v6.13A5,5,0,0,0,52.42,23.58Z"/><g class="cls-3"><path class="cls-9" d="M52.42,8.56A5,5,0,0,0,45.14,13v1.23a3.5,3.5,0,0,1,5.1-3.11l13.22,6.79.68-.35v-3Z"/></g><path class="cls-5" d="M50.14,25.14a6,6,0,0,1-6-6V13a6,6,0,0,1,8.74-5.34l11.72,6a1,1,0,0,1,.54.89v3a1,1,0,0,1-.54.89l-11.72,6h0A6,6,0,0,1,50.14,25.14Zm2.29-1.56h0ZM50.14,9a4,4,0,0,0-4,4v6.13A4,4,0,0,0,52,22.69L63.14,17V15.19L52,9.45A4,4,0,0,0,50.14,9Z"/><path class="cls-11" d="M75.86,23.58l-11.72-6v-3l11.72-6A5,5,0,0,1,83.14,13v6.13A5,5,0,0,1,75.86,23.58Z"/><g class="cls-3"><path class="cls-9" d="M75.86,8.56A5,5,0,0,1,83.14,13v1.23A3.5,3.5,0,0,0,78,11.12L64.82,17.91l-.68-.35v-3Z"/></g><path class="cls-5" d="M78.14,25.14a6,6,0,0,1-2.74-.67h0l-11.72-6a1,1,0,0,1-.54-.89v-3a1,1,0,0,1,.54-.89l11.72-6A6,6,0,0,1,84.14,13v6.13a6,6,0,0,1-6,6Zm-1.83-2.45a4,4,0,0,0,5.83-3.56V13a4,4,0,0,0-5.83-3.56L65.14,15.19V17Z"/><circle class="cls-5" cx="75.62" cy="54.28" r="1.5"/><path class="cls-5" d="M75.62,56.78a2.5,2.5,0,1,1,2.5-2.5A2.5,2.5,0,0,1,75.62,56.78Zm0-3a.5.5,0,1,0,.5.5A.5.5,0,0,0,75.62,53.78Z"/><path class="cls-5" d="M64.14,62a5.75,5.75,0,0,1-2.52-.82,1,1,0,0,1,1-1.71,3.8,3.8,0,0,0,1.48.54,3.8,3.8,0,0,0,1.48-.54,1,1,0,0,1,1,1.71A5.75,5.75,0,0,1,64.14,62Z"/><path class="cls-5" d="M48.14,49.78a1,1,0,0,1-.86-1.51c1.94-3.26,6-1.84,8.36-1a12.34,12.34,0,0,0,1.65.51,1,1,0,0,1-.33,2,12.89,12.89,0,0,1-2-.6c-2.67-.94-5-1.59-6,.12A1,1,0,0,1,48.14,49.78Z"/><path class="cls-5" d="M64.14,71.78c-3,0-5.63-1.15-6.83-2.94A1,1,0,0,1,59,67.73c.82,1.23,2.9,2,5.17,2s4.35-.82,5.17-2A1,1,0,0,1,71,68.85C69.77,70.63,67.09,71.78,64.14,71.78Z"/><path class="cls-5" d="M80.12,49.78a1,1,0,0,1-.7-.29c-1.42-1.4-6.16-1.4-7.57,0a1,1,0,1,1-1.41-1.42c2.18-2.16,8.2-2.16,10.39,0a1,1,0,0,1-.7,1.71Z"/><g class="cls-3"><circle class="cls-13" cx="50.64" cy="64.61" r="3.5"/></g><g class="cls-3"><circle class="cls-13" cx="77.64" cy="64.61" r="3.5"/></g><circle class="cls-5" cx="52.64" cy="54.28" r="1.5"/><path class="cls-5" d="M52.64,56.78a2.5,2.5,0,1,1,2.5-2.5A2.5,2.5,0,0,1,52.64,56.78Zm0-3a.5.5,0,1,0,.5.5A.5.5,0,0,0,52.64,53.78Z"/><path class="cls-5" d="M48.14,54.78a1,1,0,0,1-.56-1.83c3.4-2.27,7.93-1.21,9.26.13a1,1,0,0,1-1.41,1.41c-.63-.63-4.12-1.62-6.74.13A1,1,0,0,1,48.14,54.78Z"/><path class="cls-5" d="M72.12,54.78a1,1,0,0,1-.45-1.89c3.38-1.69,6.41-1.67,9,.06a1,1,0,0,1-1.11,1.66c-2-1.34-4.23-1.32-7,.06A1,1,0,0,1,72.12,54.78Z"/></g></svg>