<?xml version="1.0" ?><svg data-name="004" id="_004" viewBox="0 0 128 128" xmlns="http://www.w3.org/2000/svg" xmlns:xlink="http://www.w3.org/1999/xlink"><defs><style>.cls-1{fill:#97c1ff;}.cls-2{fill:none;}.cls-3{opacity:0.3;}.cls-4{clip-path:url(#clip-path);}.cls-5{fill:#6d6daa;}.cls-6{clip-path:url(#clip-path-2);}.cls-7{fill:#fffad1;}.cls-8{fill:#cc7e54;}.cls-9{fill:#fff;}.cls-10{fill:#efdcd2;}.cls-11{fill:#ffd599;}.cls-12{fill:#f9e2dc;}.cls-13{fill:#ff9797;}.cls-14{fill:#96d7ff;}</style><clipPath id="clip-path"><circle class="cls-1" cx="63.94" cy="68" r="56"/></clipPath><clipPath id="clip-path-2"><path class="cls-2" d="M120.07,67.86a56.14,56.14,0,0,1-112.29,0C7.78,45.2,18.59,16,37.92,4,45-.4,55.57,0,63.92,0c9.38,0,23.23-.44,31,5C112.84,17.53,120.07,46.23,120.07,67.86Z"/></clipPath></defs><title/><g class="cls-3"><circle class="cls-1" cx="63.94" cy="68" r="56"/><g class="cls-4"><path class="cls-5" d="M2.94,4a2,2,0,1,1,2-2A2,2,0,0,1,2.94,4Zm0-2h0Z"/><path class="cls-5" d="M10.94,4a2,2,0,1,1,2-2A2,2,0,0,1,10.94,4Zm0-2h0Z"/><path class="cls-5" d="M18.94,4a2,2,0,1,1,2-2A2,2,0,0,1,18.94,4Zm0-2h0Z"/><path class="cls-5" d="M26.94,4a2,2,0,1,1,2-2A2,2,0,0,1,26.94,4Zm0-2h0Z"/><path class="cls-5" d="M34.94,4a2,2,0,1,1,2-2A2,2,0,0,1,34.94,4Zm0-2h0Z"/><path class="cls-5" d="M42.94,4a2,2,0,1,1,2-2A2,2,0,0,1,42.94,4Zm0-2h0Z"/><path class="cls-5" d="M50.94,4a2,2,0,1,1,2-2A2,2,0,0,1,50.94,4Zm0-2h0Z"/><path class="cls-5" d="M58.94,4a2,2,0,1,1,2-2A2,2,0,0,1,58.94,4Zm0-2h0Z"/><path class="cls-5" d="M66.94,4a2,2,0,1,1,2-2A2,2,0,0,1,66.94,4Zm0-2h0Z"/><path class="cls-5" d="M74.94,4a2,2,0,1,1,2-2A2,2,0,0,1,74.94,4Zm0-2h0Z"/><path class="cls-5" d="M82.94,4a2,2,0,1,1,2-2A2,2,0,0,1,82.94,4Zm0-2h0Z"/><path class="cls-5" d="M90.94,4a2,2,0,1,1,2-2A2,2,0,0,1,90.94,4Zm0-2h0Z"/><path class="cls-5" d="M98.94,4a2,2,0,1,1,2-2A2,2,0,0,1,98.94,4Zm0-2h0Z"/><path class="cls-5" d="M106.94,4a2,2,0,1,1,2-2A2,2,0,0,1,106.94,4Zm0-2h0Z"/><path class="cls-5" d="M114.94,4a2,2,0,1,1,2-2A2,2,0,0,1,114.94,4Zm0-2h0Z"/><path class="cls-5" d="M122.94,4a2,2,0,1,1,2-2A2,2,0,0,1,122.94,4Zm0-2h0Z"/><path class="cls-5" d="M6.94,10a2,2,0,1,1,2-2A2,2,0,0,1,6.94,10Zm0-2h0Z"/><path class="cls-5" d="M14.94,10a2,2,0,1,1,2-2A2,2,0,0,1,14.94,10Zm0-2h0Z"/><path class="cls-5" d="M22.94,10a2,2,0,1,1,2-2A2,2,0,0,1,22.94,10Zm0-2h0Z"/><path class="cls-5" d="M30.94,10a2,2,0,1,1,2-2A2,2,0,0,1,30.94,10Zm0-2h0Z"/><path class="cls-5" d="M38.94,10a2,2,0,1,1,2-2A2,2,0,0,1,38.94,10Zm0-2h0Z"/><path class="cls-5" d="M46.94,10a2,2,0,1,1,2-2A2,2,0,0,1,46.94,10Zm0-2h0Z"/><path class="cls-5" d="M54.94,10a2,2,0,1,1,2-2A2,2,0,0,1,54.94,10Zm0-2h0Z"/><path class="cls-5" d="M62.94,10a2,2,0,1,1,2-2A2,2,0,0,1,62.94,10Zm0-2h0Z"/><path class="cls-5" d="M70.94,10a2,2,0,1,1,2-2A2,2,0,0,1,70.94,10Zm0-2h0Z"/><path class="cls-5" d="M78.94,10a2,2,0,1,1,2-2A2,2,0,0,1,78.94,10Zm0-2h0Z"/><path class="cls-5" d="M86.94,10a2,2,0,1,1,2-2A2,2,0,0,1,86.94,10Zm0-2h0Z"/><path class="cls-5" d="M94.94,10a2,2,0,1,1,2-2A2,2,0,0,1,94.94,10Zm0-2h0Z"/><path class="cls-5" d="M102.94,10a2,2,0,1,1,2-2A2,2,0,0,1,102.94,10Zm0-2h0Z"/><path class="cls-5" d="M110.94,10a2,2,0,1,1,2-2A2,2,0,0,1,110.94,10Zm0-2h0Z"/><path class="cls-5" d="M118.94,10a2,2,0,1,1,2-2A2,2,0,0,1,118.94,10Zm0-2h0Z"/><path class="cls-5" d="M126.94,10a2,2,0,1,1,2-2A2,2,0,0,1,126.94,10Zm0-2h0Z"/><path class="cls-5" d="M2.94,16a2,2,0,1,1,2-2A2,2,0,0,1,2.94,16Zm0-2h0Z"/><path class="cls-5" d="M10.94,16a2,2,0,1,1,2-2A2,2,0,0,1,10.94,16Zm0-2h0Z"/><path class="cls-5" d="M18.94,16a2,2,0,1,1,2-2A2,2,0,0,1,18.94,16Zm0-2h0Z"/><path class="cls-5" d="M26.94,16a2,2,0,1,1,2-2A2,2,0,0,1,26.94,16Zm0-2h0Z"/><path class="cls-5" d="M34.94,16a2,2,0,1,1,2-2A2,2,0,0,1,34.94,16Zm0-2h0Z"/><path class="cls-5" d="M42.94,16a2,2,0,1,1,2-2A2,2,0,0,1,42.94,16Zm0-2h0Z"/><path class="cls-5" d="M50.94,16a2,2,0,1,1,2-2A2,2,0,0,1,50.94,16Zm0-2h0Z"/><path class="cls-5" d="M58.94,16a2,2,0,1,1,2-2A2,2,0,0,1,58.94,16Zm0-2h0Z"/><path class="cls-5" d="M66.94,16a2,2,0,1,1,2-2A2,2,0,0,1,66.94,16Zm0-2h0Z"/><path class="cls-5" d="M74.94,16a2,2,0,1,1,2-2A2,2,0,0,1,74.94,16Zm0-2h0Z"/><path class="cls-5" d="M82.94,16a2,2,0,1,1,2-2A2,2,0,0,1,82.94,16Zm0-2h0Z"/><path class="cls-5" d="M90.94,16a2,2,0,1,1,2-2A2,2,0,0,1,90.94,16Zm0-2h0Z"/><path class="cls-5" d="M98.94,16a2,2,0,1,1,2-2A2,2,0,0,1,98.94,16Zm0-2h0Z"/><path class="cls-5" d="M106.94,16a2,2,0,1,1,2-2A2,2,0,0,1,106.94,16Zm0-2h0Z"/><path class="cls-5" d="M114.94,16a2,2,0,1,1,2-2A2,2,0,0,1,114.94,16Zm0-2h0Z"/><path class="cls-5" d="M122.94,16a2,2,0,1,1,2-2A2,2,0,0,1,122.94,16Zm0-2h0Z"/><path class="cls-5" d="M6.94,22a2,2,0,1,1,2-2A2,2,0,0,1,6.94,22Zm0-2h0Z"/><path class="cls-5" d="M14.94,22a2,2,0,1,1,2-2A2,2,0,0,1,14.94,22Zm0-2h0Z"/><path class="cls-5" d="M22.94,22a2,2,0,1,1,2-2A2,2,0,0,1,22.94,22Zm0-2h0Z"/><path class="cls-5" d="M30.94,22a2,2,0,1,1,2-2A2,2,0,0,1,30.94,22Zm0-2h0Z"/><path class="cls-5" d="M38.94,22a2,2,0,1,1,2-2A2,2,0,0,1,38.94,22Zm0-2h0Z"/><path class="cls-5" d="M46.94,22a2,2,0,1,1,2-2A2,2,0,0,1,46.94,22Zm0-2h0Z"/><path class="cls-5" d="M54.94,22a2,2,0,1,1,2-2A2,2,0,0,1,54.94,22Zm0-2h0Z"/><path class="cls-5" d="M62.94,22a2,2,0,1,1,2-2A2,2,0,0,1,62.94,22Zm0-2h0Z"/><path class="cls-5" d="M70.94,22a2,2,0,1,1,2-2A2,2,0,0,1,70.94,22Zm0-2h0Z"/><path class="cls-5" d="M78.94,22a2,2,0,1,1,2-2A2,2,0,0,1,78.94,22Zm0-2h0Z"/><path class="cls-5" d="M86.94,22a2,2,0,1,1,2-2A2,2,0,0,1,86.94,22Zm0-2h0Z"/><path class="cls-5" d="M94.94,22a2,2,0,1,1,2-2A2,2,0,0,1,94.94,22Zm0-2h0Z"/><path class="cls-5" d="M102.94,22a2,2,0,1,1,2-2A2,2,0,0,1,102.94,22Zm0-2h0Z"/><path class="cls-5" d="M110.94,22a2,2,0,1,1,2-2A2,2,0,0,1,110.94,22Zm0-2h0Z"/><path class="cls-5" d="M118.94,22a2,2,0,1,1,2-2A2,2,0,0,1,118.94,22Zm0-2h0Z"/><path class="cls-5" d="M126.94,22a2,2,0,1,1,2-2A2,2,0,0,1,126.94,22Zm0-2h0Z"/><path class="cls-5" d="M2.94,28a2,2,0,1,1,2-2A2,2,0,0,1,2.94,28Zm0-2h0Z"/><path class="cls-5" d="M10.94,28a2,2,0,1,1,2-2A2,2,0,0,1,10.94,28Zm0-2h0Z"/><path class="cls-5" d="M18.94,28a2,2,0,1,1,2-2A2,2,0,0,1,18.94,28Zm0-2h0Z"/><path class="cls-5" d="M26.94,28a2,2,0,1,1,2-2A2,2,0,0,1,26.94,28Zm0-2h0Z"/><path class="cls-5" d="M34.94,28a2,2,0,1,1,2-2A2,2,0,0,1,34.94,28Zm0-2h0Z"/><path class="cls-5" d="M42.94,28a2,2,0,1,1,2-2A2,2,0,0,1,42.94,28Zm0-2h0Z"/><path class="cls-5" d="M50.94,28a2,2,0,1,1,2-2A2,2,0,0,1,50.94,28Zm0-2h0Z"/><path class="cls-5" d="M58.94,28a2,2,0,1,1,2-2A2,2,0,0,1,58.94,28Zm0-2h0Z"/><path class="cls-5" d="M66.94,28a2,2,0,1,1,2-2A2,2,0,0,1,66.94,28Zm0-2h0Z"/><path class="cls-5" d="M74.94,28a2,2,0,1,1,2-2A2,2,0,0,1,74.94,28Zm0-2h0Z"/><path class="cls-5" d="M82.94,28a2,2,0,1,1,2-2A2,2,0,0,1,82.94,28Zm0-2h0Z"/><path class="cls-5" d="M90.94,28a2,2,0,1,1,2-2A2,2,0,0,1,90.94,28Zm0-2h0Z"/><path class="cls-5" d="M98.94,28a2,2,0,1,1,2-2A2,2,0,0,1,98.94,28Zm0-2h0Z"/><path class="cls-5" d="M106.94,28a2,2,0,1,1,2-2A2,2,0,0,1,106.94,28Zm0-2h0Z"/><path class="cls-5" d="M114.94,28a2,2,0,1,1,2-2A2,2,0,0,1,114.94,28Zm0-2h0Z"/><path class="cls-5" d="M122.94,28a2,2,0,1,1,2-2A2,2,0,0,1,122.94,28Zm0-2h0Z"/><path class="cls-5" d="M6.94,34a2,2,0,1,1,2-2A2,2,0,0,1,6.94,34Zm0-2h0Z"/><path class="cls-5" d="M14.94,34a2,2,0,1,1,2-2A2,2,0,0,1,14.94,34Zm0-2h0Z"/><path class="cls-5" d="M22.94,34a2,2,0,1,1,2-2A2,2,0,0,1,22.94,34Zm0-2h0Z"/><path class="cls-5" d="M30.94,34a2,2,0,1,1,2-2A2,2,0,0,1,30.94,34Zm0-2h0Z"/><path class="cls-5" d="M38.94,34a2,2,0,1,1,2-2A2,2,0,0,1,38.94,34Zm0-2h0Z"/><path class="cls-5" d="M46.94,34a2,2,0,1,1,2-2A2,2,0,0,1,46.94,34Zm0-2h0Z"/><path class="cls-5" d="M54.94,34a2,2,0,1,1,2-2A2,2,0,0,1,54.94,34Zm0-2h0Z"/><path class="cls-5" d="M62.94,34a2,2,0,1,1,2-2A2,2,0,0,1,62.94,34Zm0-2h0Z"/><path class="cls-5" d="M70.94,34a2,2,0,1,1,2-2A2,2,0,0,1,70.94,34Zm0-2h0Z"/><path class="cls-5" d="M78.94,34a2,2,0,1,1,2-2A2,2,0,0,1,78.94,34Zm0-2h0Z"/><path class="cls-5" d="M86.94,34a2,2,0,1,1,2-2A2,2,0,0,1,86.94,34Zm0-2h0Z"/><path class="cls-5" d="M94.94,34a2,2,0,1,1,2-2A2,2,0,0,1,94.94,34Zm0-2h0Z"/><path class="cls-5" d="M102.94,34a2,2,0,1,1,2-2A2,2,0,0,1,102.94,34Zm0-2h0Z"/><path class="cls-5" d="M110.94,34a2,2,0,1,1,2-2A2,2,0,0,1,110.94,34Zm0-2h0Z"/><path class="cls-5" d="M118.94,34a2,2,0,1,1,2-2A2,2,0,0,1,118.94,34Zm0-2h0Z"/><path class="cls-5" d="M126.94,34a2,2,0,1,1,2-2A2,2,0,0,1,126.94,34Zm0-2h0Z"/><path class="cls-5" d="M2.94,40a2,2,0,1,1,2-2A2,2,0,0,1,2.94,40Zm0-2h0Z"/><path class="cls-5" d="M10.94,40a2,2,0,1,1,2-2A2,2,0,0,1,10.94,40Zm0-2h0Z"/><path class="cls-5" d="M18.94,40a2,2,0,1,1,2-2A2,2,0,0,1,18.94,40Zm0-2h0Z"/><path class="cls-5" d="M26.94,40a2,2,0,1,1,2-2A2,2,0,0,1,26.94,40Zm0-2h0Z"/><path class="cls-5" d="M34.94,40a2,2,0,1,1,2-2A2,2,0,0,1,34.94,40Zm0-2h0Z"/><path class="cls-5" d="M42.94,40a2,2,0,1,1,2-2A2,2,0,0,1,42.94,40Zm0-2h0Z"/><path class="cls-5" d="M50.94,40a2,2,0,1,1,2-2A2,2,0,0,1,50.94,40Zm0-2h0Z"/><path class="cls-5" d="M58.94,40a2,2,0,1,1,2-2A2,2,0,0,1,58.94,40Zm0-2h0Z"/><path class="cls-5" d="M66.94,40a2,2,0,1,1,2-2A2,2,0,0,1,66.94,40Zm0-2h0Z"/><path class="cls-5" d="M74.94,40a2,2,0,1,1,2-2A2,2,0,0,1,74.94,40Zm0-2h0Z"/><path class="cls-5" d="M82.94,40a2,2,0,1,1,2-2A2,2,0,0,1,82.94,40Zm0-2h0Z"/><path class="cls-5" d="M90.94,40a2,2,0,1,1,2-2A2,2,0,0,1,90.94,40Zm0-2h0Z"/><path class="cls-5" d="M98.94,40a2,2,0,1,1,2-2A2,2,0,0,1,98.94,40Zm0-2h0Z"/><path class="cls-5" d="M106.94,40a2,2,0,1,1,2-2A2,2,0,0,1,106.94,40Zm0-2h0Z"/><path class="cls-5" d="M114.94,40a2,2,0,1,1,2-2A2,2,0,0,1,114.94,40Zm0-2h0Z"/><path class="cls-5" d="M122.94,40a2,2,0,1,1,2-2A2,2,0,0,1,122.94,40Zm0-2h0Z"/><path class="cls-5" d="M6.94,46a2,2,0,1,1,2-2A2,2,0,0,1,6.94,46Zm0-2h0Z"/><path class="cls-5" d="M14.94,46a2,2,0,1,1,2-2A2,2,0,0,1,14.94,46Zm0-2h0Z"/><path class="cls-5" d="M22.94,46a2,2,0,1,1,2-2A2,2,0,0,1,22.94,46Zm0-2h0Z"/><path class="cls-5" d="M30.94,46a2,2,0,1,1,2-2A2,2,0,0,1,30.94,46Zm0-2h0Z"/><path class="cls-5" d="M38.94,46a2,2,0,1,1,2-2A2,2,0,0,1,38.94,46Zm0-2h0Z"/><path class="cls-5" d="M46.94,46a2,2,0,1,1,2-2A2,2,0,0,1,46.94,46Zm0-2h0Z"/><path class="cls-5" d="M54.94,46a2,2,0,1,1,2-2A2,2,0,0,1,54.94,46Zm0-2h0Z"/><path class="cls-5" d="M62.94,46a2,2,0,1,1,2-2A2,2,0,0,1,62.94,46Zm0-2h0Z"/><path class="cls-5" d="M70.94,46a2,2,0,1,1,2-2A2,2,0,0,1,70.94,46Zm0-2h0Z"/><path class="cls-5" d="M78.94,46a2,2,0,1,1,2-2A2,2,0,0,1,78.94,46Zm0-2h0Z"/><path class="cls-5" d="M86.94,46a2,2,0,1,1,2-2A2,2,0,0,1,86.94,46Zm0-2h0Z"/><path class="cls-5" d="M94.94,46a2,2,0,1,1,2-2A2,2,0,0,1,94.94,46Zm0-2h0Z"/><path class="cls-5" d="M102.94,46a2,2,0,1,1,2-2A2,2,0,0,1,102.94,46Zm0-2h0Z"/><path class="cls-5" d="M110.94,46a2,2,0,1,1,2-2A2,2,0,0,1,110.94,46Zm0-2h0Z"/><path class="cls-5" d="M118.94,46a2,2,0,1,1,2-2A2,2,0,0,1,118.94,46Zm0-2h0Z"/><path class="cls-5" d="M126.94,46a2,2,0,1,1,2-2A2,2,0,0,1,126.94,46Zm0-2h0Z"/><path class="cls-5" d="M2.94,52a2,2,0,1,1,2-2A2,2,0,0,1,2.94,52Zm0-2h0Z"/><path class="cls-5" d="M10.94,52a2,2,0,1,1,2-2A2,2,0,0,1,10.94,52Zm0-2h0Z"/><path class="cls-5" d="M18.94,52a2,2,0,1,1,2-2A2,2,0,0,1,18.94,52Zm0-2h0Z"/><path class="cls-5" d="M26.94,52a2,2,0,1,1,2-2A2,2,0,0,1,26.94,52Zm0-2h0Z"/><path class="cls-5" d="M34.94,52a2,2,0,1,1,2-2A2,2,0,0,1,34.94,52Zm0-2h0Z"/><path class="cls-5" d="M42.94,52a2,2,0,1,1,2-2A2,2,0,0,1,42.94,52Zm0-2h0Z"/><path class="cls-5" d="M50.94,52a2,2,0,1,1,2-2A2,2,0,0,1,50.94,52Zm0-2h0Z"/><path class="cls-5" d="M58.94,52a2,2,0,1,1,2-2A2,2,0,0,1,58.94,52Zm0-2h0Z"/><path class="cls-5" d="M66.94,52a2,2,0,1,1,2-2A2,2,0,0,1,66.94,52Zm0-2h0Z"/><path class="cls-5" d="M74.94,52a2,2,0,1,1,2-2A2,2,0,0,1,74.94,52Zm0-2h0Z"/><path class="cls-5" d="M82.94,52a2,2,0,1,1,2-2A2,2,0,0,1,82.94,52Zm0-2h0Z"/><path class="cls-5" d="M90.94,52a2,2,0,1,1,2-2A2,2,0,0,1,90.94,52Zm0-2h0Z"/><path class="cls-5" d="M98.94,52a2,2,0,1,1,2-2A2,2,0,0,1,98.94,52Zm0-2h0Z"/><path class="cls-5" d="M106.94,52a2,2,0,1,1,2-2A2,2,0,0,1,106.94,52Zm0-2h0Z"/><path class="cls-5" d="M114.94,52a2,2,0,1,1,2-2A2,2,0,0,1,114.94,52Zm0-2h0Z"/><path class="cls-5" d="M122.94,52a2,2,0,1,1,2-2A2,2,0,0,1,122.94,52Zm0-2h0Z"/><path class="cls-5" d="M6.94,58a2,2,0,1,1,2-2A2,2,0,0,1,6.94,58Zm0-2h0Z"/><path class="cls-5" d="M14.94,58a2,2,0,1,1,2-2A2,2,0,0,1,14.94,58Zm0-2h0Z"/><path class="cls-5" d="M22.94,58a2,2,0,1,1,2-2A2,2,0,0,1,22.94,58Zm0-2h0Z"/><path class="cls-5" d="M30.94,58a2,2,0,1,1,2-2A2,2,0,0,1,30.94,58Zm0-2h0Z"/><path class="cls-5" d="M38.94,58a2,2,0,1,1,2-2A2,2,0,0,1,38.94,58Zm0-2h0Z"/><path class="cls-5" d="M46.94,58a2,2,0,1,1,2-2A2,2,0,0,1,46.94,58Zm0-2h0Z"/><path class="cls-5" d="M54.94,58a2,2,0,1,1,2-2A2,2,0,0,1,54.94,58Zm0-2h0Z"/><path class="cls-5" d="M62.94,58a2,2,0,1,1,2-2A2,2,0,0,1,62.94,58Zm0-2h0Z"/><path class="cls-5" d="M70.94,58a2,2,0,1,1,2-2A2,2,0,0,1,70.94,58Zm0-2h0Z"/><path class="cls-5" d="M78.94,58a2,2,0,1,1,2-2A2,2,0,0,1,78.94,58Zm0-2h0Z"/><path class="cls-5" d="M86.94,58a2,2,0,1,1,2-2A2,2,0,0,1,86.94,58Zm0-2h0Z"/><path class="cls-5" d="M94.94,58a2,2,0,1,1,2-2A2,2,0,0,1,94.94,58Zm0-2h0Z"/><path class="cls-5" d="M102.94,58a2,2,0,1,1,2-2A2,2,0,0,1,102.94,58Zm0-2h0Z"/><path class="cls-5" d="M110.94,58a2,2,0,1,1,2-2A2,2,0,0,1,110.94,58Zm0-2h0Z"/><path class="cls-5" d="M118.94,58a2,2,0,1,1,2-2A2,2,0,0,1,118.94,58Zm0-2h0Z"/><path class="cls-5" d="M126.94,58a2,2,0,1,1,2-2A2,2,0,0,1,126.94,58Zm0-2h0Z"/><path class="cls-5" d="M2.94,64a2,2,0,1,1,2-2A2,2,0,0,1,2.94,64Zm0-2h0Z"/><path class="cls-5" d="M10.94,64a2,2,0,1,1,2-2A2,2,0,0,1,10.94,64Zm0-2h0Z"/><path class="cls-5" d="M18.94,64a2,2,0,1,1,2-2A2,2,0,0,1,18.94,64Zm0-2h0Z"/><path class="cls-5" d="M26.94,64a2,2,0,1,1,2-2A2,2,0,0,1,26.94,64Zm0-2h0Z"/><path class="cls-5" d="M34.94,64a2,2,0,1,1,2-2A2,2,0,0,1,34.94,64Zm0-2h0Z"/><path class="cls-5" d="M42.94,64a2,2,0,1,1,2-2A2,2,0,0,1,42.94,64Zm0-2h0Z"/><path class="cls-5" d="M50.94,64a2,2,0,1,1,2-2A2,2,0,0,1,50.94,64Zm0-2h0Z"/><path class="cls-5" d="M58.94,64a2,2,0,1,1,2-2A2,2,0,0,1,58.94,64Zm0-2h0Z"/><path class="cls-5" d="M66.94,64a2,2,0,1,1,2-2A2,2,0,0,1,66.94,64Zm0-2h0Z"/><path class="cls-5" d="M74.94,64a2,2,0,1,1,2-2A2,2,0,0,1,74.94,64Zm0-2h0Z"/><path class="cls-5" d="M82.94,64a2,2,0,1,1,2-2A2,2,0,0,1,82.94,64Zm0-2h0Z"/><path class="cls-5" d="M90.94,64a2,2,0,1,1,2-2A2,2,0,0,1,90.94,64Zm0-2h0Z"/><path class="cls-5" d="M98.94,64a2,2,0,1,1,2-2A2,2,0,0,1,98.94,64Zm0-2h0Z"/><path class="cls-5" d="M106.94,64a2,2,0,1,1,2-2A2,2,0,0,1,106.94,64Zm0-2h0Z"/><path class="cls-5" d="M114.94,64a2,2,0,1,1,2-2A2,2,0,0,1,114.94,64Zm0-2h0Z"/><path class="cls-5" d="M122.94,64a2,2,0,1,1,2-2A2,2,0,0,1,122.94,64Zm0-2h0Z"/><path class="cls-5" d="M6.94,70a2,2,0,1,1,2-2A2,2,0,0,1,6.94,70Zm0-2h0Z"/><path class="cls-5" d="M14.94,70a2,2,0,1,1,2-2A2,2,0,0,1,14.94,70Zm0-2h0Z"/><path class="cls-5" d="M22.94,70a2,2,0,1,1,2-2A2,2,0,0,1,22.94,70Zm0-2h0Z"/><path class="cls-5" d="M30.94,70a2,2,0,1,1,2-2A2,2,0,0,1,30.94,70Zm0-2h0Z"/><path class="cls-5" d="M38.94,70a2,2,0,1,1,2-2A2,2,0,0,1,38.94,70Zm0-2h0Z"/><path class="cls-5" d="M46.94,70a2,2,0,1,1,2-2A2,2,0,0,1,46.94,70Zm0-2h0Z"/><path class="cls-5" d="M54.94,70a2,2,0,1,1,2-2A2,2,0,0,1,54.94,70Zm0-2h0Z"/><path class="cls-5" d="M62.94,70a2,2,0,1,1,2-2A2,2,0,0,1,62.94,70Zm0-2h0Z"/><path class="cls-5" d="M70.94,70a2,2,0,1,1,2-2A2,2,0,0,1,70.94,70Zm0-2h0Z"/><path class="cls-5" d="M78.94,70a2,2,0,1,1,2-2A2,2,0,0,1,78.94,70Zm0-2h0Z"/><path class="cls-5" d="M86.94,70a2,2,0,1,1,2-2A2,2,0,0,1,86.94,70Zm0-2h0Z"/><path class="cls-5" d="M94.94,70a2,2,0,1,1,2-2A2,2,0,0,1,94.94,70Zm0-2h0Z"/><path class="cls-5" d="M102.94,70a2,2,0,1,1,2-2A2,2,0,0,1,102.94,70Zm0-2h0Z"/><path class="cls-5" d="M110.94,70a2,2,0,1,1,2-2A2,2,0,0,1,110.94,70Zm0-2h0Z"/><path class="cls-5" d="M118.94,70a2,2,0,1,1,2-2A2,2,0,0,1,118.94,70Zm0-2h0Z"/><path class="cls-5" d="M126.94,70a2,2,0,1,1,2-2A2,2,0,0,1,126.94,70Zm0-2h0Z"/><path class="cls-5" d="M2.94,76a2,2,0,1,1,2-2A2,2,0,0,1,2.94,76Zm0-2h0Z"/><path class="cls-5" d="M10.94,76a2,2,0,1,1,2-2A2,2,0,0,1,10.94,76Zm0-2h0Z"/><path class="cls-5" d="M18.94,76a2,2,0,1,1,2-2A2,2,0,0,1,18.94,76Zm0-2h0Z"/><path class="cls-5" d="M26.94,76a2,2,0,1,1,2-2A2,2,0,0,1,26.94,76Zm0-2h0Z"/><path class="cls-5" d="M34.94,76a2,2,0,1,1,2-2A2,2,0,0,1,34.94,76Zm0-2h0Z"/><path class="cls-5" d="M42.94,76a2,2,0,1,1,2-2A2,2,0,0,1,42.94,76Zm0-2h0Z"/><path class="cls-5" d="M50.94,76a2,2,0,1,1,2-2A2,2,0,0,1,50.94,76Zm0-2h0Z"/><path class="cls-5" d="M58.94,76a2,2,0,1,1,2-2A2,2,0,0,1,58.94,76Zm0-2h0Z"/><path class="cls-5" d="M66.94,76a2,2,0,1,1,2-2A2,2,0,0,1,66.94,76Zm0-2h0Z"/><path class="cls-5" d="M74.94,76a2,2,0,1,1,2-2A2,2,0,0,1,74.94,76Zm0-2h0Z"/><path class="cls-5" d="M82.94,76a2,2,0,1,1,2-2A2,2,0,0,1,82.94,76Zm0-2h0Z"/><path class="cls-5" d="M90.94,76a2,2,0,1,1,2-2A2,2,0,0,1,90.94,76Zm0-2h0Z"/><path class="cls-5" d="M98.94,76a2,2,0,1,1,2-2A2,2,0,0,1,98.94,76Zm0-2h0Z"/><path class="cls-5" d="M106.94,76a2,2,0,1,1,2-2A2,2,0,0,1,106.94,76Zm0-2h0Z"/><path class="cls-5" d="M114.94,76a2,2,0,1,1,2-2A2,2,0,0,1,114.94,76Zm0-2h0Z"/><path class="cls-5" d="M122.94,76a2,2,0,1,1,2-2A2,2,0,0,1,122.94,76Zm0-2h0Z"/><path class="cls-5" d="M6.94,82a2,2,0,1,1,2-2A2,2,0,0,1,6.94,82Zm0-2h0Z"/><path class="cls-5" d="M14.94,82a2,2,0,1,1,2-2A2,2,0,0,1,14.94,82Zm0-2h0Z"/><path class="cls-5" d="M22.94,82a2,2,0,1,1,2-2A2,2,0,0,1,22.94,82Zm0-2h0Z"/><path class="cls-5" d="M30.94,82a2,2,0,1,1,2-2A2,2,0,0,1,30.94,82Zm0-2h0Z"/><path class="cls-5" d="M38.94,82a2,2,0,1,1,2-2A2,2,0,0,1,38.94,82Zm0-2h0Z"/><path class="cls-5" d="M46.94,82a2,2,0,1,1,2-2A2,2,0,0,1,46.94,82Zm0-2h0Z"/><path class="cls-5" d="M54.94,82a2,2,0,1,1,2-2A2,2,0,0,1,54.94,82Zm0-2h0Z"/><path class="cls-5" d="M62.94,82a2,2,0,1,1,2-2A2,2,0,0,1,62.94,82Zm0-2h0Z"/><path class="cls-5" d="M70.94,82a2,2,0,1,1,2-2A2,2,0,0,1,70.94,82Zm0-2h0Z"/><path class="cls-5" d="M78.94,82a2,2,0,1,1,2-2A2,2,0,0,1,78.94,82Zm0-2h0Z"/><path class="cls-5" d="M86.94,82a2,2,0,1,1,2-2A2,2,0,0,1,86.94,82Zm0-2h0Z"/><path class="cls-5" d="M94.94,82a2,2,0,1,1,2-2A2,2,0,0,1,94.94,82Zm0-2h0Z"/><path class="cls-5" d="M102.94,82a2,2,0,1,1,2-2A2,2,0,0,1,102.94,82Zm0-2h0Z"/><path class="cls-5" d="M110.94,82a2,2,0,1,1,2-2A2,2,0,0,1,110.94,82Zm0-2h0Z"/><path class="cls-5" d="M118.94,82a2,2,0,1,1,2-2A2,2,0,0,1,118.94,82Zm0-2h0Z"/><path class="cls-5" d="M126.94,82a2,2,0,1,1,2-2A2,2,0,0,1,126.94,82Zm0-2h0Z"/><path class="cls-5" d="M2.94,88a2,2,0,1,1,2-2A2,2,0,0,1,2.94,88Zm0-2h0Z"/><path class="cls-5" d="M10.94,88a2,2,0,1,1,2-2A2,2,0,0,1,10.94,88Zm0-2h0Z"/><path class="cls-5" d="M18.94,88a2,2,0,1,1,2-2A2,2,0,0,1,18.94,88Zm0-2h0Z"/><path class="cls-5" d="M26.94,88a2,2,0,1,1,2-2A2,2,0,0,1,26.94,88Zm0-2h0Z"/><path class="cls-5" d="M34.94,88a2,2,0,1,1,2-2A2,2,0,0,1,34.94,88Zm0-2h0Z"/><path class="cls-5" d="M42.94,88a2,2,0,1,1,2-2A2,2,0,0,1,42.94,88Zm0-2h0Z"/><path class="cls-5" d="M50.94,88a2,2,0,1,1,2-2A2,2,0,0,1,50.94,88Zm0-2h0Z"/><path class="cls-5" d="M58.94,88a2,2,0,1,1,2-2A2,2,0,0,1,58.94,88Zm0-2h0Z"/><path class="cls-5" d="M66.94,88a2,2,0,1,1,2-2A2,2,0,0,1,66.94,88Zm0-2h0Z"/><path class="cls-5" d="M74.94,88a2,2,0,1,1,2-2A2,2,0,0,1,74.94,88Zm0-2h0Z"/><path class="cls-5" d="M82.94,88a2,2,0,1,1,2-2A2,2,0,0,1,82.94,88Zm0-2h0Z"/><path class="cls-5" d="M90.94,88a2,2,0,1,1,2-2A2,2,0,0,1,90.94,88Zm0-2h0Z"/><path class="cls-5" d="M98.94,88a2,2,0,1,1,2-2A2,2,0,0,1,98.94,88Zm0-2h0Z"/><path class="cls-5" d="M106.94,88a2,2,0,1,1,2-2A2,2,0,0,1,106.94,88Zm0-2h0Z"/><path class="cls-5" d="M114.94,88a2,2,0,1,1,2-2A2,2,0,0,1,114.94,88Zm0-2h0Z"/><path class="cls-5" d="M122.94,88a2,2,0,1,1,2-2A2,2,0,0,1,122.94,88Zm0-2h0Z"/><path class="cls-5" d="M6.94,94a2,2,0,1,1,2-2A2,2,0,0,1,6.94,94Zm0-2h0Z"/><path class="cls-5" d="M14.94,94a2,2,0,1,1,2-2A2,2,0,0,1,14.94,94Zm0-2h0Z"/><path class="cls-5" d="M22.94,94a2,2,0,1,1,2-2A2,2,0,0,1,22.94,94Zm0-2h0Z"/><path class="cls-5" d="M30.94,94a2,2,0,1,1,2-2A2,2,0,0,1,30.94,94Zm0-2h0Z"/><path class="cls-5" d="M38.94,94a2,2,0,1,1,2-2A2,2,0,0,1,38.94,94Zm0-2h0Z"/><path class="cls-5" d="M46.94,94a2,2,0,1,1,2-2A2,2,0,0,1,46.94,94Zm0-2h0Z"/><path class="cls-5" d="M54.94,94a2,2,0,1,1,2-2A2,2,0,0,1,54.94,94Zm0-2h0Z"/><path class="cls-5" d="M62.94,94a2,2,0,1,1,2-2A2,2,0,0,1,62.94,94Zm0-2h0Z"/><path class="cls-5" d="M70.94,94a2,2,0,1,1,2-2A2,2,0,0,1,70.94,94Zm0-2h0Z"/><path class="cls-5" d="M78.94,94a2,2,0,1,1,2-2A2,2,0,0,1,78.94,94Zm0-2h0Z"/><path class="cls-5" d="M86.94,94a2,2,0,1,1,2-2A2,2,0,0,1,86.94,94Zm0-2h0Z"/><path class="cls-5" d="M94.94,94a2,2,0,1,1,2-2A2,2,0,0,1,94.94,94Zm0-2h0Z"/><path class="cls-5" d="M102.94,94a2,2,0,1,1,2-2A2,2,0,0,1,102.94,94Zm0-2h0Z"/><path class="cls-5" d="M110.94,94a2,2,0,1,1,2-2A2,2,0,0,1,110.94,94Zm0-2h0Z"/><path class="cls-5" d="M118.94,94a2,2,0,1,1,2-2A2,2,0,0,1,118.94,94Zm0-2h0Z"/><path class="cls-5" d="M126.94,94a2,2,0,1,1,2-2A2,2,0,0,1,126.94,94Zm0-2h0Z"/><path class="cls-5" d="M2.94,100a2,2,0,1,1,2-2A2,2,0,0,1,2.94,100Zm0-2h0Z"/><path class="cls-5" d="M10.94,100a2,2,0,1,1,2-2A2,2,0,0,1,10.94,100Zm0-2h0Z"/><path class="cls-5" d="M18.94,100a2,2,0,1,1,2-2A2,2,0,0,1,18.94,100Zm0-2h0Z"/><path class="cls-5" d="M26.94,100a2,2,0,1,1,2-2A2,2,0,0,1,26.94,100Zm0-2h0Z"/><path class="cls-5" d="M34.94,100a2,2,0,1,1,2-2A2,2,0,0,1,34.94,100Zm0-2h0Z"/><path class="cls-5" d="M42.94,100a2,2,0,1,1,2-2A2,2,0,0,1,42.94,100Zm0-2h0Z"/><path class="cls-5" d="M50.94,100a2,2,0,1,1,2-2A2,2,0,0,1,50.94,100Zm0-2h0Z"/><path class="cls-5" d="M58.94,100a2,2,0,1,1,2-2A2,2,0,0,1,58.94,100Zm0-2h0Z"/><path class="cls-5" d="M66.94,100a2,2,0,1,1,2-2A2,2,0,0,1,66.94,100Zm0-2h0Z"/><path class="cls-5" d="M74.94,100a2,2,0,1,1,2-2A2,2,0,0,1,74.94,100Zm0-2h0Z"/><path class="cls-5" d="M82.94,100a2,2,0,1,1,2-2A2,2,0,0,1,82.94,100Zm0-2h0Z"/><path class="cls-5" d="M90.94,100a2,2,0,1,1,2-2A2,2,0,0,1,90.94,100Zm0-2h0Z"/><path class="cls-5" d="M98.94,100a2,2,0,1,1,2-2A2,2,0,0,1,98.94,100Zm0-2h0Z"/><path class="cls-5" d="M106.94,100a2,2,0,1,1,2-2A2,2,0,0,1,106.94,100Zm0-2h0Z"/><path class="cls-5" d="M114.94,100a2,2,0,1,1,2-2A2,2,0,0,1,114.94,100Zm0-2h0Z"/><path class="cls-5" d="M122.94,100a2,2,0,1,1,2-2A2,2,0,0,1,122.94,100Zm0-2h0Z"/><path class="cls-5" d="M6.94,106a2,2,0,1,1,2-2A2,2,0,0,1,6.94,106Zm0-2h0Z"/><path class="cls-5" d="M14.94,106a2,2,0,1,1,2-2A2,2,0,0,1,14.94,106Zm0-2h0Z"/><path class="cls-5" d="M22.94,106a2,2,0,1,1,2-2A2,2,0,0,1,22.94,106Zm0-2h0Z"/><path class="cls-5" d="M30.94,106a2,2,0,1,1,2-2A2,2,0,0,1,30.94,106Zm0-2h0Z"/><path class="cls-5" d="M38.94,106a2,2,0,1,1,2-2A2,2,0,0,1,38.94,106Zm0-2h0Z"/><path class="cls-5" d="M46.94,106a2,2,0,1,1,2-2A2,2,0,0,1,46.94,106Zm0-2h0Z"/><path class="cls-5" d="M54.94,106a2,2,0,1,1,2-2A2,2,0,0,1,54.94,106Zm0-2h0Z"/><path class="cls-5" d="M62.94,106a2,2,0,1,1,2-2A2,2,0,0,1,62.94,106Zm0-2h0Z"/><path class="cls-5" d="M70.94,106a2,2,0,1,1,2-2A2,2,0,0,1,70.94,106Zm0-2h0Z"/><path class="cls-5" d="M78.94,106a2,2,0,1,1,2-2A2,2,0,0,1,78.94,106Zm0-2h0Z"/><path class="cls-5" d="M86.94,106a2,2,0,1,1,2-2A2,2,0,0,1,86.94,106Zm0-2h0Z"/><path class="cls-5" d="M94.94,106a2,2,0,1,1,2-2A2,2,0,0,1,94.94,106Zm0-2h0Z"/><path class="cls-5" d="M102.94,106a2,2,0,1,1,2-2A2,2,0,0,1,102.94,106Zm0-2h0Z"/><path class="cls-5" d="M110.94,106a2,2,0,1,1,2-2A2,2,0,0,1,110.94,106Zm0-2h0Z"/><path class="cls-5" d="M118.94,106a2,2,0,1,1,2-2A2,2,0,0,1,118.94,106Zm0-2h0Z"/><path class="cls-5" d="M126.94,106a2,2,0,1,1,2-2A2,2,0,0,1,126.94,106Zm0-2h0Z"/><path class="cls-5" d="M2.94,112a2,2,0,1,1,2-2A2,2,0,0,1,2.94,112Zm0-2h0Z"/><path class="cls-5" d="M10.94,112a2,2,0,1,1,2-2A2,2,0,0,1,10.94,112Zm0-2h0Z"/><path class="cls-5" d="M18.94,112a2,2,0,1,1,2-2A2,2,0,0,1,18.94,112Zm0-2h0Z"/><path class="cls-5" d="M26.94,112a2,2,0,1,1,2-2A2,2,0,0,1,26.94,112Zm0-2h0Z"/><path class="cls-5" d="M34.94,112a2,2,0,1,1,2-2A2,2,0,0,1,34.94,112Zm0-2h0Z"/><path class="cls-5" d="M42.94,112a2,2,0,1,1,2-2A2,2,0,0,1,42.94,112Zm0-2h0Z"/><path class="cls-5" d="M50.94,112a2,2,0,1,1,2-2A2,2,0,0,1,50.94,112Zm0-2h0Z"/><path class="cls-5" d="M58.94,112a2,2,0,1,1,2-2A2,2,0,0,1,58.94,112Zm0-2h0Z"/><path class="cls-5" d="M66.94,112a2,2,0,1,1,2-2A2,2,0,0,1,66.94,112Zm0-2h0Z"/><path class="cls-5" d="M74.94,112a2,2,0,1,1,2-2A2,2,0,0,1,74.94,112Zm0-2h0Z"/><path class="cls-5" d="M82.94,112a2,2,0,1,1,2-2A2,2,0,0,1,82.94,112Zm0-2h0Z"/><path class="cls-5" d="M90.94,112a2,2,0,1,1,2-2A2,2,0,0,1,90.94,112Zm0-2h0Z"/><path class="cls-5" d="M98.94,112a2,2,0,1,1,2-2A2,2,0,0,1,98.94,112Zm0-2h0Z"/><path class="cls-5" d="M106.94,112a2,2,0,1,1,2-2A2,2,0,0,1,106.94,112Zm0-2h0Z"/><path class="cls-5" d="M114.94,112a2,2,0,1,1,2-2A2,2,0,0,1,114.94,112Zm0-2h0Z"/><path class="cls-5" d="M122.94,112a2,2,0,1,1,2-2A2,2,0,0,1,122.94,112Zm0-2h0Z"/><path class="cls-5" d="M6.94,118a2,2,0,1,1,2-2A2,2,0,0,1,6.94,118Zm0-2h0Z"/><path class="cls-5" d="M14.94,118a2,2,0,1,1,2-2A2,2,0,0,1,14.94,118Zm0-2h0Z"/><path class="cls-5" d="M22.94,118a2,2,0,1,1,2-2A2,2,0,0,1,22.94,118Zm0-2h0Z"/><path class="cls-5" d="M30.94,118a2,2,0,1,1,2-2A2,2,0,0,1,30.94,118Zm0-2h0Z"/><path class="cls-5" d="M38.94,118a2,2,0,1,1,2-2A2,2,0,0,1,38.94,118Zm0-2h0Z"/><path class="cls-5" d="M46.94,118a2,2,0,1,1,2-2A2,2,0,0,1,46.94,118Zm0-2h0Z"/><path class="cls-5" d="M54.94,118a2,2,0,1,1,2-2A2,2,0,0,1,54.94,118Zm0-2h0Z"/><path class="cls-5" d="M62.94,118a2,2,0,1,1,2-2A2,2,0,0,1,62.94,118Zm0-2h0Z"/><path class="cls-5" d="M70.94,118a2,2,0,1,1,2-2A2,2,0,0,1,70.94,118Zm0-2h0Z"/><path class="cls-5" d="M78.94,118a2,2,0,1,1,2-2A2,2,0,0,1,78.94,118Zm0-2h0Z"/><path class="cls-5" d="M86.94,118a2,2,0,1,1,2-2A2,2,0,0,1,86.94,118Zm0-2h0Z"/><path class="cls-5" d="M94.94,118a2,2,0,1,1,2-2A2,2,0,0,1,94.94,118Zm0-2h0Z"/><path class="cls-5" d="M102.94,118a2,2,0,1,1,2-2A2,2,0,0,1,102.94,118Zm0-2h0Z"/><path class="cls-5" d="M110.94,118a2,2,0,1,1,2-2A2,2,0,0,1,110.94,118Zm0-2h0Z"/><path class="cls-5" d="M118.94,118a2,2,0,1,1,2-2A2,2,0,0,1,118.94,118Zm0-2h0Z"/><path class="cls-5" d="M126.94,118a2,2,0,1,1,2-2A2,2,0,0,1,126.94,118Zm0-2h0Z"/><path class="cls-5" d="M2.94,124a2,2,0,1,1,2-2A2,2,0,0,1,2.94,124Zm0-2h0Z"/><path class="cls-5" d="M10.94,124a2,2,0,1,1,2-2A2,2,0,0,1,10.94,124Zm0-2h0Z"/><path class="cls-5" d="M18.94,124a2,2,0,1,1,2-2A2,2,0,0,1,18.94,124Zm0-2h0Z"/><path class="cls-5" d="M26.94,124a2,2,0,1,1,2-2A2,2,0,0,1,26.94,124Zm0-2h0Z"/><path class="cls-5" d="M34.94,124a2,2,0,1,1,2-2A2,2,0,0,1,34.94,124Zm0-2h0Z"/><path class="cls-5" d="M42.94,124a2,2,0,1,1,2-2A2,2,0,0,1,42.94,124Zm0-2h0Z"/><path class="cls-5" d="M50.94,124a2,2,0,1,1,2-2A2,2,0,0,1,50.94,124Zm0-2h0Z"/><path class="cls-5" d="M58.94,124a2,2,0,1,1,2-2A2,2,0,0,1,58.94,124Zm0-2h0Z"/><path class="cls-5" d="M66.94,124a2,2,0,1,1,2-2A2,2,0,0,1,66.94,124Zm0-2h0Z"/><path class="cls-5" d="M74.94,124a2,2,0,1,1,2-2A2,2,0,0,1,74.94,124Zm0-2h0Z"/><path class="cls-5" d="M82.94,124a2,2,0,1,1,2-2A2,2,0,0,1,82.94,124Zm0-2h0Z"/><path class="cls-5" d="M90.94,124a2,2,0,1,1,2-2A2,2,0,0,1,90.94,124Zm0-2h0Z"/><path class="cls-5" d="M98.94,124a2,2,0,1,1,2-2A2,2,0,0,1,98.94,124Zm0-2h0Z"/><path class="cls-5" d="M106.94,124a2,2,0,1,1,2-2A2,2,0,0,1,106.94,124Zm0-2h0Z"/><path class="cls-5" d="M114.94,124a2,2,0,1,1,2-2A2,2,0,0,1,114.94,124Zm0-2h0Z"/><path class="cls-5" d="M122.94,124a2,2,0,1,1,2-2A2,2,0,0,1,122.94,124Zm0-2h0Z"/><path class="cls-5" d="M6.94,130a2,2,0,1,1,2-2A2,2,0,0,1,6.94,130Zm0-2h0Z"/><path class="cls-5" d="M14.94,130a2,2,0,1,1,2-2A2,2,0,0,1,14.94,130Zm0-2h0Z"/><path class="cls-5" d="M22.94,130a2,2,0,1,1,2-2A2,2,0,0,1,22.94,130Zm0-2h0Z"/><path class="cls-5" d="M30.94,130a2,2,0,1,1,2-2A2,2,0,0,1,30.94,130Zm0-2h0Z"/><path class="cls-5" d="M38.94,130a2,2,0,1,1,2-2A2,2,0,0,1,38.94,130Zm0-2h0Z"/><path class="cls-5" d="M46.94,130a2,2,0,1,1,2-2A2,2,0,0,1,46.94,130Zm0-2h0Z"/><path class="cls-5" d="M54.94,130a2,2,0,1,1,2-2A2,2,0,0,1,54.94,130Zm0-2h0Z"/><path class="cls-5" d="M62.94,130a2,2,0,1,1,2-2A2,2,0,0,1,62.94,130Zm0-2h0Z"/><path class="cls-5" d="M70.94,130a2,2,0,1,1,2-2A2,2,0,0,1,70.94,130Zm0-2h0Z"/><path class="cls-5" d="M78.94,130a2,2,0,1,1,2-2A2,2,0,0,1,78.94,130Zm0-2h0Z"/><path class="cls-5" d="M86.94,130a2,2,0,1,1,2-2A2,2,0,0,1,86.94,130Zm0-2h0Z"/><path class="cls-5" d="M94.94,130a2,2,0,1,1,2-2A2,2,0,0,1,94.94,130Zm0-2h0Z"/><path class="cls-5" d="M102.94,130a2,2,0,1,1,2-2A2,2,0,0,1,102.94,130Zm0-2h0Z"/><path class="cls-5" d="M110.94,130a2,2,0,1,1,2-2A2,2,0,0,1,110.94,130Zm0-2h0Z"/><path class="cls-5" d="M118.94,130a2,2,0,1,1,2-2A2,2,0,0,1,118.94,130Zm0-2h0Z"/><path class="cls-5" d="M126.94,130a2,2,0,1,1,2-2A2,2,0,0,1,126.94,130Zm0-2h0Z"/></g></g><g class="cls-6"><path class="cls-7" d="M79.19,89a46.8,46.8,0,0,0,13-1.9,13.15,13.15,0,0,0,8.9-16.77c-3.54-10.87-.7-19.65-3.17-30.33C94.6,25.73,81.92,15,64.86,15s-30.6,10.26-33.4,24.95c-2,10.62.7,19.27-2.65,29.93a13.24,13.24,0,0,0,8.69,16.75A45.15,45.15,0,0,0,49.75,89Z"/><g class="cls-3"><path class="cls-8" d="M92.17,82.08a46.8,46.8,0,0,1-13,1.9L49.75,84a45.15,45.15,0,0,1-12.26-2.34,13.07,13.07,0,0,1-9.08-10.15,13.19,13.19,0,0,0,9.08,15.12A45.15,45.15,0,0,0,49.75,89l29.44,0a46.8,46.8,0,0,0,13-1.9,13.12,13.12,0,0,0,9.31-15.12A13,13,0,0,1,92.17,82.08Z"/></g><g class="cls-3"><path class="cls-9" d="M99,54.8h.06c0-4.81,0-9.6-1.19-14.85C94.6,25.73,81.92,15,64.86,15s-30.6,10.26-33.4,24.95a71,71,0,0,0-.83,14.21,52.41,52.41,0,0,1,.83-9.23C34.25,30.24,47.8,20,64.86,20s29.74,10.73,33,24.95A48.61,48.61,0,0,1,99,54.8Z"/></g><path class="cls-5" d="M51.59,90h0A59.42,59.42,0,0,1,37.2,87.59a13.88,13.88,0,0,1-8.35-6.86,14.38,14.38,0,0,1-1-11.15c1.84-5.83,1.81-11,1.77-16.45a66.82,66.82,0,0,1,.85-13.37C33.36,24.59,47.5,14,64.86,14c16.78,0,30.45,10.34,34,25.72a61.38,61.38,0,0,1,1.2,14c0,5.39.06,10.49,1.95,16.27a14.35,14.35,0,0,1-1,11.21A13.78,13.78,0,0,1,92.43,88,60.86,60.86,0,0,1,77.33,90a1,1,0,0,1,0-2h0a60,60,0,0,0,14.53-1.87,11.8,11.8,0,0,0,7.33-5.85,12.34,12.34,0,0,0,.88-9.64c-2-6.08-2-11.57-2-16.88a59.71,59.71,0,0,0-1.15-13.54C93.57,25.72,80.69,16,64.86,16c-16.38,0-29.71,9.93-32.42,24.14a65.18,65.18,0,0,0-.82,13c0,5.37.07,10.93-1.86,17.06a12.4,12.4,0,0,0,.86,9.61,11.9,11.9,0,0,0,7.15,5.88A58.17,58.17,0,0,0,51.61,88a1,1,0,0,1,0,2Z"/><path class="cls-10" d="M85.24,93.7l0,0C83.82,97.5,75.81,103,65,103s-18.34-5-20.21-9.25l0-.07a33.58,33.58,0,0,1,4.53-2.25,5.7,5.7,0,0,0,3.28-5.09A6.42,6.42,0,0,0,52,83.9a25.69,25.69,0,0,0,25.84,0,5.71,5.71,0,0,0,2.78,7.53A34.33,34.33,0,0,1,85.24,93.7Z"/><g class="cls-3"><path class="cls-8" d="M65,93.52c4.79,0,9.21-3.29,12.82-5.81a4.8,4.8,0,0,1,0-4.12H52.09a4.84,4.84,0,0,1,.06,4.13C55.77,90.23,60.19,93.52,65,93.52Z"/></g><path class="cls-11" d="M88.26,136H28.36V122.64a33.71,33.71,0,0,1,16.6-29C47.49,98.56,55.29,103,65.18,103,73.54,103,82,99.25,85,93.7a34,34,0,0,1,10.8,10.19,33.38,33.38,0,0,1,5.76,18.75V136Z"/><g class="cls-3"><path class="cls-9" d="M95.81,103.89A34,34,0,0,0,85,93.7C82,99.25,73.54,103,65.18,103c-9.89,0-17.68-4.44-20.21-9.33a33.71,33.71,0,0,0-16.6,29v4a33.71,33.71,0,0,1,16.6-29c2.53,4.89,10.32,9.33,20.21,9.33C73.54,107,82,103.25,85,97.7a34,34,0,0,1,10.8,10.19,33.38,33.38,0,0,1,5.76,18.75v-4A33.38,33.38,0,0,0,95.81,103.89Z"/></g><path class="cls-5" d="M27.92,137a1,1,0,0,1-1-1V122.64A35,35,0,0,1,43.79,92.82a33.61,33.61,0,0,1,4.55-2.31,5.68,5.68,0,0,0,2.16-6.77A1,1,0,1,1,52.37,83a7.68,7.68,0,0,1-3.21,9.3,32.12,32.12,0,0,0-4.34,2.2,33,33,0,0,0-15.9,28.11V136A1,1,0,0,1,27.92,137Z"/><path class="cls-5" d="M101.92,137a1,1,0,0,1-1-1V122.64a32.32,32.32,0,0,0-5.6-18.19,33.2,33.2,0,0,0-10.48-9.9,32.83,32.83,0,0,0-4.4-2.2,7.33,7.33,0,0,1-3.3-9.29A1,1,0,1,1,79,83.8a5.3,5.3,0,0,0,2.25,6.73,34.36,34.36,0,0,1,4.61,2.31A35.21,35.21,0,0,1,97,103.33a34.32,34.32,0,0,1,5.94,19.3V136A1,1,0,0,1,101.92,137Z"/><path class="cls-5" d="M41.92,137a1,1,0,0,1-1-1V123c0-4.72.76-8,2.38-10.29a1,1,0,1,1,1.63,1.15c-1.37,2-2,4.86-2,9.14v13A1,1,0,0,1,41.92,137Z"/><path class="cls-5" d="M87.92,137a1,1,0,0,1-1-1V123c0-4.28-.64-7.19-2-9.14a1,1,0,1,1,1.63-1.15c1.62,2.31,2.38,5.58,2.38,10.29v13A1,1,0,0,1,87.92,137Z"/><path class="cls-5" d="M63.45,104H63.3a1,1,0,0,1-1-1,1,1,0,0,1,1-1,1,1,0,0,1,1,1A1,1,0,0,1,63.45,104Zm3,0a1,1,0,0,1-1-.94,1,1,0,0,1,.92-1.05,1,1,0,0,1,1.11.94A1,1,0,0,1,66.6,104Zm-6.13-.29h-.14l-.1,0a1,1,0,0,1,.3-2,1,1,0,0,1,.89,1.14A1,1,0,0,1,60.36,103.67Zm9.17,0a1,1,0,0,1-.16-2l.12,0a1,1,0,1,1,.29,2l-.15-1,.07,1Zm-12.21-.59a1,1,0,0,1-.24,0l-.1,0a1,1,0,1,1,.5-1.94,1,1,0,0,1,.77,1.23A1,1,0,0,1,57.31,103.06Zm15.25,0a1,1,0,0,1-.26-2l.11,0a1,1,0,1,1,.5,1.94l-.25-1,.17,1A1,1,0,0,1,72.56,103Zm-18.21-.9a1,1,0,0,1-.34-.06l-.11,0a1,1,0,0,1,.73-1.86,1,1,0,0,1,.63,1.3A1,1,0,0,1,54.35,102.13Zm21.16,0a1,1,0,0,1-.36-1.93,1,1,0,0,1,1.34.55A1,1,0,0,1,76,102l-.1,0A1,1,0,0,1,75.51,102.08Zm-24-1.23a1,1,0,0,1-.47-.12l-.07,0a1,1,0,0,1,.89-1.79L52,99a1,1,0,0,1-.47,1.88Zm26.79-.06a1,1,0,0,1-.48-1.88l.1-.05a1,1,0,1,1,.94,1.76l-.47-.88.39.92A1,1,0,0,1,78.33,100.8ZM48.86,99.23a.92.92,0,0,1-.54-.18L48.24,99a1,1,0,0,1,1.17-1.62,1,1,0,0,1,.27,1.42A1,1,0,0,1,48.86,99.23ZM81,99.16a1,1,0,0,1-.61-1.8l.1-.08a1,1,0,0,1,1.16,1.63l-.06,0A1,1,0,0,1,81,99.16ZM46.52,97.26a1,1,0,0,1-.71-.29l.71-.71-.76.66a1,1,0,1,1,1.37-1.46l.09.09a1,1,0,0,1-.71,1.71Zm36.81-.09a1,1,0,0,1-.71-1.7l.08-.08a1,1,0,0,1,1.41,1.41l-.71-.71.64.77A1,1,0,0,1,83.33,97.17ZM44.45,94.88a.92.92,0,0,1-.76-.39l-.07-.09a1,1,0,1,1,1.64-1.14,1,1,0,0,1-.82,1.62Zm40.88-.08a1,1,0,0,1-.81-1.58,1,1,0,0,1,1.41-.28,1,1,0,0,1,.28,1.34l-.07.1A1,1,0,0,1,85.33,94.8Z"/><path class="cls-12" d="M39.92,45c0-28,49.91-28,49.91,0V62A25.14,25.14,0,0,1,77.34,83.67l-5.83,3.44a13.14,13.14,0,0,1-13.32,0l-5.81-3.43A25.13,25.13,0,0,1,39.92,62.06Z"/><g class="cls-3"><path class="cls-8" d="M89.91,57.14A25.16,25.16,0,0,1,77.43,78.79l-5.84,3.44a13.15,13.15,0,0,1-13.33,0l-5.82-3.43A25.16,25.16,0,0,1,40,57.15v4.91A25.16,25.16,0,0,0,52.44,83.7l5.82,3.43a13.15,13.15,0,0,0,13.33,0l5.84-3.44A25.16,25.16,0,0,0,89.91,62Z"/></g><path class="cls-5" d="M64.85,89.92a14.1,14.1,0,0,1-7.17-2l-5.81-3.43A26.26,26.26,0,0,1,38.92,62.06V45h0a19.93,19.93,0,0,1,8.2-16.55A29.72,29.72,0,0,1,64.87,23a29.72,29.72,0,0,1,17.75,5.45A19.93,19.93,0,0,1,90.83,45V62a26.27,26.27,0,0,1-13,22.49L72,88A14.11,14.11,0,0,1,64.85,89.92ZM40.92,45V62.06a24.26,24.26,0,0,0,12,20.76l5.81,3.43a12.12,12.12,0,0,0,12.3,0l5.83-3.44A24.26,24.26,0,0,0,88.83,62V45a18,18,0,0,0-7.4-14.95A27.72,27.72,0,0,0,64.87,25c-11.54,0-24,6.26-24,20Z"/><path class="cls-5" d="M92.92,68a1,1,0,0,1-1-1V65a1,1,0,0,1,2,0v2A1,1,0,0,1,92.92,68Z"/><path class="cls-5" d="M36.92,68a1,1,0,0,1-1-1V65a1,1,0,0,1,2,0v2A1,1,0,0,1,36.92,68Z"/><path class="cls-12" d="M39.92,62.9v-9c0-3-2.22-4-3.6-3-2.19,1.53.6,8,.6,8C35.3,59.95,37.13,63.64,39.92,62.9Z"/><path class="cls-5" d="M39.18,64a4,4,0,0,1-3.55-2.45,2.94,2.94,0,0,1,.12-2.88c-.78-2-2.39-6.92,0-8.59a3,3,0,0,1,3.13-.18,4.27,4.27,0,0,1,2,4v9a1,1,0,0,1-.75,1A3.9,3.9,0,0,1,39.18,64Zm.74-1.1h0ZM37.46,51.55a1,1,0,0,0-.56.18c-.89.62-.22,4.08.95,6.78a1,1,0,0,1-.38,1.24c-.22.14-.17.62,0,1A2.12,2.12,0,0,0,38.92,62V53.9a2.41,2.41,0,0,0-1-2.23A1.06,1.06,0,0,0,37.46,51.55Z"/><path class="cls-5" d="M36.92,59.9a1,1,0,0,1-.54-1.84l.38-.24a1,1,0,1,1,1.08,1.68l-.37.24A1,1,0,0,1,36.92,59.9Z"/><path class="cls-12" d="M89.92,62.9v-9c0-3,2.23-4,3.6-3,2.19,1.53-.6,8-.6,8C94.55,59.95,92.71,63.64,89.92,62.9Z"/><path class="cls-5" d="M90.67,64a3.9,3.9,0,0,1-1-.13,1,1,0,0,1-.75-1v-9a4.27,4.27,0,0,1,2-4,3,3,0,0,1,3.13.18c2.4,1.67.78,6.61,0,8.59a2.94,2.94,0,0,1,.12,2.88A4,4,0,0,1,90.67,64Zm1.72-12.46a1.07,1.07,0,0,0-.5.13,2.41,2.41,0,0,0-1,2.23V62a2.12,2.12,0,0,0,1.46-1.23c.17-.38.22-.86,0-1A1,1,0,0,1,92,58.51c1.17-2.71,1.84-6.16.95-6.78A1,1,0,0,0,92.39,51.55Z"/><path class="cls-5" d="M92.92,59.9a1,1,0,0,1-.54-.16L92,59.5a1,1,0,1,1,1.08-1.68l.38.24a1,1,0,0,1-.54,1.84Z"/><g class="cls-3"><circle class="cls-13" cx="50.42" cy="69.5" r="4.5"/></g><g class="cls-3"><circle class="cls-13" cx="79.42" cy="69.5" r="4.5"/></g><path class="cls-5" d="M64.91,66.52a5.31,5.31,0,0,1-2.54-.91,1,1,0,0,1,1.11-1.67h0a3.56,3.56,0,0,0,1.43.58,3.56,3.56,0,0,0,1.43-.58,1,1,0,0,1,1.11,1.67A5.31,5.31,0,0,1,64.91,66.52Z"/><path class="cls-5" d="M47.21,53a1,1,0,0,1-.76-1.65c3.47-4,7-2.29,9.33-1.14a6.37,6.37,0,0,0,2.14.8,1,1,0,0,1,0,2,7.34,7.34,0,0,1-3-1c-2.3-1.12-4.47-2.19-6.94.66A1,1,0,0,1,47.21,53Z"/><path class="cls-5" d="M71.92,53a1,1,0,0,1-.51-1.86c6.75-4,9.46-2.22,11.85.15a1,1,0,1,1-1.41,1.42c-1.77-1.75-3.45-3.41-9.42.15A1,1,0,0,1,71.92,53Z"/><path class="cls-5" d="M81.92,57h-9a1,1,0,0,1,0-2h9a1,1,0,0,1,0,2Z"/><path class="cls-5" d="M56.92,57h-9a1,1,0,0,1,0-2h9a1,1,0,0,1,0,2Z"/><circle class="cls-5" cx="53.42" cy="58" r="1.5"/><path class="cls-5" d="M53.42,60.5a2.5,2.5,0,1,1,2.5-2.5A2.5,2.5,0,0,1,53.42,60.5Zm0-3a.5.5,0,1,0,.5.5A.5.5,0,0,0,53.42,57.5Z"/><circle class="cls-5" cx="76.42" cy="58" r="1.5"/><path class="cls-5" d="M76.42,60.5a2.5,2.5,0,1,1,2.5-2.5A2.5,2.5,0,0,1,76.42,60.5Zm0-3a.5.5,0,1,0,.5.5A.5.5,0,0,0,76.42,57.5Z"/><path class="cls-5" d="M64.92,75.78c-3.18,0-6.06-1.27-7.34-3.23a1,1,0,0,1,1.68-1.09c.91,1.39,3.18,2.32,5.66,2.32s4.76-.93,5.66-2.32a1,1,0,0,1,1.68,1.09C71,74.51,68.1,75.78,64.92,75.78Z"/><g class="cls-3"><path class="cls-8" d="M39.92,45s21.88,9,41-8c2.88,10.42,9,8.52,9,8.5V41.82s-6.31,2.63-9.2-7.82C61.92,50,40,41,40,41Z"/></g><path class="cls-7" d="M40,40.91s21.63,9.56,40.73-7.48c0,9.8,9.19,8.58,9.19,8.58l2.28-.16C89.76,17.37,42.64,16.74,38,40Z"/><path class="cls-5" d="M54.53,44.53a41.11,41.11,0,0,1-15-2.71l-2-.89a1,1,0,0,1,.81-1.83l2,.89c.21.09,21.28,9.08,39.66-7.31a1,1,0,0,1,1.67.75c0,2.68.74,4.68,2.19,6C86.21,41.44,89.72,41,89.75,41l1.32-.11a1,1,0,0,1,1.08.91,1,1,0,0,1-.91,1.08L90,43c-.13,0-4.37.55-7.4-2.1a8.56,8.56,0,0,1-2.74-5.43A39.31,39.31,0,0,1,54.53,44.53Z"/><path class="cls-5" d="M89.83,46a1,1,0,0,1-1-1,21,21,0,0,0-.19-2.83,1,1,0,0,1,2-.27,23.08,23.08,0,0,1,.2,3.1A1,1,0,0,1,89.83,46Z"/><path class="cls-5" d="M39.92,46a1,1,0,0,1-1-1,22.66,22.66,0,0,1,.36-4,1,1,0,1,1,2,.36A20.74,20.74,0,0,0,40.92,45,1,1,0,0,1,39.92,46Z"/><g class="cls-3"><path class="cls-8" d="M81.92,24.19c-4,3.75-31,3.75-35,0V10.44l9.42,8.75,8.08-8.75L72.5,19.5l9.42-9.06Z"/></g><path class="cls-11" d="M80.92,20.75c-3.81,3.75-29.19,3.75-33,0V7l8.88,9.06L64.42,7,72,16.06,80.92,7Z"/><g class="cls-3"><path class="cls-9" d="M55.54,14.46v8.6c1.58.2,3.3.34,5.08.42V11.06l-3.81,5Z"/></g><path class="cls-5" d="M64.42,24.55c-7.56,0-15.11-1-17.2-3.09a1,1,0,0,1-.3-.71V7a1,1,0,0,1,1.71-.7l8.11,8.28,6.91-8.22a1,1,0,0,1,1.53,0l6.91,8.22L80.21,6.3a1,1,0,0,1,1.71.7V20.75a1,1,0,0,1-.3.71C79.53,23.52,72,24.55,64.42,24.55Zm-15.5-4.26c4.23,3,26.77,3,31,0V9.45l-7.17,7.31a1,1,0,0,1-.75.3,1,1,0,0,1-.73-.36L64.42,8.55l-6.85,8.15a1,1,0,0,1-1.48.06L48.92,9.45Zm32,.46h0Z"/><circle class="cls-11" cx="49.42" cy="4.5" r="2.5"/><path class="cls-5" d="M49.42,8a3.5,3.5,0,1,1,3.5-3.5A3.5,3.5,0,0,1,49.42,8Zm0-5a1.5,1.5,0,1,0,1.5,1.5A1.5,1.5,0,0,0,49.42,3Z"/><circle class="cls-11" cx="64.42" cy="4.5" r="2.5"/><path class="cls-5" d="M64.42,8a3.5,3.5,0,1,1,3.5-3.5A3.5,3.5,0,0,1,64.42,8Zm0-5a1.5,1.5,0,1,0,1.5,1.5A1.5,1.5,0,0,0,64.42,3Z"/><circle class="cls-11" cx="79.42" cy="4.5" r="2.5"/><path class="cls-5" d="M79.42,8a3.5,3.5,0,1,1,3.5-3.5A3.5,3.5,0,0,1,79.42,8Zm0-5a1.5,1.5,0,1,0,1.5,1.5A1.5,1.5,0,0,0,79.42,3Z"/><circle class="cls-14" cx="64.92" cy="110" r="4"/><g class="cls-3"><path class="cls-9" d="M64.92,110a4,4,0,0,1,3.47,2c.11.2.53-1.56.53-2a4,4,0,0,0-8,0c0,.47.42,2.23.53,2A4,4,0,0,1,64.92,110Z"/></g><path class="cls-5" d="M64.92,115a5,5,0,1,1,5-5A5,5,0,0,1,64.92,115Zm0-8a3,3,0,1,0,3,3A3,3,0,0,0,64.92,107Z"/></g></svg>